<svg width="36" height="36" viewBox="0 0 36 36" fill="none" xmlns="http://www.w3.org/2000/svg">
<g clip-path="url(#clip0_311_1316)">
<path d="M36 18C36 27.941 27.941 36 18 36C8.06 36 0 27.941 0 18C0 8.06 8.06 0 18 0C27.941 0 36 8.06 36 18Z" fill="#FFCC4D"/>
<path d="M11.5 20C12.8807 20 14 18.433 14 16.5C14 14.567 12.8807 13 11.5 13C10.1193 13 9 14.567 9 16.5C9 18.433 10.1193 20 11.5 20Z" fill="#664500"/>
<path d="M24.5 20C25.8807 20 27 18.433 27 16.5C27 14.567 25.8807 13 24.5 13C23.1193 13 22 14.567 22 16.5C22 18.433 23.1193 20 24.5 20Z" fill="#664500"/>
<path d="M23.4837 27.879C23.4727 27.835 22.3387 23.5 17.9987 23.5C13.6587 23.5 12.5247 27.835 12.5137 27.879C12.4888 27.9826 12.498 28.0914 12.5398 28.1894C12.5815 28.2873 12.6537 28.3693 12.7457 28.423C12.8387 28.4771 12.9464 28.5005 13.0534 28.4897C13.1605 28.4789 13.2614 28.4346 13.3417 28.363C13.3507 28.355 14.3547 27.5 17.9987 27.5C21.5887 27.5 22.6157 28.33 22.6547 28.363C22.7332 28.4374 22.8338 28.4843 22.9412 28.4967C23.0487 28.5091 23.1573 28.4864 23.2507 28.4318C23.3441 28.3773 23.4173 28.2939 23.4593 28.1942C23.5013 28.0946 23.5099 27.984 23.4837 27.879Z" fill="#664500"/>
</g>
<defs>
<clipPath id="clip0_311_1316">
<rect width="36" height="36" fill="white"/>
</clipPath>
</defs>
</svg>
