<svg width="36" height="36" viewBox="0 0 36 36" fill="none" xmlns="http://www.w3.org/2000/svg">
<g clip-path="url(#clip0_312_1382)">
<path d="M36 18C36 27.941 27.941 36 18 36C8.059 36 0 27.941 0 18C0 8.059 8.059 0 18 0C27.941 0 36 8.059 36 18Z" fill="#FFCC4D"/>
<path d="M28.312 15.6139C28.2259 15.545 28.1196 15.5063 28.0094 15.5038C27.8992 15.5013 27.7912 15.535 27.702 15.5999C27.69 15.6089 26.441 16.5019 24 16.5019C21.56 16.5019 20.31 15.6089 20.3 15.6019C20.2115 15.5354 20.1034 15.5002 19.9927 15.5018C19.882 15.5034 19.775 15.5417 19.6884 15.6107C19.6018 15.6797 19.5405 15.7754 19.5142 15.883C19.4879 15.9905 19.498 16.1037 19.543 16.2049C19.603 16.3399 21.043 19.5019 24 19.5019C26.958 19.5019 28.397 16.3399 28.457 16.2049C28.5016 16.1042 28.5115 15.9916 28.4853 15.8846C28.459 15.7777 28.3981 15.6825 28.312 15.6139ZM15.702 15.5999C15.69 15.6089 14.442 16.5019 12 16.5019C9.559 16.5019 8.31 15.6089 8.3 15.6019C8.21146 15.5354 8.10337 15.5002 7.99268 15.5018C7.88199 15.5034 7.77496 15.5417 7.68838 15.6107C7.60179 15.6797 7.54054 15.7754 7.51423 15.883C7.48792 15.9905 7.49804 16.1037 7.543 16.2049C7.603 16.3399 9.043 19.5019 12 19.5019C14.958 19.5019 16.397 16.3399 16.457 16.2049C16.5012 16.1039 16.5108 15.9913 16.4845 15.8843C16.4581 15.7773 16.3973 15.682 16.3113 15.6131C16.2253 15.5442 16.119 15.5056 16.0089 15.5032C15.8987 15.5008 15.7909 15.5348 15.702 15.5999ZM29.001 13.0019C28.8456 13.0022 28.6922 12.9662 28.5531 12.8967C28.4141 12.8273 28.2931 12.7263 28.2 12.6019C25.608 9.14586 21.239 9.97386 21.196 9.98186C21.0672 10.0079 20.9346 10.0083 20.8056 9.98301C20.6767 9.95769 20.554 9.90716 20.4447 9.83432C20.3353 9.76147 20.2414 9.66775 20.1684 9.55853C20.0953 9.44931 20.0446 9.32675 20.019 9.19786C19.9672 8.93784 20.0206 8.66788 20.1676 8.44722C20.3146 8.22656 20.5431 8.07322 20.803 8.02086C21.034 7.97386 26.46 6.94886 29.799 11.4009C29.9106 11.5493 29.9787 11.7259 29.9956 11.9108C30.0125 12.0958 29.9776 12.2817 29.8947 12.448C29.8119 12.6142 29.6844 12.754 29.5265 12.8519C29.3687 12.9497 29.1867 13.0016 29.001 13.0019ZM6.999 13.0019C6.81337 13.0017 6.63146 12.9498 6.47363 12.8521C6.3158 12.7544 6.18828 12.6147 6.10535 12.4486C6.02242 12.2826 5.98735 12.0967 6.00406 11.9118C6.02078 11.7269 6.08862 11.5504 6.2 11.4019C9.539 6.94786 14.966 7.97586 15.196 8.02186C15.4473 8.0824 15.6655 8.23783 15.8048 8.45561C15.9441 8.67339 15.9938 8.93662 15.9434 9.19018C15.893 9.44374 15.7464 9.66798 15.5344 9.81592C15.3224 9.96386 15.0614 10.024 14.806 9.98386C14.62 9.94886 10.37 9.17586 7.8 12.6019C7.70686 12.7263 7.58594 12.8273 7.44687 12.8967C7.30781 12.9662 7.15444 13.0022 6.999 13.0019ZM23.254 23.5789C23.1608 23.5249 23.053 23.5017 22.9458 23.5125C22.8387 23.5232 22.7376 23.5675 22.657 23.6389C22.647 23.6469 21.644 24.5019 18 24.5019C14.359 24.5019 13.354 23.6479 13.354 23.6479C13.2766 23.5708 13.1761 23.5212 13.0679 23.5067C12.9597 23.4921 12.8497 23.5134 12.7547 23.5672C12.6597 23.6211 12.5849 23.7045 12.5418 23.8049C12.4987 23.9052 12.4896 24.0169 12.516 24.1229C12.526 24.1669 13.66 28.5019 18 28.5019C22.34 28.5019 23.474 24.1669 23.485 24.1229C23.5098 24.0194 23.5007 23.9107 23.4591 23.8128C23.4176 23.7149 23.3457 23.6329 23.254 23.5789Z" fill="#664500"/>
</g>
<defs>
<clipPath id="clip0_312_1382">
<rect width="36" height="36" fill="white"/>
</clipPath>
</defs>
</svg>
