<svg width="36" height="36" viewBox="0 0 36 36" fill="none" xmlns="http://www.w3.org/2000/svg">
<g clip-path="url(#clip0_312_1396)">
<path d="M36 18C36 27.941 27.941 36 18 36C8.06 36 0 27.941 0 18C0 8.06 8.06 0 18 0C27.941 0 36 8.06 36 18Z" fill="#FFCC4D"/>
<path d="M29 28C31.7614 28 34 25.7614 34 23C34 20.2386 31.7614 18 29 18C26.2386 18 24 20.2386 24 23C24 25.7614 26.2386 28 29 28Z" fill="#FF7892"/>
<path d="M7 28C9.76142 28 12 25.7614 12 23C12 20.2386 9.76142 18 7 18C4.23858 18 2 20.2386 2 23C2 25.7614 4.23858 28 7 28Z" fill="#FF7892"/>
<path d="M24.5 22C27.5376 22 30 19.5376 30 16.5C30 13.4624 27.5376 11 24.5 11C21.4624 11 19 13.4624 19 16.5C19 19.5376 21.4624 22 24.5 22Z" fill="#F5F8FA"/>
<path d="M11.5 22C14.5376 22 17 19.5376 17 16.5C17 13.4624 14.5376 11 11.5 11C8.46243 11 6 13.4624 6 16.5C6 19.5376 8.46243 22 11.5 22Z" fill="#F5F8FA"/>
<path d="M11.5 19C12.8807 19 14 17.8807 14 16.5C14 15.1193 12.8807 14 11.5 14C10.1193 14 9 15.1193 9 16.5C9 17.8807 10.1193 19 11.5 19Z" fill="#292F33"/>
<path d="M24.5 19C25.8807 19 27 17.8807 27 16.5C27 15.1193 25.8807 14 24.5 14C23.1193 14 22 15.1193 22 16.5C22 17.8807 23.1193 19 24.5 19Z" fill="#292F33"/>
<path d="M22 30H14C13.7348 30 13.4804 29.8946 13.2929 29.7071C13.1054 29.5196 13 29.2652 13 29C13 28.7348 13.1054 28.4804 13.2929 28.2929C13.4804 28.1054 13.7348 28 14 28H22C22.2652 28 22.5196 28.1054 22.7071 28.2929C22.8946 28.4804 23 28.7348 23 29C23 29.2652 22.8946 29.5196 22.7071 29.7071C22.5196 29.8946 22.2652 30 22 30ZM30.001 11C29.8456 11.0003 29.6922 10.9643 29.5531 10.8949C29.4141 10.8254 29.2931 10.7244 29.2 10.6C26.56 7.079 23.139 7.002 22.994 7C22.7296 6.9971 22.4771 6.88984 22.2915 6.7016C22.1059 6.51335 22.0022 6.25937 22.003 5.995C22.0035 5.73093 22.1088 5.47785 22.2957 5.29131C22.4826 5.10477 22.7359 5 23 5C23.184 5 27.537 5.05 30.8 9.4C30.9114 9.5485 30.9792 9.72507 30.9959 9.90995C31.0127 10.0948 30.9776 10.2807 30.8947 10.4468C30.8117 10.6128 30.6842 10.7526 30.5264 10.8503C30.3685 10.948 30.1866 10.9998 30.001 11ZM5.999 11C5.81337 10.9998 5.63146 10.948 5.47363 10.8503C5.3158 10.7526 5.18828 10.6128 5.10535 10.4468C5.02242 10.2807 4.98735 10.0948 5.00406 9.90995C5.02078 9.72507 5.08862 9.5485 5.2 9.4C8.462 5.05 12.816 5 13 5C13.1313 4.99974 13.2614 5.02534 13.3828 5.07536C13.5043 5.12537 13.6146 5.19881 13.7077 5.29148C13.8007 5.38415 13.8746 5.49425 13.9251 5.61547C13.9756 5.7367 14.0017 5.86668 14.002 5.998C14.0023 6.12932 13.9767 6.25941 13.9266 6.38084C13.8766 6.50226 13.8032 6.61265 13.7105 6.70569C13.6178 6.79874 13.5078 6.87262 13.3865 6.92312C13.2653 6.97361 13.1353 6.99974 13.004 7C12.849 7.002 9.436 7.086 6.8 10.6C6.70686 10.7244 6.58594 10.8254 6.44687 10.8949C6.30781 10.9643 6.15444 11.0003 5.999 11Z" fill="#664500"/>
</g>
<defs>
<clipPath id="clip0_312_1396">
<rect width="36" height="36" fill="white"/>
</clipPath>
</defs>
</svg>
