<svg width="36" height="36" viewBox="0 0 36 36" fill="none" xmlns="http://www.w3.org/2000/svg">
<path d="M35.625 14.338L23.135 0.753C21.4687 0.25504 19.7391 0.00139978 18 0C15.631 0 13.375 0.47 11.303 1.301L1.348 11.176C0.457521 13.3409 -0.000428258 15.6591 3.00512e-07 18C3.00512e-07 27.941 8.06 36 18 36C27.941 36 36 27.941 36 18C36 16.745 35.87 15.52 35.625 14.338Z" fill="#FFCC4D"/>
<path d="M13.0006 28C13.0006 28 14.0006 24 18.0006 24C22.0006 24 23.0006 28 23.0006 28C23.0006 28 22.0006 27 18.0006 27C14.0006 27 13.0006 28 13.0006 28ZM28.9576 17.797C28.8976 17.662 27.4586 14.5 24.5006 14.5C21.5436 14.5 20.1036 17.662 20.0436 17.797C19.9981 17.898 19.9874 18.0113 20.0133 18.1191C20.0392 18.2268 20.1001 18.3229 20.1865 18.3923C20.2729 18.4616 20.3799 18.5003 20.4907 18.5023C20.6015 18.5042 20.7098 18.4693 20.7986 18.403C20.8106 18.393 22.0606 17.5 24.5006 17.5C26.9266 17.5 28.1746 18.381 28.2026 18.401C28.2909 18.4687 28.3994 18.5048 28.5107 18.5036C28.622 18.5024 28.7296 18.464 28.8165 18.3945C28.9034 18.325 28.9645 18.2284 28.9901 18.1201C29.0157 18.0118 29.0042 17.898 28.9576 17.797ZM15.9576 17.797C15.8976 17.662 14.4586 14.5 11.5006 14.5C8.54361 14.5 7.10361 17.662 7.04361 17.797C6.99846 17.8979 6.98802 18.0109 7.01392 18.1184C7.03983 18.2258 7.10061 18.3217 7.18677 18.3909C7.27293 18.4602 7.37961 18.4989 7.49013 18.5011C7.60065 18.5033 7.70878 18.4688 7.79761 18.403C7.81061 18.393 9.05961 17.5 11.5006 17.5C13.9266 17.5 15.1746 18.381 15.2026 18.401C15.2909 18.4687 15.3994 18.5048 15.5107 18.5036C15.622 18.5024 15.7296 18.464 15.8165 18.3945C15.9034 18.325 15.9645 18.2284 15.9901 18.1201C16.0157 18.0118 16.0042 17.898 15.9576 17.797Z" fill="#664500"/>
<path d="M34.9787 12.0689C34.8427 11.6799 34.7077 11.2899 34.5467 10.9139C34.187 10.0896 33.7661 9.2934 33.2877 8.53191C32.6712 7.53819 31.9595 6.6068 31.1627 5.75091C30.8701 5.43634 30.5662 5.13247 30.2517 4.83991L30.1287 4.72791C29.4852 4.13045 28.799 3.58066 28.0757 3.08291C27.6367 2.78591 27.1807 2.51291 26.7147 2.25491C25.5798 1.62597 24.3797 1.12266 23.1357 0.753906L15.7147 2.10491L11.3047 1.30191C10.2247 1.73591 9.19766 2.26991 8.23266 2.89491C7.85966 3.13691 7.50166 3.39591 7.14966 3.66391L7.02966 3.75291C6.03562 4.5162 5.12371 5.38085 4.30866 6.33291C4.26966 6.37791 4.22666 6.41891 4.18866 6.46491C3.88766 6.82491 3.60866 7.20291 3.33666 7.58591C2.79311 8.35203 2.3103 9.1595 1.89266 10.0009C1.70066 10.3869 1.51166 10.7749 1.34766 11.1769L9.79966 9.63891L35.6247 14.3389C35.4598 13.5688 35.244 12.8104 34.9787 12.0689Z" fill="#E6E7E8"/>
<path d="M34.5457 10.9128L18.6707 8.02384L24.5847 6.94784L27.5407 6.40984L31.1617 5.75084C30.8691 5.43628 30.5652 5.13241 30.2507 4.83984L24.5827 5.87184L21.6267 6.40984L15.7127 7.48584L12.7557 8.02384L6.84266 9.09984L1.89266 10.0008C1.70066 10.3868 1.51166 10.7748 1.34766 11.1768L9.79966 9.63884L15.7137 8.56284L34.9787 12.0688C34.8427 11.6788 34.7077 11.2898 34.5457 10.9128Z" fill="#BCBEC0"/>
<path d="M27.5399 6.40891L32.4519 7.30291C32.7469 7.69991 33.0249 8.10891 33.2869 8.53091L24.5849 6.94691L27.5399 6.40891ZM8.23094 2.89491C7.85894 3.13591 7.50094 3.39491 7.14894 3.66291L9.79894 3.17991L8.23094 2.89491ZM26.7139 2.25391L21.6269 3.17991L15.7129 4.25591L12.7569 4.79391L6.84294 5.87091L4.30794 6.33191C4.26894 6.37691 4.22594 6.41791 4.18794 6.46391C3.88694 6.82391 3.60794 7.20191 3.33594 7.58491L6.84094 6.94691L9.79894 6.40891L15.7129 5.33291L18.6689 4.79491L24.5829 3.71891L28.0749 3.08391C27.6349 2.78591 27.1789 2.51291 26.7139 2.25391Z" fill="#D1D3D4"/>
</svg>
