<svg width="36" height="36" viewBox="0 0 36 36" fill="none" xmlns="http://www.w3.org/2000/svg">
<g clip-path="url(#clip0_311_1952)">
<path d="M36 18C36 27.941 27.941 36 18 36C8.06 36 0 27.941 0 18C0 8.06 8.06 0 18 0C27.941 0 36 8.06 36 18Z" fill="#FFCC4D"/>
<path d="M17.3101 17.6112C17.2241 17.542 17.1178 17.5031 17.0075 17.5006C16.8972 17.4981 16.7891 17.532 16.7001 17.5972C16.6881 17.6062 15.4401 18.4992 12.9981 18.4992C10.5571 18.4992 9.3081 17.6062 9.2981 17.5992C9.20955 17.5327 9.10146 17.4976 8.99077 17.4992C8.88009 17.5008 8.77306 17.539 8.68647 17.608C8.59989 17.677 8.53864 17.7727 8.51233 17.8803C8.48602 17.9878 8.49614 18.101 8.5411 18.2022C8.6011 18.3372 10.0411 21.4992 12.9981 21.4992C15.9561 21.4992 17.3951 18.3372 17.4551 18.2022C17.4997 18.1015 17.5096 17.9889 17.4834 17.882C17.4571 17.775 17.3962 17.6798 17.3101 17.6112ZM27.3101 17.6112C27.2242 17.5419 27.1178 17.5029 27.0075 17.5003C26.8971 17.4978 26.7891 17.5319 26.7001 17.5972C26.6881 17.6062 25.4391 18.4992 22.9981 18.4992C20.5581 18.4992 19.3081 17.6062 19.2981 17.5992C19.2096 17.5327 19.1015 17.4976 18.9908 17.4992C18.8801 17.5008 18.7731 17.539 18.6865 17.608C18.5999 17.677 18.5386 17.7727 18.5123 17.8803C18.486 17.9878 18.4961 18.101 18.5411 18.2022C18.6011 18.3372 20.0411 21.4992 22.9981 21.4992C25.9561 21.4992 27.3951 18.3372 27.4551 18.2022C27.4997 18.1015 27.5096 17.9889 27.4834 17.882C27.4571 17.775 27.3962 17.6798 27.3101 17.6112ZM21.9981 27.9992H13.9981C13.7329 27.9992 13.4785 27.8938 13.291 27.7063C13.1035 27.5188 12.9981 27.2644 12.9981 26.9992C12.9981 26.734 13.1035 26.4796 13.291 26.2921C13.4785 26.1045 13.7329 25.9992 13.9981 25.9992H21.9981C22.2633 25.9992 22.5177 26.1045 22.7052 26.2921C22.8927 26.4796 22.9981 26.734 22.9981 26.9992C22.9981 27.2644 22.8927 27.5188 22.7052 27.7063C22.5177 27.8938 22.2633 27.9992 21.9981 27.9992ZM5.9981 13.9992C5.86677 13.9994 5.73669 13.9738 5.61526 13.9238C5.49383 13.8738 5.38345 13.8004 5.2904 13.7077C5.10249 13.5205 4.99663 13.2664 4.9961 13.0012C4.99557 12.736 5.10041 12.4814 5.28757 12.2935C5.47474 12.1056 5.72888 11.9997 5.9941 11.9992C6.1501 11.9972 9.5631 11.9132 12.1991 8.39918C12.3582 8.18701 12.5951 8.04674 12.8577 8.00923C13.1202 7.97172 13.3869 8.04005 13.5991 8.19918C13.8113 8.35831 13.9515 8.59521 13.989 8.85776C14.0266 9.12031 13.9582 9.38701 13.7991 9.59918C10.5361 13.9492 6.1821 13.9992 5.9981 13.9992ZM29.9981 13.9992C29.8141 13.9992 25.4611 13.9492 22.1981 9.59918C22.1149 9.49456 22.0534 9.3743 22.0175 9.24552C21.9815 9.11675 21.9717 8.98207 21.9887 8.84945C22.0057 8.71684 22.0491 8.58897 22.1164 8.47343C22.1837 8.35788 22.2734 8.257 22.3804 8.17674C22.4873 8.09649 22.6093 8.0385 22.739 8.00619C22.8687 7.97389 23.0036 7.96793 23.1357 7.98867C23.2678 8.0094 23.3944 8.05642 23.508 8.12693C23.6216 8.19744 23.7199 8.29002 23.7971 8.39918C26.4381 11.9202 29.8581 11.9982 30.0031 11.9992C30.5531 12.0052 30.9971 12.4552 30.9941 13.0042C30.9938 13.2682 30.8888 13.5212 30.702 13.7078C30.5153 13.8944 30.2621 13.9992 29.9981 13.9992Z" fill="#664500"/>
</g>
<defs>
<clipPath id="clip0_311_1952">
<rect width="36" height="36" fill="white"/>
</clipPath>
</defs>
</svg>
