<svg width="305" height="305" viewBox="0 0 305 305" fill="none" xmlns="http://www.w3.org/2000/svg">
<path d="M242.609 33.9891H184V118.938H242.609V33.9891Z" fill="#E0E0E0"/>
<path d="M239.675 33.9891H181.066V118.938H239.675V33.9891Z" fill="#EBEBEB"/>
<path d="M232.392 43.188H188.35V109.733H232.392V43.188Z" fill="white"/>
<path d="M232.41 109.739C232.41 109.739 232.41 109.623 232.41 109.41C232.41 109.196 232.41 108.879 232.41 108.47C232.41 107.634 232.41 106.408 232.41 104.81C232.41 101.626 232.41 96.9778 232.373 91.1035C232.373 79.3671 232.331 62.7507 232.3 43.1819L232.41 43.31H188.374L188.533 43.1513C188.533 68.2589 188.533 91.4024 188.533 109.702L188.405 109.574L220.46 109.641H229.317H231.641C232.172 109.641 232.447 109.641 232.447 109.641H231.672H229.372L220.539 109.678L188.405 109.745H188.277V109.617C188.277 91.317 188.277 68.1735 188.246 43.0659V42.9073H188.411H232.447H232.593V43.0538C232.593 62.6653 232.538 79.3122 232.52 91.073C232.52 96.929 232.52 101.565 232.483 104.749C232.483 106.323 232.483 107.537 232.483 108.366C232.483 108.769 232.483 109.08 232.483 109.294C232.483 109.507 232.41 109.739 232.41 109.739Z" fill="#E0E0E0"/>
<path d="M239.84 33.9891C239.536 34.5241 239.187 35.0323 238.797 35.508C238.114 36.4169 237.15 37.6552 236.046 38.9972C234.942 40.3392 233.911 41.5226 233.148 42.3644C232.76 42.8401 232.329 43.2792 231.861 43.6759C232.191 43.1593 232.565 42.6716 232.977 42.218L235.802 38.7898L238.62 35.3799C238.988 34.8842 239.396 34.419 239.84 33.9891Z" fill="#E0E0E0"/>
<path d="M232.617 109.526C234.81 113.005 237.386 116.228 240.297 119.133L232.617 109.526Z" fill="white"/>
<path d="M240.297 119.133C239.815 118.769 239.367 118.361 238.961 117.913C236.92 115.832 235.095 113.549 233.514 111.099C233.162 110.607 232.862 110.079 232.617 109.526C233.015 109.978 233.376 110.462 233.697 110.971C234.344 111.88 235.253 113.118 236.314 114.448C237.375 115.778 238.382 116.931 239.126 117.761C239.552 118.187 239.943 118.646 240.297 119.133Z" fill="#E0E0E0"/>
<path d="M181.06 118.871L188.734 109.397L181.06 118.871Z" fill="white"/>
<path d="M188.734 109.397C187.581 111.073 186.341 112.688 185.019 114.235C183.781 115.848 182.46 117.395 181.06 118.871C182.213 117.195 183.453 115.58 184.775 114.033C186.015 112.422 187.336 110.874 188.734 109.397Z" fill="#E0E0E0"/>
<path d="M181.066 33.9891C182.389 35.4047 183.633 36.8912 184.794 38.4421C186.035 39.9304 187.195 41.4841 188.271 43.0964C186.948 41.6809 185.704 40.1943 184.543 38.6434C183.302 37.1552 182.142 35.6015 181.066 33.9891Z" fill="#E0E0E0"/>
<path d="M218.673 56.6995H203.923V98.5699H218.673V56.6995Z" fill="#E0E0E0"/>
<path d="M145.015 204.692L147.254 204.326L153.25 210.352L153.976 214.83C153.976 214.83 157.471 214.482 156.117 208.687C154.763 202.892 155.446 204.313 155.446 204.313C155.446 204.313 162.766 203.093 163.303 202.355C163.675 201.819 162.693 194.48 162.126 190.509C162.021 189.544 161.596 188.642 160.918 187.948C160.24 187.253 159.349 186.806 158.386 186.678C158.117 186.645 157.845 186.645 157.575 186.678C155.745 186.977 146.595 189.985 146.595 189.985L142.728 190.595L145.015 204.692Z" fill="#EBEBEB"/>
<path d="M138.793 206.955L137.695 191.406L141.532 190.784L143.96 205.802L138.793 206.955Z" fill="#EBEBEB"/>
<path d="M175.245 252.973L172.437 250.305L160.475 262.897L163.284 265.564L175.245 252.973Z" fill="#EBEBEB"/>
<path d="M162.895 250.541L160.227 253.35L172.818 265.311L175.486 262.502L162.895 250.541Z" fill="#EBEBEB"/>
<path d="M225.633 170.635C232.432 170.635 237.943 165.124 237.943 158.325C237.943 151.527 232.432 146.016 225.633 146.016C218.835 146.016 213.323 151.527 213.323 158.325C213.323 165.124 218.835 170.635 225.633 170.635Z" fill="#F5F5F5"/>
<path d="M218.844 156.16C220.14 157.007 221.334 158.002 222.4 159.125C222.742 159.478 223.278 158.935 222.943 158.582C221.825 157.418 220.578 156.385 219.228 155.501C218.819 155.233 218.435 155.892 218.844 156.16Z" fill="#E0E0E0"/>
<path d="M220.82 157.642L220.454 159.905C220.428 160.002 220.44 160.106 220.489 160.194C220.538 160.282 220.62 160.347 220.716 160.375C220.814 160.401 220.918 160.388 221.006 160.337C221.094 160.287 221.159 160.204 221.186 160.107L221.552 157.844C221.579 157.746 221.566 157.643 221.516 157.555C221.466 157.468 221.384 157.404 221.287 157.377C221.19 157.35 221.086 157.363 220.998 157.413C220.911 157.463 220.847 157.545 220.82 157.642Z" fill="#E0E0E0"/>
<path d="M231.099 156.922C229.658 157.646 228.306 158.533 227.066 159.564C226.995 159.635 226.955 159.732 226.955 159.832C226.955 159.933 226.995 160.029 227.066 160.101C227.138 160.172 227.234 160.212 227.335 160.212C227.436 160.212 227.532 160.172 227.603 160.101C228.797 159.117 230.098 158.271 231.483 157.581C231.922 157.362 231.538 156.703 231.099 156.922Z" fill="#E0E0E0"/>
<path d="M228.811 158.929L229.177 161.199C229.19 161.247 229.213 161.292 229.244 161.331C229.275 161.371 229.314 161.403 229.357 161.428C229.401 161.452 229.449 161.468 229.499 161.473C229.548 161.479 229.599 161.475 229.647 161.461C229.743 161.431 229.824 161.366 229.874 161.279C229.923 161.192 229.938 161.089 229.915 160.991C229.787 160.235 229.665 159.484 229.543 158.728C229.53 158.679 229.508 158.634 229.477 158.594C229.447 158.554 229.409 158.52 229.365 158.495C229.321 158.47 229.273 158.454 229.223 158.448C229.173 158.442 229.122 158.446 229.073 158.46C228.977 158.488 228.895 158.553 228.846 158.641C228.797 158.729 228.785 158.832 228.811 158.929Z" fill="#E0E0E0"/>
<path d="M221.503 164.303C221.85 163.822 222.315 163.439 222.853 163.19C223.392 162.941 223.985 162.836 224.577 162.885C225.168 162.933 225.736 163.134 226.227 163.467C226.718 163.8 227.114 164.254 227.378 164.785C227.603 165.218 228.262 164.834 228.036 164.401C227.705 163.755 227.213 163.206 226.606 162.807C226 162.408 225.301 162.173 224.577 162.124C223.853 162.076 223.128 162.215 222.474 162.53C221.82 162.845 221.259 163.323 220.844 163.919C220.558 164.316 221.217 164.694 221.503 164.303Z" fill="#E0E0E0"/>
<path d="M278.276 217.044L280.881 215.092C280.971 215.021 281.039 214.927 281.078 214.819C281.117 214.711 281.125 214.594 281.1 214.482L280.411 211.67C280.374 211.713 280.332 211.755 280.301 211.798C279.967 210.922 279.362 210.175 278.574 209.666C277.787 209.157 276.857 208.913 275.921 208.968C274.992 209.07 274.1 209.386 273.314 209.891C272.527 210.395 271.869 211.075 271.389 211.877C271.259 212.086 271.151 212.306 271.066 212.536C270.482 214.11 270.482 215.842 271.066 217.416C271.706 218.845 272.679 220.1 273.902 221.076C275.275 222.235 276.952 223.602 277.837 224.328C277.91 224.386 277.996 224.426 278.088 224.446C278.179 224.465 278.274 224.464 278.365 224.441C278.456 224.418 278.54 224.374 278.612 224.313C278.683 224.252 278.739 224.176 278.776 224.09L280.088 220.973C280.13 220.873 280.146 220.765 280.133 220.658C280.121 220.55 280.079 220.449 280.014 220.363L278.184 217.923C278.131 217.86 278.091 217.787 278.066 217.708C278.042 217.629 278.033 217.546 278.042 217.464C278.051 217.382 278.076 217.302 278.116 217.23C278.156 217.158 278.211 217.095 278.276 217.044Z" fill="#EBEBEB"/>
<path d="M289.787 214.531C289.588 213.609 289.177 212.746 288.586 212.011C287.996 211.276 287.241 210.689 286.383 210.297C285.507 209.95 284.542 209.893 283.632 210.136C282.721 210.379 281.913 210.908 281.326 211.646L282.21 214.659C282.241 214.761 282.239 214.869 282.205 214.97C282.171 215.07 282.107 215.158 282.021 215.22L279.185 217.294C279.108 217.358 279.058 217.45 279.046 217.549C279.033 217.649 279.059 217.75 279.118 217.831L281.112 220.436C281.164 220.504 281.196 220.584 281.206 220.669C281.216 220.754 281.202 220.84 281.167 220.918L279.38 224.815C279.38 224.815 282.101 223.394 284.492 222.43C285.959 221.884 287.275 220.995 288.329 219.838C289.392 218.512 289.934 216.844 289.854 215.147C289.852 214.94 289.829 214.733 289.787 214.531Z" fill="#EBEBEB"/>
<path d="M118.066 23.5704H34.3491V173.96H118.066V23.5704Z" fill="#EBEBEB"/>
<path d="M113.863 27.9319H37.698V169.482H113.863V27.9319Z" fill="#FAFAFA"/>
<path d="M121.61 175.314L118.065 173.96V21.0206H121.61V175.314Z" fill="#E0E0E0"/>
<path d="M115.516 68.6494H37.698V70.1561H115.516V68.6494Z" fill="#E0E0E0"/>
<path d="M115.516 102.358H37.698V103.865H115.516V102.358Z" fill="#E0E0E0"/>
<path d="M115.516 136.067H37.698V137.573H115.516V136.067Z" fill="#E0E0E0"/>
<path d="M73.8528 69.3997V173.49H77.7019V69.3997H73.8528Z" fill="#E0E0E0"/>
<path d="M54.1069 27.9319H52.3623V69.4058H54.1069V27.9319Z" fill="#E0E0E0"/>
<path d="M69.1435 27.9319H67.3989V69.4058H69.1435V27.9319Z" fill="#E0E0E0"/>
<path d="M84.1801 27.9319H82.4355V69.4058H84.1801V27.9319Z" fill="#E0E0E0"/>
<path d="M99.2104 27.9319H97.4658V69.4058H99.2104V27.9319Z" fill="#E0E0E0"/>
<path d="M34.349 21.0206H30.811V174.893H34.349V21.0206Z" fill="#E0E0E0"/>
<path d="M121.61 19.4651H30.811V23.5704H121.61V19.4651Z" fill="#E0E0E0"/>
<path d="M124.007 175.82H28.2979V179.645H124.007V175.82Z" fill="#E0E0E0"/>
<path d="M118.065 173.96L124.007 175.82H28.2979L34.3491 173.96H118.065Z" fill="#E0E0E0"/>
<path d="M52.8566 195.041H26.8096V201.934H52.8566V195.041Z" fill="#EBEBEB"/>
<path d="M41.846 209.193C41.8418 209.151 41.8418 209.108 41.846 209.065C41.846 208.974 41.846 208.858 41.846 208.712C41.846 208.39 41.846 207.939 41.846 207.357C41.846 206.168 41.8155 204.46 41.7972 202.3L41.8826 202.38L15.8356 202.435L15.9698 202.3V204.051C15.9698 204.661 15.9698 205.216 15.9698 205.79V209.181L15.8417 209.047L34.404 209.108L39.894 209.145H41.3763H41.7606H41.9009H41.4068H39.955L34.5016 209.181L15.8539 209.242H15.7258V209.114C15.7258 208.004 15.7258 206.875 15.7258 205.723V202.233L15.86 202.099L41.907 202.154H41.9863V202.233C41.9863 204.411 41.9497 206.137 41.9375 207.339C41.9375 207.906 41.9375 208.358 41.9375 208.675C41.9375 208.815 41.9375 208.925 41.9375 209.017C41.9375 209.108 41.846 209.193 41.846 209.193Z" fill="#E0E0E0"/>
<path d="M288.323 41.5288H262.276V48.4218H288.323V41.5288Z" fill="#EBEBEB"/>
<path d="M277.312 55.6747C277.307 55.6342 277.307 55.5932 277.312 55.5527C277.312 55.4612 277.312 55.3453 277.312 55.1989C277.312 54.8756 277.312 54.4242 277.312 53.8386C277.312 52.6186 277.312 50.9411 277.263 48.7878L277.349 48.8671L251.302 48.9159L251.436 48.7878V52.277C251.436 53.4238 251.436 54.5584 251.436 55.6625L251.308 55.5344L269.87 55.5954L275.36 55.632H276.842H277.227H277.367C277.326 55.6371 277.285 55.6371 277.245 55.632H276.873H275.421L269.968 55.6686L251.32 55.7296H251.192V55.5954C251.192 54.4913 251.192 53.3567 251.192 52.2099V48.8L251.326 48.6658L277.373 48.7146H277.452V48.8C277.452 50.9777 277.416 52.704 277.41 53.8996C277.41 54.473 277.41 54.9183 277.41 55.2416C277.41 55.3819 277.41 55.4917 277.41 55.5771C277.381 55.6135 277.348 55.6462 277.312 55.6747Z" fill="#E0E0E0"/>
<path d="M166.201 152.5H140.154V159.393H166.201V152.5Z" fill="#EBEBEB"/>
<path d="M274.043 135.975C274.038 135.932 274.038 135.89 274.043 135.847C274.043 135.755 274.043 135.64 274.043 135.493C274.043 135.168 274.043 134.716 274.043 134.139C274.043 132.919 274.012 131.241 273.994 129.082L274.079 129.161L248.032 129.216L248.166 129.082V130.833C248.166 131.443 248.166 131.998 248.166 132.571V135.963L248.038 135.829L266.601 135.89L272.091 135.926H273.573H273.89H274.03H273.536H272.084L266.631 135.963L247.983 136.024H247.855V135.896C247.855 134.786 247.855 133.657 247.855 132.504V129.015L247.989 128.881L274.036 128.936H274.116V129.015C274.116 131.193 274.079 132.919 274.067 134.121C274.067 134.694 274.067 135.139 274.067 135.457C274.067 135.597 274.067 135.707 274.067 135.798C274.067 135.89 274.043 135.975 274.043 135.975Z" fill="#E0E0E0"/>
<path d="M277.55 129.082C277.548 129.039 277.548 128.997 277.55 128.954C277.55 128.85 277.55 128.734 277.55 128.588C277.55 128.246 277.55 127.789 277.55 127.203C277.55 125.983 277.55 124.294 277.501 122.195L277.593 122.287L261.946 122.323C261.83 122.445 262.111 122.165 262.08 122.195V125.727C262.08 126.88 262.08 128.002 262.08 129.07L261.952 128.942L273.146 129.003L276.409 129.039H277.288C277.391 129.03 277.495 129.03 277.599 129.039C277.505 129.048 277.412 129.048 277.318 129.039H276.464L273.231 129.076L261.952 129.137H261.824V125.666C261.824 125.093 261.824 124.507 261.824 123.915V122.134L261.958 122L277.605 122.037H277.703V122.134C277.703 124.257 277.666 125.977 277.654 127.203C277.654 127.777 277.654 128.228 277.654 128.564C277.639 128.74 277.604 128.914 277.55 129.082Z" fill="#E0E0E0"/>
<path d="M228.427 235.247C228.424 235.204 228.424 235.161 228.427 235.118C228.427 235.027 228.427 234.911 228.427 234.765C228.427 234.439 228.427 233.988 228.427 233.41C228.427 232.221 228.427 230.513 228.384 228.354L228.463 228.439L202.423 228.488C202.477 228.427 202.288 228.622 202.551 228.354V235.234L202.416 235.106L220.979 235.161L226.469 235.198H227.951H228.341H227.969H226.518L221.07 235.24L202.416 235.295H202.288V228.366C202.551 228.103 202.362 228.293 202.423 228.238L228.463 228.286H228.549V228.366C228.549 230.543 228.518 232.27 228.506 233.471C228.506 234.045 228.506 234.49 228.506 234.807C228.506 234.948 228.506 235.064 228.506 235.149C228.506 235.234 228.433 235.247 228.427 235.247Z" fill="#E0E0E0"/>
<path d="M231.959 228.353C231.959 228.353 231.959 228.311 231.959 228.225C231.959 228.14 231.959 228.006 231.959 227.859C231.959 227.518 231.959 227.06 231.959 226.481C231.959 225.261 231.928 223.565 231.904 221.467L232.001 221.564L216.355 221.601C216.233 221.717 216.514 221.436 216.483 221.467V225.005C216.483 226.157 216.483 227.274 216.483 228.341L216.361 228.219L227.555 228.28L230.812 228.311H231.696H232.008C231.914 228.319 231.82 228.319 231.727 228.311H230.873H227.64L216.361 228.372H216.233V228.244C216.233 227.176 216.233 226.06 216.233 224.907V221.369L216.367 221.235L232.014 221.271H232.111V221.369C232.111 223.492 232.069 225.218 232.056 226.438C232.056 227.011 232.056 227.463 232.056 227.798C232.037 227.985 232.004 228.171 231.959 228.353Z" fill="#E0E0E0"/>
<path d="M170.709 73.7124C170.704 73.6698 170.704 73.6269 170.709 73.5843C170.709 73.4928 170.709 73.3769 170.709 73.2305C170.709 72.9052 170.709 72.4538 170.709 71.8763C170.709 70.6563 170.678 68.9788 170.66 66.8194L170.745 66.8987L144.698 66.9536L144.832 66.8194V70.3086C144.832 71.4615 144.832 72.59 144.832 73.7002L144.704 73.566L163.267 73.627L168.757 73.6636H170.239H170.623H170.763H170.19H168.738L163.285 73.7002L144.637 73.7612H144.509V73.6331C144.509 72.5229 144.509 71.3944 144.509 70.2415V66.7523C144.777 66.49 144.582 66.6791 144.643 66.6181L170.69 66.673H170.8V66.7523C170.8 68.93 170.763 70.6563 170.757 71.858C170.757 72.4253 170.757 72.8767 170.757 73.1939V73.5355C170.709 73.6758 170.709 73.7124 170.709 73.7124Z" fill="#E0E0E0"/>
<path d="M240.175 248.587L201.416 251.509L182.878 237.845L174.74 244.97C174.74 244.97 191.095 264.832 200.464 266.454C207.674 267.705 246.117 265.875 246.117 265.875L240.175 248.587Z" fill="#FFBE9D"/>
<path d="M182.225 234.081C181.697 232.768 180.939 231.56 179.987 230.513C178.602 229.183 170.391 225.072 164.663 223.614C158.935 222.156 157.984 221.973 157.685 223.614C157.386 225.255 159.826 225.846 162.864 226.877C164.39 227.364 165.88 227.957 167.323 228.652C167.323 228.652 164.468 230.165 165.798 232.959C165.798 232.959 163.504 236.528 166.512 238.236C166.512 238.236 164.95 239.639 167.463 241.664C167.463 241.664 172.691 244.232 175.393 245.684C175.735 245.867 183.323 239.053 183.83 238.571L182.225 234.081Z" fill="#FFBE9D"/>
<path d="M179.035 238.687C178.304 238.704 177.588 238.479 176.998 238.046C176.354 237.549 175.891 236.855 175.68 236.07C175.557 235.588 175.493 235.092 175.491 234.594C175.515 234.05 175.616 233.512 175.79 232.996L175.887 232.703H175.576C173.83 232.795 172.079 232.635 170.379 232.227C169.554 232.035 168.801 231.612 168.207 231.007C168.1 230.862 168.026 230.695 167.989 230.518C167.952 230.341 167.954 230.158 167.994 229.982C168.096 229.643 168.326 229.357 168.634 229.183C169.288 228.856 169.984 228.622 170.702 228.488C171.335 228.341 171.977 228.241 172.624 228.189C173.913 228.114 175.207 228.147 176.491 228.286C176.169 228.14 175.825 228.048 175.473 228.012C174.524 227.848 173.56 227.793 172.599 227.847C171.933 227.879 171.27 227.963 170.617 228.097C169.847 228.221 169.1 228.462 168.403 228.811C168.197 228.923 168.016 229.074 167.87 229.257C167.723 229.439 167.614 229.648 167.549 229.872C167.491 230.112 167.485 230.362 167.533 230.604C167.58 230.846 167.679 231.075 167.823 231.275C168.113 231.66 168.495 231.966 168.933 232.166C169.351 232.379 169.788 232.553 170.239 232.685C171.985 233.113 173.788 233.267 175.582 233.142L175.375 232.855C175.19 233.415 175.092 233.999 175.082 234.588C175.097 235.12 175.177 235.649 175.32 236.162C175.576 237.015 176.114 237.757 176.845 238.266C177.314 238.595 177.87 238.778 178.443 238.791C178.646 238.808 178.85 238.773 179.035 238.687Z" fill="#EB996E"/>
<path d="M175.235 234.203C175.235 234.203 175.198 234.38 175.198 234.685C175.223 235.09 175.123 235.492 174.911 235.838C174.847 235.943 174.758 236.03 174.651 236.091C174.545 236.152 174.424 236.184 174.301 236.186C173.976 236.16 173.653 236.105 173.338 236.021C172.578 235.856 171.826 235.652 171.087 235.411C167.921 234.386 165.682 232.788 165.597 232.916C165.996 233.367 166.474 233.743 167.006 234.027C168.233 234.795 169.551 235.409 170.928 235.857C171.687 236.11 172.461 236.314 173.246 236.467C173.599 236.544 173.959 236.585 174.32 236.589C174.499 236.574 174.672 236.515 174.823 236.417C174.974 236.319 175.099 236.185 175.186 236.027C175.408 235.613 175.475 235.133 175.375 234.673C175.326 234.356 175.265 234.197 175.235 234.203Z" fill="#EB996E"/>
<path d="M173.24 236.4C173.24 236.436 173.374 236.497 173.563 236.68C173.818 236.947 173.972 237.294 173.996 237.662C174.005 237.927 173.949 238.19 173.833 238.428C173.717 238.666 173.545 238.872 173.332 239.029C172.797 239.44 172.124 239.63 171.453 239.559C168.403 239.315 166.274 237.851 166.213 237.998C166.596 238.402 167.059 238.722 167.573 238.937C168.773 239.555 170.083 239.931 171.428 240.041C172.218 240.114 173.005 239.873 173.618 239.37C173.877 239.163 174.079 238.894 174.205 238.588C174.331 238.282 174.376 237.948 174.338 237.62C174.308 237.403 174.234 237.195 174.121 237.008C174.008 236.822 173.857 236.66 173.679 236.534C173.429 236.375 173.24 236.375 173.24 236.4Z" fill="#EB996E"/>
<path d="M172.703 239.59C172.648 239.663 173.21 239.925 173.783 240.566C173.941 240.746 174.057 240.96 174.123 241.191C174.188 241.422 174.201 241.665 174.161 241.902C174.123 242.161 173.99 242.398 173.789 242.567C173.546 242.727 173.256 242.802 172.966 242.78C170.214 242.676 168.049 241.877 168.006 242.018C167.964 242.158 170.068 243.152 172.966 243.238C173.362 243.261 173.754 243.146 174.076 242.914C174.368 242.67 174.556 242.323 174.6 241.944C174.64 241.647 174.61 241.344 174.513 241.061C174.415 240.777 174.253 240.52 174.039 240.31C173.68 239.936 173.213 239.684 172.703 239.59Z" fill="#EB996E"/>
<path d="M200.513 256.597C200.635 256.627 201.013 255.474 201.221 254.004C201.428 252.534 201.391 251.32 201.263 251.314C201.135 251.308 200.952 252.485 200.745 253.937C200.537 255.389 200.379 256.572 200.513 256.597Z" fill="#EB996E"/>
<path d="M265.252 234.325L246.227 224.035L227.213 205.277L219.075 212.408C219.075 212.408 234.484 230.306 242.06 236.07C247.282 240.029 271.194 251.637 271.194 251.637L265.252 234.325Z" fill="#FFBE9D"/>
<path d="M226.56 201.52C226.033 200.206 225.277 198.995 224.328 197.945C222.943 196.615 214.726 192.504 209.004 191.046C203.283 189.588 202.325 189.411 202.02 191.046C201.715 192.681 204.167 193.272 207.205 194.303C208.729 194.791 210.217 195.384 211.658 196.078C211.658 196.078 208.803 197.591 210.139 200.391C210.139 200.391 207.839 203.954 210.853 205.668C210.853 205.668 209.291 207.065 211.804 209.09C211.804 209.09 217.032 211.658 219.734 213.11C220.082 213.293 227.664 206.485 228.171 206.003L226.56 201.52Z" fill="#FFBE9D"/>
<path d="M223.37 206.125C222.641 206.142 221.926 205.916 221.338 205.485C220.693 204.986 220.228 204.29 220.015 203.502C219.898 203.021 219.834 202.528 219.826 202.032C219.855 201.486 219.958 200.946 220.131 200.428L220.228 200.135H219.917C218.169 200.23 216.416 200.07 214.714 199.659C213.889 199.47 213.137 199.046 212.548 198.439C212.442 198.295 212.367 198.129 212.329 197.953C212.291 197.778 212.291 197.596 212.329 197.42C212.432 197.082 212.661 196.796 212.969 196.621C213.621 196.289 214.318 196.053 215.037 195.92C215.671 195.78 216.312 195.68 216.959 195.621C218.25 195.55 219.546 195.583 220.832 195.719C220.507 195.582 220.164 195.491 219.813 195.45C218.864 195.281 217.897 195.223 216.934 195.279C216.271 195.318 215.61 195.401 214.958 195.529C214.186 195.653 213.437 195.894 212.737 196.243C212.324 196.471 212.017 196.852 211.883 197.305C211.826 197.545 211.821 197.796 211.868 198.039C211.915 198.282 212.014 198.512 212.158 198.714C212.452 199.096 212.835 199.399 213.274 199.598C213.692 199.813 214.129 199.988 214.58 200.123C216.327 200.548 218.129 200.703 219.923 200.58L219.71 200.287C219.531 200.848 219.433 201.432 219.417 202.02C219.434 202.554 219.516 203.085 219.661 203.6C219.913 204.452 220.449 205.192 221.18 205.698C221.649 206.028 222.205 206.212 222.778 206.229C222.981 206.248 223.185 206.212 223.37 206.125Z" fill="#EB996E"/>
<path d="M219.6 201.636C219.563 201.636 219.563 201.812 219.563 202.117C219.588 202.522 219.488 202.925 219.277 203.27C219.212 203.374 219.122 203.461 219.016 203.521C218.909 203.582 218.789 203.615 218.667 203.618C218.341 203.595 218.019 203.542 217.703 203.459C216.94 203.296 216.187 203.093 215.446 202.849C212.28 201.825 210.047 200.233 209.956 200.355C210.356 200.806 210.833 201.182 211.365 201.465C212.593 202.233 213.91 202.848 215.287 203.295C216.043 203.551 216.815 203.755 217.599 203.905C217.953 203.986 218.315 204.027 218.679 204.027C218.858 204.012 219.03 203.954 219.181 203.857C219.332 203.76 219.457 203.628 219.545 203.472C219.768 203.055 219.833 202.572 219.728 202.111C219.667 201.794 219.6 201.629 219.6 201.636Z" fill="#EB996E"/>
<path d="M217.587 203.832C217.587 203.868 217.721 203.935 217.91 204.118C218.169 204.38 218.325 204.727 218.35 205.094C218.359 205.359 218.304 205.622 218.188 205.86C218.072 206.099 217.899 206.305 217.685 206.461C217.149 206.871 216.478 207.063 215.806 206.997C212.756 206.747 210.621 205.283 210.566 205.43C210.944 205.842 211.408 206.164 211.926 206.375C213.127 206.992 214.437 207.367 215.781 207.479C216.572 207.553 217.36 207.309 217.971 206.802C218.23 206.597 218.431 206.329 218.556 206.023C218.681 205.718 218.725 205.385 218.685 205.058C218.656 204.842 218.583 204.634 218.47 204.448C218.358 204.261 218.209 204.099 218.032 203.972C217.77 203.807 217.593 203.807 217.587 203.832Z" fill="#EB996E"/>
<path d="M217.044 207.022C216.989 207.101 217.544 207.357 218.124 207.998C218.281 208.18 218.396 208.395 218.46 208.627C218.525 208.859 218.537 209.103 218.496 209.34C218.461 209.599 218.328 209.835 218.124 209.999C217.882 210.163 217.592 210.241 217.3 210.218C214.549 210.115 212.384 209.309 212.341 209.45C212.298 209.59 214.409 210.59 217.3 210.7C217.698 210.72 218.091 210.606 218.417 210.377C218.706 210.131 218.892 209.784 218.935 209.407C218.977 209.11 218.948 208.806 218.85 208.522C218.753 208.238 218.589 207.981 218.374 207.772C218.02 207.389 217.555 207.127 217.044 207.022Z" fill="#EB996E"/>
<path d="M245.299 229.153C245.427 229.153 245.799 228.03 246.007 226.56C246.214 225.09 246.184 223.876 246.049 223.87C245.915 223.864 245.738 225.041 245.531 226.493C245.324 227.945 245.171 229.128 245.299 229.153Z" fill="#EB996E"/>
<path d="M252.833 237.07L218.38 230.33L197.079 211.731L188.941 218.862C188.941 218.862 205.747 243.036 215.117 244.659C222.333 245.909 248.703 252.095 248.703 252.095L252.833 237.07Z" fill="#EB996E"/>
<path d="M196.42 207.967C195.892 206.654 195.134 205.446 194.181 204.399C192.797 203.069 184.586 198.958 178.858 197.5C173.13 196.042 172.185 195.859 171.88 197.5C171.575 199.141 174.021 199.732 177.065 200.763C178.589 201.25 180.077 201.844 181.518 202.538C181.518 202.538 178.663 204.051 179.993 206.845C179.993 206.845 177.699 210.413 180.706 212.121C180.706 212.121 179.145 213.524 181.658 215.55C181.658 215.55 186.886 218.118 189.588 219.57C189.93 219.753 197.518 212.945 198.024 212.457L196.42 207.967Z" fill="#EB996E"/>
<path d="M193.236 212.579C192.504 212.595 191.787 212.368 191.198 211.932C190.555 211.435 190.092 210.741 189.881 209.956C189.758 209.474 189.694 208.978 189.692 208.48C189.716 207.936 189.816 207.398 189.991 206.882L190.088 206.589H189.777C188.031 206.684 186.28 206.524 184.58 206.113C183.755 205.921 183.001 205.498 182.408 204.893C182.3 204.749 182.224 204.584 182.188 204.408C182.151 204.231 182.153 204.049 182.195 203.874C182.244 203.706 182.326 203.548 182.436 203.411C182.545 203.274 182.681 203.16 182.835 203.075C183.487 202.743 184.184 202.507 184.903 202.374C185.536 202.23 186.178 202.131 186.825 202.075C188.114 202 189.408 202.033 190.692 202.172C190.37 202.026 190.026 201.934 189.673 201.898C188.725 201.734 187.761 201.679 186.8 201.733C186.134 201.768 185.472 201.852 184.818 201.983C184.048 202.107 183.301 202.348 182.604 202.697C182.206 202.926 181.911 203.3 181.78 203.74C181.722 203.98 181.717 204.229 181.764 204.472C181.811 204.714 181.911 204.943 182.055 205.143C182.345 205.528 182.726 205.834 183.165 206.034C183.583 206.247 184.02 206.42 184.47 206.552C186.217 206.979 188.019 207.136 189.814 207.016L189.606 206.723C189.425 207.283 189.326 207.867 189.314 208.455C189.329 208.99 189.409 209.52 189.551 210.035C189.809 210.886 190.347 211.626 191.076 212.134C191.544 212.466 192.101 212.649 192.675 212.658C192.865 212.676 193.058 212.649 193.236 212.579Z" fill="#FFBE9D"/>
<path d="M189.435 208.089C189.405 208.089 189.399 208.266 189.399 208.571C189.423 208.976 189.323 209.378 189.112 209.724C189.048 209.829 188.959 209.916 188.852 209.977C188.745 210.037 188.625 210.07 188.502 210.072C188.177 210.045 187.855 209.992 187.538 209.913C186.837 209.755 186.074 209.553 185.287 209.303C182.121 208.278 179.883 206.686 179.797 206.808C180.199 207.258 180.676 207.633 181.206 207.919C182.434 208.687 183.751 209.301 185.129 209.749C185.887 210.002 186.662 210.206 187.447 210.359C187.799 210.439 188.159 210.48 188.52 210.481C188.7 210.467 188.874 210.408 189.025 210.31C189.176 210.212 189.301 210.078 189.387 209.919C189.608 209.505 189.675 209.025 189.576 208.565C189.533 208.248 189.472 208.083 189.435 208.089Z" fill="#FFBE9D"/>
<path d="M187.453 210.285C187.453 210.322 187.587 210.383 187.776 210.566C188.033 210.832 188.186 211.18 188.209 211.548C188.219 211.813 188.163 212.076 188.047 212.314C187.931 212.552 187.758 212.758 187.544 212.914C187.01 213.326 186.337 213.516 185.666 213.445C182.616 213.201 180.487 211.737 180.426 211.884C180.807 212.291 181.271 212.611 181.786 212.823C182.988 213.442 184.3 213.817 185.647 213.927C186.435 213.999 187.22 213.758 187.831 213.256C188.09 213.049 188.292 212.78 188.417 212.474C188.543 212.168 188.589 211.834 188.551 211.505C188.515 211.294 188.437 211.091 188.322 210.91C188.206 210.729 188.056 210.573 187.88 210.45C187.63 210.261 187.459 210.261 187.453 210.285Z" fill="#FFBE9D"/>
<path d="M186.904 213.5C186.849 213.579 187.41 213.836 187.99 214.476C188.146 214.658 188.26 214.872 188.324 215.103C188.388 215.333 188.401 215.576 188.362 215.812C188.326 216.073 188.193 216.31 187.99 216.477C187.747 216.637 187.457 216.713 187.166 216.69C184.415 216.593 182.25 215.788 182.207 215.928C182.164 216.068 184.269 217.062 187.166 217.148C187.562 217.171 187.955 217.057 188.276 216.825C188.568 216.582 188.755 216.237 188.801 215.861C188.841 215.562 188.811 215.259 188.714 214.974C188.617 214.689 188.454 214.431 188.24 214.22C187.882 213.844 187.414 213.592 186.904 213.5Z" fill="#FFBE9D"/>
<path d="M282.808 232.014H229.525C228.586 232.014 227.673 232.321 226.923 232.886C226.174 233.452 225.629 234.246 225.37 235.149L212.951 278.703H191.9C191.2 278.705 190.511 278.879 189.894 279.21C189.277 279.541 188.751 280.018 188.362 280.6L187.465 281.954H266.399C267.667 281.955 268.901 281.545 269.917 280.785C270.932 280.025 271.673 278.956 272.029 277.739L284.693 234.527C284.778 234.234 284.794 233.926 284.739 233.626C284.685 233.326 284.561 233.043 284.378 232.799C284.196 232.555 283.958 232.357 283.686 232.221C283.413 232.085 283.113 232.014 282.808 232.014Z" fill="#455A64"/>
<path d="M230.232 232.014C230.318 232.014 227.182 243.238 223.193 257.024C219.203 270.81 215.928 281.973 215.842 281.948C215.757 281.924 218.892 270.73 222.888 256.938C226.883 243.146 230.147 231.989 230.232 232.014Z" fill="#263238"/>
<path d="M254.474 260.025C253.107 261.916 250.704 262.514 249.112 261.355C247.52 260.196 247.331 257.731 248.703 255.865C250.076 253.998 252.473 253.376 254.071 254.535C255.669 255.694 255.846 258.134 254.474 260.025Z" fill="white"/>
<path d="M58.8223 178.23C64.8003 165.475 61.3782 149.127 67.3623 136.372L68.076 134.414C66.5022 129.637 58.743 128.997 54.7292 130.375C50.7154 131.754 48.3059 134.932 46.9578 138.305C45.6097 141.679 45.1278 145.351 44.042 148.804C41.3458 157.136 34.77 164.413 35.502 173.448L48.19 176.601L51.4535 170.135L51.0204 176.235L58.8223 178.23Z" fill="#263238"/>
<path d="M59.0724 136.817C59.7694 135.223 60.7098 133.748 61.8601 132.443C62.4397 131.799 63.1568 131.294 63.9582 130.964C64.7597 130.635 65.625 130.49 66.49 130.54C66.8988 130.562 67.2951 130.689 67.6411 130.908C67.987 131.127 68.2712 131.431 68.4664 131.791C68.7897 132.541 68.2834 133.621 67.466 133.621L67.3013 133.779C65.6055 135.507 63.8711 137.199 62.098 138.854C61.68 139.3 61.1783 139.658 60.6218 139.91C60.3418 140.033 60.0329 140.075 59.73 140.032C59.4271 139.989 59.1423 139.862 58.9077 139.666C58.2123 138.921 58.621 137.72 59.0724 136.817Z" fill="#455A64"/>
<path d="M63.5192 133.999C69.6497 129.582 76.7318 127.984 84.0701 129.808C88.212 130.839 89.6882 132.15 92.4393 133.743C95.2206 135.248 97.3809 137.687 98.5393 140.629C99.8508 144.174 100.723 147.986 100.156 151.719C99.5458 155.556 98.9785 159.424 97.7158 163.084C96.4531 166.744 94.4157 170.245 91.4023 172.691L81.4471 171.807C76.1462 170.587 70.7721 169.367 65.9714 166.774C61.1707 164.182 56.919 160.131 55.3757 154.94C53.2285 147.663 57.3826 138.421 63.5192 133.999Z" fill="#263238"/>
<path d="M89.2429 135.804L86.0099 134.536L71.9799 136.195C71.0827 136.002 70.1458 136.153 69.355 136.619C68.5641 137.084 67.977 137.83 67.7099 138.708L56.9983 180.401L64.7941 184.287L75.7741 190.723L78.0799 180.932C78.0799 180.932 86.7907 182.366 91.5853 173.002C93.9704 168.342 96.3555 160.192 98.0879 153.482C99.6434 147.419 96.6971 137.823 89.2429 135.804Z" fill="#FFBE9D"/>
<path d="M77.2809 166.689C77.4945 166.2 77.8782 165.806 78.3606 165.578C78.8037 165.365 79.3046 165.304 79.7862 165.403C80.2677 165.502 80.7034 165.757 81.0263 166.127C81.3523 166.55 81.5592 167.053 81.6257 167.583C81.6922 168.112 81.6158 168.65 81.4045 169.141C81.1076 169.394 80.7589 169.58 80.3829 169.686C80.0068 169.791 79.6123 169.813 79.2268 169.751C79.1048 169.751 78.9889 169.702 78.8669 169.671C78.2768 169.509 77.7694 169.13 77.4456 168.61C77.2716 168.324 77.1661 168.002 77.1376 167.669C77.109 167.335 77.158 167 77.2809 166.689Z" fill="#EB996E"/>
<path d="M92.3906 161.363C92.2864 161.695 92.0562 161.973 91.7494 162.137C91.4427 162.302 91.0837 162.339 90.7497 162.242C90.584 162.203 90.4278 162.131 90.2906 162.03C90.1533 161.929 90.0376 161.802 89.9505 161.656C89.8635 161.51 89.8067 161.347 89.7837 161.179C89.7606 161.01 89.7717 160.838 89.8164 160.674C89.9206 160.343 90.1499 160.067 90.4552 159.903C90.7606 159.738 91.118 159.7 91.4512 159.796C91.617 159.835 91.7733 159.907 91.9108 160.007C92.0483 160.108 92.1643 160.235 92.2519 160.381C92.3395 160.527 92.3969 160.69 92.4207 160.858C92.4445 161.027 92.4343 161.199 92.3906 161.363Z" fill="#263238"/>
<path d="M94.916 156.215C94.7025 156.331 93.9766 155.306 92.6102 154.867C91.2438 154.428 90.0238 154.781 89.9262 154.562C89.8774 154.464 90.1397 154.22 90.6765 154.043C91.4011 153.83 92.1736 153.842 92.8908 154.08C93.601 154.312 94.22 154.763 94.6598 155.367C94.9709 155.825 95.0136 156.16 94.916 156.215Z" fill="#263238"/>
<path d="M83.1248 164.7C83.9158 164.712 84.7024 164.821 85.4672 165.023C85.8271 165.103 86.1809 165.139 86.3151 164.926C86.4616 164.575 86.4977 164.188 86.4188 163.816C86.37 162.864 86.3151 161.87 86.2541 160.827C86.0589 156.557 86.0345 153.141 86.2053 153.134C86.3761 153.128 86.675 156.563 86.8763 160.802C86.919 161.845 86.9556 162.846 86.9922 163.797C87.0713 164.288 86.9764 164.791 86.7238 165.219C86.6339 165.326 86.5205 165.41 86.3925 165.466C86.2645 165.522 86.1253 165.548 85.9857 165.542C85.7782 165.534 85.5728 165.497 85.3757 165.432C83.9605 165.054 83.1004 164.779 83.1248 164.7Z" fill="#263238"/>
<path d="M78.0799 180.926C73.4023 179.479 69.2186 176.761 65.9958 173.075C65.9958 173.075 67.2829 181.079 77.4821 183.378L78.0799 180.926Z" fill="#EB996E"/>
<path d="M92.11 148.889C92.537 148.889 92.9945 149.908 93.8363 150.878C94.6781 151.847 95.5748 152.512 95.4894 152.927C95.4406 153.122 95.0807 153.208 94.5317 153.055C93.8232 152.816 93.1945 152.385 92.7145 151.812C92.2345 151.238 91.922 150.544 91.8111 149.804C91.7257 149.243 91.8782 148.907 92.11 148.889Z" fill="#263238"/>
<path d="M77.6042 156.605C77.5044 156.939 77.5393 157.298 77.7012 157.606C77.8631 157.914 78.1392 158.146 78.4704 158.252C78.6301 158.311 78.7999 158.338 78.9699 158.33C79.14 158.323 79.3068 158.282 79.4607 158.209C79.6146 158.136 79.7525 158.034 79.8663 157.907C79.9801 157.78 80.0675 157.632 80.1235 157.472C80.2232 157.138 80.1884 156.779 80.0264 156.471C79.8645 156.163 79.5884 155.931 79.2573 155.825C79.0976 155.766 78.9277 155.739 78.7577 155.747C78.5877 155.754 78.4208 155.795 78.2669 155.868C78.113 155.941 77.9751 156.044 77.8613 156.17C77.7475 156.297 77.6601 156.445 77.6042 156.605Z" fill="#263238"/>
<path d="M76.3232 150.67C76.433 150.884 77.6103 150.444 78.9889 150.841C80.3675 151.237 81.1788 152.219 81.3801 152.061C81.4716 152.006 81.3801 151.658 81.0507 151.213C80.5802 150.628 79.9414 150.202 79.2207 149.993C78.5039 149.782 77.7381 149.808 77.0369 150.066C76.494 150.328 76.25 150.585 76.3232 150.67Z" fill="#263238"/>
<path d="M84.1372 146.528C83.8566 146.199 82.7464 146.528 81.4166 146.498C80.0868 146.467 78.9766 146.229 78.696 146.565C78.574 146.729 78.7509 147.059 79.2328 147.376C79.8946 147.783 80.658 147.995 81.4349 147.986C82.206 147.994 82.9635 147.783 83.6187 147.376C84.0945 147.01 84.2592 146.687 84.1372 146.528Z" fill="#263238"/>
<path d="M64.9712 156.026C65.2091 155.288 64.9224 153.275 64.2331 152.927C62.4031 151.988 58.8407 151.006 57.1998 155.922C54.955 162.632 62.1713 163.517 62.2445 163.328C62.3177 163.139 64.1477 158.6 64.9712 156.026Z" fill="#FFBE9D"/>
<path d="M61.2074 160.247C61.2074 160.217 61.0671 160.29 60.8353 160.314C60.5187 160.342 60.2036 160.246 59.9569 160.046C59.3469 159.546 59.109 158.216 59.4811 156.996C59.6622 156.411 59.9729 155.875 60.39 155.428C60.52 155.236 60.6957 155.08 60.9013 154.974C61.1069 154.867 61.3358 154.814 61.5673 154.818C61.7191 154.817 61.8656 154.873 61.9784 154.975C62.0912 155.076 62.1621 155.216 62.1773 155.367C62.1773 155.587 62.1163 155.703 62.1773 155.727C62.2383 155.751 62.3603 155.666 62.3969 155.367C62.4175 155.189 62.3742 155.01 62.2749 154.861C62.2057 154.757 62.1158 154.669 62.0108 154.602C61.9058 154.534 61.788 154.49 61.6649 154.47C61.3733 154.43 61.0763 154.466 60.8021 154.572C60.5278 154.679 60.2852 154.854 60.0972 155.08C59.6157 155.566 59.2616 156.163 59.0663 156.819C58.6515 158.191 58.926 159.692 59.8044 160.296C59.9672 160.408 60.1531 160.482 60.3485 160.513C60.5438 160.544 60.7436 160.53 60.9329 160.473C61.1403 160.43 61.2318 160.271 61.2074 160.247Z" fill="#EB996E"/>
<path d="M63.9463 152.872L65.2029 155.135C74.6213 149.956 94.0803 135.884 92.9762 136.738C89.8958 134.548 86.3158 133.166 82.5635 132.718C76.738 132.181 65.4103 132.15 63.8182 138.775C62.2261 145.4 63.9463 152.872 63.9463 152.872Z" fill="#263238"/>
<path d="M56.486 157.819C56.3262 157.6 56.1969 157.36 56.1017 157.106C55.7842 156.437 55.5052 155.75 55.266 155.05C54.8967 154.004 54.691 152.907 54.656 151.799C54.6151 150.453 54.6886 149.106 54.8756 147.773C55.3622 144.603 56.675 141.618 58.682 139.117C59.0175 138.714 59.2249 138.507 59.2493 138.507C59.2737 138.507 58.5905 139.452 57.6816 141.069C56.4685 143.131 55.6688 145.41 55.327 147.779C54.9488 150.573 54.9732 153.147 55.5771 154.904C56.181 156.66 56.5653 157.789 56.486 157.819Z" fill="#455A64"/>
<path d="M81.8558 169.342C81.2063 168.526 80.4072 167.84 79.5012 167.323C78.5502 166.894 77.5291 166.642 76.4878 166.579C76.7857 166.46 77.1088 166.418 77.4272 166.457C78.2032 166.494 78.9613 166.703 79.6476 167.067C80.3373 167.417 80.9397 167.917 81.4105 168.531C81.7399 168.97 81.8924 169.324 81.8558 169.342Z" fill="#263238"/>
<path d="M76.9575 159.271C76.9575 159.356 76.5915 159.308 76.3475 158.997C76.1035 158.685 76.0852 158.344 76.1706 158.338C76.256 158.332 76.378 158.557 76.5854 158.795C76.7928 159.033 76.988 159.21 76.9575 159.271Z" fill="white"/>
<path d="M90.8107 164.755C90.8107 164.84 90.5606 164.907 90.3044 164.755C90.0482 164.602 89.9933 164.34 90.0726 164.304C90.1519 164.267 90.2983 164.383 90.4752 164.487C90.6521 164.59 90.8168 164.663 90.8107 164.755Z" fill="white"/>
<path d="M140.062 248.398L150.865 271.505C150.865 271.505 170.806 278.441 171.032 281.924L132.48 282.052L132.431 272.292L123.342 254.98L140.062 248.398Z" fill="#263238"/>
<path d="M138.946 269.968C138.583 270.062 138.269 270.289 138.066 270.605C137.864 270.92 137.788 271.301 137.854 271.67C137.966 272.032 138.21 272.339 138.537 272.53C138.865 272.721 139.252 272.782 139.623 272.701C140.373 272.518 141.026 271.578 140.77 270.871C140.611 270.504 140.321 270.21 139.956 270.047C139.591 269.884 139.178 269.865 138.799 269.992" fill="#E0E0E0"/>
<path d="M132.48 282.052L132.59 279.093L169.507 280.075C169.507 280.075 171.227 280.777 171.032 281.905L132.48 282.052Z" fill="#455A64"/>
<path d="M151.488 271.316C151.488 271.499 150.542 271.578 149.615 272.158C148.688 272.737 148.194 273.481 148.023 273.414C147.852 273.347 148.126 272.31 149.243 271.633C150.359 270.956 151.53 271.157 151.488 271.316Z" fill="white"/>
<path d="M155.55 272.89C155.593 273.06 154.775 273.365 154.141 274.11C153.506 274.854 153.311 275.665 153.128 275.659C152.945 275.653 152.817 274.64 153.635 273.719C154.452 272.798 155.55 272.719 155.55 272.89Z" fill="white"/>
<path d="M157.825 277.459C157.654 277.501 157.392 276.611 157.88 275.629C158.368 274.646 159.24 274.256 159.32 274.409C159.399 274.561 158.856 275.08 158.472 275.885C158.088 276.69 157.99 277.44 157.825 277.459Z" fill="white"/>
<path d="M149.267 267.949C149.267 268.132 148.383 268.29 147.437 268.815C146.492 269.339 145.9 269.986 145.747 269.895C145.595 269.803 146.034 268.876 147.132 268.272C148.23 267.668 149.291 267.79 149.267 267.949Z" fill="white"/>
<g opacity="0.3">
<path d="M171.032 281.924C171.172 281.082 170.282 280.478 169.812 280.222C167.72 278.471 163.285 276.397 159.228 274.732C159.32 274.592 159.369 274.488 159.332 274.439C159.295 274.39 159.094 274.439 158.844 274.573C157.587 274.061 156.404 273.579 155.3 273.164C155.459 273.054 155.562 272.975 155.544 272.914C155.526 272.853 155.202 272.81 154.769 272.963C152.848 272.231 151.433 271.743 151.012 271.578C151.304 271.487 151.5 271.42 151.5 271.34C151.5 271.261 151.195 271.157 150.719 271.194L149.243 268.034C149.253 268.028 149.262 268.019 149.269 268.008C149.275 267.998 149.279 267.986 149.279 267.973C149.279 267.943 149.243 267.918 149.176 267.894L140.074 248.423L123.342 254.98L132.431 272.274L132.48 282.034L171.032 281.924Z" fill="black"/>
</g>
<path d="M132.98 248.398L143.777 271.505C143.777 271.505 163.718 278.441 163.943 281.924L125.391 282.052L125.343 272.292L116.278 254.98L132.98 248.398Z" fill="#263238"/>
<path d="M131.882 269.968C131.52 270.063 131.207 270.291 131.004 270.606C130.802 270.921 130.726 271.301 130.79 271.67C130.903 272.032 131.148 272.34 131.477 272.53C131.806 272.721 132.194 272.782 132.565 272.701C133.315 272.518 133.962 271.578 133.706 270.871C133.548 270.505 133.258 270.212 132.895 270.049C132.531 269.887 132.12 269.866 131.742 269.992" fill="#E0E0E0"/>
<path d="M125.416 282.052L125.526 279.093L162.449 280.075C162.449 280.075 164.163 280.777 163.968 281.905L125.416 282.052Z" fill="#455A64"/>
<path d="M144.43 271.316C144.43 271.499 143.478 271.578 142.551 272.158C141.624 272.737 141.136 273.481 140.959 273.414C140.782 273.347 141.069 272.31 142.179 271.633C143.289 270.956 144.466 271.157 144.43 271.316Z" fill="white"/>
<path d="M148.468 272.89C148.511 273.06 147.699 273.365 147.059 274.11C146.418 274.854 146.235 275.665 146.046 275.659C145.857 275.653 145.741 274.64 146.552 273.719C147.364 272.798 148.468 272.719 148.468 272.89Z" fill="white"/>
<path d="M150.768 277.459C150.597 277.501 150.334 276.611 150.816 275.629C151.298 274.646 152.183 274.256 152.262 274.409C152.341 274.561 151.792 275.08 151.408 275.885C151.024 276.69 150.951 277.44 150.768 277.459Z" fill="white"/>
<path d="M142.203 267.949C142.203 268.132 141.319 268.29 140.373 268.815C139.428 269.339 138.836 269.986 138.684 269.895C138.531 269.803 138.97 268.876 140.074 268.272C141.179 267.668 142.228 267.79 142.203 267.949Z" fill="white"/>
<path d="M57.2668 178.26C50.3645 180.881 44.605 185.848 40.9981 192.29C32.7692 206.93 22.509 229.903 21.7709 251.46C21.0267 273.128 22.3199 268.772 22.3199 268.772L58.9199 261.995C58.9199 261.995 76.25 214.891 76.86 214.025C77.47 213.158 82.6245 192.76 82.6245 192.76L57.2668 178.26Z" fill="#3684F4"/>
<path d="M39.2595 267.418C39.2595 267.418 45.2985 286.657 74.1088 283.626C78.0318 283.473 81.8562 282.353 85.2409 280.363C88.6255 278.374 91.4652 275.578 93.5068 272.225C100.577 260.635 109.617 233.795 109.617 233.795L132.431 268.126L147.071 259.775C147.071 259.775 136.567 235.985 127.807 219.326C119.048 202.667 116.4 192.821 105.658 193.98C94.9159 195.139 75.4264 230.068 75.4264 230.068L51.9719 262.617L39.2595 267.418Z" fill="#263238"/>
<path d="M26.2727 268.065C26.2727 268.065 32.452 287.749 61.9211 284.638C65.9299 284.481 69.8375 283.334 73.2955 281.3C76.7536 279.266 79.6546 276.408 81.74 272.981C88.9685 261.129 98.21 233.679 98.21 233.679L122.921 272.56L143.277 262.19C143.277 262.19 126.27 231.367 117.303 214.317C108.336 197.268 105.17 191.747 94.184 192.931C83.1979 194.114 63.2631 229.836 63.2631 229.836L39.2779 263.154L26.2727 268.065Z" fill="#263238"/>
<path d="M122.256 223.028C122.256 223.028 122.299 223.089 122.366 223.211L122.665 223.742L123.818 225.847L128.149 233.819L143.399 262.123L143.466 262.251L143.338 262.312L122.988 272.682L122.866 272.743L122.787 272.627L114.137 259.079L98.576 234.679L98.8383 234.643C96.2702 242.182 93.818 249.155 91.1401 255.2C88.8644 260.481 86.1057 265.541 82.899 270.316C80.7901 273.423 78.4055 276.334 75.7742 279.014C73.9442 280.844 72.8218 281.759 72.8218 281.759L73.0048 281.576C73.139 281.448 73.3281 281.277 73.566 281.045C74.0662 280.588 74.786 279.886 75.701 278.947C78.3062 276.252 80.6717 273.335 82.7709 270.23C85.9478 265.451 88.6817 260.391 90.9388 255.114C93.5862 249.075 96.0262 242.103 98.5821 234.57L98.6797 234.277L98.8505 234.533L114.43 258.933L123.074 272.481L122.872 272.426L143.234 262.056L143.173 262.251L128.002 233.886L123.732 225.883C123.244 224.962 122.872 224.248 122.616 223.76L122.335 223.211L122.256 223.028Z" fill="#455A64"/>
<g opacity="0.3">
<path d="M118.718 224.535C118.285 223.712 117.248 223.443 116.333 223.248C109.722 221.863 103.203 220.07 96.813 217.88C91.4816 216.05 86.2173 213.933 81.4349 210.956C77.2442 208.34 73.2975 205.015 68.4663 203.966L58.7063 210.298C61.2744 210.377 65.7945 212.488 68.2406 213.268C70.5586 214.006 72.6265 215.342 74.6822 216.636C85.3389 223.346 96.9777 229.561 109.562 229.799C112.472 229.854 115.625 229.482 117.766 227.512C118.596 226.755 119.249 225.529 118.718 224.535Z" fill="black"/>
</g>
<path d="M91.8049 200.019L108.275 207.089L112.337 204.618L123.927 210.413C123.927 210.413 126.221 218.484 122.256 223.028C117.986 227.908 104.645 224.511 104.645 224.511L82.4292 215.971L91.8049 200.019Z" fill="#FFBE9D"/>
<path d="M58.7065 210.298C59.2677 210.108 65.5202 207.089 65.5202 207.089C65.5202 207.089 75.695 213.573 85.15 217.459C94.605 221.345 97.106 222.18 97.106 222.18L105.036 203.002L79.1903 187.587C79.1903 187.587 63.3303 176.333 57.2852 178.248C51.2401 180.164 46.5065 190.802 50.6972 199.598C54.8879 208.394 58.7065 210.298 58.7065 210.298Z" fill="#3684F4"/>
<path d="M58.7063 210.298C58.8545 210.191 59.0166 210.104 59.1882 210.041L60.5729 209.431C61.7563 208.907 63.4277 208.181 65.3797 207.351H65.4407H65.5017C66.3862 207.766 67.3317 208.242 68.3016 208.754C70.4775 209.905 72.5855 211.18 74.6151 212.573C75.3959 213.11 76.0059 213.567 76.4451 213.884C76.667 214.039 76.8715 214.217 77.0551 214.415C76.8071 214.297 76.572 214.154 76.3536 213.988L74.5236 212.768C72.9376 211.743 70.7233 210.383 68.1857 209.041C67.2158 208.529 66.2764 208.053 65.4041 207.632H65.5261C63.568 208.443 61.8661 209.126 60.6461 209.602L59.2309 210.151C59.0619 210.219 58.886 210.268 58.7063 210.298Z" fill="#263238"/>
<path d="M51.6303 205.009C51.4725 204.742 51.3418 204.46 51.2399 204.167C51.0994 203.828 50.9772 203.482 50.8739 203.13C50.7458 202.727 50.575 202.27 50.4591 201.751C50.3432 201.233 50.1846 200.69 50.0809 200.08C49.9772 199.47 49.8857 198.793 49.8003 198.091C49.6655 196.565 49.6655 195.03 49.8003 193.504C49.9488 191.975 50.2263 190.461 50.6299 188.978C50.8434 188.307 51.0264 187.66 51.2704 187.075C51.4685 186.529 51.6945 185.993 51.9475 185.471C52.1549 184.976 52.405 184.562 52.6002 184.19C52.7667 183.868 52.9521 183.556 53.1553 183.256C53.3089 182.988 53.4843 182.733 53.6799 182.494C53.5636 182.78 53.4228 183.055 53.259 183.317C53.1126 183.573 52.9357 183.891 52.7588 184.269C52.5819 184.647 52.344 185.068 52.1488 185.562C51.9536 186.056 51.7157 186.581 51.5388 187.166C51.3619 187.752 51.1362 188.386 50.9288 189.057C50.5358 190.521 50.2644 192.014 50.1175 193.523C49.9957 195.031 49.9957 196.547 50.1175 198.055C50.1968 198.75 50.2517 199.409 50.3737 200.019C50.4957 200.629 50.5872 201.202 50.7092 201.715C50.8312 202.227 50.9593 202.691 51.0691 203.093C51.1789 203.496 51.2948 203.844 51.3924 204.124C51.4946 204.413 51.5741 204.708 51.6303 205.009Z" fill="#263238"/>
<path d="M112.191 213.537C112.106 213.573 111.331 212.079 110.264 210.304C109.196 208.529 108.263 207.119 108.342 207.065C109.979 208.991 111.28 211.179 112.191 213.537Z" fill="#EB996E"/>
<path d="M82.4292 196.097C82.4292 196.097 89.9383 190.912 91.4267 190.723C92.9151 190.534 104.267 188.35 105.756 188.722C107.244 189.094 123.555 193.547 127.447 199.848C131.339 206.15 130.229 209.492 125.617 211.164C121.006 212.835 117.602 211.316 114.863 209.334C112.124 207.351 105.811 199.031 105.811 199.031C105.811 199.031 92.7199 207.4 91.8049 207.675C89.5418 208.358 89.0294 206.735 89.0294 206.735C89.0294 206.735 84.5581 210.395 82.4109 210.096C80.4894 209.81 80.9042 207.821 80.9042 207.821C80.9042 207.821 78.9095 209.468 77.5675 208.382C76.2255 207.296 77.7505 205.106 77.7505 205.106C77.7505 205.106 76.3353 205.448 76.3109 203.521C76.2804 200.837 82.4292 196.097 82.4292 196.097Z" fill="#FFBE9D"/>
<path d="M95.0258 202.142C94.0541 203.088 93.0098 203.957 91.9026 204.74C90.8575 205.609 89.7459 206.394 88.5781 207.089C89.5529 206.144 90.5991 205.275 91.7074 204.49C92.7511 203.623 93.8606 202.838 95.0258 202.142Z" fill="#EB996E"/>
<path d="M90.4813 200.019C90.0747 200.466 89.6275 200.875 89.1454 201.239C88.2975 201.971 87.108 202.971 85.7782 204.063C84.4484 205.155 83.2406 206.125 82.3561 206.814C81.897 207.214 81.403 207.571 80.8799 207.882C81.2875 207.436 81.7346 207.028 82.2158 206.662C83.0637 205.924 84.2532 204.923 85.5769 203.838C86.9006 202.752 88.1145 201.776 89.0051 201.087C89.4649 200.688 89.9589 200.331 90.4813 200.019Z" fill="#EB996E"/>
<path d="M87.2788 197.915C86.8248 198.308 86.3415 198.667 85.8331 198.988C84.9303 199.629 83.6859 200.525 82.35 201.556C81.0141 202.587 79.8307 203.575 78.9828 204.289C78.5441 204.7 78.0751 205.077 77.5798 205.418C77.9559 204.945 78.3767 204.51 78.8364 204.118C79.6477 203.362 80.8128 202.349 82.1548 201.306C83.4968 200.263 84.7656 199.397 85.7111 198.799C86.2019 198.451 86.7272 198.155 87.2788 197.915Z" fill="#EB996E"/>
<path d="M124.623 211.548C124.623 211.548 124.55 211.585 124.391 211.627C124.233 211.67 124.007 211.725 123.708 211.786C121.572 212.142 119.381 211.932 117.352 211.176C116.639 210.886 115.982 210.473 115.412 209.956C114.802 209.456 114.192 208.901 113.582 208.327C111.56 206.334 109.646 204.235 107.848 202.038C107.159 201.19 106.628 200.495 106.274 199.989C106.135 199.793 106.007 199.589 105.89 199.379C105.811 199.238 105.768 199.165 105.78 199.159C105.997 199.391 106.201 199.635 106.39 199.891C106.768 200.373 107.33 201.044 108.037 201.867C109.458 203.508 111.453 205.759 113.82 208.071C114.43 208.644 115.04 209.2 115.607 209.694C116.145 210.19 116.764 210.59 117.437 210.877C118.61 211.329 119.843 211.605 121.097 211.694C122.274 211.764 123.456 211.715 124.623 211.548Z" fill="#EB996E"/>
<path d="M187.002 184.366L182.537 180.096C177.569 180.31 172.701 178.659 168.89 175.466C165.078 172.273 162.599 167.77 161.939 162.842C161.279 157.914 162.486 152.917 165.323 148.834C168.16 144.751 172.422 141.877 177.27 140.776C182.119 139.675 187.204 140.428 191.526 142.886C195.848 145.345 199.094 149.33 200.626 154.06C202.159 158.79 201.866 163.923 199.807 168.448C197.747 172.973 194.07 176.565 189.497 178.517L187.002 184.366Z" fill="white"/>
<path d="M187.002 184.366L187.166 184C187.276 183.744 187.441 183.39 187.654 182.89L189.552 178.516L189.588 178.437H189.503V178.535C192.558 177.247 195.243 175.217 197.317 172.63C197.96 171.825 198.539 170.97 199.049 170.074C199.585 169.105 200.048 168.098 200.434 167.061C202.221 162.229 202.061 156.893 199.989 152.177C198.829 149.523 197.11 147.151 194.95 145.223C192.585 143.139 189.763 141.643 186.712 140.854C183.66 140.066 180.466 140.007 177.388 140.684C176.992 140.782 176.589 140.867 176.168 140.971L175.003 141.361L174.424 141.557L173.868 141.801L172.758 142.295C172.392 142.472 172.051 142.685 171.697 142.905C171.344 143.089 171.002 143.293 170.672 143.515C170.009 143.953 169.373 144.431 168.769 144.948C166.402 146.95 164.524 149.466 163.279 152.305C161.702 156.018 161.286 160.121 162.084 164.075C162.882 168.029 164.857 171.649 167.75 174.46C168.547 175.233 169.402 175.945 170.306 176.589C171.168 177.16 172.062 177.681 172.984 178.15C175.956 179.592 179.242 180.267 182.543 180.115H182.506L185.861 183.293L186.721 184.104L187.008 184.366L186.715 184.074L185.867 183.244L182.579 180.041C179.298 180.172 176.036 179.482 173.088 178.035C172.175 177.57 171.291 177.05 170.44 176.479C169.546 175.838 168.702 175.131 167.915 174.362C165.069 171.561 163.134 167.968 162.361 164.051C161.589 160.133 162.015 156.074 163.584 152.402C164.803 149.602 166.645 147.118 168.97 145.137C169.564 144.625 170.192 144.152 170.849 143.722C171.176 143.498 171.516 143.294 171.868 143.112C172.215 142.923 172.557 142.709 172.911 142.533L174.009 142.045L174.558 141.801L175.131 141.611L176.284 141.227C176.674 141.123 177.071 141.038 177.467 140.94C180.509 140.27 183.666 140.327 186.681 141.106C189.696 141.885 192.486 143.364 194.822 145.424C196.88 147.255 198.535 149.494 199.683 151.998C200.83 154.503 201.445 157.218 201.489 159.972C201.517 162.376 201.104 164.764 200.269 167.018C199.892 168.049 199.438 169.051 198.909 170.013C198.405 170.905 197.832 171.755 197.195 172.557C195.15 175.132 192.499 177.161 189.478 178.462L189.137 178.608L189.509 178.559L189.454 178.492C188.655 180.395 188.045 181.859 187.624 182.854C187.417 183.348 187.264 183.726 187.154 183.988L187.002 184.366Z" fill="#263238"/>
<path d="M180.304 161.802L183.043 159.003C183.144 158.902 183.213 158.773 183.24 158.633C183.267 158.492 183.252 158.347 183.195 158.216L181.853 154.977C181.823 155.038 181.78 155.092 181.75 155.153C181.359 154.469 180.821 153.879 180.176 153.427C179.576 153.012 178.897 152.723 178.183 152.578C177.468 152.432 176.73 152.432 176.016 152.579C173.795 153.049 171.965 154.934 171.136 156.849C171.026 157.122 170.941 157.404 170.879 157.691C170.466 159.677 170.783 161.745 171.77 163.517C172.793 165.101 174.18 166.419 175.814 167.36C177.644 168.488 179.901 169.8 181.097 170.513C181.194 170.571 181.304 170.605 181.417 170.612C181.53 170.62 181.643 170.601 181.747 170.557C181.851 170.513 181.944 170.446 182.018 170.36C182.091 170.274 182.143 170.172 182.171 170.062L183.171 166.103C183.202 165.979 183.199 165.848 183.164 165.725C183.129 165.602 183.062 165.491 182.97 165.401L180.31 162.809C180.178 162.675 180.103 162.495 180.102 162.307C180.101 162.119 180.173 161.938 180.304 161.802Z" fill="#3684F4"/>
<path d="M193.559 156.703C192.772 154.727 190.961 152.793 188.728 152.287C188.015 152.132 187.279 152.122 186.562 152.257C185.845 152.392 185.163 152.67 184.556 153.073C183.898 153.526 183.349 154.12 182.951 154.812L184.556 158.246C184.609 158.361 184.626 158.49 184.603 158.614C184.58 158.739 184.518 158.853 184.428 158.942L181.432 161.937C181.35 162.024 181.303 162.14 181.303 162.26C181.303 162.38 181.35 162.496 181.432 162.583L184.281 165.322C184.355 165.394 184.409 165.485 184.436 165.585C184.462 165.685 184.462 165.79 184.434 165.89L183.018 170.861C183.018 170.861 185.995 168.665 188.667 167.079C190.316 166.165 191.722 164.868 192.766 163.297C193.791 161.523 194.135 159.438 193.736 157.429C193.695 157.183 193.636 156.94 193.559 156.703Z" fill="#3684F4"/>
<path d="M253.845 213.75L250.1 209.138C245.327 208.767 240.865 206.623 237.592 203.128C234.318 199.634 232.471 195.042 232.412 190.254C232.353 185.466 234.087 180.83 237.273 177.256C240.459 173.682 244.867 171.429 249.63 170.94C254.393 170.451 259.166 171.761 263.012 174.613C266.858 177.465 269.498 181.652 270.414 186.352C271.329 191.052 270.453 195.924 267.958 200.01C265.464 204.097 261.53 207.103 256.932 208.437L253.845 213.75Z" fill="white"/>
<path d="M253.845 213.75C253.845 213.75 253.919 213.64 254.047 213.421L254.657 212.414C255.187 211.511 255.962 210.188 256.981 208.461L257.024 208.388H256.926V208.486C259.991 207.605 262.788 205.974 265.063 203.74C265.773 203.047 266.426 202.299 267.015 201.501C267.642 200.639 268.201 199.729 268.687 198.781C269.759 196.707 270.439 194.453 270.694 192.132C271.157 187.973 270.248 183.777 268.105 180.184C265.962 176.59 262.702 173.796 258.823 172.227C255.95 171.049 252.83 170.597 249.74 170.91C249.344 170.953 248.953 170.989 248.563 171.038L247.404 171.276L246.83 171.398L246.269 171.569L245.147 171.91C244.781 172.038 244.433 172.203 244.073 172.349C243.711 172.483 243.358 172.642 243.018 172.825C242.331 173.161 241.669 173.544 241.035 173.972C238.542 175.611 236.456 177.797 234.935 180.365C232.991 183.725 232.108 187.594 232.401 191.466C232.695 195.337 234.153 199.028 236.582 202.056C237.254 202.888 237.989 203.667 238.778 204.387C239.534 205.032 240.327 205.632 241.151 206.186C243.825 207.907 246.886 208.935 250.057 209.175L252.894 212.597L253.62 213.47L253.858 213.756C253.858 213.756 253.778 213.646 253.614 213.445L252.9 212.548L250.1 209.108C246.949 208.848 243.912 207.811 241.261 206.089C240.445 205.535 239.661 204.936 238.913 204.295C238.134 203.577 237.411 202.802 236.747 201.977C234.357 198.971 232.927 195.316 232.644 191.486C232.361 187.656 233.238 183.829 235.161 180.505C236.657 177.972 238.712 175.815 241.17 174.198C241.796 173.773 242.453 173.393 243.134 173.063C243.468 172.882 243.814 172.725 244.171 172.593C244.531 172.447 244.878 172.288 245.238 172.16L246.342 171.819L246.898 171.654L247.465 171.532L248.612 171.3C248.996 171.245 249.386 171.215 249.777 171.166C252.83 170.857 255.912 171.306 258.75 172.471C261.465 173.564 263.889 175.272 265.832 177.461C267.585 179.453 268.906 181.787 269.709 184.315C270.512 186.844 270.781 189.512 270.498 192.15C270.252 194.45 269.587 196.685 268.534 198.744C268.051 199.684 267.501 200.587 266.887 201.446C266.302 202.24 265.656 202.987 264.954 203.679C262.703 205.9 259.936 207.529 256.902 208.419L256.554 208.522H256.926L256.883 208.449L254.626 212.402L254.047 213.433L253.845 213.75Z" fill="#263238"/>
<path d="M259.116 185.267L256.413 182.7L244.902 194.818L247.604 197.385L259.116 185.267Z" fill="#3684F4"/>
<path d="M247.224 182.921L244.657 185.623L256.775 197.135L259.342 194.432L247.224 182.921Z" fill="#3684F4"/>
<path d="M97.4048 115.534L98.8566 109.519C96.1583 105.336 95.1226 100.294 95.9531 95.385C96.7835 90.4763 99.4202 86.0557 103.345 82.9924C107.269 79.9291 112.197 78.4445 117.161 78.8306C122.124 79.2167 126.764 81.4454 130.167 85.0787C133.571 88.712 135.492 93.4871 135.554 98.4652C135.615 103.443 133.813 108.264 130.5 111.981C127.187 115.697 122.604 118.039 117.651 118.548C112.699 119.057 107.735 117.694 103.737 114.729L97.4048 115.534Z" fill="white"/>
<path d="M97.4049 115.534L97.8075 115.497L99.0275 115.357L103.761 114.79H103.846L103.792 114.717L103.724 114.79C106.374 116.775 109.477 118.069 112.752 118.553C113.762 118.703 114.782 118.772 115.802 118.761C116.909 118.733 118.012 118.623 119.103 118.431C121.83 117.95 124.427 116.906 126.728 115.365C129.029 113.825 130.983 111.821 132.467 109.483C133.951 107.145 134.931 104.523 135.345 101.785C135.759 99.0467 135.597 96.2524 134.871 93.5801C134.046 90.4594 132.459 87.5923 130.253 85.2353C129.967 84.9364 129.692 84.6253 129.405 84.3386L128.478 83.5334L128.021 83.1308L127.527 82.777L126.538 82.0633C126.203 81.8437 125.843 81.6546 125.501 81.4533C125.16 81.2432 124.808 81.0518 124.446 80.8799C123.733 80.5262 122.997 80.2185 122.244 79.9588C119.324 78.9349 116.21 78.5906 113.137 78.9523C109.137 79.4574 105.383 81.1584 102.366 83.8326C99.3486 86.5069 97.2093 90.0297 96.2276 93.94C95.9613 95.0181 95.7797 96.1153 95.6847 97.2218C95.6237 98.2518 95.6237 99.2845 95.6847 100.314C95.9442 103.606 97.022 106.781 98.8201 109.55V109.507C98.3565 111.471 98.0088 112.978 97.7648 114.009C97.6489 114.509 97.5635 114.893 97.5025 115.156C97.4415 115.418 97.4171 115.534 97.4171 115.534L97.5208 115.137L97.8136 113.985C98.0637 112.966 98.4236 111.471 98.9177 109.532C97.1521 106.762 96.1039 103.596 95.8677 100.321C95.8105 99.3047 95.8105 98.2864 95.8677 97.2706C95.9551 96.1491 96.1264 95.0358 96.3801 93.94C97.3648 90.074 99.4903 86.5938 102.48 83.9523C105.47 81.3108 109.185 79.6302 113.143 79.1292C116.182 78.7734 119.261 79.1177 122.146 80.1357C122.888 80.394 123.613 80.6975 124.318 81.0446C124.675 81.2156 125.023 81.4049 125.361 81.6119C125.703 81.8193 126.057 82.0023 126.386 82.2219L127.362 82.9234L127.85 83.2772L128.307 83.6737L129.222 84.4728C129.503 84.7595 129.778 85.0828 130.058 85.3512C132.169 87.6399 133.712 90.394 134.559 93.3902C135.407 96.3864 135.537 99.5402 134.938 102.596C134.394 105.296 133.296 107.855 131.713 110.109C130.129 112.363 128.095 114.265 125.739 115.693C123.677 116.938 121.402 117.792 119.029 118.212C117.949 118.405 116.857 118.517 115.76 118.547C111.446 118.601 107.232 117.243 103.761 114.68L103.456 114.46L103.688 114.753L103.724 114.674L99.0336 115.284L97.8136 115.449L97.4049 115.534Z" fill="#263238"/>
<path d="M112.454 98.1246C112.454 98.5565 112.325 98.9787 112.086 99.3378C111.846 99.697 111.504 99.9769 111.105 100.142C110.706 100.307 110.267 100.351 109.844 100.266C109.42 100.182 109.031 99.9742 108.726 99.6688C108.42 99.3634 108.212 98.9743 108.128 98.5506C108.044 98.127 108.087 97.6879 108.252 97.2889C108.417 96.8899 108.697 96.5488 109.056 96.3088C109.416 96.0689 109.838 95.9408 110.27 95.9408C110.557 95.9408 110.84 95.9973 111.105 96.107C111.37 96.2168 111.611 96.3776 111.814 96.5804C112.017 96.7832 112.178 97.0239 112.287 97.2889C112.397 97.5538 112.454 97.8378 112.454 98.1246Z" fill="#3684F4"/>
<path d="M123.495 98.1246C123.495 98.5565 123.366 98.9787 123.127 99.3378C122.887 99.697 122.545 99.9769 122.146 100.142C121.747 100.307 121.308 100.351 120.885 100.266C120.461 100.182 120.072 99.9742 119.767 99.6688C119.461 99.3634 119.253 98.9743 119.169 98.5506C119.085 98.127 119.128 97.6879 119.293 97.2889C119.458 96.8899 119.738 96.5488 120.097 96.3088C120.457 96.0689 120.879 95.9408 121.311 95.9408C121.89 95.9408 122.445 96.1709 122.855 96.5804C123.264 96.99 123.495 97.5454 123.495 98.1246Z" fill="#3684F4"/>
<path d="M121.311 105.316C121.177 105.377 120.805 104.664 119.92 103.798C119.407 103.309 118.826 102.898 118.194 102.578C117.44 102.188 116.602 101.991 115.754 102.004C114.893 102.016 114.045 102.209 113.265 102.571C112.623 102.893 112.029 103.304 111.502 103.791C110.575 104.633 110.081 105.274 109.959 105.188C109.837 105.103 110.154 104.353 111.02 103.322C111.534 102.711 112.154 102.199 112.85 101.809C113.73 101.335 114.712 101.082 115.711 101.071C116.724 101.05 117.722 101.31 118.596 101.821C119.3 102.224 119.921 102.756 120.426 103.389C121.256 104.426 121.39 105.28 121.311 105.316Z" fill="#3684F4"/>
<path d="M109.709 92.5736C109.824 92.6163 109.831 93.0006 109.623 93.574C109.325 94.3133 108.86 94.9734 108.265 95.5027C107.669 96.0319 106.958 96.4157 106.189 96.624C105.579 96.7643 105.213 96.7094 105.188 96.5874C105.134 96.319 106.408 95.8798 107.628 94.794C108.848 93.7082 109.446 92.4882 109.709 92.5736Z" fill="#3684F4"/>
<path d="M126.026 95.2941C126.026 95.4161 125.66 95.593 124.989 95.6235C124.117 95.6325 123.257 95.4208 122.489 95.008C121.721 94.5953 121.07 93.9949 120.597 93.2628C120.249 92.6894 120.188 92.2685 120.298 92.2136C120.542 92.0855 121.372 93.3543 122.939 94.1717C124.507 94.9891 125.996 95.0196 126.026 95.2941Z" fill="#3684F4"/>
</svg>
