<svg width="36" height="36" viewBox="0 0 36 36" fill="none" xmlns="http://www.w3.org/2000/svg">
<path d="M36 18C36 27.941 27.941 36 18 36C8.06 36 0 27.941 0 18C0 8.06 8.06 0 18 0C27.941 0 36 8.06 36 18Z" fill="#FFCC4D"/>
<path d="M11.5 20C12.8807 20 14 18.433 14 16.5C14 14.567 12.8807 13 11.5 13C10.1193 13 9 14.567 9 16.5C9 18.433 10.1193 20 11.5 20Z" fill="#664500"/>
<path d="M24.5 20C25.8807 20 27 18.433 27 16.5C27 14.567 25.8807 13 24.5 13C23.1193 13 22 14.567 22 16.5C22 18.433 23.1193 20 24.5 20Z" fill="#664500"/>
<path d="M23.4869 27.879C23.4759 27.835 22.3419 23.5 18.0019 23.5C13.6619 23.5 12.5279 27.835 12.5179 27.879C12.4928 27.9825 12.5017 28.0913 12.5433 28.1893C12.5849 28.2873 12.657 28.3692 12.7489 28.423C12.8419 28.4771 12.9496 28.5005 13.0566 28.4897C13.1637 28.4789 13.2646 28.4346 13.3449 28.363C13.3549 28.355 14.3589 27.5 18.0019 27.5C21.5919 27.5 22.6189 28.33 22.6579 28.363C22.7364 28.4374 22.8369 28.4843 22.9444 28.4967C23.0519 28.5091 23.1604 28.4864 23.2538 28.4318C23.3473 28.3773 23.4205 28.2939 23.4625 28.1942C23.5045 28.0946 23.5131 27.984 23.4869 27.879Z" fill="#664500"/>
<path d="M10 30C10 32.762 7.762 35 5 35C2.238 35 0 32.762 0 30C0 27.238 4 20 5 20C6 20 10 27.238 10 30Z" fill="#5DADEC"/>
<path d="M18 11C26.749 11 34.033 15.509 35.656 21.484C35.878 20.356 36 19.192 36 18C36 8.06 27.941 0 18 0C8.06 0 0 8.06 0 18C0 19.192 0.123 20.356 0.344 21.484C1.967 15.509 9.252 11 18 11Z" fill="#BDDDF4"/>
<path d="M30 11.9988C24.446 11.9988 22.198 7.63179 22.105 7.44579C21.9858 7.20882 21.9656 6.9342 22.0489 6.68234C22.1321 6.43047 22.312 6.22201 22.549 6.10279C22.786 5.98358 23.0606 5.96338 23.3125 6.04665C23.5643 6.12991 23.7728 6.30982 23.892 6.54679C23.967 6.69279 25.713 9.99879 30 9.99879C30.2652 9.99879 30.5196 10.1041 30.7071 10.2917C30.8946 10.4792 31 10.7336 31 10.9988C31 11.264 30.8946 11.5184 30.7071 11.7059C30.5196 11.8934 30.2652 11.9988 30 11.9988ZM6 11.9988C5.73478 11.9988 5.48043 11.8934 5.29289 11.7059C5.10536 11.5184 5 11.264 5 10.9988C5 10.7336 5.10536 10.4792 5.29289 10.2917C5.48043 10.1041 5.73478 9.99879 6 9.99879C11.083 9.99879 11.996 6.87879 12.033 6.74579C12.178 6.21779 12.723 5.89779 13.252 6.03679C13.782 6.17579 14.103 6.70979 13.97 7.24179C13.921 7.43579 12.704 11.9988 6 11.9988Z" fill="#664500"/>
</svg>
