<svg width="36" height="36" viewBox="0 0 36 36" fill="none" xmlns="http://www.w3.org/2000/svg">
<g clip-path="url(#clip0_311_2008)">
<path d="M36 18C36 27.941 27.941 36 18 36C8.059 36 0 27.941 0 18C0 8.059 8.059 0 18 0C27.941 0 36 8.059 36 18Z" fill="#FFCC4D"/>
<path d="M22.0017 26.9987C22.0017 29.7617 20.2107 29.9987 18.0017 29.9987C15.7917 29.9987 14.0017 29.7617 14.0017 26.9987C14.0017 24.2377 15.7917 20.9987 18.0017 20.9987C20.2107 20.9987 22.0017 24.2377 22.0017 26.9987ZM30.0017 14.9987C29.8745 14.9988 29.7485 14.9744 29.6307 14.9267C24.4017 12.8357 22.2587 9.68572 22.1697 9.55272C22.0221 9.33233 21.9681 9.06233 22.0196 8.80212C22.071 8.54192 22.2238 8.31282 22.4442 8.16522C22.6646 8.01763 22.9346 7.96363 23.1948 8.01511C23.455 8.06659 23.6841 8.21933 23.8317 8.43972C23.8507 8.46672 25.7617 11.2247 30.3727 13.0687C30.5894 13.1544 30.7694 13.3131 30.8816 13.5173C30.9938 13.7216 31.0311 13.9586 30.9871 14.1875C30.9431 14.4164 30.8206 14.6227 30.6407 14.7708C30.4607 14.9189 30.2347 14.9995 30.0017 14.9987ZM6.00166 14.9987C5.76963 14.998 5.54507 14.9166 5.36637 14.7686C5.18768 14.6206 5.06595 14.4151 5.02202 14.1873C4.97808 13.9594 5.01466 13.7234 5.1255 13.5196C5.23634 13.3157 5.41455 13.1567 5.62966 13.0697C10.2417 11.2257 12.1527 8.46773 12.1717 8.44073C12.3203 8.2216 12.5496 8.07021 12.8095 8.01961C13.0694 7.96902 13.3387 8.02335 13.5587 8.17072C13.7783 8.31782 13.9307 8.54606 13.9822 8.80535C14.0338 9.06463 13.9803 9.33379 13.8337 9.55373C13.7447 9.68673 11.6017 12.8367 6.37367 14.9277C6.25522 14.9745 6.12902 14.9986 6.00166 14.9987Z" fill="#664500"/>
<path d="M24 16H28V35L24 34.954V16ZM8 35L12 34.954V16H8V35Z" fill="#5DADEC"/>
<path d="M14.9987 18.0001C14.8487 18.0001 14.6957 17.9661 14.5527 17.8951C11.0407 16.1391 7.48269 17.8771 7.44769 17.8951C7.33023 17.9539 7.20233 17.9889 7.07132 17.9983C6.9403 18.0076 6.80873 17.9911 6.68412 17.9496C6.5595 17.9081 6.44428 17.8424 6.34503 17.7564C6.24579 17.6703 6.16446 17.5656 6.10569 17.4481C6.04693 17.3307 6.01187 17.2028 6.00253 17.0718C5.99319 16.9407 6.00975 16.8092 6.05126 16.6846C6.09276 16.5599 6.15841 16.4447 6.24445 16.3455C6.33048 16.2462 6.43523 16.1649 6.55269 16.1061C6.73469 16.0161 11.0507 13.9091 15.4477 16.1061C15.6491 16.2071 15.8105 16.373 15.9058 16.5772C16.0011 16.7813 16.0246 17.0116 15.9727 17.2308C15.9207 17.45 15.7962 17.6452 15.6195 17.7849C15.4427 17.9245 15.224 18.0003 14.9987 18.0001ZM28.9987 18.0001C28.8487 18.0001 28.6957 17.9661 28.5527 17.8951C25.0397 16.1391 21.4827 17.8771 21.4477 17.8951C21.3302 17.9539 21.2023 17.9889 21.0713 17.9983C20.9403 18.0076 20.8087 17.9911 20.6841 17.9496C20.5595 17.9081 20.4443 17.8424 20.345 17.7564C20.2458 17.6703 20.1645 17.5656 20.1057 17.4481C20.0469 17.3307 20.0119 17.2028 20.0025 17.0718C19.9932 16.9407 20.0097 16.8092 20.0513 16.6846C20.0928 16.5599 20.1584 16.4447 20.2444 16.3455C20.3305 16.2462 20.4352 16.1649 20.5527 16.1061C20.7347 16.0161 25.0537 13.9101 29.4477 16.1061C29.6491 16.2071 29.8105 16.373 29.9058 16.5772C30.0011 16.7813 30.0246 17.0116 29.9727 17.2308C29.9207 17.45 29.7962 17.6452 29.6195 17.7849C29.4427 17.9245 29.224 18.0003 28.9987 18.0001Z" fill="#664500"/>
<path d="M18 36C27.9411 36 36 35.1046 36 34C36 32.8954 27.9411 32 18 32C8.05887 32 0 32.8954 0 34C0 35.1046 8.05887 36 18 36Z" fill="#5DADEC"/>
<path d="M18 29C19.6569 29 21 28.1046 21 27C21 25.8954 19.6569 25 18 25C16.3431 25 15 25.8954 15 27C15 28.1046 16.3431 29 18 29Z" fill="#E75A70"/>
</g>
<defs>
<clipPath id="clip0_311_2008">
<rect width="36" height="36" fill="white"/>
</clipPath>
</defs>
</svg>
