<svg width="36" height="36" viewBox="0 0 36 36" fill="none" xmlns="http://www.w3.org/2000/svg">
<g clip-path="url(#clip0_312_1412)">
<path d="M36 18C36 27.941 27.941 36 18 36C8.06 36 0 27.941 0 18C0 8.06 8.06 0 18 0C27.941 0 36 8.06 36 18Z" fill="#FFCC4D"/>
<path d="M12 17C13.3807 17 14.5 15.433 14.5 13.5C14.5 11.567 13.3807 10 12 10C10.6193 10 9.5 11.567 9.5 13.5C9.5 15.433 10.6193 17 12 17Z" fill="#664500"/>
<path d="M24 17C25.3807 17 26.5 15.433 26.5 13.5C26.5 11.567 25.3807 10 24 10C22.6193 10 21.5 11.567 21.5 13.5C21.5 15.433 22.6193 17 24 17Z" fill="#664500"/>
<path d="M25 21C26.0609 21 27.0783 21.4214 27.8284 22.1716C28.5786 22.9217 29 23.9391 29 25C29 26.0609 28.5786 27.0783 27.8284 27.8284C27.0783 28.5786 26.0609 29 25 29H11C9.93913 29 8.92172 28.5786 8.17157 27.8284C7.42143 27.0783 7 26.0609 7 25C7 23.9391 7.42143 22.9217 8.17157 22.1716C8.92172 21.4214 9.93913 21 11 21H25Z" fill="white"/>
<path d="M25 20H11C8.243 20 6 22.243 6 25C6 27.757 8.243 30 11 30H25C27.757 30 30 27.757 30 25C30 22.243 27.757 20 25 20ZM25 22C25.7076 22.0015 26.3918 22.2534 26.9315 22.7109C27.4712 23.1685 27.8317 23.8022 27.949 24.5H24.5V22H25ZM23.5 22V24.5H20.5V22H23.5ZM19.5 22V24.5H16.5V22H19.5ZM15.5 22V24.5H12.5V22H15.5ZM11 22H11.5V24.5H8.051C8.16834 23.8022 8.52877 23.1685 9.0685 22.7109C9.60822 22.2534 10.2924 22.0015 11 22ZM11 28C10.2924 27.9985 9.60822 27.7466 9.0685 27.2891C8.52877 26.8315 8.16834 26.1978 8.051 25.5H11.5V28H11ZM12.5 28V25.5H15.5V28H12.5ZM16.5 28V25.5H19.5V28H16.5ZM20.5 28V25.5H23.5V28H20.5ZM25 28H24.5V25.5H27.949C27.8317 26.1978 27.4712 26.8315 26.9315 27.2891C26.3918 27.7466 25.7076 27.9985 25 28Z" fill="#664500"/>
</g>
<defs>
<clipPath id="clip0_312_1412">
<rect width="36" height="36" fill="white"/>
</clipPath>
</defs>
</svg>
