<svg width="36" height="36" viewBox="0 0 36 36" fill="none" xmlns="http://www.w3.org/2000/svg">
<g clip-path="url(#clip0_311_1979)">
<path d="M18 36C27.9411 36 36 27.9411 36 18C36 8.05887 27.9411 0 18 0C8.05887 0 0 8.05887 0 18C0 27.9411 8.05887 36 18 36Z" fill="#FFCC4D"/>
<path d="M12.5 20C13.8807 20 15 18.433 15 16.5C15 14.567 13.8807 13 12.5 13C11.1193 13 10 14.567 10 16.5C10 18.433 11.1193 20 12.5 20Z" fill="#664500"/>
<path d="M23.5 20C24.8807 20 26 18.433 26 16.5C26 14.567 24.8807 13 23.5 13C22.1193 13 21 14.567 21 16.5C21 18.433 22.1193 20 23.5 20Z" fill="#664500"/>
<path d="M29 11.9988C23.446 11.9988 21.198 7.63179 21.105 7.44579C20.9858 7.20882 20.9656 6.9342 21.0489 6.68234C21.1321 6.43047 21.312 6.22201 21.549 6.10279C21.786 5.98358 22.0606 5.96338 22.3125 6.04665C22.5643 6.12991 22.7728 6.30982 22.892 6.54679C22.967 6.69279 24.713 9.99879 29 9.99879C29.2652 9.99879 29.5196 10.1041 29.7071 10.2917C29.8946 10.4792 30 10.7336 30 10.9988C30 11.264 29.8946 11.5184 29.7071 11.7059C29.5196 11.8934 29.2652 11.9988 29 11.9988ZM7 11.9928C6.73478 11.9928 6.48043 11.8874 6.29289 11.6999C6.10536 11.5124 6 11.258 6 10.9928C6 10.7276 6.10536 10.4732 6.29289 10.2857C6.48043 10.0981 6.73478 9.99279 7 9.99279C12.083 9.99279 12.996 6.87279 13.033 6.73979C13.178 6.21179 13.723 5.89179 14.252 6.03079C14.782 6.16979 15.103 6.70379 14.97 7.23579C14.921 7.42979 13.704 11.9928 7 11.9928Z" fill="#664500"/>
<path d="M35.9693 17.0664L31.9643 17.8794L15.7773 28.3874L22.8953 29.3504L34.5803 22.1394C35.2833 21.7084 35.5743 21.3044 35.7783 20.3924C35.9823 19.4804 35.9693 17.0664 35.9693 17.0664Z" fill="#FFAC33"/>
<path d="M23.4837 29.379C23.4727 29.335 22.3387 26.5 17.9987 26.5C13.6587 26.5 12.5247 29.335 12.5137 29.379C12.4888 29.4826 12.498 29.5914 12.5398 29.6894C12.5815 29.7873 12.6537 29.8693 12.7457 29.923C12.8387 29.9771 12.9464 30.0005 13.0534 29.9897C13.1605 29.9789 13.2614 29.9346 13.3417 29.863C13.3507 29.855 14.3547 29 17.9987 29C21.5887 29 22.6157 29.83 22.6547 29.863C22.7332 29.9374 22.8338 29.9843 22.9412 29.9967C23.0487 30.0091 23.1573 29.9864 23.2507 29.9318C23.3441 29.8773 23.4173 29.7939 23.4593 29.6942C23.5013 29.5946 23.5099 29.484 23.4837 29.379Z" fill="#664500"/>
<path d="M35.4726 15.7302C35.0745 15.1999 34.4821 14.8494 33.8256 14.7556C33.1691 14.6619 32.5023 14.8325 31.9716 15.2302L14.7656 28.1382C15.4116 27.8962 16.2756 27.6942 17.3806 27.6162C17.6366 27.5982 20.0406 26.9892 20.0406 26.9892L21.3336 28.0252C21.3336 28.0252 22.2446 28.3922 22.5306 28.5642L34.9746 19.2292C35.5045 18.8311 35.8545 18.2389 35.9479 17.5827C36.0413 16.9266 35.8703 16.2603 35.4726 15.7302Z" fill="#CCD6DD"/>
<path d="M28.6878 20.8692C28.2398 20.2732 27.9008 19.7242 27.3048 20.1712L17.3828 27.6142C17.6388 27.5962 17.8828 27.5722 18.1658 27.5702C19.5258 27.5612 20.5658 27.7652 21.3358 28.0222L28.9238 22.3302C29.5198 21.8832 29.1348 21.4662 28.6878 20.8692Z" fill="#DA2F47"/>
<path d="M18.5977 25.2283L19.8317 26.8263L20.5727 26.2313L19.3757 24.6443L18.5977 25.2283ZM20.8207 23.5673L22.0557 25.1653L22.7967 24.5703L21.5997 22.9833L20.8207 23.5673ZM23.0047 21.9483L24.2387 23.5463L24.9797 22.9513L23.7827 21.3643L23.0047 21.9483ZM25.1857 20.2883L26.4207 21.8853L27.1617 21.2913L25.9647 19.7043L25.1857 20.2883ZM27.4237 18.6473L28.6587 20.2453L29.3987 19.6503L28.2027 18.0633L27.4237 18.6473ZM29.5637 17.0293L30.7987 18.6273L31.5387 18.0323L30.3427 16.4453L29.5637 17.0293Z" fill="#67757F"/>
<path d="M22.5312 28.5634L23.3363 29.0854C23.3363 29.0854 23.1392 28.7234 22.8102 28.3594L22.5312 28.5634Z" fill="#452E04"/>
</g>
<defs>
<clipPath id="clip0_311_1979">
<rect width="36" height="36" fill="white"/>
</clipPath>
</defs>
</svg>
