<svg width="36" height="36" viewBox="0 0 36 36" fill="none" xmlns="http://www.w3.org/2000/svg">
<path d="M35 17C35 26.389 27.389 34 18 34C8.612 34 1 26.389 1 17C1 7.612 8.612 0 18 0C27.389 0 35 7.612 35 17Z" fill="#FFCC4D"/>
<path d="M18 27C21.866 27 25 23.6421 25 19.5C25 15.3579 21.866 12 18 12C14.134 12 11 15.3579 11 19.5C11 23.6421 14.134 27 18 27Z" fill="#664500"/>
<path d="M22.4674 27.3693C22.4674 27.3693 23.4644 26.6483 22.6324 25.7553C21.8004 24.8623 21.0114 25.8073 21.0114 25.8073L16.8634 29.6733C16.7944 29.4683 16.4044 28.9303 16.3134 28.7263L22.0684 23.3603C22.0684 23.3603 23.0664 22.6393 22.2324 21.7453C21.4004 20.8533 20.6104 21.7963 20.6104 21.7963L15.1974 26.8423C15.0724 26.6843 14.7364 26.3023 14.6034 26.1443L20.8794 20.2943C20.8794 20.2943 21.8764 19.5723 21.0434 18.6803C20.2114 17.7873 19.4224 18.7313 19.4224 18.7313L13.1444 24.5793C12.9944 24.4343 12.5324 23.9703 12.3804 23.8333L18.2464 18.3653C18.2464 18.3653 19.2424 17.6433 18.4104 16.7513C17.5774 15.8583 16.7894 16.8023 16.7894 16.8023L10.5864 22.5833L10.0894 23.0473L9.86938 23.2543C9.86938 23.2543 9.33138 23.9983 8.78238 23.4333L10.6244 19.2753C10.6244 19.2753 11.2044 18.2013 10.1314 17.6203C9.05638 17.0393 8.47638 18.1133 8.47638 18.1133L6.80838 20.8713C6.14538 21.9643 5.45938 23.0493 4.64938 24.0383C3.47758 25.4774 2.89548 27.3076 3.02059 29.1592C3.1457 31.0108 3.96871 32.746 5.32345 34.0145C6.67819 35.2829 8.46374 35.9901 10.3196 35.9932C12.1755 35.9963 13.9634 35.2951 15.3224 34.0313L15.7694 33.6133L22.4674 27.3693Z" fill="#F4900C"/>
<path d="M11.0143 6.08186C8.75933 6.68586 7.53433 8.04686 7.45933 8.13186C7.28453 8.33134 7.19596 8.59198 7.21301 8.85667C7.23007 9.12135 7.35137 9.36847 7.55033 9.54386C7.64885 9.63075 7.76355 9.69734 7.88786 9.73981C8.01217 9.78228 8.14364 9.79979 8.27473 9.79133C8.40582 9.78288 8.53395 9.74863 8.65177 9.69054C8.7696 9.63246 8.87479 9.55169 8.96133 9.45286C9.04033 9.36586 11.0513 7.19986 14.7713 7.96086C14.901 7.99005 15.0353 7.99309 15.1662 7.96979C15.2971 7.94648 15.422 7.89731 15.5337 7.82514C15.6454 7.75297 15.7415 7.65925 15.8165 7.54948C15.8916 7.4397 15.9439 7.31606 15.9706 7.1858C15.9973 7.05554 15.9977 6.92127 15.9718 6.79085C15.946 6.66042 15.8944 6.53646 15.8201 6.42622C15.7457 6.31598 15.6502 6.22166 15.5389 6.1488C15.4277 6.07593 15.3031 6.02598 15.1723 6.00186C13.5373 5.66586 12.1463 5.77886 11.0143 6.08186ZM24.9823 6.08286C23.8503 5.77986 22.4593 5.66686 20.8233 6.00086C20.6926 6.02498 20.5679 6.07493 20.4567 6.1478C20.3455 6.22066 20.2499 6.31498 20.1756 6.42522C20.1013 6.53546 20.0497 6.65942 20.0238 6.78985C19.998 6.92027 19.9984 7.05454 20.0251 7.1848C20.0517 7.31506 20.1041 7.4387 20.1791 7.54848C20.2541 7.65825 20.3503 7.75197 20.462 7.82414C20.5736 7.89631 20.6986 7.94548 20.8295 7.96879C20.9604 7.99209 21.0946 7.98905 21.2243 7.95986C24.9483 7.19786 26.9553 9.36486 27.0383 9.45686C27.4053 9.86386 28.0383 9.90086 28.4483 9.53486C28.6456 9.36002 28.7657 9.11414 28.7822 8.85103C28.7987 8.58791 28.7103 8.32897 28.5363 8.13086C28.4613 8.04686 27.2363 6.68686 24.9823 6.08286Z" fill="#664500"/>
</svg>
