<svg width="36" height="36" viewBox="0 0 36 36" fill="none" xmlns="http://www.w3.org/2000/svg">
<g clip-path="url(#clip0_311_1967)">
<path d="M36 18C36 27.941 27.941 36 18 36C8.059 36 0 27.941 0 18C0 8.059 8.059 0 18 0C27.941 0 36 8.059 36 18Z" fill="#FFCC4D"/>
<path d="M18 21.4988C8.667 21.4988 7.515 29.8528 7.504 29.9368C7.49342 30.0206 7.50427 30.1058 7.53553 30.1843C7.56679 30.2629 7.61745 30.3322 7.68277 30.3858C7.74809 30.4394 7.82594 30.4757 7.90905 30.491C7.99216 30.5064 8.07781 30.5005 8.158 30.4738C8.217 30.4538 14.126 28.4988 18 28.4988C23.595 28.4988 27.745 30.4318 27.786 30.4508C27.8671 30.4885 27.9568 30.5038 28.0458 30.4952C28.1348 30.4866 28.2199 30.4544 28.2923 30.4019C28.3647 30.3494 28.4218 30.2785 28.4576 30.1966C28.4934 30.1146 28.5066 30.0246 28.496 29.9358C28.485 29.8528 27.333 21.4988 18 21.4988ZM29 9.99879C23.446 9.99879 21.198 5.63179 21.105 5.44579C20.9858 5.20882 20.9656 4.9342 21.0489 4.68234C21.1321 4.43047 21.312 4.22201 21.549 4.10279C21.786 3.98358 22.0606 3.96338 22.3125 4.04665C22.5643 4.12991 22.7728 4.30982 22.892 4.54679C22.967 4.69279 24.713 7.99879 29 7.99879C29.2652 7.99879 29.5196 8.10415 29.7071 8.29168C29.8946 8.47922 30 8.73357 30 8.99879C30 9.26401 29.8946 9.51836 29.7071 9.7059C29.5196 9.89343 29.2652 9.99879 29 9.99879ZM7 9.99879C6.73478 9.99879 6.48043 9.89343 6.29289 9.7059C6.10536 9.51836 6 9.26401 6 8.99879C6 8.73357 6.10536 8.47922 6.29289 8.29168C6.48043 8.10415 6.73478 7.99879 7 7.99879C12.083 7.99879 12.996 4.87879 13.033 4.74579C13.1029 4.49155 13.2697 4.27486 13.4977 4.14229C13.7256 4.00972 13.9964 3.97184 14.252 4.03679C14.782 4.17579 15.103 4.70979 14.97 5.24179C14.921 5.43579 13.704 9.99879 7 9.99879Z" fill="#664500"/>
<path d="M18 23C22 23 24 25 24 25H12C12 25 14 23 18 23Z" fill="#CCD6DD"/>
<path d="M5.99967 19C5.78996 18.9999 5.58557 18.9339 5.41543 18.8113C5.24528 18.6887 5.11798 18.5158 5.05153 18.3169C4.98508 18.118 4.98284 17.9032 5.04514 17.7029C5.10744 17.5027 5.23111 17.3271 5.39867 17.201C5.54167 17.094 8.34967 15.018 12.2547 14.268C9.77967 13.027 7.03267 13 6.99767 13C6.74019 12.9884 6.49713 12.8778 6.3191 12.6915C6.14106 12.5051 6.04177 12.2573 6.0419 11.9995C6.04203 11.7418 6.14157 11.494 6.31979 11.3078C6.49801 11.1217 6.74118 11.0114 6.99867 11C7.21967 11 12.4507 11.038 15.7057 14.293C15.8455 14.4329 15.9407 14.611 15.9793 14.805C16.0178 14.9989 15.998 15.2 15.9223 15.3827C15.8467 15.5654 15.7185 15.7215 15.5541 15.8314C15.3897 15.9413 15.1964 16 14.9987 16C10.3857 16 6.63567 18.772 6.59867 18.8C6.42598 18.9299 6.21574 19.0001 5.99967 19ZM29.9977 18.999C29.7822 18.9993 29.5724 18.9298 29.3997 18.801C29.3617 18.772 25.5887 16 20.9987 16C20.8009 16 20.6076 15.9413 20.4432 15.8314C20.2788 15.7215 20.1507 15.5654 20.075 15.3827C19.9993 15.2 19.9795 14.9989 20.0181 14.805C20.0567 14.611 20.1519 14.4329 20.2917 14.293C23.5477 11.038 28.7777 11 28.9987 11C29.13 10.9999 29.2601 11.0256 29.3814 11.0757C29.5028 11.1259 29.6131 11.1994 29.7061 11.2922C29.799 11.385 29.8728 11.4951 29.9232 11.6164C29.9735 11.7377 29.9995 11.8677 29.9997 11.999C29.9998 12.1303 29.9741 12.2604 29.9239 12.3818C29.8738 12.5031 29.8002 12.6134 29.7075 12.7064C29.6147 12.7994 29.5046 12.8731 29.3833 12.9235C29.262 12.9739 29.132 12.9999 29.0007 13C28.9647 13 26.2177 13.027 23.7427 14.268C27.6477 15.018 30.4557 17.094 30.5977 17.201C30.7647 17.3272 30.888 17.5026 30.9501 17.7026C31.0121 17.9025 31.0099 18.1169 30.9436 18.3155C30.8773 18.5142 30.7504 18.6869 30.5807 18.8096C30.411 18.9322 30.207 18.9984 29.9977 18.999Z" fill="#664500"/>
</g>
<defs>
<clipPath id="clip0_311_1967">
<rect width="36" height="36" fill="white"/>
</clipPath>
</defs>
</svg>
