<svg width="36" height="36" viewBox="0 0 36 36" fill="none" xmlns="http://www.w3.org/2000/svg">
<g clip-path="url(#clip0_312_1405)">
<path d="M36 18C36 27.941 27.941 36 18 36C8.06 36 0 27.941 0 18C0 8.06 8.06 0 18 0C27.941 0 36 8.06 36 18Z" fill="#FFCC4D"/>
<path d="M18 33C20.7614 33 23 30.3137 23 27C23 23.6863 20.7614 21 18 21C15.2386 21 13 23.6863 13 27C13 30.3137 15.2386 33 18 33Z" fill="#664500"/>
<path d="M5.999 11C5.81337 10.9998 5.63146 10.948 5.47363 10.8503C5.3158 10.7526 5.18828 10.6128 5.10535 10.4468C5.02242 10.2807 4.98735 10.0948 5.00406 9.90995C5.02078 9.72507 5.08862 9.5485 5.2 9.4C8.462 5.05 12.816 5 13 5C13.1313 4.99974 13.2614 5.02534 13.3828 5.07536C13.5043 5.12537 13.6146 5.19881 13.7077 5.29148C13.8007 5.38415 13.8746 5.49425 13.9251 5.61547C13.9756 5.7367 14.0017 5.86668 14.002 5.998C14.0023 6.12932 13.9767 6.25941 13.9266 6.38084C13.8766 6.50226 13.8032 6.61265 13.7105 6.70569C13.6178 6.79874 13.5078 6.87262 13.3865 6.92312C13.2653 6.97361 13.1353 6.99974 13.004 7C12.849 7.002 9.436 7.086 6.8 10.6C6.70686 10.7244 6.58594 10.8254 6.44687 10.8949C6.30781 10.9643 6.15444 11.0003 5.999 11ZM30.001 11C29.8456 11.0003 29.6922 10.9643 29.5531 10.8949C29.4141 10.8254 29.2931 10.7244 29.2 10.6C26.56 7.079 23.139 7.002 22.994 7C22.7296 6.9971 22.4771 6.88984 22.2915 6.7016C22.1059 6.51335 22.0022 6.25937 22.003 5.995C22.0035 5.73093 22.1088 5.47785 22.2957 5.29131C22.4826 5.10477 22.7359 5 23 5C23.184 5 27.537 5.05 30.8 9.4C30.9114 9.5485 30.9792 9.72507 30.9959 9.90995C31.0127 10.0948 30.9776 10.2807 30.8947 10.4468C30.8117 10.6128 30.6842 10.7526 30.5264 10.8503C30.3685 10.948 30.1866 10.9998 30.001 11Z" fill="#664500"/>
<path d="M18 23C16.343 23 15 24.79 15 27H21C21 24.79 19.657 23 18 23Z" fill="#F5F8FA"/>
<path d="M12 18C13.3807 18 14.5 16.433 14.5 14.5C14.5 12.567 13.3807 11 12 11C10.6193 11 9.5 12.567 9.5 14.5C9.5 16.433 10.6193 18 12 18Z" fill="#664500"/>
<path d="M24 18C25.3807 18 26.5 16.433 26.5 14.5C26.5 12.567 25.3807 11 24 11C22.6193 11 21.5 12.567 21.5 14.5C21.5 16.433 22.6193 18 24 18Z" fill="#664500"/>
</g>
<defs>
<clipPath id="clip0_312_1405">
<rect width="36" height="36" fill="white"/>
</clipPath>
</defs>
</svg>
