<svg width="36" height="36" viewBox="0 0 36 36" fill="none" xmlns="http://www.w3.org/2000/svg">
<g clip-path="url(#clip0_311_1958)">
<path d="M18 36C27.9411 36 36 27.9411 36 18C36 8.05887 27.9411 0 18 0C8.05887 0 0 8.05887 0 18C0 27.9411 8.05887 36 18 36Z" fill="#FFCC4D"/>
<path d="M18 29C19.6569 29 21 27.6569 21 26C21 24.3431 19.6569 23 18 23C16.3431 23 15 24.3431 15 26C15 27.6569 16.3431 29 18 29Z" fill="#664500"/>
<path d="M17.3121 16.6121C17.2261 16.5429 17.1198 16.504 17.0095 16.5015C16.8992 16.499 16.7911 16.5329 16.7021 16.5981C16.6901 16.6071 15.4421 17.5001 13.0001 17.5001C10.5591 17.5001 9.3101 16.6071 9.3001 16.6001C9.21155 16.5336 9.10346 16.4985 8.99277 16.5001C8.88209 16.5017 8.77506 16.5399 8.68847 16.6089C8.60189 16.6779 8.54064 16.7736 8.51433 16.8812C8.48802 16.9887 8.49814 17.1019 8.5431 17.2031C8.6031 17.3381 10.0431 20.5001 13.0001 20.5001C15.9581 20.5001 17.3971 17.3381 17.4571 17.2031C17.5017 17.1024 17.5116 16.9898 17.4854 16.8828C17.4591 16.7759 17.3982 16.6807 17.3121 16.6121ZM27.3121 16.6121C27.2262 16.5427 27.1198 16.5038 27.0095 16.5012C26.8991 16.4987 26.7911 16.5328 26.7021 16.5981C26.6901 16.6071 25.4411 17.5001 23.0001 17.5001C20.5601 17.5001 19.3101 16.6071 19.3001 16.6001C19.2116 16.5336 19.1035 16.4985 18.9928 16.5001C18.8821 16.5017 18.7751 16.5399 18.6885 16.6089C18.6019 16.6779 18.5406 16.7736 18.5143 16.8812C18.488 16.9887 18.4981 17.1019 18.5431 17.2031C18.6031 17.3381 20.0431 20.5001 23.0001 20.5001C25.9581 20.5001 27.3971 17.3381 27.4571 17.2031C27.5017 17.1024 27.5116 16.9898 27.4854 16.8828C27.4591 16.7759 27.3982 16.6807 27.3121 16.6121Z" fill="#664500"/>
<path d="M34.4288 12.5348C34.4328 12.4908 34.4518 12.4578 34.4518 12.4118C34.4518 11.6578 33.9038 11.2238 33.2268 11.2238H29.6448L33.9238 5.23081C34.1298 4.94781 34.2058 4.77781 34.2058 4.41981C34.2058 3.68481 33.5658 3.57081 33.3208 3.57081H27.9718L27.9398 2.88281C27.9398 2.88281 26.5308 3.71381 26.4368 3.77081C26.3428 3.82781 25.9318 4.14281 25.9318 4.75781C25.9318 5.51181 26.4778 5.94481 27.1568 5.94481H30.3058L26.0448 11.9378C25.9508 12.0888 25.8008 12.3708 25.8008 12.6728C25.8008 13.2948 26.3088 13.5968 26.9118 13.5968H33.2268C33.4848 13.5968 33.7418 13.5208 33.9078 13.4208L35.4108 12.5328H34.4288V12.5348Z" fill="#FFAC33"/>
<path d="M31.7706 5.08594H28.6216C27.9426 5.08594 27.3966 4.65294 27.3966 3.89894C27.3966 3.14494 27.9426 2.71094 28.6216 2.71094H34.7856C35.0306 2.71094 35.6706 2.82394 35.6706 3.55894C35.6706 3.91694 35.5946 4.08694 35.3886 4.36994L31.1096 10.3629H34.6916C35.3686 10.3629 35.9166 10.7959 35.9166 11.5499C35.9166 12.3039 35.3686 12.7369 34.6916 12.7369H28.3766C27.7736 12.7369 27.2656 12.4349 27.2656 11.8129C27.2656 11.5109 27.4156 11.2289 27.5096 11.0779L31.7706 5.08594Z" fill="#2A6797"/>
<path d="M24.8848 7.48181C24.8878 7.44881 24.9028 7.42381 24.9028 7.38981C24.9028 6.82581 24.4928 6.50081 23.9858 6.50081H21.3038L24.5068 2.01381C24.6628 1.80181 24.7188 1.67481 24.7188 1.40781C24.7188 0.857812 24.2398 0.772812 24.0558 0.772812H20.0518L20.0278 0.257812C20.0278 0.257812 18.9728 0.879812 18.9028 0.922812C18.784 1.00551 18.6873 1.11619 18.6214 1.24507C18.5555 1.37395 18.5223 1.51707 18.5248 1.66181C18.5248 2.22581 18.9338 2.55081 19.4418 2.55081H21.7988L18.6088 7.03781C18.5388 7.15081 18.4258 7.36181 18.4258 7.58781C18.4258 8.05381 18.8058 8.27881 19.2578 8.27881H23.9858C24.1788 8.27881 24.3708 8.22181 24.4958 8.14681L25.6208 7.48181H24.8848Z" fill="#FFAC33"/>
<path d="M22.8964 1.903H20.5394C20.0314 1.903 19.6224 1.579 19.6224 1.014C19.6224 0.45 20.0314 0.125 20.5394 0.125H25.1544C25.3384 0.125 25.8174 0.21 25.8174 0.76C25.8174 1.028 25.7604 1.155 25.6064 1.367L22.4034 5.854H25.0854C25.5904 5.854 26.0004 6.178 26.0004 6.743C26.0004 7.308 25.5904 7.632 25.0834 7.632H20.3554C19.9034 7.632 19.5234 7.406 19.5234 6.941C19.5234 6.715 19.6364 6.504 19.7064 6.391L22.8964 1.903Z" fill="#2A6797"/>
<path d="M17.7399 10.4262C17.7429 10.3982 17.7549 10.3772 17.7549 10.3472C17.7549 9.86419 17.4039 9.58619 16.9699 9.58619H14.6749L17.4169 5.74619C17.5489 5.56519 17.5979 5.45619 17.5979 5.22719C17.5979 4.75619 17.1879 4.68319 17.0309 4.68319H13.6039L13.5829 4.24219L12.6199 4.81119C12.518 4.88191 12.4351 4.97668 12.3786 5.08709C12.3221 5.19751 12.2937 5.32017 12.2959 5.44419C12.2959 5.92719 12.6459 6.20519 13.0809 6.20519H15.0979L12.3679 10.0452C12.3079 10.1422 12.2109 10.3232 12.2109 10.5162C12.2109 10.9152 12.5369 11.1082 12.9229 11.1082H16.9699C17.1349 11.1082 17.2999 11.0592 17.4059 10.9952L18.3689 10.4262H17.7399Z" fill="#FFAC33"/>
<path d="M16.0354 5.65091H14.0184C13.5834 5.65091 13.2334 5.37291 13.2334 4.88991C13.2334 4.40691 13.5834 4.12891 14.0184 4.12891H17.9684C18.1254 4.12891 18.5354 4.20191 18.5354 4.67291C18.5354 4.90191 18.4874 5.01091 18.3544 5.19191L15.6124 9.03191H17.9074C18.3414 9.03191 18.6924 9.30991 18.6924 9.79291C18.6924 10.2759 18.3414 10.5539 17.9074 10.5539H13.8604C13.4744 10.5539 13.1484 10.3609 13.1484 9.96191C13.1484 9.76891 13.2444 9.58791 13.3054 9.49091L16.0354 5.65091Z" fill="#2A6797"/>
</g>
<defs>
<clipPath id="clip0_311_1958">
<rect width="36" height="36" fill="white"/>
</clipPath>
</defs>
</svg>
