<svg width="50" height="56" viewBox="0 0 50 56" fill="none" xmlns="http://www.w3.org/2000/svg">
<path d="M17.8423 15.2313C17.8564 14.591 17.7682 13.959 17.737 13.3287C16.277 12.7978 15.3059 11.4303 14.8723 9.97673C14.7169 9.45583 14.378 8.27507 14.5459 7.7362C14.6216 7.49357 15.0757 7.17551 15.2786 7.0022C15.7722 6.58047 16.0065 6.49735 16.2177 5.73061C16.9671 6.69473 17.297 4.7498 17.5705 4.29277C17.8593 5.22993 18.404 3.75423 18.8083 3.71282C19.2641 3.66629 19.4242 4.18076 19.8023 4.27031C20.1579 4.35472 20.6348 4.14064 21.0245 4.18782C21.0251 4.37076 21.1567 4.51839 21.1455 4.70839C21.8708 4.61339 22.5647 5.0945 21.9636 5.8009C22.7396 5.84166 22.2508 6.75892 21.6872 6.84526C22.0984 7.42296 22.4492 7.81066 22.4177 8.54466C23.8953 8.5774 22.8317 12.1957 23.1421 13.1294C24.3598 12.6139 25.6146 12.3983 26.9575 12.3983C28.2438 12.3983 29.5693 12.7754 30.8185 12.6724C32.0506 11.7538 33.6961 11.8623 35.0222 11.4845C36.167 10.1356 39.4163 9.93597 41.0801 9.74853C42.0785 9.63588 45.409 9.60379 45.8054 8.46892C46.3115 7.02049 47.9233 3.17748 49.5386 3C49.6111 4.37557 49.1377 5.23603 48.6384 6.45851C48.8967 6.06792 49.5659 5.57784 49.9953 5.46487C50.0454 5.98416 49.6834 6.01657 49.4385 6.36255C48.725 7.36968 48.2651 8.53664 47.9987 9.74821C47.4156 10.0493 46.7583 9.88654 46.0795 10.203C44.6734 10.858 43.2911 11.454 41.8651 12.0786C39.8457 12.9628 37.879 14.3368 35.5707 13.5864C34.2908 14.6436 32.9534 15.2268 31.4405 15.8735C30.8448 16.128 28.7237 16.6187 28.5343 17.2417C27.9775 19.0739 29.7882 20.6825 29.4936 22.623C29.4394 22.9792 29.2442 23.3688 29.2657 23.7251C29.2933 24.1856 29.5684 24.3102 29.6557 24.7531C29.7494 25.229 29.6191 25.5596 29.5392 26.0125C29.4108 26.7388 29.4914 27.0007 29.631 27.7504C29.6496 27.8512 29.7 28.3204 29.6419 28.5428C29.5591 28.8599 28.8623 29.3452 28.912 29.6713C28.9615 29.9951 29.6152 30.2958 29.7542 30.6591C29.9782 31.2442 29.8104 31.1983 29.6666 31.7256C29.5344 32.2109 29.3068 32.1371 29.4419 32.6872C29.5116 32.9712 29.9455 33.0906 29.9898 33.4533C30.0719 34.1263 29.2654 34.3693 29.6313 35.0612C30.8794 35.7211 30.2854 37.5912 30.1769 38.694C29.9895 40.5991 29.968 42.7081 29.4496 44.5564C29.2471 45.2785 28.9685 46.0164 28.8957 46.7716C28.8552 47.1907 29.0857 48.0753 28.836 48.4302C28.2856 49.2117 26.7736 48.6799 26.3419 49.4085C25.7767 50.362 25.2661 52.6667 24.24 53.2467C23.1257 53.8764 20.8518 52.9183 19.7622 52.4241C19.2018 59.8607 10.3806 52.6067 7.33421 51.6015C6.37907 51.6307 3.12275 54.7949 3.58748 55.0741C2.35665 54.2705 2.69429 52.3243 3.22193 51.2359C2.42373 50.8521 1.22596 51.7652 1.0289 52.5152C-0.154426 52.237 -0.154747 50.3886 0.224611 49.48C0.645051 48.4729 1.75584 48.1597 2.21576 47.3512C2.90034 46.148 2.15221 44.8543 3.93475 44.1774C5.40372 43.6196 6.56169 44.3311 6.42015 45.9358C6.80176 45.682 8.34166 44.5195 8.33909 44.4736C9.65112 44.9428 10.0234 46.1782 10.5321 47.2151C12.046 47.3936 13.3674 47.8069 14.9185 47.8548C15.0533 47.3933 15.2677 46.9898 15.4756 46.5755C15.31 46.4067 15.19 46.0992 15.0157 45.9519C15.6377 45.9821 16.6009 45.3366 15.9237 44.7477C15.6804 43.5448 17.2299 43.426 15.9914 42.2803C16.0858 42.1577 16.2437 41.9827 16.3807 41.9147C16.3846 41.6313 16.226 41.1393 16.2806 40.9092C16.3672 40.5439 16.9161 40.3973 16.9684 40.0404C17.0348 39.5856 16.3422 39.3625 16.3865 38.8718C16.4099 38.6125 16.9016 38.4363 17.0082 38.1766C17.1558 37.8172 17.1121 37.3464 17.02 36.9805C16.8978 36.4939 12.4228 37.1907 13.3648 35.4271C14.2824 33.7084 16.1304 32.6917 16.9555 30.8109C17.2023 30.2486 17.1086 30.0846 17.0197 29.6013C16.9895 29.4376 16.6991 29.254 16.6734 29.0306C16.6282 28.6391 17.1125 28.306 17.1115 27.8428C15.6053 27.3274 17.1706 25.3327 16.0148 24.4617C15.665 23.5389 15.7639 23.4016 14.5661 23.3515C14.3372 22.7924 14.5873 22.0238 14.7217 21.4688C14.6203 21.2971 14.5632 21.3783 14.4611 21.3546C12.9158 21.4223 11.6018 21.7391 10.1255 22.1544C9.24672 22.4015 7.15223 23.1991 6.32804 22.6339C5.10139 22.6891 5.17039 20.9849 5.32284 20.2579C5.00029 19.8128 5.08373 19.073 5.68422 18.892C5.23554 17.9981 5.81453 17.9365 6.30943 17.4092C6.72216 16.9695 6.38421 16.5622 7.33324 16.783C8.39333 17.0302 8.62634 18.1005 8.79547 19.0701C9.54007 18.7986 10.2773 18.7655 10.9885 18.4304C11.7264 16.628 13.3715 17.0562 14.7352 17.3338C14.8578 16.9361 14.7968 16.5211 14.9178 16.146C15.0687 16.0442 15.3768 15.9226 15.5389 15.7878C15.5889 15.9072 15.7006 16.0301 15.7401 16.146C16.3534 16.1341 17.3885 15.6132 17.8423 15.2313Z" fill="#2257E1"/>
<path d="M14.3944 1.06046C14.1967 0.379412 13.6084 -0.0776166 12.8866 0.0109645C11.9189 0.129715 11.2456 1.05886 10.8948 1.8885C10.6323 2.50921 10.2407 3.07535 9.97176 3.69799C9.55871 4.65409 9.01823 5.86726 9.05995 6.93248C9.08403 7.54389 9.41107 8.1784 10.0754 8.24965C10.9612 8.34497 11.7065 7.35613 12.1959 6.75917C12.8747 5.93178 13.4287 5.00713 13.8382 4.01862C14.1944 3.15912 14.6685 2.00565 14.3944 1.06046ZM13.7153 3.34399C13.2351 4.71571 12.4633 5.98666 11.4683 7.04578C11.1997 7.33174 10.7879 7.81573 10.3906 7.87478C9.53399 8.0022 9.36036 7.05412 9.47044 6.41255C9.58117 5.76585 9.80166 5.12203 10.0295 4.50966C10.4914 3.2676 11.1326 2.11476 11.909 1.04698C12.6199 0.323244 13.6145 -0.230065 14.0494 1.15578C14.2631 1.83811 13.9406 2.70017 13.7153 3.34399Z" fill="#2257E1"/>
<path d="M10.1784 8.0282C9.18827 11.064 8.19783 14.0999 7.20739 17.1357C7.13582 17.3552 7.48148 17.4493 7.55273 17.2307C8.54317 14.1949 9.53329 11.159 10.5237 8.12321C10.5953 7.90368 10.2496 7.80964 10.1784 8.0282Z" fill="#2257E1"/>
</svg>
