<svg width="60" height="62" viewBox="0 0 60 62" fill="none" xmlns="http://www.w3.org/2000/svg">
<path d="M38.9444 10.1216C39.3194 10.0942 39.5324 10.2692 39.5833 10.6466C39.5903 10.697 39.5708 10.756 39.525 10.8236C39.5125 10.8422 39.5143 10.8595 39.5306 10.8757C39.7301 11.0743 39.7505 11.2954 39.5917 11.5389C39.5801 11.557 39.5787 11.5759 39.5875 11.5959C39.6801 11.8014 39.6815 12.0065 39.5917 12.2111C39.5819 12.2334 39.5782 12.2563 39.5806 12.2799C39.6028 12.5139 39.5125 12.6459 39.4229 12.8452C39.172 13.4003 38.7796 13.8935 38.2458 14.325C38.1083 14.4361 38.0604 14.5975 38.1021 14.8091C38.1062 14.8313 38.1157 14.8507 38.1306 14.8674C38.1755 14.9174 38.1903 14.9792 38.175 15.0528C38.1712 15.0708 38.1736 15.0896 38.1818 15.1061C38.19 15.1226 38.2035 15.1359 38.2201 15.1438C39.4153 15.7153 39.3125 16.8924 39.0062 17.9716C38.8266 18.6049 38.6574 19.2412 38.4986 19.8806C38.2926 20.7097 38.3986 21.4644 38.8167 22.1445C39.1451 22.6785 39.5146 23.1056 40.1431 23.141C41.1979 23.2007 42.0132 23.3278 42.9674 23.6111C44.1 23.9479 44.7583 24.1236 45.4069 24.9764C45.8055 25.4993 46.1812 25.9889 46.3972 26.5681C47.3451 29.1077 45.5417 31.9306 42.7799 32.0097C41.0778 32.0584 39.4896 31.0674 38.8785 29.457C38.6285 28.7993 38.6118 28.2389 38.6083 27.5424C38.6083 27.5188 38.5968 27.5097 38.5736 27.5153C37.0229 27.8771 35.425 27.6396 33.8819 28.0709C33.8579 28.0778 33.8484 28.0935 33.8535 28.1181C34.0224 28.9241 34.3965 29.6303 34.9757 30.2368C35.7437 31.0396 36.3278 31.5514 36.9229 32.4354C37.7391 33.6465 38.5567 34.857 39.3757 36.0667C40.1 37.1375 40.1167 38.1528 40.1042 39.3966C40.1042 39.411 40.1088 39.4251 40.1174 39.4368C40.9373 40.5729 41.6093 41.7776 42.1333 43.0507C42.8722 44.8459 43.5618 46.6375 44.5694 48.3084C44.581 48.3276 44.5993 48.3418 44.6209 48.3482C44.6425 48.3546 44.6657 48.3528 44.6861 48.3431C44.8208 48.2792 44.9562 48.2486 45.0896 48.341C45.618 48.7084 45.2354 49.1993 45.3056 49.7118C45.3861 50.3035 45.9215 50.7861 46.3653 51.1403C47.0634 51.6963 47.759 52.2556 48.4521 52.8181C48.7986 53.0993 49.1049 53.7667 48.4194 53.891C47.3576 54.0834 45.8611 54.2056 44.8604 53.7222C44.3555 53.4785 44.0208 53.3632 43.5069 53.4215C42.9037 53.491 42.3333 53.4634 41.7958 53.3389C41.7718 53.3334 41.7521 53.3211 41.7368 53.3021C41.3271 52.7945 41.884 50.7632 42.0861 50.1917C42.2396 49.7577 41.9521 48.9285 41.8444 48.4771C41.8199 48.3743 41.7736 48.2792 41.7056 48.1917C41.4785 47.8993 41.3937 47.641 41.275 47.2403C40.6451 45.1132 38.3826 44.2681 37.6917 42.1632C37.3243 41.0452 37.4465 39.8688 36.7701 38.8424C36.341 38.1917 35.8611 37.5056 35.2535 37.0084C34.4359 36.3398 33.5669 35.7493 32.6465 35.2368C32.1611 34.966 31.6125 34.7931 31.0806 34.6014C30.9549 34.557 30.8007 34.4736 30.709 34.3785C30.1234 33.7748 29.5025 33.2095 28.8465 32.6827C28.8289 32.6683 28.8088 32.6607 28.7861 32.6597C28.4903 32.6507 27.9965 32.9854 27.7826 33.1514C26.6896 33.9986 25.7701 35.1195 24.9882 36.2736C24.2692 37.3352 23.5565 38.4012 22.85 39.4716C22.4562 40.0688 21.9708 40.8202 21.4903 41.2507C21.2986 41.4216 21.0715 41.3674 20.8305 41.3313C18.5782 40.9878 16.3213 40.6762 14.0597 40.3965C13.4764 40.3243 12.6674 40.116 12.1319 40.4347C12.1097 40.4477 12.0981 40.4669 12.0972 40.4924C12.0701 41.2465 11.3458 41.1104 10.8819 41.4681C10.1465 42.034 9.65069 43.2584 9.30277 44.1841C8.74791 45.6639 7.24652 45.3778 7.01388 43.8917C6.81249 42.6028 6.85347 41.2236 7.34374 40.0556C7.80763 38.9507 8.18819 38.1715 8.26805 37.1202C8.2699 37.0961 8.27986 37.0759 8.29791 37.0597C8.70416 36.6959 9.59305 36.057 10.1681 36.3722C10.5208 36.5648 10.884 36.7345 11.2576 36.8813C11.5375 36.991 11.875 37.1868 12.0069 37.4049C12.191 37.7084 12.3944 38.107 12.825 38.0153C14.6801 37.6209 16.5474 37.5419 18.4271 37.7785C18.9146 37.8396 19.2736 37.8007 19.7146 37.6757C19.8229 37.6445 19.9236 37.6632 20.0167 37.7104C20.0216 37.713 20.0271 37.7144 20.0327 37.7146C20.0383 37.7147 20.0439 37.7135 20.049 37.7112C20.0541 37.7088 20.0586 37.7054 20.0621 37.701C20.0657 37.6967 20.0682 37.6916 20.0694 37.6861C20.1792 37.225 20.2826 36.7646 20.3799 36.3049C20.5306 35.5917 20.4903 34.716 20.5764 33.8965C20.6023 33.6465 20.6891 33.2725 20.8368 32.7743C21.1653 31.6674 21.4576 30.5563 21.7528 29.4403C22.3736 27.0896 23.6535 24.8896 25.4507 23.2236C26.2236 22.5063 26.634 21.3931 27.0028 20.4938C28.2215 17.5236 30.643 15.8389 33.1653 14.091C33.4833 13.8702 33.25 13.5181 33.1562 13.2591C33.0035 12.8382 33.0222 12.4306 33.1715 12.0181C33.1808 11.9935 33.1977 11.9773 33.2222 11.9695L33.2924 11.9466C33.3146 11.9391 33.3324 11.9257 33.3458 11.9063C33.6014 11.5243 32.6618 11.2334 32.9444 10.7104C32.9546 10.6915 32.9532 10.6734 32.9403 10.6563C32.8449 10.5303 32.8516 10.4132 32.9604 10.3049C32.9775 10.2878 32.9854 10.2669 32.984 10.2424C32.9724 9.9859 33.0819 9.80674 33.3125 9.70489C33.3338 9.69563 33.3507 9.68104 33.3632 9.66114C33.4403 9.53822 33.6903 9.15072 33.8937 9.1035C33.9132 9.09933 33.9241 9.08729 33.9264 9.06739C33.9479 8.8778 34.0819 8.70002 34.2931 8.80072C34.3245 8.81553 34.3403 8.80558 34.3403 8.77086V8.72364C34.3403 8.70234 34.347 8.68336 34.3604 8.66669C34.4831 8.51391 34.6294 8.49053 34.7993 8.59655C34.8215 8.61044 34.8396 8.60651 34.8535 8.58475C34.9562 8.42502 35.1042 8.22572 35.2979 8.42919C35.3141 8.44586 35.3322 8.44864 35.3521 8.43752C35.5998 8.30188 35.8366 8.31739 36.0625 8.48405C36.0796 8.49702 36.0956 8.49586 36.1104 8.48058C36.2627 8.32549 36.4382 8.30257 36.6368 8.41183C36.6576 8.4234 36.6782 8.4234 36.6986 8.41183C36.8556 8.32202 37.0042 8.32942 37.1444 8.43405C37.1639 8.4484 37.1738 8.46762 37.1743 8.49169L37.1778 8.62919C37.1787 8.65558 37.1914 8.66368 37.216 8.6535C37.5354 8.52063 37.7495 8.61345 37.8583 8.93197C37.8667 8.95604 37.8831 8.96507 37.9076 8.95905C38.2368 8.8785 38.3722 9.10419 38.3681 9.38891C38.3676 9.41808 38.3815 9.4285 38.4097 9.42016C38.8236 9.29655 39.0521 9.73614 38.9201 10.0889C38.9109 10.1125 38.919 10.1234 38.9444 10.1216ZM33.2125 25.9146C33.2632 26.2986 33.5458 26.3507 33.8715 26.3341C34.2711 26.3137 34.6699 26.2813 35.0681 26.2368C35.2417 26.2174 35.4569 26.1301 35.7139 25.975C36.0333 25.7827 37.0229 25.6521 37.2035 25.3285C37.525 24.7514 36.1562 24.6778 36.1125 24.0493C36.0634 23.3498 36.1475 22.5683 36.3646 21.7049C36.3743 21.6665 36.362 21.6577 36.3278 21.6785C36.2741 21.7109 36.2134 21.7602 36.1458 21.8264C35.2921 22.6593 34.565 23.4137 33.9646 24.0896C33.5354 24.5722 33.1208 25.232 33.2125 25.9146Z" fill="#2257E1"/>
</svg>
