<svg width="60" height="60" viewBox="0 0 60 60" fill="none" xmlns="http://www.w3.org/2000/svg">
<path d="M11 56.1147V55.7763C11.0176 55.5849 11.0299 55.3837 11.0611 55.2024C11.1828 54.4973 11.404 53.8248 11.7247 53.1849C11.7559 53.1224 11.7977 53.0646 11.8499 53.0118C12.2167 52.639 12.6111 52.2616 12.7455 51.7343C12.7483 51.7238 12.7467 51.7142 12.7408 51.7054C12.5778 51.456 12.5752 51.196 12.6105 50.9111C12.7553 49.741 13.3235 47.5082 14.8855 47.5079C15.5054 47.5079 15.8428 47.9155 15.9206 48.4995C15.922 48.5102 15.9273 48.5184 15.9363 48.524C16.2708 48.7358 16.5257 49.0198 16.7009 49.3762C16.7037 49.3817 16.7081 49.3862 16.7137 49.3889C16.7192 49.3916 16.7254 49.3925 16.7315 49.3913C17.153 49.3088 17.0825 49.8902 17.4001 50.035C17.6274 50.1387 17.8296 50.2791 18.0067 50.4562C18.0143 50.4638 18.0233 50.4682 18.0338 50.4695C18.4556 50.5173 18.9637 50.5941 19.3468 50.7805C19.3562 50.7849 19.3661 50.7867 19.3764 50.7858C20.4055 50.6832 21.5683 50.6895 22.5731 51.0207C22.625 51.0377 22.6812 51.0465 22.7419 51.0471C22.9255 51.0486 23.1044 51.079 23.2786 51.1384C23.2797 51.1388 23.2809 51.1389 23.282 51.1388C23.2832 51.1387 23.2843 51.1382 23.2853 51.1376C23.2862 51.137 23.2871 51.1361 23.2877 51.1351C23.2882 51.1341 23.2886 51.133 23.2887 51.1318C23.3457 50.0816 23.4477 49.0358 23.5946 47.9942C23.7775 46.697 24.0517 45.3657 24.5283 44.1418C24.5291 44.1398 24.5293 44.1377 24.5291 44.1356C24.5289 44.1335 24.5283 44.1315 24.5272 44.1297C24.5261 44.1279 24.5246 44.1264 24.5228 44.1253C24.5211 44.1242 24.5191 44.1234 24.517 44.1232C23.8234 44.0439 23.1741 43.828 22.569 43.4757C20.6856 42.3786 20.0925 40.3881 20.1306 38.3228C20.1413 37.7469 20.2462 37.2025 20.4451 36.6896C20.464 36.6405 20.4739 36.5888 20.4747 36.5344C20.486 35.6064 21.5371 34.5462 22.1985 33.9921C22.2256 33.9695 22.2807 33.9122 22.293 33.8785C22.463 33.4179 22.7346 33.1013 23.0085 32.7339C23.046 32.6835 23.0648 32.5286 23.0837 32.4629C23.1391 32.2693 23.1854 32.0413 23.3286 31.8918C23.4684 31.7461 23.7265 31.7316 23.7461 31.499C23.781 31.0863 23.7014 30.6799 24.0338 30.3597C24.2038 30.196 24.3898 30.0499 24.3854 29.8409C24.3826 29.7043 24.369 29.5737 24.3967 29.4408C24.441 29.2278 24.505 29.0232 24.5888 28.827C24.5895 28.8252 24.5898 28.8233 24.5896 28.8214C24.5894 28.8196 24.5888 28.8178 24.5877 28.8162C24.5866 28.8146 24.5852 28.8133 24.5835 28.8125C24.5818 28.8116 24.58 28.8112 24.5781 28.8112C24.1972 28.8169 24.1012 28.662 23.9768 28.3246C23.9 28.1162 23.7826 27.8905 23.7451 27.6928C23.7069 27.4909 23.7061 27.2878 23.7426 27.0836C23.8808 26.3158 23.9683 25.5459 24.2611 24.8275C24.4052 24.4737 24.6486 24.2275 25.0345 24.174C25.0375 24.1735 25.0402 24.1722 25.0424 24.1702C25.0446 24.1681 25.0461 24.1654 25.0466 24.1625C25.0472 24.1596 25.0469 24.1565 25.0457 24.1538C25.0445 24.151 25.0424 24.1488 25.0399 24.1472C24.7235 23.9618 24.5671 23.6461 24.5145 23.2916C24.4978 23.1795 24.3933 23.0665 24.3473 22.9752C24.0162 22.3164 23.8509 21.576 23.7757 20.8488C23.7684 20.7795 23.7842 20.7446 23.8377 20.7059C23.848 20.6983 23.8486 20.6899 23.8396 20.6807C23.7894 20.6295 23.7629 20.571 23.7599 20.5054C23.7398 20.0788 23.7391 19.6645 23.843 19.1728C23.8453 19.1619 23.8507 19.1528 23.8591 19.1454C23.9204 19.09 23.9365 19.0174 23.9076 18.9276C23.905 18.9198 23.9 18.9143 23.8924 18.9109C23.3877 18.6805 22.9126 18.4001 22.4671 18.0698C22.3084 17.952 22.3329 17.6993 22.395 17.5305C22.4726 17.3192 22.5542 17.1102 22.6399 16.9035C22.6417 16.899 22.6417 16.894 22.64 16.8894C22.6384 16.8849 22.635 16.8811 22.6307 16.8789C22.2377 16.6724 21.9653 16.3599 21.8135 15.9414C21.81 15.9316 21.803 15.9254 21.7928 15.9229C21.6874 15.8954 21.6193 15.861 21.5885 15.8196C18.3106 11.4314 15.0265 7.04764 11.7363 2.66842C11.6677 2.57713 11.6535 2.48111 11.7083 2.37314C11.8139 2.16538 11.948 1.97681 12.1106 1.80745C12.7062 1.18605 13.3441 0.61165 14.0242 0.0842628C14.3626 -0.178277 14.6224 0.236309 14.8012 0.460443C16.4648 2.5425 18.1207 4.64502 19.7 6.79192C21.2488 8.89696 22.7916 11.0174 24.2586 13.1807C24.3775 13.3564 24.4241 13.481 24.3259 13.6841C24.2271 13.889 24.1156 14.0845 24.1912 14.2598C24.1954 14.2697 24.2029 14.274 24.2139 14.2727C24.7084 14.2142 25.2297 14.1742 25.7167 14.2491C25.8114 14.2636 26.0409 14.3111 26.1017 14.4012C26.1078 14.4104 26.1163 14.4157 26.1272 14.4172C26.323 14.4471 26.5427 14.4622 26.5682 14.709C26.5697 14.7235 26.5769 14.7273 26.5899 14.7204C26.7788 14.6215 26.9126 14.6725 27.0816 14.7884C27.9209 15.3635 28.5961 16.2194 29.1457 17.0628C29.3674 17.4027 28.96 17.5718 28.7154 17.6398C28.7041 17.6429 28.6946 17.6488 28.6871 17.6574L28.5719 17.789C28.5675 17.794 28.5652 17.8005 28.5655 17.8072C28.5657 17.8138 28.5684 17.8201 28.5731 17.8249C28.8955 18.1466 29.207 18.4621 29.5078 18.7715C29.6346 18.9021 29.6658 19.028 29.611 19.1977C29.6077 19.2084 29.6101 19.2174 29.6183 19.2248L30.0212 19.5928C30.0241 19.5954 30.0278 19.597 30.0317 19.5972C30.0356 19.5975 30.0395 19.5963 30.0426 19.594C30.6637 19.1398 31.4563 18.937 32.1555 19.339C32.2216 19.3768 32.487 19.2887 32.5833 19.2934C32.7556 19.3018 32.9226 19.3391 33.0842 19.4055C33.1259 19.4227 33.1988 19.4194 33.3029 19.3957C33.449 19.3623 33.777 19.5525 33.8932 19.5632C34.0296 19.5756 34.1627 19.6013 34.2927 19.6403C34.496 19.7014 34.7151 19.8506 34.8949 19.929C35.3895 20.1455 35.8922 20.3412 36.403 20.5161C36.4048 20.5166 36.4066 20.5169 36.4085 20.5167C36.4103 20.5166 36.412 20.5161 36.4136 20.5152C36.4152 20.5143 36.4166 20.5132 36.4177 20.5117C36.4188 20.5103 36.4196 20.5087 36.42 20.5069C36.5176 20.0895 36.8416 19.7228 37.1733 19.4716C37.1767 19.469 37.1794 19.4656 37.181 19.4617C37.1826 19.4578 37.1832 19.4536 37.1827 19.4494C37.1821 19.4452 37.1805 19.4412 37.1779 19.4379C37.1753 19.4345 37.1719 19.4319 37.168 19.4303C36.8431 19.2965 36.8063 19.0743 36.8205 18.7305C36.8368 18.3284 36.8537 17.9264 36.8711 17.5246C36.8737 17.4671 36.9055 17.4026 36.9665 17.3313C36.9735 17.3231 36.9774 17.3135 36.9785 17.3026C36.9923 17.1459 37.0578 16.2245 37.1611 16.1694C37.444 16.0183 37.7208 15.8569 37.9915 15.6852C38.0003 15.6795 38.0068 15.6719 38.011 15.6622C38.9995 13.3985 41.5588 12.5338 43.6455 13.9645C44.8688 14.8032 45.1887 16.1561 44.877 17.5478C44.8745 17.5592 44.8783 17.5677 44.8884 17.5733C45.1625 17.7251 45.8242 18.122 45.4937 18.5221C45.3542 18.6909 45.1339 18.5495 45.0058 18.7633C44.9302 18.8895 44.7816 19.1845 44.6186 19.1879C44.6068 19.1881 44.5997 19.194 44.5972 19.2056C44.5575 19.3796 45.2164 19.6664 44.9614 20.0413C44.6634 20.4797 44.3682 20.9197 44.0759 21.3613C44.0526 21.3967 44.0369 21.4385 44.029 21.4866C43.9559 21.9248 43.6282 22.135 43.2017 22.1772C43.1897 22.1785 43.1834 22.1852 43.1828 22.1974C43.1441 22.8304 42.1792 22.7064 41.7857 22.6208C41.7754 22.6185 41.7666 22.6134 41.7593 22.6057C41.7247 22.5685 41.6825 22.5429 41.6327 22.5289C41.6225 22.5259 41.6126 22.527 41.6031 22.532C41.4355 22.6208 41.2571 22.6767 41.068 22.6998C41.0569 22.7011 41.0492 22.7068 41.045 22.7171C40.9781 22.8779 40.8687 23.0013 40.717 23.0873C40.708 23.0923 40.703 23.1001 40.7022 23.1106C40.6896 23.2724 40.6529 23.4283 40.592 23.5784C40.5878 23.5887 40.588 23.5988 40.5927 23.6089C40.6344 23.6987 40.6949 23.7732 40.774 23.8324C40.9356 23.9531 41.0939 24.0783 41.249 24.208C41.9384 24.7837 42.3524 25.5632 42.5762 26.4367C42.5789 26.4472 42.5846 26.4555 42.5932 26.4616C42.9269 26.704 43.0911 27.0245 43.0858 27.423C43.0751 28.2304 42.6152 28.7653 42.0407 29.2718C41.6042 29.6569 41.1528 30.0238 40.6865 30.3726C40.5382 30.4834 40.5262 30.6125 40.5372 30.7913C40.5484 30.969 40.5625 31.1468 40.5797 31.3246C40.6103 31.6406 40.587 31.9998 40.196 32.0577C39.8013 32.1166 39.3206 32.0668 38.9296 32.2475C38.8125 32.3017 38.6506 32.416 38.4439 32.5903C37.9969 32.9677 37.5575 33.3536 37.1258 33.7482C37.0578 33.8105 36.9901 33.8593 36.9435 33.9424C36.7788 34.2377 36.6093 34.5302 36.4352 34.82C35.8683 35.7644 35.1472 36.5697 34.2719 37.2358C34.2707 37.2367 34.2698 37.2381 34.2695 37.2396C34.2693 37.2411 34.2695 37.2426 34.2703 37.244C34.4422 37.577 34.6355 37.8906 34.8993 38.1641C35.131 38.404 35.2978 38.6061 35.4303 38.913C35.4347 38.9229 35.4414 38.9305 35.4505 38.936C35.8978 39.2007 35.9837 39.6641 35.8544 40.1366C35.8514 40.1477 35.8555 40.1549 35.8666 40.158C36.2592 40.2701 36.2746 40.7986 36.2176 41.1257C36.2157 41.1368 36.2194 41.1456 36.2286 41.1522C36.5903 41.403 36.9716 41.8793 36.5825 42.2908C36.5749 42.2987 36.5728 42.3079 36.5762 42.3182C36.6845 42.6528 36.8167 43.0595 36.7496 43.4102C36.7125 43.6041 36.743 43.8093 36.7745 44.002C36.9099 44.8331 37.0806 45.6567 37.2867 46.4728C37.6433 47.8847 38.012 49.2899 38.424 50.687C38.4834 50.8887 38.6476 51.3631 38.9167 52.1102C39.2445 53.0206 39.5823 53.9273 39.93 54.8303C39.946 54.8717 39.9885 54.9961 40.0575 55.2037C40.1368 55.4426 40.2281 55.5921 40.4019 55.7772C40.7249 56.121 40.8413 56.4537 40.903 56.9174C40.9043 56.9277 40.9097 56.9354 40.9191 56.9404C41.5797 57.2944 42.2489 57.6313 42.9265 57.9509C43.293 58.1234 43.5933 58.4366 43.6213 58.8591C43.644 59.1994 43.1397 59.4783 42.8648 59.5869C42.3401 59.7937 41.8317 59.8913 41.289 59.9385C40.0377 60.0465 38.7407 59.9341 37.5026 59.738C36.5035 59.5795 35.4742 59.3821 34.4148 59.1455C33.9029 59.0313 33.2299 58.7618 33.6247 58.0897C33.6942 57.9714 33.8897 57.8335 33.9036 57.7296C33.9636 57.2864 34.0236 56.8432 34.0836 56.4002C34.0912 56.3435 34.0969 56.313 34.0742 56.2586C33.9399 55.9347 33.7978 55.5675 33.648 55.1568C33.6121 55.0589 33.6253 54.9959 33.6879 54.9081C33.7933 54.7597 33.9014 54.618 34.0122 54.4831C34.0176 54.4766 34.0212 54.4688 34.0227 54.4604C34.0243 54.4521 34.0237 54.4436 34.021 54.4356C33.9234 54.1439 33.8276 53.8524 33.7336 53.5611C33.6379 53.2645 33.6118 53.0561 33.7097 52.7823C33.7132 52.7726 33.7122 52.7634 33.7065 52.7546C33.4639 52.3707 33.2675 51.9653 33.1172 51.5382C33.0832 51.4415 33.043 51.3534 32.9966 51.2741C32.425 50.2954 31.852 49.2858 31.4362 48.2265C31.4354 48.2244 31.434 48.2224 31.4323 48.2208C31.4306 48.2192 31.4285 48.218 31.4262 48.2174C31.4239 48.2168 31.4216 48.2167 31.4193 48.2171C31.4169 48.2175 31.4148 48.2185 31.4129 48.2199L31.23 48.3572C31.2208 48.3641 31.2159 48.3735 31.2155 48.3852C31.1781 49.3054 30.8765 50.0738 30.3152 50.7893C29.9482 51.2573 29.6219 51.7528 29.3365 52.2758C28.7604 53.331 28.2231 54.292 27.8863 55.396C27.8827 55.4078 27.887 55.4138 27.8992 55.4143C28.2675 55.4287 28.5659 55.5559 28.6276 55.9551C28.6286 55.9619 28.6311 55.9683 28.6349 55.9741C28.6387 55.9798 28.6437 55.9846 28.6495 55.9882C28.6554 55.9918 28.6619 55.9941 28.6687 55.9949C28.6756 55.9957 28.6825 55.995 28.689 55.9929C29.2279 55.8169 30.2828 55.7322 30.4868 56.4786C30.5264 56.6238 30.5693 56.7495 30.6152 56.8557C30.7374 57.1384 30.5205 57.2552 30.2708 57.2265C30.2261 57.2215 30.1865 57.2249 30.1518 57.2366C29.3004 57.5218 28.4733 57.8655 27.6706 58.2676C26.9828 58.6123 26.2625 58.752 25.4973 58.708C24.4112 58.6456 23.1486 58.4212 22.2558 57.7598C22.201 57.7191 22.0601 57.6515 21.8331 57.5571C20.1621 56.862 18.4525 56.2356 16.6588 55.5726C16.0451 55.346 15.4745 55.1441 14.9469 54.9669C14.9104 54.9547 14.8792 54.933 14.8396 54.9141C14.828 54.9086 14.8196 54.9115 14.8144 54.9229C14.4558 55.7036 13.2303 58.1033 12.1581 57.9396C11.7187 57.8725 11.3444 57.4419 11.192 57.0421C11.0787 56.7443 11.0147 56.4352 11 56.1147ZM37.372 17.0583C37.3865 17.0609 37.4007 17.0615 37.4148 17.0602C37.4265 17.0594 37.4343 17.0534 37.4381 17.0423L37.5344 16.7665C37.5384 16.7554 37.5364 16.7454 37.5284 16.7366L37.4548 16.6551C37.4472 16.6467 37.4382 16.6447 37.4277 16.6491C37.3059 16.7017 37.3267 16.9123 37.3106 17.0278C37.3089 17.0396 37.3137 17.0471 37.3251 17.0505C37.3295 17.0517 37.334 17.0527 37.3386 17.0533C37.3434 17.0537 37.3546 17.0554 37.372 17.0583ZM44.5591 20.0555C44.7555 20.1156 44.8414 19.9523 44.7967 19.7867C44.7621 19.658 44.6888 19.5563 44.5767 19.4816C44.5751 19.4806 44.5733 19.48 44.5714 19.4799C44.5695 19.4798 44.5676 19.4802 44.5659 19.4811C44.5642 19.482 44.5628 19.4834 44.5618 19.485C44.5607 19.4866 44.5601 19.4885 44.56 19.4905L44.5427 20.0332C44.5425 20.0381 44.544 20.043 44.547 20.047C44.55 20.0511 44.5542 20.0541 44.5591 20.0555ZM43.2369 20.5538C43.2851 20.58 43.3695 20.4481 43.3975 20.4153C43.4825 20.3158 43.446 20.2214 43.3326 20.1732C43.3279 20.1712 43.3228 20.1703 43.3177 20.1706C43.3126 20.1708 43.3076 20.1722 43.303 20.1746C43.2985 20.1771 43.2946 20.1805 43.2915 20.1847C43.2885 20.1889 43.2864 20.1937 43.2854 20.1987L43.225 20.5293C43.2229 20.5404 43.2269 20.5486 43.2369 20.5538ZM28.4387 20.5976C28.4576 20.727 28.422 20.8255 28.3342 20.9203C28.3269 20.9282 28.3252 20.9373 28.3292 20.9473L28.371 21.0534C28.3722 21.0563 28.374 21.0588 28.3764 21.0607C28.3788 21.0626 28.3817 21.0639 28.3847 21.0644C28.3878 21.0649 28.3909 21.0646 28.3938 21.0636C28.3967 21.0625 28.3992 21.0608 28.4013 21.0584L28.5791 20.8564C28.5871 20.8471 28.5881 20.8373 28.5823 20.8268L28.4563 20.5916C28.4553 20.5896 28.4536 20.5881 28.4515 20.5873C28.4494 20.5865 28.4471 20.5865 28.445 20.5872C28.4429 20.5879 28.4411 20.5893 28.44 20.5912C28.4388 20.5931 28.4384 20.5954 28.4387 20.5976ZM43.8007 21.3462L43.2914 21.9635C43.2898 21.9654 43.2888 21.9677 43.2885 21.9702C43.2883 21.9727 43.2887 21.9752 43.2898 21.9774C43.2909 21.9796 43.2926 21.9815 43.2947 21.9827C43.2969 21.984 43.2993 21.9847 43.3018 21.9846C43.603 21.9732 43.921 21.6707 43.8265 21.3515C43.8257 21.3489 43.8242 21.3466 43.8222 21.3447C43.8202 21.3429 43.8177 21.3416 43.8151 21.3411C43.8124 21.3405 43.8097 21.3407 43.8072 21.3416C43.8046 21.3425 43.8024 21.3441 43.8007 21.3462ZM42.3593 21.6836C42.1687 21.9302 41.9401 22.1343 41.6733 22.2959C41.6643 22.3014 41.6604 22.3092 41.6617 22.3195C41.6674 22.3648 41.7048 22.3711 41.7423 22.3532C42.0426 22.2105 42.2733 21.9863 42.4345 21.6805C42.4358 21.6782 42.4364 21.6756 42.4365 21.6729C42.4365 21.6703 42.4359 21.6677 42.4347 21.6653C42.4336 21.6629 42.4318 21.6609 42.4297 21.6593C42.4276 21.6577 42.4252 21.6567 42.4226 21.6562C42.3978 21.6518 42.3767 21.661 42.3593 21.6836ZM42.0656 22.5191C42.278 22.5346 42.4651 22.5318 42.6269 22.5106C42.7874 22.4895 43.1261 22.3711 43.0304 22.1565C43.026 22.1462 43.0187 22.139 43.0084 22.135C42.8388 22.0668 42.6791 21.9808 42.5293 21.8769C42.5263 21.8748 42.5227 21.874 42.5192 21.8745C42.5156 21.875 42.5125 21.8769 42.5104 21.8797L42.0552 22.4971C42.0453 22.5105 42.0488 22.5178 42.0656 22.5191Z" fill="#2257E1"/>
</svg>
