<svg width="65" height="65" viewBox="0 0 65 65" fill="none" xmlns="http://www.w3.org/2000/svg">
<path d="M34.6071 18.7818C34.6075 18.7794 34.6073 18.7769 34.6063 18.7746C34.6053 18.7723 34.6037 18.7705 34.6017 18.7692C34.5996 18.7679 34.5972 18.7673 34.5948 18.7674C34.5924 18.7676 34.5901 18.7685 34.5882 18.77C33.6533 19.5384 32.5241 19.7962 31.3723 19.9029C30.3912 19.9941 29.6345 20.079 29.1024 20.1577C28.2133 20.2891 27.3006 20.5699 26.6067 21.0909C25.6941 21.7761 24.9554 22.3251 23.7745 22.1903C23.3854 22.1456 22.7912 21.9975 22.2968 21.9606C21.8444 21.9268 21.3814 21.9578 20.9077 22.0536C20.6843 22.0988 18.8183 23.2873 18.8197 22.4629C18.8206 21.9729 19.3838 21.4146 19.7074 21.1302C20.8366 20.1375 22.0341 19.4297 23.5594 19.3057C23.7785 19.288 24.1914 19.2442 24.798 19.1744C25.5824 19.0843 26.2273 18.8281 26.9267 18.3883C27.5693 17.9834 28.2114 17.4807 28.8231 17.1221C29.9191 16.4801 31.1138 16.0458 32.2966 15.6547C33.5619 15.2366 34.9104 14.8051 36.2118 15.0939C37.431 15.3644 38.2846 16.489 38.8159 17.6081C39.3704 18.7754 40.1196 19.9295 40.4945 21.1425C40.6658 21.6964 40.6958 22.2582 40.7299 22.9346C40.7853 24.0349 40.7386 25.1309 40.5896 26.2226C40.5865 26.2472 40.5776 26.2496 40.5628 26.23C40.1593 25.6869 39.7549 24.8816 39.7028 24.1806C39.6963 24.0921 39.6869 24.088 39.6746 24.1683C39.6728 24.1805 39.6725 24.1969 39.6737 24.2175C39.7882 26.3185 40.6007 28.5489 42.4431 29.5676C42.5324 29.6172 42.815 29.7464 43.2912 29.9553C44.4873 30.4797 45.5994 31.1339 46.6644 31.9156C47.1662 32.284 47.7077 32.7036 48.1772 33.0076C51.5611 35.1982 55.6689 35.5597 59.345 33.9698C59.8697 33.7429 60.3834 33.4902 60.8859 33.2118C60.8874 33.211 60.8891 33.2107 60.8908 33.2111C60.8924 33.2114 60.8939 33.2124 60.895 33.2137C60.8961 33.2151 60.8967 33.2168 60.8967 33.2186C60.8967 33.2204 60.8962 33.2222 60.8952 33.2236C58.863 36.0285 56.1785 38.0267 52.8999 38.7483C48.9551 39.6166 44.7887 38.8826 40.9238 37.9126C37.7805 37.123 34.6717 36.1879 31.5491 35.3098C26.6608 33.9349 21.6265 32.8015 16.589 32.6977C14.3909 32.6521 12.2076 32.8204 10.0391 33.2024C9.98774 33.2113 9.98697 33.2082 10.0368 33.1931C13.9599 31.984 17.9639 31.4956 22.0489 31.7282C22.0646 31.7291 22.0734 31.7213 22.0752 31.7045C22.4279 28.4431 25.6077 27.5783 28.1293 28.3777C28.3513 28.448 28.5817 28.5666 28.8051 28.7014C29.5165 29.1303 30.1961 29.5529 30.6937 30.1948C30.8631 30.4133 30.9822 30.6907 31.1189 30.947C31.2163 31.1295 31.3109 31.1964 31.5099 31.2441C33.1857 31.6431 33.4945 29.4033 33.7992 28.2232C33.9063 27.8071 34.1487 27.2989 34.2064 26.9113C34.3001 26.2782 34.3615 25.6584 34.5545 25.0213C34.7077 24.5142 34.9427 24.0006 35.1583 23.5013C35.1651 23.4859 35.1643 23.4711 35.156 23.457C34.5679 22.4397 34.2664 21.4987 34.398 20.2817C34.4528 19.777 34.5225 19.277 34.6071 18.7818Z" fill="#2257E1"/>
<path d="M19.9811 36.8994C17.6013 36.5634 15.2413 36.4414 12.8569 36.6933C9.67063 37.0304 6.74532 38.1304 4.081 39.9931C4.07853 39.9948 4.07557 39.9955 4.07263 39.9952C4.06969 39.9949 4.06693 39.9936 4.06483 39.9915C4.06272 39.9894 4.06139 39.9866 4.06106 39.9835C4.06072 39.9805 4.06141 39.9775 4.063 39.9749C5.84588 36.8748 8.43203 34.6863 11.803 33.8963C14.644 33.2302 17.6761 33.4747 20.5166 34C22.1194 34.2962 23.7106 34.6527 25.29 35.0695C35.7496 37.8291 46.1607 41.8732 57.1349 40.0143C57.1374 40.0138 57.14 40.0143 57.1421 40.0158C57.1442 40.0173 57.1456 40.0196 57.1462 40.0222C57.1467 40.0248 57.1463 40.0276 57.145 40.0298C57.1436 40.0321 57.1415 40.0338 57.1391 40.0344C51.8135 41.5746 46.3504 41.8152 40.8674 41.1117C37.7277 40.7093 34.7002 40.091 31.6497 39.3713C27.7801 38.4588 23.8585 37.4469 19.9811 36.8994Z" fill="#2257E1"/>
</svg>
