<svg width="50" height="50" viewBox="0 0 24 24" fill="none" xmlns="http://www.w3.org/2000/svg">
<g clip-path="url(#clip0_217_1063)">
<path d="M24 12C24 18.6273 18.6273 24 12 24C5.37333 24 0 18.6273 0 12C0 5.37333 5.37333 0 12 0C18.6273 0 24 5.37333 24 12Z" fill="#FFD600"/>
<path d="M7.66667 13.3333C8.58714 13.3333 9.33333 12.2886 9.33333 11C9.33333 9.71129 8.58714 8.66663 7.66667 8.66663C6.74619 8.66663 6 9.71129 6 11C6 12.2886 6.74619 13.3333 7.66667 13.3333Z" fill="black"/>
<path d="M16.3333 13.3333C17.2538 13.3333 18 12.2886 18 11C18 9.71129 17.2538 8.66663 16.3333 8.66663C15.4128 8.66663 14.6666 9.71129 14.6666 11C14.6666 12.2886 15.4128 13.3333 16.3333 13.3333Z" fill="black"/>
<path d="M16.6666 17.3333H7.33329C7.15648 17.3333 6.98691 17.2631 6.86189 17.1381C6.73686 17.013 6.66663 16.8435 6.66663 16.6667C6.66663 16.4899 6.73686 16.3203 6.86189 16.1953C6.98691 16.0702 7.15648 16 7.33329 16H16.6666C16.8434 16 17.013 16.0702 17.138 16.1953C17.2631 16.3203 17.3333 16.4899 17.3333 16.6667C17.3333 16.8435 17.2631 17.013 17.138 17.1381C17.013 17.2631 16.8434 17.3333 16.6666 17.3333Z" fill="black"/>
</g>
<defs>
<clipPath id="clip0_217_1063">
<rect width="24" height="24" fill="white"/>
</clipPath>
</defs>
</svg>
