<svg width="36" height="36" viewBox="0 0 36 36" fill="none" xmlns="http://www.w3.org/2000/svg">
<path d="M36 18C36 27.941 27.941 36 18 36C8.06 36 0 27.941 0 18C0 8.06 8.06 0 18 0C27.941 0 36 8.06 36 18Z" fill="#FFCC4D"/>
<path d="M5.9981 12.9992C5.86677 12.9994 5.73669 12.9738 5.61526 12.9238C5.49383 12.8738 5.38345 12.8004 5.2904 12.7077C5.10249 12.5205 4.99663 12.2664 4.9961 12.0012C4.99557 11.736 5.10041 11.4814 5.28757 11.2935C5.47474 11.1056 5.72888 10.9997 5.9941 10.9992C6.1501 10.9972 9.5631 10.9132 12.1991 7.39918C12.3582 7.18701 12.5951 7.04674 12.8577 7.00923C13.1202 6.97172 13.3869 7.04005 13.5991 7.19918C13.8113 7.35831 13.9515 7.59521 13.989 7.85776C14.0266 8.12031 13.9582 8.38701 13.7991 8.59918C10.5361 12.9492 6.1821 12.9992 5.9981 12.9992ZM29.9981 12.9992C29.8141 12.9992 25.4611 12.9492 22.1981 8.59918C22.1149 8.49456 22.0534 8.3743 22.0175 8.24552C21.9815 8.11675 21.9717 7.98207 21.9887 7.84945C22.0057 7.71683 22.0491 7.58897 22.1164 7.47343C22.1837 7.35788 22.2734 7.257 22.3804 7.17674C22.4873 7.09649 22.6093 7.0385 22.739 7.00619C22.8687 6.97389 23.0036 6.96793 23.1357 6.98867C23.2678 7.0094 23.3944 7.05642 23.508 7.12693C23.6216 7.19744 23.7199 7.29002 23.7971 7.39918C26.4381 10.9202 29.8581 10.9982 30.0031 10.9992C30.5531 11.0052 30.9971 11.4552 30.9941 12.0042C30.9938 12.2682 30.8888 12.5212 30.702 12.7078C30.5153 12.8944 30.2621 12.9992 29.9981 12.9992ZM5.9991 21.9992C5.78938 21.9991 5.585 21.9331 5.41485 21.8105C5.2447 21.6879 5.1174 21.5149 5.05095 21.316C4.9845 21.1171 4.98227 20.9024 5.04457 20.7021C5.10686 20.5019 5.23054 20.3263 5.3981 20.2002C5.5411 20.0932 8.3491 18.0172 12.2541 17.2672C9.7791 16.0262 7.0321 15.9992 6.9971 15.9992C6.73962 15.9875 6.49656 15.877 6.31852 15.6907C6.14049 15.5043 6.0412 15.2564 6.04133 14.9987C6.04145 14.741 6.14099 14.4932 6.31922 14.307C6.49744 14.1208 6.74061 14.0106 6.9981 13.9992C7.2191 13.9992 12.4501 14.0372 15.7051 17.2922C15.8449 17.432 15.9401 17.6102 15.9787 17.8041C16.0172 17.9981 15.9974 18.1991 15.9218 18.3818C15.8461 18.5645 15.718 18.7207 15.5536 18.8306C15.3891 18.9405 15.1958 18.9991 14.9981 18.9992C10.3851 18.9992 6.6351 21.7712 6.5981 21.7992C6.42541 21.9291 6.21517 21.9993 5.9991 21.9992ZM29.9971 21.9982C29.7816 21.9985 29.5718 21.929 29.3991 21.8002C29.3611 21.7712 25.5881 18.9992 20.9981 18.9992C20.8001 18.9996 20.6065 18.9412 20.4418 18.8314C20.2771 18.7216 20.1487 18.5654 20.0729 18.3825C19.9972 18.1996 19.9775 17.9983 20.0163 17.8042C20.0552 17.61 20.1508 17.4318 20.2911 17.2922C23.5471 14.0372 28.7771 13.9992 28.9981 13.9992C29.1294 13.999 29.2595 14.0248 29.3809 14.0749C29.5022 14.1251 29.6125 14.1986 29.7055 14.2914C29.7984 14.3841 29.8722 14.4943 29.9226 14.6156C29.973 14.7368 29.999 14.8669 29.9991 14.9982C29.9992 15.1295 29.9735 15.2596 29.9234 15.3809C29.8732 15.5023 29.7997 15.6126 29.7069 15.7056C29.6141 15.7985 29.504 15.8723 29.3827 15.9227C29.2614 15.9731 29.1314 15.9991 29.0001 15.9992C28.9641 15.9992 26.2171 16.0262 23.7421 17.2672C27.6471 18.0172 30.4551 20.0922 30.5971 20.2002C30.7642 20.3264 30.8874 20.5018 30.9495 20.7018C31.0116 20.9017 31.0093 21.1161 30.943 21.3147C30.8767 21.5133 30.7498 21.6861 30.5801 21.8087C30.4104 21.9314 30.2065 21.9976 29.9971 21.9982ZM17.9981 29.9992C17.8481 29.9992 17.7001 29.9656 17.5649 29.9007C17.4297 29.8357 17.3108 29.7413 17.2171 29.6242L14.0231 25.6322L11.7981 28.5992C11.7123 28.7141 11.6028 28.8091 11.477 28.8779C11.3512 28.9466 11.2121 28.9874 11.0691 28.9976C10.9261 29.0078 10.7826 28.987 10.6483 28.9367C10.5141 28.8864 10.3922 28.8078 10.2911 28.7062L9.2911 27.7062C9.19825 27.6133 9.1246 27.5031 9.07436 27.3818C9.02411 27.2605 8.99825 27.1305 8.99825 26.9992C8.99825 26.8679 9.02411 26.7379 9.07436 26.6166C9.1246 26.4952 9.19825 26.385 9.2911 26.2922C9.4786 26.1047 9.73292 25.9993 9.9981 25.9993C10.1294 25.9993 10.2594 26.0252 10.3807 26.0754C10.502 26.1257 10.6123 26.1993 10.7051 26.2922L10.8901 26.4772L13.1981 23.3992C13.2892 23.2766 13.4072 23.1765 13.5432 23.1068C13.6791 23.0371 13.8292 22.9996 13.9819 22.9972C14.1347 22.9947 14.2859 23.0275 14.424 23.0929C14.562 23.1582 14.6832 23.2545 14.7781 23.3742L17.9981 27.3982L21.2171 23.3742C21.4101 23.1332 21.7011 22.9992 22.0141 22.9992C22.3241 23.0042 22.6131 23.1512 22.7981 23.3992L25.1071 26.4762L25.2921 26.2912C25.3849 26.1983 25.4952 26.1247 25.6165 26.0744C25.7378 26.0242 25.8678 25.9983 25.9991 25.9983C26.1304 25.9983 26.2604 26.0242 26.3817 26.0744C26.503 26.1247 26.6133 26.1983 26.7061 26.2912C26.7989 26.384 26.8726 26.4942 26.9228 26.6156C26.9731 26.7369 26.9989 26.8669 26.9989 26.9982C26.9989 27.1295 26.9731 27.2595 26.9228 27.3808C26.8726 27.5021 26.7989 27.6123 26.7061 27.7052L25.7061 28.7052C25.6058 28.8078 25.484 28.887 25.3495 28.9371C25.215 28.9873 25.0711 29.0071 24.9281 28.9952C24.7852 28.9851 24.6462 28.9444 24.5205 28.8759C24.3947 28.8074 24.2851 28.7127 24.1991 28.5982L21.9731 25.6312L18.7801 29.6232C18.6863 29.7405 18.5673 29.8351 18.4319 29.9002C18.2965 29.9653 18.1483 29.9991 17.9981 29.9992Z" fill="#664500"/>
</svg>
