<svg width="38" height="39" viewBox="0 0 38 39" fill="none" xmlns="http://www.w3.org/2000/svg">
<circle cx="19" cy="19.7657" r="19" fill="#FBDFC6"/>
<path d="M27.84 12.61C27.3292 12.099 26.7228 11.6936 26.0554 11.4171C25.3879 11.1405 24.6725 10.9982 23.95 10.9982C23.2275 10.9982 22.5121 11.1405 21.8446 11.4171C21.1772 11.6936 20.5708 12.099 20.06 12.61L19 13.67L17.94 12.61C16.9083 11.5783 15.509 10.9987 14.05 10.9987C12.591 10.9987 11.1917 11.5783 10.16 12.61C9.1283 13.6417 8.54871 15.041 8.54871 16.5C8.54871 17.959 9.1283 19.3583 10.16 20.39L11.22 21.45L19 29.23L26.78 21.45L27.84 20.39C28.351 19.8792 28.7563 19.2728 29.0329 18.6053C29.3095 17.9379 29.4518 17.2225 29.4518 16.5C29.4518 15.7775 29.3095 15.0621 29.0329 14.3946C28.7563 13.7272 28.351 13.1208 27.84 12.61Z" stroke="#E08A25" stroke-width="2" stroke-linecap="round" stroke-linejoin="round"/>
</svg>
