<svg width="24" height="24" viewBox="0 0 24 24" fill="none" xmlns="http://www.w3.org/2000/svg">
<path d="M15 9L13.6172 6.18281C13.3275 5.53125 13.3275 5.53125 12.375 5.53125C11.7534 5.53125 11.6831 5.53125 11.2969 5.87344L7.93594 9.1125C7.54688 9.50859 7.5 9.55547 7.5 10.3594C7.5 10.9533 7.67719 11.0442 8.36766 11.4328L11.25 13.0312V17.25H12.75V11.9062C12.75 11.9062 11.3906 11.1094 10.4859 10.5L12.7781 8.08594C13.6547 9.42188 14.0578 10.5 14.5594 10.5H18V9H15Z" fill="black"/>
<path d="M18.1875 21C17.3346 21 16.5008 20.7471 15.7916 20.2733C15.0824 19.7994 14.5297 19.1259 14.2033 18.3379C13.8769 17.5499 13.7915 16.6828 13.9579 15.8462C14.1243 15.0097 14.535 14.2413 15.1381 13.6381C15.7412 13.035 16.5096 12.6243 17.3462 12.4579C18.1827 12.2915 19.0498 12.3769 19.8378 12.7033C20.6258 13.0297 21.2994 13.5825 21.7732 14.2917C22.2471 15.0008 22.5 15.8346 22.5 16.6875C22.4988 17.8309 22.044 18.9271 21.2355 19.7356C20.427 20.5441 19.3309 20.9988 18.1875 21ZM18.1875 13.875C17.6312 13.875 17.0875 14.04 16.625 14.349C16.1624 14.6581 15.802 15.0973 15.5891 15.6112C15.3762 16.1252 15.3205 16.6907 15.429 17.2362C15.5376 17.7818 15.8054 18.283 16.1988 18.6763C16.5921 19.0696 17.0932 19.3375 17.6388 19.446C18.1844 19.5545 18.7499 19.4988 19.2638 19.286C19.7777 19.0731 20.217 18.7126 20.526 18.2501C20.8351 17.7876 21 17.2438 21 16.6875C20.9991 15.9419 20.7025 15.227 20.1753 14.6998C19.648 14.1725 18.9332 13.8759 18.1875 13.875ZM5.8125 21C4.95957 21 4.12579 20.7471 3.41661 20.2733C2.70742 19.7994 2.15467 19.1259 1.82827 18.3379C1.50187 17.5499 1.41647 16.6828 1.58287 15.8462C1.74926 15.0097 2.15999 14.2413 2.7631 13.6381C3.36622 13.035 4.13463 12.6243 4.97117 12.4579C5.80772 12.2915 6.67482 12.3769 7.46282 12.7033C8.25083 13.0297 8.92435 13.5825 9.39822 14.2917C9.87208 15.0008 10.125 15.8346 10.125 16.6875C10.1238 17.8309 9.66901 18.9271 8.86053 19.7356C8.05205 20.5441 6.95587 20.9988 5.8125 21ZM5.8125 13.875C5.25624 13.875 4.71247 14.04 4.24996 14.349C3.78745 14.6581 3.42696 15.0973 3.21409 15.6112C3.00122 16.1252 2.94552 16.6907 3.05404 17.2362C3.16256 17.7818 3.43043 18.283 3.82376 18.6763C4.2171 19.0696 4.71824 19.3375 5.26381 19.446C5.80938 19.5545 6.37488 19.4988 6.8888 19.286C7.40272 19.0731 7.84197 18.7126 8.15101 18.2501C8.46005 17.7876 8.625 17.2438 8.625 16.6875C8.62413 15.9419 8.32754 15.227 7.80028 14.6998C7.27302 14.1725 6.55816 13.8759 5.8125 13.875ZM15 6.00005C15.1976 6.00073 15.3933 5.96225 15.5759 5.88681C15.7585 5.81138 15.9244 5.7005 16.0639 5.56058C16.2033 5.42065 16.3137 5.25447 16.3886 5.07163C16.4634 4.88879 16.5013 4.69293 16.5 4.49536C16.5022 4.29878 16.4652 4.10374 16.3911 3.92164C16.317 3.73954 16.2074 3.57403 16.0686 3.4348C15.9298 3.29558 15.7646 3.18542 15.5828 3.11077C15.4009 3.03612 15.206 2.99848 15.0094 3.00005C14.8124 2.99943 14.6172 3.03762 14.435 3.11243C14.2528 3.18725 14.0871 3.29722 13.9473 3.43607C13.8076 3.57493 13.6966 3.73994 13.6207 3.92169C13.5447 4.10344 13.5053 4.29838 13.5047 4.49536C13.5041 4.69234 13.5423 4.88752 13.6171 5.06974C13.6919 5.25197 13.8019 5.41767 13.9407 5.55739C14.0796 5.69712 14.2446 5.80812 14.4263 5.88407C14.6081 5.96002 14.803 5.99943 15 6.00005Z" fill="black"/>
</svg>
