<svg width="24" height="24" viewBox="0 0 24 24" fill="none" xmlns="http://www.w3.org/2000/svg">
<path d="M12.0002 3.89711L11.4632 3.62891V3.63071L11.4614 3.63311L11.4578 3.64091L11.4452 3.66671C11.3825 3.80084 11.3245 3.93712 11.2712 4.07531C11.1388 4.41745 11.0353 4.77008 10.9616 5.12951C10.8032 5.92211 10.751 7.09631 11.576 7.92131C11.951 8.29631 12.0032 8.92211 11.8616 9.62951C11.7778 10.0375 11.6469 10.4343 11.4716 10.8121L11.4644 10.8271L11.4632 10.8289L12.0002 11.0971C12.5366 11.3653 12.5372 11.3647 12.5372 11.3647V11.3635L12.539 11.3611L12.5426 11.3533L12.5552 11.3275L12.5972 11.2375C12.7943 10.7977 12.9424 10.3375 13.0388 9.86531C13.1972 9.07211 13.2494 7.89791 12.4244 7.07291C12.0494 6.69791 11.9972 6.07211 12.1388 5.36471C12.2227 4.95675 12.3535 4.55989 12.5288 4.18211L12.536 4.16711L12.5372 4.16531L12.0002 3.89711Z" fill="black"/>
<path fill-rule="evenodd" clip-rule="evenodd" d="M0 14.9984C0 14.8393 0.0632142 14.6867 0.175736 14.5742C0.288258 14.4617 0.44087 14.3984 0.6 14.3984H23.4C23.5591 14.3984 23.7117 14.4617 23.8243 14.5742C23.9368 14.6867 24 14.8393 24 14.9984C24 15.1576 23.9368 15.3102 23.8243 15.4227C23.7117 15.5352 23.5591 15.5984 23.4 15.5984H21.6C21.6 16.8715 21.0943 18.0924 20.1941 18.9925C19.2939 19.8927 18.073 20.3984 16.8 20.3984H7.2C5.92696 20.3984 4.70606 19.8927 3.80589 18.9925C2.90571 18.0924 2.4 16.8715 2.4 15.5984H0.6C0.44087 15.5984 0.288258 15.5352 0.175736 15.4227C0.0632142 15.3102 0 15.1576 0 14.9984ZM3.6 15.5984H20.4C20.4 16.5532 20.0207 17.4689 19.3456 18.144C18.6705 18.8192 17.7548 19.1984 16.8 19.1984H7.2C6.24522 19.1984 5.32955 18.8192 4.65442 18.144C3.97928 17.4689 3.6 16.5532 3.6 15.5984Z" fill="black"/>
<path d="M6.70264 5.0625L7.20064 5.3985C7.69804 5.7339 7.69864 5.7333 7.69864 5.7333L7.69084 5.7453C7.63818 5.82928 7.58894 5.91535 7.54324 6.0033C7.4298 6.21862 7.33931 6.44526 7.27324 6.6795C7.12924 7.2147 7.18084 7.6371 7.55764 7.9155C8.53084 8.6367 8.47924 9.7149 8.28604 10.4295C8.19774 10.7471 8.07606 11.0544 7.92304 11.3463C7.86044 11.4667 7.79278 11.5844 7.72024 11.6991L7.70824 11.7183L7.70524 11.7225L7.70044 11.7297L7.69924 11.7321L7.69864 11.7327C7.69864 11.7327 7.69804 11.7339 7.20064 11.3979C6.70324 11.0619 6.70264 11.0625 6.70264 11.0625L6.71044 11.0511L6.74284 10.9995C6.78322 10.9318 6.82164 10.863 6.85804 10.7931C6.95104 10.6143 7.05784 10.3743 7.12804 10.1163C7.27204 9.5811 7.22044 9.1593 6.84364 8.8803C5.87044 8.1591 5.92204 7.0815 6.11524 6.3663C6.21424 5.9991 6.36064 5.6763 6.47824 5.4495C6.54522 5.32112 6.61789 5.1958 6.69604 5.0739L6.70024 5.0667L6.70204 5.0637L6.70264 5.0625ZM17.4006 5.3979C16.9032 5.0619 16.9026 5.0625 16.9026 5.0625V5.0637L16.9002 5.0667L16.8954 5.0739C16.8161 5.19497 16.7436 5.32036 16.6782 5.4495C16.5606 5.6763 16.4142 5.9991 16.3152 6.3663C16.122 7.0809 16.0704 8.1591 17.0436 8.8803C17.4204 9.1593 17.472 9.5811 17.3274 10.1163C17.2578 10.3743 17.151 10.6143 17.0574 10.7931C17.012 10.8811 16.963 10.9672 16.9104 11.0511L16.9032 11.0631L17.4006 11.3979C17.898 11.7339 17.8986 11.7327 17.8986 11.7327V11.7321L17.901 11.7297L17.9058 11.7225L17.9148 11.7075L17.9208 11.6991C17.9934 11.5844 18.061 11.4667 18.1236 11.3463C18.2762 11.0542 18.3976 10.7469 18.486 10.4295C18.6792 9.7149 18.7308 8.6367 17.7576 7.9155C17.3808 7.6365 17.3292 7.2147 17.4738 6.6795C17.5434 6.4215 17.6502 6.1815 17.7438 6.0027C17.7893 5.91476 17.8384 5.82869 17.8908 5.7447L17.898 5.7333L17.4006 5.3979Z" fill="black"/>
</svg>
