<svg width="16" height="16" viewBox="0 0 19 19" fill="none" xmlns="http://www.w3.org/2000/svg">
<path d="M10.5059 6.65119H13.0175L10.5059 9.16281H13.0175M14.2733 1.62793H17.6221L14.2733 4.97677H17.6221" stroke="black" stroke-width="1.5" stroke-linecap="round" stroke-linejoin="round"/>
<path d="M16.9942 10C16.9942 12.0539 16.1783 14.0236 14.726 15.476C13.2736 16.9283 11.3039 17.7442 9.25 17.7442V19C14.2205 19 18.25 14.9705 18.25 10H16.9942ZM9.25 17.7442C7.19611 17.7442 5.22635 16.9283 3.77403 15.476C2.32172 14.0236 1.50581 12.0539 1.50581 10H0.25C0.25 14.9705 4.27949 19 9.25 19V17.7442ZM1.50581 10C1.50581 7.94611 2.32172 5.97635 3.77403 4.52403C5.22635 3.07172 7.19611 2.25581 9.25 2.25581V1C4.27949 1 0.25 5.02949 0.25 10H1.50581ZM12.1802 11.8837C10.9035 11.8837 9.67904 11.3765 8.77625 10.4737C7.87346 9.57095 7.36628 8.34651 7.36628 7.06977H6.11046C6.11046 8.67957 6.74996 10.2234 7.88826 11.3617C9.02656 12.5 10.5704 13.1395 12.1802 13.1395V11.8837ZM16.3035 9.55544C15.8753 10.2662 15.2707 10.8541 14.5482 11.262C13.8257 11.67 13.0099 11.8842 12.1802 11.8837V13.1395C13.2263 13.1401 14.2547 12.8702 15.1657 12.356C16.0766 11.8419 16.8392 11.1009 17.3793 10.2051L16.3035 9.55544ZM7.36628 7.06977C7.36592 6.24007 7.58011 5.42437 7.98808 4.70189C8.39604 3.97942 8.98389 3.37472 9.69456 2.94651L9.04488 1.87153C8.14914 2.41153 7.40823 3.17394 6.89407 4.08475C6.37991 4.99557 6.10997 6.02385 6.11046 7.06977H7.36628ZM9.25 2.25581C9.1651 2.25381 9.08443 2.2183 9.02563 2.15702C8.98968 2.12206 8.96565 2.07665 8.95698 2.02726C8.95363 2.0013 8.9553 1.92595 9.04488 1.87153L9.69456 2.94651C10.1157 2.692 10.2513 2.22567 10.2019 1.85898C10.15 1.47805 9.85028 1 9.25 1V2.25581ZM17.3793 10.2051C17.324 10.2947 17.2487 10.2964 17.2227 10.293C17.1733 10.2843 17.1279 10.2603 17.093 10.2244C17.0317 10.1656 16.9962 10.0849 16.9942 10H18.25C18.25 9.39972 17.772 9.1 17.391 9.04809C17.0243 8.9987 16.558 9.13433 16.3035 9.55544L17.3793 10.2051Z" fill="black"/>
</svg>
