<svg width="24" height="24" viewBox="0 0 24 24" fill="none" xmlns="http://www.w3.org/2000/svg">
<g clip-path="url(#clip0_568_1695)">
<path fill-rule="evenodd" clip-rule="evenodd" d="M9.514 3.00013C9.72977 3.00313 9.93878 3.07584 10.1098 3.20741C10.2809 3.33898 10.4048 3.52235 10.463 3.73013L14.136 16.7901L16.064 11.6491C16.1354 11.4586 16.2633 11.2943 16.4306 11.1784C16.5978 11.0624 16.7965 11.0002 17 11.0001H20C20.2652 11.0001 20.5196 11.1055 20.7071 11.293C20.8946 11.4806 21 11.7349 21 12.0001C21 12.2654 20.8946 12.5197 20.7071 12.7072C20.5196 12.8948 20.2652 13.0001 20 13.0001H17.693L14.936 20.3511C14.862 20.5485 14.7276 20.7175 14.5519 20.8339C14.3761 20.9503 14.1681 21.0082 13.9575 20.9993C13.7469 20.9904 13.5445 20.9153 13.3792 20.7845C13.2139 20.6537 13.0941 20.474 13.037 20.2711L9.45 7.51413L7.954 12.2981C7.89051 12.5015 7.76372 12.6793 7.59211 12.8056C7.42051 12.9318 7.21306 13 7 13.0001H4C3.73478 13.0001 3.48043 12.8948 3.29289 12.7072C3.10536 12.5197 3 12.2654 3 12.0001C3 11.7349 3.10536 11.4806 3.29289 11.293C3.48043 11.1055 3.73478 11.0001 4 11.0001H6.265L8.545 3.70213C8.60933 3.49596 8.73869 3.31615 8.91372 3.18961C9.08875 3.06307 9.30005 2.99659 9.516 3.00013H9.514Z" fill="black"/>
</g>
<defs>
<clipPath id="clip0_568_1695">
<rect width="24" height="24" fill="white"/>
</clipPath>
</defs>
</svg>
