<svg width="300" height="300" viewBox="0 0 300 300" fill="none" xmlns="http://www.w3.org/2000/svg">
<rect width="300" height="300" rx="64" fill="white"/>
<path d="M82.31 116.65C79.63 124.17 70 125.08 66.06 118.68C61.25 110.88 69.26 102.62 77.58 105.79C77.9466 105.93 78.13 105.803 78.13 105.41C78.37 87.9201 99.53 81.1501 109.02 96.2601C112.48 101.77 111.78 108.77 108.09 114.03C101.95 122.76 91.4 122.66 83.12 116.41C82.74 116.123 82.47 116.203 82.31 116.65ZM105.63 104.54C105.63 101.655 104.484 98.8872 102.443 96.8468C100.403 94.8064 97.6355 93.6601 94.75 93.6601C91.8644 93.6601 89.097 94.8064 87.0566 96.8468C85.0163 98.8872 83.87 101.655 83.87 104.54C83.87 107.426 85.0163 110.193 87.0566 112.233C89.097 114.274 91.8644 115.42 94.75 115.42C97.6355 115.42 100.403 114.274 102.443 112.233C104.484 110.193 105.63 107.426 105.63 104.54ZM77.02 114.08C77.02 113.197 76.6691 112.35 76.0446 111.725C75.4201 111.101 74.5731 110.75 73.69 110.75C72.8068 110.75 71.9598 111.101 71.3353 111.725C70.7108 112.35 70.36 113.197 70.36 114.08C70.36 114.963 70.7108 115.81 71.3353 116.435C71.9598 117.059 72.8068 117.41 73.69 117.41C74.5731 117.41 75.4201 117.059 76.0446 116.435C76.6691 115.81 77.02 114.963 77.02 114.08Z" fill="#FF80A8"/>
<path d="M117.75 167.19C117.79 162.37 117.843 157.56 117.91 152.76C118.29 126.07 82.2 118.84 72.93 143.9C72.18 145.91 71.3 146.7 69.14 146.12C68.8085 146.03 68.4985 145.875 68.229 145.662C67.9595 145.45 67.7361 145.186 67.5724 144.886C67.4087 144.585 67.308 144.255 67.2767 143.916C67.2453 143.576 67.2839 143.234 67.39 142.91C73.48 123.99 96.89 116.05 112.55 128.95C125.71 139.78 123.65 154.63 123.49 169.85C123.463 172.403 122.173 173.693 119.62 173.72C113.133 173.793 106.537 173.783 99.83 173.69C95.09 173.63 95.92 167.72 99.25 167.74C105.237 167.78 111.223 167.777 117.21 167.73C117.57 167.723 117.75 167.543 117.75 167.19Z" fill="#FF80A8"/>
<path d="M180.42 145.9C180.372 145.965 180.345 146.043 180.343 146.123C180.342 146.204 180.365 146.283 180.41 146.35C180.455 146.416 180.519 146.468 180.594 146.496C180.67 146.525 180.752 146.53 180.83 146.51C189.957 144.41 195.82 147.587 198.42 156.04C199.17 158.5 198.64 162.02 197.25 164.35C189.18 177.86 166.8 171.53 169.66 154.35C171.01 146.23 179.78 138.38 183.81 130.48C184.001 130.099 184.314 129.793 184.699 129.608C185.085 129.424 185.521 129.372 185.94 129.46C188.42 129.99 188.87 131.56 187.77 133.74C185.597 138.02 183.147 142.073 180.42 145.9ZM192.96 155.44C187.58 144.88 167.18 155.2 177.64 163.77C180.813 166.37 184.303 166.9 188.11 165.36C192.1 163.75 195.1 159.62 192.96 155.44Z" fill="#FF80A8"/>
<path d="M152.26 153.65L155.42 154.81C155.447 154.817 155.471 154.831 155.49 154.85C167.9 165.87 144.24 178.86 136.79 166.79C136.597 166.483 136.33 166.267 135.99 166.14C135.137 165.827 134.497 165.267 134.07 164.46C133.988 164.305 133.937 164.135 133.922 163.962C133.906 163.788 133.926 163.614 133.98 163.45C135.54 158.64 138.55 156.37 142.03 153.1C142.25 152.893 142.37 152.64 142.39 152.34C142.85 144.66 133.36 143.53 133.34 150.75C133.34 151.737 133.82 152.323 134.78 152.51C135.807 152.71 136.453 152.303 136.72 151.29C136.887 150.637 136.8 150.14 136.46 149.8C136.047 149.373 136.12 149.07 136.68 148.89L139 148.14C139.086 148.112 139.177 148.106 139.264 148.122C139.351 148.137 139.432 148.175 139.5 148.23C145.45 152.98 131.66 161.25 130.1 151.65C128.32 140.71 143.9 139.08 146.44 150.12C146.456 150.187 146.486 150.251 146.529 150.305C146.573 150.359 146.628 150.402 146.69 150.432C146.753 150.462 146.821 150.477 146.89 150.477C146.96 150.476 147.028 150.46 147.09 150.43C158.21 145.29 173.08 151.42 167.06 165.97C166.88 166.397 166.947 166.78 167.26 167.12C168.053 167.967 168.46 169.007 168.48 170.24C168.487 170.587 168.323 170.8 167.99 170.88C158.09 173.19 161.54 182.33 168.41 177.53C168.638 177.371 168.895 177.26 169.168 177.205C169.44 177.149 169.721 177.15 169.993 177.207C170.266 177.264 170.524 177.377 170.752 177.537C170.98 177.697 171.174 177.903 171.32 178.14C171.64 178.667 171.633 179.307 171.3 180.06C168.19 187.01 151.36 183.14 157.02 172.7C157.173 172.42 157.203 172.123 157.11 171.81L156.75 170.58C156.657 170.273 156.74 170.027 157 169.84C160.28 167.51 163.99 163.68 163.97 159.59C163.96 154.03 156.82 152.47 152.31 153.12C151.597 153.22 151.58 153.397 152.26 153.65ZM149.38 157.37C144.34 155.85 140.897 157.67 139.05 162.83C138.93 163.157 139.017 163.417 139.31 163.61C141.55 165.1 143.62 167.52 146.2 167.74C151.82 168.2 158.33 160.06 149.38 157.37Z" fill="#FF80A8"/>
<path d="M114.83 153.81C114.83 156.605 113.72 159.286 111.743 161.263C109.766 163.24 107.085 164.35 104.29 164.35C101.495 164.35 98.8137 163.24 96.8371 161.263C94.8605 159.286 93.75 156.605 93.75 153.81C93.75 151.015 94.8605 148.334 96.8371 146.357C98.8137 144.38 101.495 143.27 104.29 143.27C107.085 143.27 109.766 144.38 111.743 146.357C113.72 148.334 114.83 151.015 114.83 153.81ZM109.18 153.83C109.18 152.53 108.664 151.284 107.745 150.365C106.826 149.446 105.58 148.93 104.28 148.93C102.98 148.93 101.734 149.446 100.815 150.365C99.8962 151.284 99.38 152.53 99.38 153.83C99.38 155.13 99.8962 156.376 100.815 157.295C101.734 158.214 102.98 158.73 104.28 158.73C105.58 158.73 106.826 158.214 107.745 157.295C108.664 156.376 109.18 155.13 109.18 153.83Z" fill="#FF80A8"/>
<path d="M213.42 168.53C208.49 177.99 190.77 165.03 204.24 155.22C205.013 154.66 204.923 154.407 203.97 154.46L200.8 154.62C200.633 154.629 200.468 154.578 200.336 154.477C200.204 154.376 200.113 154.232 200.08 154.07C199.8 152.71 199.983 151.43 200.63 150.23C200.709 150.087 200.825 149.967 200.965 149.881C201.105 149.795 201.265 149.746 201.43 149.74C205.077 149.633 208.643 150.09 212.13 151.11C212.45 151.203 212.603 151.417 212.59 151.75C212.36 157.43 204.87 155.38 204.22 162.76C203.94 165.82 206.2 167.34 209.05 166.65C209.363 166.57 209.613 166.393 209.8 166.12C210.86 164.513 212.207 164.303 213.84 165.49C214.213 165.757 214.42 165.663 214.46 165.21C215.28 156.12 221.5 147.05 230.93 145.65C245.31 143.51 251.15 157.6 241.76 168.23C234.81 176.1 225.02 169.09 226.34 159.68C226.353 159.596 226.347 159.511 226.324 159.429C226.3 159.348 226.259 159.272 226.203 159.208C226.147 159.143 226.078 159.091 225.999 159.055C225.921 159.02 225.836 159.001 225.75 159H221.01C220.643 159 220.397 159.173 220.27 159.52C219.31 162.2 218.827 164.943 218.82 167.75C218.79 177.05 227.88 183.71 236.44 179.14C239.987 177.247 242.597 174.097 244.27 169.69C244.281 169.656 244.338 169.576 244.433 169.464C244.528 169.351 244.656 169.21 244.8 169.06C245.667 168.173 246.647 168.023 247.74 168.61C247.887 168.689 248.011 168.804 248.1 168.942C248.189 169.08 248.241 169.238 248.25 169.4C249.43 187.21 215.4 194.7 214.41 168.75C214.363 167.423 214.033 167.35 213.42 168.53ZM239.06 151.94C233.98 149.48 229.233 150.163 224.82 153.99C224.533 154.243 224.58 154.377 224.96 154.39L239.07 154.91C239.21 154.916 239.346 154.956 239.467 155.025C239.589 155.095 239.693 155.192 239.77 155.31C240.637 156.617 240.647 157.863 239.8 159.05C239.613 159.317 239.36 159.457 239.04 159.47C236.97 159.54 233.8 159.36 232.27 160.69C229.34 163.23 232.3 169.08 236.55 166.33C240.48 163.8 245.05 154.83 239.06 151.94Z" fill="#FF80A8"/>
<path d="M93.3265 159.025C93.7652 160.425 93.9238 161.897 93.7934 163.358C93.663 164.819 93.2462 166.24 92.5666 167.54C91.887 168.84 90.958 169.993 89.8327 170.934C88.7074 171.875 87.4077 172.585 86.008 173.024L66.9995 178.981C65.5997 179.42 64.1273 179.578 62.6662 179.448C61.2052 179.317 59.7841 178.901 58.4842 178.221C57.1842 177.541 56.0308 176.612 55.0899 175.487C54.149 174.362 53.4389 173.062 53.0003 171.662L52.6535 170.555C52.2148 169.156 52.0562 167.683 52.1865 166.222C52.3169 164.761 52.7338 163.34 53.4134 162.04C54.093 160.74 55.022 159.587 56.1473 158.646C57.2726 157.705 58.5723 156.995 59.972 156.556L78.9805 150.599C80.3802 150.161 81.8527 150.002 83.3137 150.132C84.7748 150.263 86.1959 150.68 87.4958 151.359C88.7958 152.039 89.9491 152.968 90.8901 154.093C91.831 155.218 92.541 156.518 92.9797 157.918L93.3265 159.025ZM88.2051 159.842C87.9752 159.099 87.6013 158.409 87.1047 157.811C86.6081 157.213 85.9985 156.719 85.3108 156.356C84.6231 155.993 83.8707 155.77 83.0966 155.698C82.3225 155.626 81.5418 155.708 80.7992 155.937L62.2095 161.692C61.4668 161.922 60.7767 162.296 60.1785 162.792C59.5804 163.289 59.0859 163.898 58.7233 164.586C58.3607 165.274 58.1371 166.026 58.0653 166.8C57.9935 167.574 58.0749 168.355 58.3048 169.098L58.4349 169.518C58.6648 170.261 59.0387 170.951 59.5353 171.549C60.0319 172.147 60.6415 172.642 61.3292 173.004C62.0169 173.367 62.7693 173.59 63.5434 173.662C64.3175 173.734 65.0981 173.653 65.8408 173.423L84.4305 167.668C85.1732 167.438 85.8633 167.064 86.4614 166.568C87.0596 166.071 87.5541 165.462 87.9167 164.774C88.2793 164.086 88.5028 163.334 88.5746 162.56C88.6465 161.786 88.5651 161.005 88.3352 160.262L88.2051 159.842Z" fill="#FF80A8"/>
<path d="M103.26 191.91C106.71 187.78 113 188.16 116.22 191.81C120.29 196.43 119.64 207.76 118.83 213.48C118.775 213.882 118.581 214.252 118.284 214.525C117.986 214.799 117.603 214.96 117.2 214.98C116.247 215.027 115.433 214.707 114.76 214.02C114.574 213.828 114.47 213.569 114.47 213.3C114.51 209.42 115.56 197.48 112.68 194.97C110.04 192.67 105.26 193.27 103.6 196.58C101.9 199.98 102.72 208.28 102.73 212.24C102.737 214.12 101.877 215.03 100.15 214.97C99.5725 214.949 99.0257 214.705 98.6246 214.289C98.2236 213.873 97.9996 213.318 98 212.74V182.76C98.001 182.225 98.193 181.709 98.5414 181.304C98.8899 180.898 99.3717 180.631 99.9 180.55C101.687 180.277 102.56 181.093 102.52 183C102.453 185.913 102.52 188.823 102.72 191.73C102.753 192.243 102.933 192.303 103.26 191.91Z" fill="#FF80A8"/>
<path d="M195.73 180.51H195.27C194.154 180.51 193.25 181.414 193.25 182.53V212.75C193.25 213.866 194.154 214.77 195.27 214.77H195.73C196.846 214.77 197.75 213.866 197.75 212.75V182.53C197.75 181.414 196.846 180.51 195.73 180.51Z" fill="#FF80A8"/>
<path d="M88.2501 209.71C88.2513 209.885 88.3004 210.056 88.3919 210.205C88.4835 210.355 88.614 210.476 88.7695 210.556C88.925 210.636 89.0994 210.673 89.274 210.661C89.4486 210.649 89.6167 210.59 89.7601 210.49C91.3668 209.357 92.9801 209.247 94.6001 210.16C94.8758 210.316 95.0867 210.565 95.1948 210.864C95.303 211.163 95.3013 211.491 95.1901 211.79C93.6501 215.81 87.3601 215.86 85.0501 212.95C82.6901 209.97 83.7601 198.7 83.7501 194.71C83.7483 194.49 83.6641 194.279 83.5142 194.118C83.3643 193.957 83.1594 193.858 82.9401 193.84L79.5401 193.58C79.1334 193.547 78.8634 193.333 78.7301 192.94C77.6201 189.67 79.6801 189.51 81.9901 189.58C82.3105 189.59 82.6289 189.526 82.92 189.392C83.2111 189.257 83.4669 189.057 83.6669 188.806C83.8669 188.556 84.0057 188.262 84.0723 187.949C84.1388 187.635 84.1312 187.31 84.0501 187C83.6568 185.46 83.7068 184.27 84.2001 183.43C85.0101 182.07 87.0601 182.09 87.8901 183.42C88.5901 184.55 88.2201 187.41 88.2801 188.79C88.284 188.871 88.3057 188.951 88.3435 189.023C88.3814 189.095 88.4345 189.158 88.4993 189.208C88.564 189.258 88.6388 189.292 88.7184 189.31C88.798 189.328 88.8805 189.328 88.9601 189.31C90.5334 188.97 91.9201 189.26 93.1201 190.18C93.3072 190.322 93.4524 190.512 93.5404 190.73C93.6285 190.948 93.656 191.187 93.6201 191.42C93.2668 193.547 91.9601 194.297 89.7001 193.67C89.5294 193.624 89.3504 193.617 89.1769 193.651C89.0034 193.685 88.8402 193.757 88.6999 193.864C88.5597 193.97 88.4461 194.107 88.3681 194.265C88.2901 194.422 88.2497 194.595 88.2501 194.77V209.71Z" fill="#FF80A8"/>
<path d="M139.32 211.96C137.55 213.38 135.67 214.92 133.31 214.94C121.12 215.04 123.38 199.46 123.55 191.75C123.64 188.06 128.36 188 128.3 191.76C128.21 196.45 126.1 211.53 133.87 210.3C141.57 209.08 140.17 196.15 139.95 190.96C139.938 190.721 139.981 190.483 140.076 190.264C140.172 190.045 140.317 189.852 140.5 189.7C143.37 187.33 144.58 190.15 144.63 192.81C144.757 199.39 144.787 206.047 144.72 212.78C144.713 213.334 144.503 213.868 144.13 214.28C143.137 215.38 142.107 215.367 141.04 214.24C140.82 214 140.663 213.723 140.57 213.41L140.22 212.24C140.193 212.151 140.144 212.07 140.079 212.004C140.013 211.938 139.933 211.889 139.844 211.862C139.755 211.834 139.661 211.829 139.57 211.846C139.478 211.863 139.393 211.902 139.32 211.96Z" fill="#FF80A8"/>
<path d="M153.95 191.92C156.283 189.073 159.267 188.203 162.9 189.31C164.053 189.663 164.667 190.52 164.74 191.88C164.8 193.02 164.26 193.64 163.12 193.74C161.62 193.87 160.31 192.88 158.86 193.04C148.73 194.18 157.48 213.41 151.86 215.01C151.555 215.096 151.235 215.111 150.924 215.052C150.613 214.993 150.319 214.863 150.066 214.671C149.813 214.479 149.608 214.231 149.466 213.946C149.325 213.662 149.251 213.348 149.25 213.03V190.09C149.25 189.903 149.29 189.718 149.367 189.547C149.443 189.376 149.555 189.223 149.695 189.099C149.834 188.974 149.999 188.881 150.177 188.824C150.356 188.767 150.544 188.749 150.73 188.77C152.39 188.963 153.24 189.937 153.28 191.69C153.293 192.37 153.517 192.447 153.95 191.92Z" fill="#FF80A8"/>
<path d="M183.51 211.88C181.56 213.24 179.9 214.87 177.44 214.93C165.09 215.28 167.29 199.12 167.7 191.57C167.813 189.47 168.817 188.653 170.71 189.12C171.15 189.228 171.541 189.481 171.82 189.84C172.099 190.199 172.251 190.643 172.25 191.1C172.25 195.29 170.44 209.18 175.98 210.21C185.52 211.99 184.05 196.65 183.97 192.28C183.94 190.69 184.16 189.07 185.93 188.9C186.256 188.869 186.584 188.907 186.895 189.011C187.205 189.114 187.49 189.282 187.732 189.502C187.974 189.722 188.167 189.991 188.3 190.29C188.432 190.589 188.5 190.913 188.5 191.24V213.28C188.5 213.633 188.387 213.943 188.16 214.21C186.99 215.58 185.07 215.08 184.57 213.4C184.443 212.987 184.313 212.557 184.18 212.11C184.06 211.723 183.837 211.647 183.51 211.88Z" fill="#FF80A8"/>
<path d="M222.45 192.74C222.525 192.818 222.624 192.87 222.731 192.888C222.839 192.905 222.949 192.887 223.045 192.836C223.141 192.785 223.218 192.704 223.264 192.606C223.31 192.507 223.323 192.396 223.3 192.29C223.047 191.123 223.313 190.107 224.1 189.24C224.364 188.946 224.711 188.74 225.095 188.648C225.479 188.555 225.882 188.582 226.251 188.724C226.62 188.866 226.936 189.117 227.159 189.443C227.382 189.769 227.501 190.155 227.5 190.55V213.05C227.5 213.348 227.434 213.642 227.307 213.91C227.179 214.179 226.993 214.416 226.762 214.604C226.531 214.792 226.261 214.926 225.972 214.996C225.682 215.066 225.381 215.071 225.09 215.01C223.49 214.67 222.893 213.607 223.3 211.82C223.314 211.745 223.304 211.668 223.272 211.599C223.24 211.53 223.186 211.474 223.12 211.437C223.053 211.4 222.977 211.386 222.901 211.395C222.826 211.405 222.755 211.438 222.7 211.49C210.17 223.85 193.02 202.13 206.72 191.72C212.447 187.373 217.69 187.713 222.45 192.74ZM214.267 210.343C215.334 210.387 216.399 210.214 217.403 209.832C218.406 209.451 219.327 208.869 220.114 208.119C220.901 207.37 221.539 206.467 221.99 205.464C222.441 204.46 222.697 203.375 222.743 202.27C222.836 200.039 222.07 197.864 220.613 196.222C219.156 194.581 217.127 193.608 214.972 193.517C213.906 193.473 212.84 193.646 211.837 194.027C210.834 194.409 209.912 194.991 209.125 195.741C208.338 196.49 207.701 197.392 207.25 198.396C206.799 199.4 206.543 200.485 206.497 201.59C206.404 203.821 207.17 205.996 208.627 207.638C210.084 209.279 212.113 210.252 214.267 210.343Z" fill="#FF80A8"/>
</svg>
