<svg width="300" height="300" viewBox="0 0 300 300" fill="none" xmlns="http://www.w3.org/2000/svg">
<path d="M70.4392 78.5743C67.5743 83.1824 65.0203 87.9459 62.777 92.8648C62.7535 92.9161 62.7145 92.9585 62.6654 92.9859C62.6164 93.0133 62.5596 93.0244 62.5031 93.0177C62.4467 93.011 62.3932 92.9868 62.3503 92.9485C62.3073 92.9102 62.277 92.8597 62.2635 92.804C60.8986 86.4661 59.1216 80.2454 56.9324 74.1418C56.8514 73.9211 56.8986 73.7297 57.0743 73.5675C60.8378 70.0134 67.5 62.3783 63.9054 56.9256C55.0405 43.4797 43.4257 53.5675 43.6216 65.5405C43.8986 82.9188 42.5878 98.777 52.777 113.77C54.0698 115.676 55.1914 116.917 56.1419 117.493C59.8649 119.75 65.6081 117.061 68.5878 114.567C69.6914 113.644 71.1779 111.763 73.0473 108.926C75.6284 105.011 78.4842 101.304 81.6149 97.804" stroke="#FFD0C7" stroke-width="2"/>
<path d="M81.6149 97.804C85.0405 98.608 86.473 100.655 90.3716 97.9999" stroke="#FFE2D9" stroke-width="2"/>
<path d="M90.3716 98L97.4933 104.155C97.5622 104.215 97.6497 104.25 97.7417 104.254C97.8336 104.257 97.9247 104.23 98 104.176C100.919 102.02 104.061 102.824 106.838 105.176C108.318 106.426 108.838 107.777 107.716 109.459C107.559 109.689 107.61 109.856 107.872 109.959C111.892 111.574 115.02 113.041 115.757 116.98C115.78 117.095 115.832 117.203 115.907 117.293C115.983 117.383 116.08 117.452 116.189 117.493C122.131 119.664 128.16 121.505 134.277 123.014C134.628 123.101 134.818 123.297 135.135 123.432" stroke="#80C9FF" stroke-width="2"/>
<path d="M135.135 123.432L143.777 135.473" stroke="#80ABEC" stroke-width="2"/>
<path d="M143.777 135.473L127.392 154.561" stroke="#80C9FF" stroke-width="2"/>
<path d="M127.392 154.561C122.225 160.056 117.149 165.631 112.162 171.284C99.8514 185.243 118.047 200.216 128.257 208.736C134.599 214.029 140.736 219.545 146.669 225.284C148.514 227.068 151.284 229.98 152.088 232.412C152.696 234.277 151.331 237.311 151.041 239.358" stroke="#FFE2D9" stroke-width="2"/>
<path d="M151.041 239.358C146.586 248.317 142.694 256.491 139.365 263.878C138.716 265.304 136.162 269.027 136.513 270.101" stroke="#80C9FF" stroke-width="2"/>
<path d="M136.513 270.101L136.351 270.547C136.27 270.773 136.297 270.986 136.432 271.189C140.385 276.905 149.291 274.905 154.432 272.48C157.986 270.8 160.448 268.095 161.818 264.365C163.966 258.547 166.277 256.027 170.73 252.277C174.642 248.98 178.899 242.074 174.351 237.5" stroke="#878787" stroke-width="2"/>
<path d="M174.351 237.5L173.061 234.628" stroke="#80ABEC" stroke-width="2"/>
<path d="M173.061 234.628C172.786 233.308 172.115 231.977 171.047 230.635C170.394 229.815 169.504 229.437 168.378 229.5" stroke="#80C9FF" stroke-width="2"/>
<path d="M168.378 229.5C163.225 220.257 158.493 210.77 154.182 201.04C150.615 192.986 145.797 189.081 138.155 184.878C138.101 184.848 138.056 184.804 138.024 184.75C137.992 184.697 137.975 184.636 137.975 184.574C137.975 184.512 137.992 184.452 138.024 184.4C138.056 184.348 138.101 184.305 138.155 184.277L156.392 174.324C156.505 174.261 156.572 174.169 156.595 174.047C156.608 173.975 156.615 173.899 156.615 173.818" stroke="#FFE2D9" stroke-width="2"/>
<path d="M156.615 173.818L156.784 173.919C156.847 173.959 156.91 173.962 156.973 173.926C161.221 171.538 165.124 168.682 168.682 165.358C168.878 165.176 169 165.189 169.257 165.176" stroke="#80C9FF" stroke-width="2"/>
<path d="M169.257 165.176L179.372 174.216" stroke="#80ABEC" stroke-width="2"/>
<path d="M179.372 174.216C183.764 180.182 188.169 187.378 195.939 189.054C201.595 190.277 204.858 191.013 209.432 194.628C220.698 203.538 231.858 212.579 242.912 221.75C243.101 221.908 243.302 221.926 243.514 221.804L245.919 220.439" stroke="#FFD0C7" stroke-width="2"/>
<path d="M245.919 220.439C246.595 225.813 246.754 231.198 246.399 236.595C246.327 237.712 245.86 238.471 245 238.872C244.797 238.966 244.575 239.012 244.352 239.003C244.128 238.995 243.91 238.933 243.715 238.824C243.52 238.714 243.354 238.559 243.231 238.373C243.108 238.186 243.031 237.972 243.007 237.75L242.378 231.959C242.351 231.712 242.336 231.714 242.331 231.966L241.736 252.196" stroke="#80C9FF" stroke-width="2"/>
<path d="M241.736 252.196C245.507 258.622 255.541 255.041 258.439 250C261.419 244.811 260.872 237.811 260.655 230.946C260.446 224.263 267.547 217.182 264.216 211.655" stroke="#878787" stroke-width="2"/>
<path d="M264.216 211.655C263.694 210.007 262.849 208.543 261.682 207.263" stroke="#80C9FF" stroke-width="2"/>
<path d="M261.682 207.263C260.705 206.241 259.513 205.631 258.108 205.432" stroke="#80ABEC" stroke-width="2"/>
<path d="M258.108 205.432L250.088 204.432" stroke="#80C9FF" stroke-width="2"/>
<path d="M250.088 204.432C239.399 190.628 227.311 174.831 210.777 168.223C210.552 168.137 210.374 167.993 210.243 167.79L202.581 156.121C202.5 156 202.387 155.932 202.243 155.919L201.858 155.885" stroke="#FFD0C7" stroke-width="2"/>
<path d="M201.858 155.885C201.944 155.502 201.95 155.128 201.878 154.764C200.23 146.264 198.595 135.669 194.453 128.378" stroke="#80ABEC" stroke-width="2"/>
<path d="M194.453 128.378C191.635 118.608 184.689 111.574 178.189 104.142C178.054 103.993 177.962 104.016 177.912 104.209L176.473 109.919C176.428 110.103 176.477 110.257 176.622 110.378C183.689 116.412 188.885 126.892 183.568 135.777C181.405 139.394 178.396 143.027 174.541 146.676C167.635 153.212 160.459 159.444 153.013 165.371" stroke="#80C9FF" stroke-width="2"/>
<path d="M153.014 165.371C151.923 164.331 151.153 163.092 150.703 161.655" stroke="#FFE2D9" stroke-width="2"/>
<path d="M150.703 161.655C158.212 155.7 165.466 149.45 172.466 142.905C175.498 140.068 177.822 137.662 179.439 135.689C185.027 128.878 180.838 119.128 174.574 114.46C174.412 114.338 174.264 114.356 174.128 114.514C170.011 119.315 164.845 122.469 158.628 123.973C158.245 124.063 158.225 124.011 158.568 123.818C166.966 119.007 173.459 112.311 176.98 103.176C177.065 102.96 177.029 102.766 176.872 102.595L164.358 88.8784" stroke="#80C9FF" stroke-width="2"/>
<path d="M164.358 88.8784C172.345 84.8648 179.815 80.036 186.77 74.3919C186.86 74.3181 186.969 74.2703 187.085 74.2537C187.202 74.237 187.322 74.2521 187.432 74.2973C193.669 76.8311 200.318 79.3378 207.074 79.8378C211.615 80.1712 216.128 80.7342 220.615 81.527C230.48 83.2703 229.75 93.4865 237.669 96.6486" stroke="#FFE2D9" stroke-width="2"/>
<path d="M237.669 96.6487C237.662 100.345 236.75 112.764 238.412 115.412C240.061 118.034 243.966 117.845 245.466 115.047C245.791 114.439 245.953 113.505 245.953 112.243C245.944 105.973 245.941 99.705 245.946 93.4392" stroke="#878787" stroke-width="2"/>
<path d="M245.946 93.4391C247.865 93.2544 249.642 92.6756 251.277 91.7026C251.471 91.59 251.613 91.4323 251.703 91.2296C252.225 90.0675 252.491 88.9368 252.5 87.8377C252.545 82.054 250.396 77.2859 246.054 73.5337" stroke="#FFE2D9" stroke-width="2"/>
<path d="M246.054 73.5337C245.892 71.1553 246.426 67.8107 245.142 65.9729C243.689 63.8986 240.601 63.7296 238.885 65.6621C237.633 67.072 237.237 68.8896 237.696 71.1148" stroke="#878787" stroke-width="2"/>
<path d="M237.696 71.1147C231.417 70.6238 226.32 69.4075 222.405 67.4661C211.074 61.8445 193.095 52.0539 180.223 56.581C173.216 59.0472 168.601 60.0945 161.324 60.9864C153.669 61.9323 146.851 64.662 140.176 68.2431C139.987 68.3467 139.784 68.403 139.568 68.412L138.851 68.4391" stroke="#FFE2D9" stroke-width="2"/>
<path d="M138.851 68.4391L136.149 67.2026" stroke="#FFD0C7" stroke-width="2"/>
<path d="M136.149 67.2027C127.599 62.8198 118.543 60.1261 108.98 59.1216" stroke="#80C9FF" stroke-width="2"/>
<path d="M108.98 59.1216C104.682 51.3558 98.2297 47.3063 89.6216 46.9729C86.054 46.831 81.7703 47.8986 79.2297 50.1891C74.8784 54.1013 69.6284 61.6148 68.3986 67.5608C67.6824 71.0337 67.4324 76.1554 70.4392 78.5743" stroke="#878787" stroke-width="2"/>
<path d="M108.98 59.1216C110.187 61.8558 110.854 64.7184 110.98 67.7094" stroke="#085187" stroke-width="2"/>
<path d="M110.98 67.7095C110.39 73.0653 108.259 77.6915 104.588 81.5879" stroke="#87584F" stroke-width="2"/>
<path d="M104.588 81.5879C104.367 79.8717 103.903 78.2118 103.196 76.6082C103.101 76.392 102.955 76.2208 102.757 76.0947L95.8852 71.696C95.687 71.5699 95.5068 71.5947 95.3446 71.7703C93.4842 73.8109 91.223 74.8176 88.5608 74.7906C81.2635 74.7095 79.4189 81.6014 71.1419 79.0541" stroke="#876A61" stroke-width="2"/>
<path d="M71.1419 79.0539L70.4392 78.5742" stroke="#87584F" stroke-width="2"/>
<path d="M136.149 67.2025C134.329 66.9053 132.61 66.9796 130.993 67.4255" stroke="#8099C7" stroke-width="2"/>
<path d="M118.27 88.5134C117.703 92.9774 118.354 97.1441 120.223 101.013C124.399 109.649 135.763 111.838 143.676 107.507C148.995 104.597 151.865 99.6666 152.284 92.7161" stroke="#0075EC" stroke-width="2"/>
<path d="M150.703 161.655C145.149 153.608 136.885 149.5 127.392 154.561" stroke="#80ABD9" stroke-width="2"/>
<path d="M143.777 135.473L150.824 127.203C150.841 127.183 150.853 127.16 150.858 127.134C150.863 127.109 150.862 127.082 150.853 127.058C150.845 127.033 150.831 127.011 150.811 126.994C150.792 126.977 150.769 126.965 150.743 126.959L135.135 123.432" stroke="#0075EC" stroke-width="2"/>
<path d="M90.3716 98L95.6284 94.3513" stroke="#80ABD9" stroke-width="2"/>
<path d="M95.6284 94.3514L113.324 99.3243C113.376 99.3381 113.431 99.3369 113.482 99.3208C113.534 99.3046 113.579 99.2743 113.614 99.2332C113.649 99.1921 113.671 99.1421 113.678 99.0888C113.686 99.0356 113.678 98.9814 113.655 98.9324C109.459 90.277 109.236 79.9122 116.919 73.0338C120.932 69.4392 113.223 67.7162 110.98 67.7095" stroke="#8099C7" stroke-width="2"/>
<path d="M71.1419 79.054C70.9797 79.5495 70.9662 80.0585 71.1014 80.581C72.8941 87.3828 76.3987 93.1238 81.6149 97.804" stroke="#FFB2A0" stroke-width="2"/>
<path d="M95.6284 94.3514C99.741 90.8469 102.727 86.5924 104.588 81.5879" stroke="#FFB2A0" stroke-width="2"/>
<path d="M237.696 71.1147L246.054 73.5337" stroke="#876A61" stroke-width="2"/>
<path d="M245.946 93.4392C243.182 87.0878 238.162 92.5203 237.669 96.6486" stroke="#876A61" stroke-width="2"/>
<path d="M164.358 88.8784C160.137 89.8379 156.113 91.1172 152.284 92.7163" stroke="#80ABD9" stroke-width="2"/>
<path d="M152.284 92.7161C150.845 93.4999 149.541 94.2499 148.304 95.4391C137.196 106.155 121.932 106.486 118.27 88.5134" stroke="#808EC5" stroke-width="2"/>
<path d="M118.27 88.5134C116.48 80.0945 122.453 69.3377 130.993 67.4255" stroke="#80ABD9" stroke-width="2"/>
<path d="M130.993 67.4255L129.73 73.1485C129.717 73.2037 129.72 73.2614 129.739 73.3148C129.758 73.3682 129.792 73.4151 129.837 73.4499C129.882 73.4847 129.935 73.5059 129.992 73.5112C130.048 73.5165 130.105 73.5055 130.155 73.4796C132.155 72.4391 137.696 70.0607 138.851 68.4391" stroke="#FFB2A0" stroke-width="2"/>
<path d="M168.378 229.5C167.559 231.135 167.11 232.851 167.034 234.649C166.971 236.122 166.752 237.077 166.378 237.514C164.655 239.561 159.169 238.919 156.757 238.709" stroke="#80ABD9" stroke-width="2"/>
<path d="M156.757 238.709C155.113 238.453 153.536 238.622 152.027 239.216" stroke="#FFE2D9" stroke-width="2"/>
<path d="M152.027 239.216L151.041 239.358" stroke="#80ABD9" stroke-width="2"/>
<path d="M194.453 128.378L194.25 128.71C194.133 128.903 194.099 129.11 194.149 129.331C195.635 135.899 191.331 144.655 187.101 149.615C181.791 155.845 175.291 160.074 169.257 165.176" stroke="#0075EC" stroke-width="2"/>
<path d="M156.615 173.818L153.013 165.372" stroke="#80ABD9" stroke-width="2"/>
<path d="M173.061 234.628C170.849 239.696 167.547 244.027 163.155 247.622C161.068 249.324 158.399 250.858 156.912 252.716C153.588 256.86 152.464 261.653 153.541 267.095C153.554 267.16 153.59 267.22 153.643 267.262C153.696 267.305 153.762 267.327 153.829 267.325C153.896 267.324 153.96 267.298 154.008 267.253C154.057 267.208 154.088 267.147 154.095 267.081C154.833 261.171 157.498 256.417 162.088 252.817C166.426 249.419 170.838 246.723 173.122 241.135C173.318 240.655 173.655 240.446 174.128 240.372" stroke="#0075EC" stroke-width="2"/>
<path d="M174.128 240.372C173.932 243.622 173.007 245.811 170.466 248.169C165.601 252.687 161.685 257.937 158.716 263.919C156.509 268.369 152.91 270.827 147.919 271.291C143.453 271.709 141.385 268.351 136.513 270.101" stroke="#085187" stroke-width="2"/>
<path d="M152.027 239.216C149.887 244.122 148.268 248.568 147.169 252.554C146.93 253.419 147.295 254.097 148.263 254.588C148.489 254.705 148.714 254.707 148.939 254.595C152.372 252.872 155.378 242.399 156.757 238.709" stroke="#80C9FF" stroke-width="2"/>
<path d="M201.858 155.885C198.065 166.421 190.57 172.531 179.372 174.216" stroke="#807CB3" stroke-width="2"/>
<path d="M174.351 237.5L174.128 240.372" stroke="#083374" stroke-width="2"/>
<path d="M250.088 204.432C250.511 206.95 251.164 209.419 252.047 211.838C253.662 216.284 248.811 218.345 245.919 220.439" stroke="#8099C7" stroke-width="2"/>
<path d="M258.108 205.432C258.851 211.108 256.52 216.547 253.5 221.203C251.658 224.031 250.615 225.772 250.372 226.426C248.297 232.007 250.128 238.527 252.872 243.493C253.074 243.867 253.185 243.842 253.203 243.419C253.252 242.153 253.169 240.669 252.953 238.966C252.381 234.354 253.185 229.912 255.365 225.642C257.905 220.669 261.676 215.905 261.527 210.142C261.491 208.781 261.543 207.822 261.682 207.263" stroke="#0075EC" stroke-width="2"/>
<path d="M264.216 211.655C262.716 214.908 261.272 218.187 259.885 221.493C257.203 227.892 257.459 233.932 256.736 242.054C256.392 245.851 255.419 251.655 250.02 251.061C246.818 250.703 245.115 250.385 241.736 252.196" stroke="#085187" stroke-width="2"/>
<path d="M104.122 106.507C102.95 106.065 101.741 105.935 100.493 106.115C100.119 106.169 100.081 106.315 100.378 106.554L103.514 109.061C103.757 109.254 103.962 109.218 104.128 108.953L104.662 108.088C104.746 107.952 104.798 107.8 104.816 107.642C104.834 107.484 104.816 107.323 104.765 107.172C104.713 107.021 104.629 106.883 104.517 106.768C104.406 106.653 104.271 106.564 104.122 106.507Z" stroke="#80C9FF" stroke-width="2"/>
<path d="M116.142 190.257C118.405 193.493 122.757 196.507 125.899 198.966C126.137 199.151 126.257 199.092 126.257 198.79C126.264 191.088 123.291 190.013 116.358 189.858C116.312 189.858 116.266 189.87 116.226 189.894C116.185 189.917 116.152 189.951 116.13 189.992C116.108 190.033 116.097 190.08 116.099 190.126C116.101 190.173 116.116 190.218 116.142 190.257Z" stroke="#FFB2A0" stroke-width="2"/>
<path d="M108.98 59.1216C110.187 61.8558 110.854 64.7184 110.98 67.7094C110.39 73.0653 108.259 77.6914 104.588 81.5878C104.367 79.8716 103.903 78.2117 103.196 76.6081C103.101 76.3919 102.955 76.2207 102.757 76.0946L95.8851 71.6959C95.6869 71.5698 95.5067 71.5946 95.3446 71.7702C93.4842 73.8108 91.223 74.8175 88.5608 74.7905C81.2635 74.7094 79.4189 81.6013 71.1419 79.054L70.4392 78.5743C67.4324 76.1554 67.6824 71.0337 68.3986 67.5608C69.6284 61.6148 74.8784 54.1013 79.2297 50.1891C81.7703 47.8986 86.054 46.831 89.6216 46.9729C98.2297 47.3063 104.682 51.3558 108.98 59.1216Z" fill="#0F0F0F"/>
<path d="M70.4392 78.5743L71.1419 79.054C70.9797 79.5495 70.9662 80.0585 71.1014 80.581C72.8941 87.3828 76.3986 93.1238 81.6149 97.804C78.4842 101.304 75.6284 105.011 73.0473 108.926C71.1779 111.763 69.6914 113.644 68.5878 114.567C65.6081 117.061 59.8649 119.75 56.1419 117.493C55.1914 116.917 54.0698 115.676 52.777 113.77C42.5878 98.777 43.8986 82.9188 43.6216 65.5405C43.4257 53.5675 55.0405 43.4797 63.9054 56.9256C67.5 62.3783 60.8378 70.0134 57.0743 73.5675C56.8986 73.7297 56.8514 73.9211 56.9324 74.1418C59.1216 80.2454 60.8986 86.4661 62.2635 92.804C62.277 92.8597 62.3073 92.9102 62.3503 92.9485C62.3932 92.9868 62.4467 93.011 62.5031 93.0177C62.5596 93.0244 62.6164 93.0133 62.6654 92.9859C62.7145 92.9585 62.7535 92.9161 62.777 92.8648C65.0203 87.9459 67.5743 83.1824 70.4392 78.5743Z" fill="#FFA08E"/>
<path d="M237.696 71.1147L246.054 73.5337C250.396 77.2859 252.545 82.0539 252.5 87.8377C252.491 88.9368 252.225 90.0675 251.703 91.2296C251.613 91.4323 251.471 91.59 251.277 91.7026C249.642 92.6756 247.865 93.2544 245.946 93.4391C243.182 87.0877 238.162 92.5201 237.669 96.6485C229.75 93.4864 230.48 83.2702 220.615 81.5269C216.128 80.7341 211.615 80.1711 207.074 79.8377C200.318 79.3377 193.669 76.831 187.432 74.2972C187.322 74.252 187.202 74.2369 187.085 74.2536C186.969 74.2702 186.86 74.318 186.77 74.3918C179.815 80.0359 172.345 84.8647 164.358 88.8783C160.137 89.8377 156.113 91.117 152.284 92.7161C150.845 93.4999 149.541 94.2499 148.304 95.4391C137.196 106.155 121.932 106.486 118.27 88.5134C116.48 80.0945 122.453 69.3377 130.993 67.4256L129.73 73.1485C129.717 73.2038 129.72 73.2615 129.739 73.3149C129.758 73.3682 129.792 73.4151 129.837 73.4499C129.882 73.4847 129.935 73.506 129.992 73.5112C130.048 73.5165 130.105 73.5055 130.155 73.4796C132.155 72.4391 137.696 70.0607 138.851 68.4391L139.568 68.412C139.784 68.403 139.987 68.3467 140.176 68.2431C146.851 64.662 153.669 61.9323 161.324 60.9864C168.601 60.0945 173.216 59.0472 180.223 56.581C193.095 52.0539 211.074 61.8445 222.405 67.4661C226.32 69.4075 231.417 70.6238 237.696 71.1147Z" fill="#FFC4B2"/>
<path d="M108.98 59.1216C118.543 60.1261 127.599 62.8198 136.149 67.2027C134.329 66.9054 132.61 66.9797 130.993 67.4256C122.453 69.3378 116.48 80.0946 118.27 88.5135C117.703 92.9774 118.354 97.1441 120.223 101.013C124.399 109.649 135.764 111.838 143.676 107.507C148.996 104.597 151.865 99.6666 152.284 92.7162C156.113 91.1171 160.137 89.8378 164.358 88.8783L176.872 102.595C177.029 102.766 177.065 102.959 176.98 103.176C173.459 112.311 166.966 119.007 158.568 123.818C158.225 124.011 158.246 124.063 158.628 123.973C164.845 122.468 170.011 119.315 174.128 114.513C174.264 114.356 174.412 114.338 174.574 114.459C180.838 119.128 185.027 128.878 179.439 135.689C177.822 137.662 175.498 140.068 172.466 142.905C165.466 149.45 158.212 155.7 150.703 161.655C145.149 153.608 136.885 149.5 127.392 154.561L143.777 135.473L150.824 127.203C150.841 127.183 150.853 127.16 150.858 127.134C150.863 127.109 150.862 127.082 150.853 127.058C150.845 127.033 150.831 127.011 150.811 126.994C150.792 126.977 150.769 126.965 150.743 126.959L135.135 123.432C134.818 123.297 134.628 123.101 134.277 123.013C128.16 121.504 122.131 119.664 116.189 117.493C116.08 117.452 115.983 117.383 115.907 117.293C115.832 117.203 115.78 117.095 115.757 116.98C115.02 113.041 111.892 111.574 107.872 109.959C107.61 109.856 107.559 109.689 107.716 109.459C108.838 107.777 108.318 106.426 106.838 105.176C104.061 102.824 100.919 102.02 98 104.176C97.9247 104.23 97.8336 104.257 97.7417 104.254C97.6497 104.25 97.5622 104.215 97.4933 104.155L90.3716 98L95.6284 94.3513L113.324 99.3243C113.376 99.3381 113.431 99.3368 113.482 99.3207C113.534 99.3046 113.579 99.2742 113.614 99.2331C113.649 99.1921 113.671 99.142 113.678 99.0888C113.686 99.0355 113.678 98.9813 113.655 98.9324C109.459 90.277 109.237 79.9121 116.919 73.0337C120.932 69.4391 113.223 67.7162 110.98 67.7094C110.854 64.7184 110.187 61.8558 108.98 59.1216Z" fill="#0092FF"/>
<path d="M246.054 73.5337L237.696 71.1148C237.237 68.8896 237.633 67.072 238.885 65.6621C240.601 63.7296 243.689 63.8986 245.142 65.9729C246.426 67.8107 245.892 71.1553 246.054 73.5337Z" fill="#0F0F0F"/>
<path d="M136.149 67.2028L138.851 68.4393C137.696 70.0609 132.155 72.4393 130.155 73.4798C130.105 73.5057 130.048 73.5167 129.992 73.5114C129.935 73.5062 129.882 73.4849 129.837 73.4501C129.792 73.4153 129.758 73.3685 129.739 73.3151C129.72 73.2617 129.717 73.204 129.73 73.1487L130.993 67.4258C132.61 66.9798 134.329 66.9055 136.149 67.2028Z" fill="#FFA08E"/>
<path d="M95.6284 94.3514C99.741 90.8469 102.727 86.5924 104.588 81.5879C108.259 77.6915 110.39 73.0653 110.98 67.7095C113.223 67.7162 120.932 69.4392 116.919 73.0338C109.236 79.9122 109.459 90.277 113.655 98.9324C113.678 98.9814 113.686 99.0356 113.678 99.0888C113.671 99.1421 113.649 99.1921 113.614 99.2332C113.579 99.2743 113.534 99.3046 113.482 99.3208C113.431 99.3369 113.376 99.3381 113.324 99.3243L95.6284 94.3514Z" fill="#FFA08E"/>
<path d="M104.588 81.5879C102.727 86.5924 99.741 90.8469 95.6284 94.3514L90.3716 98.0001C86.473 100.655 85.0405 98.6082 81.6149 97.8041C76.3987 93.1239 72.8941 87.3829 71.1014 80.5811C70.9662 80.0586 70.9797 79.5496 71.1419 79.0541C79.4189 81.6014 81.2635 74.7095 88.5608 74.7906C91.223 74.8176 93.4842 73.8109 95.3446 71.7703C95.5068 71.5947 95.6869 71.5699 95.8851 71.696L102.757 76.0947C102.955 76.2208 103.101 76.392 103.196 76.6082C103.903 78.2118 104.367 79.8717 104.588 81.5879Z" fill="#FFC4B2"/>
<path d="M118.27 88.5134C121.932 106.486 137.196 106.155 148.304 95.4391C149.541 94.2499 150.845 93.4999 152.284 92.7161C151.865 99.6666 148.995 104.597 143.676 107.507C135.763 111.838 124.399 109.649 120.223 101.013C118.354 97.1441 117.703 92.9774 118.27 88.5134Z" fill="#0057D8"/>
<path d="M245.946 93.4392C245.941 99.7049 245.944 105.973 245.953 112.243C245.953 113.504 245.791 114.439 245.466 115.047C243.966 117.845 240.061 118.034 238.412 115.412C236.75 112.764 237.662 100.345 237.669 96.6486C238.162 92.5203 243.182 87.0878 245.946 93.4392Z" fill="#0F0F0F"/>
<path d="M194.453 128.378L194.25 128.71C194.133 128.903 194.099 129.11 194.149 129.331C195.635 135.899 191.331 144.655 187.101 149.615C181.791 155.845 175.291 160.074 169.257 165.176C169 165.189 168.878 165.176 168.682 165.358C165.124 168.683 161.221 171.538 156.973 173.926C156.91 173.962 156.847 173.96 156.784 173.919L156.615 173.818L153.014 165.372C160.459 159.444 167.635 153.212 174.541 146.676C178.396 143.027 181.405 139.394 183.568 135.777C188.885 126.892 183.689 116.412 176.622 110.378C176.478 110.257 176.428 110.104 176.473 109.919L177.912 104.21C177.962 104.016 178.054 103.993 178.189 104.142C184.689 111.574 191.635 118.608 194.453 128.378Z" fill="#0092FF"/>
<path d="M104.122 106.507C104.271 106.564 104.406 106.653 104.517 106.769C104.629 106.884 104.713 107.022 104.765 107.173C104.816 107.324 104.834 107.484 104.816 107.642C104.798 107.8 104.746 107.953 104.662 108.088L104.128 108.953C103.962 109.219 103.757 109.255 103.514 109.061L100.378 106.554C100.081 106.315 100.119 106.169 100.493 106.115C101.741 105.935 102.95 106.065 104.122 106.507Z" fill="#0092FF"/>
<path d="M143.777 135.473L135.135 123.432L150.743 126.959C150.769 126.965 150.792 126.977 150.811 126.994C150.831 127.011 150.845 127.033 150.853 127.058C150.862 127.082 150.863 127.109 150.858 127.134C150.853 127.16 150.841 127.183 150.824 127.203L143.777 135.473Z" fill="#0057D8"/>
<path d="M194.453 128.378C198.595 135.669 200.23 146.264 201.878 154.764C201.95 155.128 201.944 155.502 201.858 155.885C198.065 166.421 190.57 172.532 179.372 174.216L169.257 165.176C175.291 160.074 181.791 155.845 187.101 149.615C191.331 144.655 195.635 135.899 194.149 129.331C194.099 129.11 194.133 128.903 194.25 128.71L194.453 128.378Z" fill="#0057D8"/>
<path d="M150.703 161.655C151.153 163.092 151.923 164.331 153.014 165.372L156.615 173.818C156.615 173.899 156.608 173.975 156.595 174.047C156.572 174.169 156.505 174.261 156.392 174.324L138.155 184.277C138.101 184.305 138.056 184.348 138.024 184.4C137.992 184.452 137.975 184.512 137.975 184.574C137.975 184.636 137.992 184.697 138.024 184.75C138.056 184.804 138.101 184.848 138.155 184.878C145.797 189.081 150.615 192.986 154.182 201.04C158.493 210.77 163.225 220.257 168.378 229.5C167.559 231.135 167.11 232.851 167.034 234.649C166.971 236.122 166.752 237.077 166.378 237.513C164.655 239.561 159.169 238.919 156.757 238.709C155.113 238.453 153.536 238.622 152.027 239.216L151.041 239.358C151.331 237.311 152.696 234.277 152.088 232.412C151.284 229.98 148.514 227.068 146.669 225.284C140.736 219.545 134.599 214.029 128.257 208.736C118.047 200.216 99.8514 185.243 112.162 171.284C117.149 165.631 122.225 160.056 127.392 154.561C136.885 149.5 145.149 153.608 150.703 161.655ZM116.142 190.257C118.405 193.493 122.757 196.507 125.899 198.966C126.137 199.151 126.257 199.092 126.257 198.79C126.264 191.088 123.291 190.013 116.358 189.858C116.312 189.858 116.266 189.87 116.226 189.894C116.185 189.917 116.152 189.951 116.13 189.992C116.108 190.033 116.097 190.08 116.099 190.126C116.101 190.173 116.116 190.218 116.142 190.257Z" fill="#FFC4B2"/>
<path d="M201.858 155.885L202.243 155.919C202.387 155.933 202.5 156 202.581 156.122L210.243 167.791C210.374 167.993 210.552 168.138 210.777 168.223C227.311 174.831 239.399 190.628 250.088 204.433C250.511 206.951 251.164 209.419 252.047 211.838C253.662 216.284 248.811 218.345 245.919 220.439L243.514 221.804C243.302 221.926 243.101 221.908 242.912 221.75C231.858 212.579 220.698 203.538 209.432 194.628C204.858 191.014 201.595 190.277 195.939 189.054C188.169 187.378 183.764 180.183 179.372 174.216C190.57 172.532 198.065 166.421 201.858 155.885Z" fill="#FFA08E"/>
<path d="M125.899 198.966C122.757 196.507 118.405 193.493 116.142 190.257C116.116 190.218 116.101 190.173 116.099 190.126C116.097 190.08 116.108 190.033 116.13 189.993C116.152 189.952 116.185 189.917 116.226 189.894C116.266 189.87 116.312 189.858 116.358 189.858C123.291 190.014 126.264 191.088 126.257 198.791C126.257 199.092 126.137 199.151 125.899 198.966Z" fill="#FFA08E"/>
<path d="M250.088 204.432L258.108 205.432C258.851 211.108 256.52 216.547 253.5 221.203C251.658 224.031 250.615 225.772 250.372 226.426C248.297 232.007 250.128 238.527 252.872 243.493C253.074 243.867 253.185 243.842 253.203 243.419C253.252 242.153 253.169 240.669 252.953 238.966C252.381 234.354 253.185 229.912 255.365 225.642C257.905 220.669 261.676 215.905 261.527 210.142C261.491 208.781 261.543 207.822 261.682 207.263C262.849 208.543 263.694 210.007 264.216 211.655C262.716 214.908 261.272 218.187 259.885 221.493C257.203 227.892 257.459 233.932 256.736 242.054C256.392 245.851 255.419 251.655 250.02 251.061C246.818 250.703 245.115 250.385 241.736 252.196L242.331 231.966C242.336 231.714 242.351 231.712 242.378 231.959L243.007 237.75C243.031 237.972 243.108 238.186 243.231 238.373C243.354 238.559 243.52 238.714 243.715 238.824C243.91 238.933 244.128 238.995 244.352 239.003C244.575 239.012 244.797 238.966 245 238.872C245.86 238.471 246.327 237.712 246.399 236.595C246.754 231.198 246.595 225.813 245.919 220.439C248.811 218.345 253.662 216.284 252.047 211.838C251.164 209.419 250.511 206.95 250.088 204.432Z" fill="#0092FF"/>
<path d="M258.108 205.432C259.514 205.631 260.705 206.241 261.682 207.263C261.543 207.822 261.491 208.781 261.527 210.142C261.676 215.905 257.905 220.669 255.365 225.642C253.185 229.912 252.381 234.354 252.953 238.966C253.169 240.669 253.252 242.153 253.203 243.419C253.185 243.842 253.074 243.867 252.872 243.493C250.128 238.527 248.297 232.007 250.372 226.426C250.615 225.772 251.658 224.031 253.5 221.203C256.52 216.547 258.851 211.108 258.108 205.432Z" fill="#0057D8"/>
<path d="M264.216 211.655C267.547 217.182 260.446 224.263 260.655 230.946C260.872 237.811 261.419 244.811 258.439 250C255.541 255.041 245.507 258.622 241.736 252.196C245.115 250.385 246.818 250.703 250.02 251.061C255.419 251.655 256.392 245.851 256.736 242.054C257.459 233.932 257.203 227.892 259.885 221.493C261.272 218.187 262.716 214.908 264.216 211.655Z" fill="#0F0F0F"/>
<path d="M168.378 229.5C169.504 229.437 170.394 229.815 171.047 230.635C172.115 231.978 172.786 233.309 173.061 234.628C170.849 239.696 167.547 244.027 163.155 247.622C161.068 249.324 158.399 250.858 156.912 252.716C153.588 256.86 152.464 261.653 153.541 267.095C153.554 267.161 153.59 267.22 153.643 267.262C153.696 267.305 153.762 267.327 153.829 267.325C153.896 267.324 153.96 267.298 154.008 267.253C154.057 267.209 154.088 267.147 154.095 267.081C154.833 261.171 157.498 256.417 162.088 252.818C166.426 249.419 170.838 246.723 173.122 241.135C173.318 240.655 173.655 240.446 174.128 240.372C173.932 243.622 173.007 245.811 170.466 248.169C165.601 252.687 161.685 257.937 158.716 263.919C156.509 268.369 152.91 270.827 147.919 271.291C143.453 271.71 141.385 268.351 136.513 270.101C136.162 269.027 138.716 265.304 139.365 263.878C142.694 256.491 146.586 248.318 151.041 239.358L152.027 239.216C149.887 244.122 148.268 248.568 147.169 252.554C146.93 253.419 147.295 254.097 148.263 254.588C148.489 254.705 148.714 254.707 148.939 254.595C152.372 252.872 155.378 242.399 156.757 238.71C159.169 238.919 164.655 239.561 166.378 237.514C166.752 237.077 166.971 236.122 167.034 234.649C167.11 232.851 167.559 231.135 168.378 229.5Z" fill="#0092FF"/>
<path d="M173.061 234.628L174.351 237.5L174.128 240.372C173.655 240.446 173.318 240.655 173.122 241.135C170.838 246.723 166.426 249.419 162.088 252.818C157.498 256.417 154.833 261.171 154.095 267.081C154.088 267.147 154.057 267.209 154.008 267.253C153.96 267.298 153.896 267.324 153.829 267.325C153.762 267.327 153.696 267.305 153.643 267.262C153.59 267.22 153.554 267.161 153.541 267.095C152.464 261.653 153.588 256.86 156.912 252.716C158.399 250.858 161.068 249.324 163.155 247.622C167.547 244.027 170.849 239.696 173.061 234.628Z" fill="#0057D8"/>
<path d="M174.351 237.5C178.899 242.074 174.642 248.98 170.73 252.277C166.277 256.027 163.966 258.547 161.818 264.365C160.448 268.095 157.986 270.8 154.432 272.48C149.291 274.905 140.385 276.905 136.432 271.189C136.297 270.986 136.27 270.773 136.351 270.547L136.513 270.101C141.385 268.351 143.453 271.709 147.919 271.291C152.91 270.827 156.509 268.369 158.716 263.919C161.685 257.937 165.601 252.687 170.466 248.169C173.007 245.811 173.932 243.622 174.128 240.372L174.351 237.5Z" fill="#0F0F0F"/>
<path d="M156.757 238.709C155.378 242.399 152.372 252.872 148.939 254.595C148.714 254.707 148.489 254.705 148.263 254.588C147.295 254.097 146.93 253.419 147.169 252.554C148.268 248.568 149.887 244.122 152.027 239.216C153.536 238.622 155.113 238.453 156.757 238.709Z" fill="white"/>
</svg>
