<svg width="300" height="300" viewBox="0 0 300 300" fill="none" xmlns="http://www.w3.org/2000/svg">
<path d="M131.207 39.4587C131.256 44.2377 131.343 47.8947 133.326 52.9525C133.421 53.1963 133.357 53.4691 133.134 53.7707" stroke="#ECBBA2" stroke-width="2"/>
<path d="M133.134 53.7708C128.442 60.0869 128.393 66.341 128.244 73.6365C128.145 78.7315 126.384 85.4939 121.835 88.5187C112.37 94.8162 103.494 101.932 94.9896 109.221" stroke="#E1AC96" stroke-width="2"/>
<path d="M94.9896 109.221C91.4566 108.048 87.8409 107.702 84.1425 108.186" stroke="#FFB980" stroke-width="2"/>
<path d="M84.1425 108.186L83.4979 108.316" stroke="#878787" stroke-width="2"/>
<path d="M83.4979 108.316C80.969 108.655 78.6529 109.541 76.5496 110.975" stroke="#FFB980" stroke-width="2"/>
<path d="M76.5495 110.975L75.9049 111.26" stroke="#878787" stroke-width="2"/>
<path d="M75.905 111.26C73.6488 112.818 71.7541 114.729 70.2211 116.994" stroke="#FFB980" stroke-width="2"/>
<path d="M70.2211 116.994L69.8864 117.589" stroke="#878787" stroke-width="2"/>
<path d="M69.8863 117.589C66.8863 122.386 66.0599 127.568 67.407 133.134" stroke="#FFB980" stroke-width="2"/>
<path d="M67.407 133.134C69.4772 141.459 77.1384 149.12 86.3119 148.736" stroke="#EDAF80" stroke-width="2"/>
<path d="M86.312 148.736L87.7066 148.891" stroke="#878787" stroke-width="2"/>
<path d="M87.7066 148.891C91.2562 148.833 94.562 147.919 97.624 146.151" stroke="#EDAF80" stroke-width="2"/>
<path d="M97.624 146.151L98.3988 145.531" stroke="#878787" stroke-width="2"/>
<path d="M98.3987 145.531C101.961 143.295 104.587 140.24 106.277 136.364" stroke="#EDAF80" stroke-width="2"/>
<path d="M106.277 136.364L106.866 133.928" stroke="#878787" stroke-width="2"/>
<path d="M106.866 133.928C108.651 127.961 107.828 122.401 104.399 117.248" stroke="#EDAF80" stroke-width="2"/>
<path d="M104.399 117.248L104.262 116.684" stroke="#FFB980" stroke-width="2"/>
<path d="M104.262 116.684C111.233 113.333 118.221 110.012 125.225 106.723C132.713 103.203 137.455 97.624 140.733 90.124C141.415 88.5744 142.128 87.0372 142.872 85.5125" stroke="#E1AC96" stroke-width="2"/>
<path d="M142.872 85.5125C144.256 91.3472 145.581 97.1963 146.845 103.06C147.607 106.612 148.835 111.397 147.012 114.167C144.986 117.248 143.455 121.717 147.967 123.626C148.19 123.721 148.246 123.876 148.134 124.091L145.971 128.281" stroke="#FF8080" stroke-width="2"/>
<path d="M145.971 128.281L145.196 129.831" stroke="#878787" stroke-width="2"/>
<path d="M145.196 129.831C144.671 130.471 144.298 131.184 144.074 131.969C144.017 132.167 144.066 132.331 144.223 132.459L145.506 133.481" stroke="#FF8080" stroke-width="2"/>
<path d="M145.506 133.481C143.89 138.374 142.721 143.514 141.998 148.903" stroke="#EC8080" stroke-width="2"/>
<path d="M141.998 148.903L128.901 163.946" stroke="#FF8080" stroke-width="2"/>
<path d="M128.901 163.946L126.756 166.401" stroke="#878787" stroke-width="2"/>
<path d="M126.756 166.401L123.713 169.773C123.65 169.843 123.615 169.934 123.615 170.028C123.615 170.123 123.65 170.215 123.713 170.287C125.795 172.576 127.438 175.163 128.64 178.047" stroke="#FF8080" stroke-width="2"/>
<path d="M128.64 178.047L126.626 185.795" stroke="#ECBBA2" stroke-width="2"/>
<path d="M126.626 185.795C125.938 190.178 124.952 193.649 122.554 197.64C120.855 200.463 119.57 203.479 118.698 206.69" stroke="#878787" stroke-width="2"/>
<path d="M118.698 206.69C117.165 210.388 116.238 213.446 115.915 215.864C114.589 225.793 112.465 235.554 109.543 245.145C109.523 245.219 109.424 245.314 109.246 245.43" stroke="#ECBBA2" stroke-width="2"/>
<path d="M109.246 245.43C108.688 245.347 108.151 245.376 107.634 245.516C107.399 245.583 107.279 245.738 107.275 245.981L107.231 249.304" stroke="#FF8080" stroke-width="2"/>
<path d="M107.231 249.304L105.533 250.643C105.314 250.816 105.331 250.961 105.583 251.076C108.409 252.395 110.2 254.554 110.957 257.554C110.998 257.721 111.005 257.894 110.976 258.064C110.946 258.234 110.882 258.395 110.787 258.539C110.692 258.682 110.568 258.804 110.424 258.897C110.279 258.99 110.116 259.052 109.946 259.079C108.731 259.271 108.074 258.762 107.318 257.758C105.946 255.944 104.18 254.618 102.019 253.779C101.812 253.7 101.618 253.725 101.436 253.853L99.688 255.099C99.4897 255.236 99.4897 255.372 99.688 255.508C101.709 256.872 104.82 260.231 104.566 262.89C104.349 265.171 101.963 264.167 101.101 263.027C99.626 261.081 97.9091 259.368 95.9504 257.888C95.7521 257.736 95.5496 257.729 95.343 257.87L93.7934 258.924C93.5909 259.06 93.593 259.192 93.7996 259.32C96.1012 260.791 97.6736 262.802 98.5165 265.351C99.3409 267.849 96.8554 268.866 95.5971 267.31C93.688 264.946 91.8058 263.124 89.9504 261.843C89.7769 261.719 89.5992 261.713 89.4174 261.824C86.2004 263.733 81.626 265.599 79.9587 269.138" stroke="#878787" stroke-width="2"/>
<path d="M79.9587 269.138C76.1157 273.992 82.221 278.331 86.4049 279.136C89.9008 279.812 93.8553 278.287 96.6632 276.254C101.353 272.853 106.351 270.616 111.657 269.541C117.037 268.45 120.267 265.779 120.068 259.711" stroke="#FF8080" stroke-width="2"/>
<path d="M120.068 259.711C121.002 257.211 121.157 254.68 120.533 252.118" stroke="#878787" stroke-width="2"/>
<path d="M120.533 252.118C123.339 245.341 126.791 238.934 130.89 232.897C134.87 227.045 136.853 223.333 138.043 217.097" stroke="#ECBBA2" stroke-width="2"/>
<path d="M138.043 217.097C139.829 209.145 140.566 201.13 146.126 194.343" stroke="#878787" stroke-width="2"/>
<path d="M146.126 194.343L151.085 187.99" stroke="#ECBBA2" stroke-width="2"/>
<path d="M151.085 187.99L153.564 187.525" stroke="#FF8080" stroke-width="2"/>
<path d="M153.564 187.525C154.519 195.676 160.382 197.777 167.665 196.01C172.326 194.878 176.932 193.539 181.481 191.994" stroke="#878787" stroke-width="2"/>
<path d="M181.481 191.994C192.94 190.32 204.45 189.795 216.012 190.419" stroke="#E1AC96" stroke-width="2"/>
<path d="M216.012 190.419L216.378 191.498C216.444 191.7 216.564 191.864 216.738 191.988C217.952 192.893 219.339 193.657 220.897 194.281" stroke="#FF8080" stroke-width="2"/>
<path d="M220.897 194.281L223.097 196.835C223.233 196.992 223.366 196.99 223.494 196.829C224.709 195.291 227.064 192.638 229.277 193.55C229.413 193.606 229.533 193.697 229.623 193.813C229.713 193.93 229.772 194.068 229.792 194.215C229.812 194.361 229.793 194.51 229.738 194.647C229.682 194.783 229.592 194.903 229.475 194.994L225.267 198.279C225.097 198.411 225.076 198.562 225.205 198.731L225.973 199.76C226.11 199.942 226.275 199.977 226.469 199.866C227.727 199.128 230.895 196.63 232.116 198.298C232.207 198.421 232.27 198.563 232.302 198.713C232.333 198.863 232.332 199.019 232.299 199.169C232.265 199.319 232.2 199.461 232.108 199.584C232.015 199.707 231.898 199.81 231.762 199.884L227.616 202.196C227.401 202.316 227.343 202.488 227.442 202.711L228.025 204.105C228.103 204.291 228.227 204.331 228.397 204.223C229.543 203.498 233.194 200.845 233.981 203.163C234.046 203.356 234.039 203.565 233.962 203.752C233.884 203.939 233.741 204.091 233.56 204.18L229.06 206.374C228.87 206.469 228.793 206.618 228.831 206.82C229.372 209.647 230.169 212.401 231.223 215.083" stroke="#878787" stroke-width="2"/>
<path d="M231.223 215.083C231.781 218.07 238.376 217.94 239.727 215.678C243.428 209.51 243.093 201.452 240.731 194.678C240.043 192.707 239.467 190.965 240.143 188.857C240.682 187.178 241.612 185.399 241.401 183.657C241.095 181.112 240.083 178.893 238.364 177C237.099 175.612 235.376 175.556 233.678 175.903" stroke="#FF8080" stroke-width="2"/>
<path d="M233.678 175.903C230.634 175.841 224.864 176.027 222.607 178.32" stroke="#878787" stroke-width="2"/>
<path d="M222.607 178.32C215.388 176.403 208.093 174.713 200.721 173.25C194.492 172.01 189.477 172.178 183.626 173.566C183.304 173.645 182.942 173.597 182.541 173.424" stroke="#E1AC96" stroke-width="2"/>
<path d="M182.541 173.424L183.329 172.729C183.519 172.56 183.566 172.355 183.471 172.116L182.541 169.81" stroke="#EC8080" stroke-width="2"/>
<path d="M182.541 169.81L181.766 167.021" stroke="#878787" stroke-width="2"/>
<path d="M181.766 167.021C181.126 164.066 180.756 161.079 180.657 158.058" stroke="#EC8080" stroke-width="2"/>
<path d="M180.657 158.058C185.814 154.054 191.151 151.165 193.463 144.558" stroke="#FF8080" stroke-width="2"/>
<path d="M193.463 144.558C194.132 142.459 194.572 140.252 194.783 137.938" stroke="#EC8080" stroke-width="2"/>
<path d="M194.783 137.938L197.566 137.51C197.797 137.477 197.903 137.343 197.882 137.107L197.702 134.969" stroke="#FF8080" stroke-width="2"/>
<path d="M197.702 134.969L197.393 133.109" stroke="#878787" stroke-width="2"/>
<path d="M197.393 133.11C197.169 130.407 196.401 127.878 195.087 125.523C194.983 125.341 194.942 125.145 194.963 124.934C195.955 114.244 196.145 103.539 195.533 92.8203" stroke="#FF8080" stroke-width="2"/>
<path d="M195.533 92.8203C197.029 92.8162 198.492 93.0062 199.921 93.3905C205.029 94.7728 209.659 94.8286 214.952 94.06C215.531 93.9732 215.626 94.1488 215.238 94.5868C212.609 97.5579 211.262 101.207 211.196 105.533C211.066 114.279 211.655 120.787 206.839 127.19C204.663 130.085 200.132 134.926 200.188 136.99C200.192 137.123 200.231 137.252 200.302 137.365C200.373 137.477 200.473 137.569 200.592 137.63C200.71 137.69 200.843 137.718 200.976 137.71C201.108 137.703 201.237 137.659 201.347 137.585L207.235 133.543C207.859 133.118 208.229 133.279 208.345 134.027C209.033 138.521 209.238 143.138 208.797 147.849C208.531 150.781 211.339 159.781 215.194 153.242C217.508 149.312 219.231 145.132 220.364 140.703C221.783 135.136 219.967 131.107 218.882 125.833C218.045 121.767 223.543 111.917 225.49 108.093C228.341 102.496 229.921 96.4959 231.911 90.6075C232.275 89.5248 232.421 88.7252 232.351 88.2087C231.967 85.4505 225.285 81 223.109 79.5992C221.266 78.4174 218.903 77.3162 216.019 76.2955C210.26 74.2686 204.905 72.6509 199.475 69.0806C194.727 65.9567 191.789 64.4753 186.694 64.0972C186.558 64.0889 186.432 64.0455 186.316 63.967L186.13 63.843" stroke="#ECBBA2" stroke-width="2"/>
<path d="M186.13 63.8429C184.709 61.9834 183.047 60.3739 181.147 59.0144" stroke="#FF8080" stroke-width="2"/>
<path d="M181.147 59.0144C180.589 58.4028 179.926 57.9462 179.157 57.6445" stroke="#878787" stroke-width="2"/>
<path d="M179.157 57.6447C174.112 54.2728 168.74 51.5352 163.041 49.4319" stroke="#FF8080" stroke-width="2"/>
<path d="M163.041 49.4318C168.095 39.0021 166.378 30.2892 157.89 23.2934C153.657 19.8099 147.979 19.4194 142.822 21.3347C135.715 23.9752 131.721 29.4628 130.841 37.7975C130.791 38.252 130.913 38.8058 131.207 39.4587" stroke="#878787" stroke-width="2"/>
<path d="M163.041 49.4319L162.707 49.6116" stroke="#870808" stroke-width="2"/>
<path d="M162.707 49.6116C162.273 43.7975 159.353 41.8389 155.74 47.6281C155.595 47.8595 155.483 47.8451 155.405 47.5847C153.004 39.6013 147.82 35.3533 139.853 34.8409C135.886 34.5868 133.054 36.062 131.207 39.4587" stroke="#74432A" stroke-width="2"/>
<path d="M162.707 49.6116L161.442 52.9959" stroke="#EB3B23" stroke-width="2"/>
<path d="M161.442 52.9958C157.967 58.5124 153.393 62.7954 147.719 65.845" stroke="#CD6839" stroke-width="2"/>
<path d="M147.719 65.8451C147.24 65.75 146.812 65.8141 146.436 66.0372" stroke="#EB3B23" stroke-width="2"/>
<path d="M146.436 66.0373L145.196 65.8823" stroke="#74432A" stroke-width="2"/>
<path d="M145.196 65.8823L141.657 64.4629" stroke="#EB3B23" stroke-width="2"/>
<path d="M141.657 64.4629C138.252 61.6034 135.583 58.1612 133.649 54.1365C133.545 53.9174 133.374 53.7955 133.134 53.7708" stroke="#CD6839" stroke-width="2"/>
<path d="M179.157 57.6445C170.045 65.1569 169.06 77.7148 159.483 85.252C156.217 87.8243 153.775 86.8883 151.041 84.1053C148.636 81.6569 146.436 78.8243 145.866 75.3656C145.432 72.7499 146.194 69.0433 146.436 66.0371" stroke="#870808" stroke-width="2"/>
<path d="M147.719 65.845C146.285 72.3492 148.021 77.438 152.926 81.1116C160.68 86.9194 172.233 63.6818 174.527 58.7293C174.538 58.7045 174.544 58.6778 174.545 58.6505C174.546 58.6233 174.541 58.5962 174.531 58.5708C174.522 58.5454 174.507 58.5222 174.488 58.5026C174.469 58.483 174.446 58.4673 174.421 58.4566L161.442 52.9958" stroke="#E02D16" stroke-width="2"/>
<path d="M181.147 59.0144C174.527 65.064 170.888 73.5247 166.568 81.0371C162.601 87.9359 154.618 91.8223 148.605 84.378C144.357 79.126 143.221 72.9607 145.196 65.8822" stroke="#870808" stroke-width="2"/>
<path d="M141.657 64.4629C141.186 71.5331 141.591 78.5497 142.872 85.5125" stroke="#E02D16" stroke-width="2"/>
<path d="M104.262 116.684C101.758 113.469 98.6673 110.981 94.9896 109.221" stroke="#E16616" stroke-width="2"/>
<path d="M186.13 63.843C185.547 64.5992 184.674 64.2397 183.973 64.4381C172.413 67.6364 171.143 81.967 174.75 91.2769C175.797 93.967 177.335 98.0207 180.837 97.7542" stroke="#EB3B23" stroke-width="2"/>
<path d="M180.837 97.7542C185.229 97.7211 188.483 95.8265 190.599 92.0703" stroke="#E02D16" stroke-width="2"/>
<path d="M190.599 92.0702C192.314 91.8966 193.959 92.1466 195.533 92.8202" stroke="#EB3B23" stroke-width="2"/>
<path d="M197.393 133.11C196.963 133.271 196.145 133.432 194.938 133.593C189.653 134.295 184.041 135.44 178.103 137.027C171.831 138.7 166.841 138.471 161.101 135.806C155.998 133.43 150.955 130.922 145.971 128.281" stroke="#870808" stroke-width="2"/>
<path d="M104.399 117.248C104.122 118.616 104 120.353 104.033 122.461C104.037 122.746 103.872 122.835 103.537 122.727" stroke="#ED6901" stroke-width="2"/>
<path d="M103.537 122.727C100.506 117.081 97.5929 115.488 91.221 115.091C87.4152 114.849 84.9669 111.713 84.1425 108.186" stroke="#874108" stroke-width="2"/>
<path d="M197.702 134.969C190.248 136.601 182.773 138.136 175.277 139.574C169.612 140.659 165.899 140.473 160.965 138.26C155.13 135.632 149.874 132.822 145.196 129.831" stroke="#870808" stroke-width="2"/>
<path d="M190.599 92.0703C188.802 91.8058 187 91.5703 185.194 91.3637C182.331 91.0289 181.364 95.3926 180.837 97.7542" stroke="#CD6839" stroke-width="2"/>
<path d="M103.537 122.727C105.132 126.252 106.242 129.986 106.866 133.928" stroke="#753708" stroke-width="2"/>
<path d="M106.277 136.364C106.095 136.178 106 136.023 105.992 135.899C105.694 132.242 104.862 128.659 103.494 125.151" stroke="#753708" stroke-width="2"/>
<path d="M103.494 125.151C101.318 118.339 97.9711 116.839 91.2521 116.132C86.7583 115.661 84.0186 112.903 83.4979 108.316" stroke="#874108" stroke-width="2"/>
<path d="M194.783 137.938C190.952 138.69 185.826 139.851 179.405 141.422C173.634 142.829 167.374 143.281 161.647 141.093C156.068 138.961 150.688 136.424 145.506 133.481" stroke="#EB0001" stroke-width="2"/>
<path d="M103.494 125.151C101.969 130.039 99.0909 133.829 94.8595 136.519" stroke="#ED6901" stroke-width="2"/>
<path d="M94.8595 136.518C91.6425 128.064 86.8016 120.688 80.2004 114.533C78.9566 113.376 77.7396 112.19 76.5496 110.975" stroke="#874108" stroke-width="2"/>
<path d="M193.463 144.558C190.38 143.818 187.579 143.626 185.058 143.981C179.331 144.791 174.928 145.285 171.849 145.463C164.101 145.915 156.521 142.562 149.95 138.037C149.492 137.721 149.064 137.039 148.55 136.692C148.302 136.527 148.14 136.589 148.066 136.878C147.285 139.81 146.579 143.926 144.738 146.275C143.944 147.291 143.031 148.167 141.998 148.903" stroke="#EB0001" stroke-width="2"/>
<path d="M94.8595 136.519L98.1322 145.395C98.1529 145.448 98.1901 145.481 98.2438 145.494C98.2934 145.506 98.345 145.519 98.3988 145.531" stroke="#753708" stroke-width="2"/>
<path d="M97.6239 146.151L93.9049 137.579" stroke="#753708" stroke-width="2"/>
<path d="M93.9049 137.578C89.9566 127.283 84.3533 119.572 76.2458 112.029C76.0185 111.814 75.9049 111.558 75.9049 111.26" stroke="#874108" stroke-width="2"/>
<path d="M180.657 158.058C173.533 163.256 167.979 169.795 163.996 177.676C163.847 177.973 163.692 178.004 163.457 178.202" stroke="#EB0001" stroke-width="2"/>
<path d="M163.457 178.202C156.496 179.281 139.289 180.961 134.715 174.136C133.599 172.475 131.661 169.079 128.901 163.946" stroke="#870808" stroke-width="2"/>
<path d="M93.905 137.579C89.562 139.657 84.9731 140.543 80.1384 140.238" stroke="#ED6901" stroke-width="2"/>
<path d="M80.1384 140.238C79.5186 136.176 79.1591 132.86 79.0599 130.289C78.843 124.661 76.9463 117.434 70.2211 116.994" stroke="#874108" stroke-width="2"/>
<path d="M181.767 167.021C177.126 170.066 174.213 172.221 173.027 173.486C169.884 176.851 167.312 180.57 163.376 179.82C163.182 179.783 163.107 179.669 163.153 179.479L163.457 178.202" stroke="#740808" stroke-width="2"/>
<path d="M182.541 169.81C178.078 172.554 174.186 175.926 170.864 179.926C168.192 183.149 165.756 183.372 161.492 183.471" stroke="#740808" stroke-width="2"/>
<path d="M161.492 183.471L161.913 181.977C161.983 181.738 161.893 181.62 161.64 181.624C157.574 181.636 153.529 181.853 149.504 182.275C142.401 183.012 136.711 182.244 132.831 175.841C130.888 172.63 128.864 169.483 126.756 166.401" stroke="#870808" stroke-width="2"/>
<path d="M80.1384 140.238C81.7438 144.694 84.4339 145.971 87.7066 148.89" stroke="#753708" stroke-width="2"/>
<path d="M86.312 148.736C82.4607 146.537 80.0124 143.388 78.9669 139.289" stroke="#753708" stroke-width="2"/>
<path d="M78.9669 139.289C78.5868 135.657 78.2748 132.124 78.031 128.69C77.6591 123.422 75.5021 118.779 69.8864 117.589" stroke="#874108" stroke-width="2"/>
<path d="M161.492 183.471L160.829 185.045C160.738 185.256 160.583 185.393 160.364 185.455C158.682 185.921 157.126 186.655 155.696 187.655" stroke="#EB0001" stroke-width="2"/>
<path d="M155.696 187.655C155.023 187.312 154.312 187.269 153.564 187.525" stroke="#870808" stroke-width="2"/>
<path d="M151.085 187.99C141.717 188.609 134.235 185.295 128.64 178.047" stroke="#EB3B23" stroke-width="2"/>
<path d="M182.541 173.424L181.122 175.103" stroke="#CD2D17" stroke-width="2"/>
<path d="M181.122 175.103C177.469 178.715 173.725 182.223 169.891 185.628C165.434 189.583 161.095 190.698 155.696 187.655" stroke="#740808" stroke-width="2"/>
<path d="M78.9669 139.289C74.6735 138.698 71.1487 136.717 68.3925 133.345C68.2562 133.18 68.0826 133.103 67.8719 133.116L67.407 133.134" stroke="#ED6901" stroke-width="2"/>
<path d="M146.126 194.343C143.291 194.016 140.465 193.595 137.647 193.078C133.376 192.285 129.924 189.223 127.283 185.957C127.192 185.845 127.074 185.791 126.93 185.795H126.626" stroke="#74432A" stroke-width="2"/>
<path d="M222.607 178.32C223.112 179.428 224.155 180.64 225.738 181.959C226.936 182.954 226.94 184.078 225.75 185.331" stroke="#69341E" stroke-width="2"/>
<path d="M225.75 185.331C222.967 186.099 216.775 187.153 216.012 190.419" stroke="#E02D16" stroke-width="2"/>
<path d="M181.481 191.994C183.841 186.275 183.721 180.645 181.122 175.103" stroke="#69341E" stroke-width="2"/>
<path d="M138.043 217.097L133.729 217.432" stroke="#74432A" stroke-width="2"/>
<path d="M133.729 217.432L129.7 216.967" stroke="#69341E" stroke-width="2"/>
<path d="M129.7 216.967C124.085 216.682 120.465 211.81 118.698 206.69" stroke="#74432A" stroke-width="2"/>
<path d="M220.897 194.281C223.872 192.07 225.49 189.087 225.75 185.331" stroke="#870808" stroke-width="2"/>
<path d="M129.7 216.967L129.8 217.326C129.853 217.508 129.855 217.69 129.806 217.872L126.93 228.868C126.864 229.112 126.938 229.165 127.153 229.029C131.709 226.134 132.279 222.012 133.729 217.432" stroke="#CD6839" stroke-width="2"/>
<path d="M120.533 252.118L117.149 253.333" stroke="#74432A" stroke-width="2"/>
<path d="M117.149 253.333L117.576 251.411C117.622 251.209 117.593 251.016 117.49 250.835C115.647 247.69 112.899 245.888 109.246 245.43" stroke="#EB3B23" stroke-width="2"/>
<path d="M231.223 215.083C233.417 213.682 235.89 213.806 237.806 212.454C237.975 212.335 238.097 212.18 238.171 211.99C239.329 209.093 239.919 206.099 239.944 203.008C239.975 198.118 237.335 192.775 237.341 188.281C237.341 184.859 237.676 183.012 236.033 180.006C235.273 178.622 234.488 177.254 233.678 175.903" stroke="#870808" stroke-width="2"/>
<path d="M120.068 259.711C116.628 261.855 113.795 266.448 110.448 267.744C106.118 269.417 101.862 271.26 97.6798 273.273C95.405 274.37 92.8946 275.417 90.8492 275.913C85.9835 277.085 86.6901 267.459 79.9587 269.138" stroke="#870808" stroke-width="2"/>
<path d="M117.149 253.333C112.63 255.384 110.033 252.329 107.231 249.304" stroke="#870808" stroke-width="2"/>
<path d="M149.758 123.502L149.461 124.141C149.37 124.339 149.415 124.498 149.597 124.618C153.159 126.961 156.969 128.719 161.027 129.893C169.271 132.273 179.69 129.837 187.407 126.477C187.626 126.382 187.696 126.223 187.618 126C186.837 123.682 185.058 122.467 182.281 122.355C175.227 122.076 166.934 121.333 160.072 123.062" stroke="#EB0001" stroke-width="2"/>
<path d="M160.072 123.062L155.262 121.562C155.222 121.549 155.186 121.527 155.156 121.498C155.126 121.468 155.103 121.432 155.09 121.392C155.077 121.352 155.073 121.31 155.079 121.268C155.086 121.227 155.102 121.187 155.126 121.153L159.322 115.134" stroke="#870808" stroke-width="2"/>
<path d="M159.322 115.134C170.609 117.446 178.748 111.217 185.988 103.574C186.006 103.552 186.017 103.524 186.018 103.495C186.019 103.466 186.011 103.437 185.994 103.414C185.976 103.39 185.952 103.373 185.924 103.365C185.896 103.357 185.866 103.359 185.839 103.37C180.508 106.165 174.936 108.961 169.091 110.498C166.921 111.068 163.202 112.494 161.027 112.19" stroke="#EB0001" stroke-width="2"/>
<path d="M161.027 112.19C162.942 107.442 163.388 102.012 159.242 98.3864C154.934 94.624 150.446 100.946 148.419 104.219C148.147 104.657 148.242 104.99 148.705 105.217L152.492 107.083C152.723 107.194 152.882 107.13 152.969 106.891C153.556 105.234 154.535 103.847 155.907 102.731C156.039 102.625 156.193 102.549 156.357 102.509C156.522 102.47 156.693 102.468 156.858 102.503C157.024 102.538 157.179 102.609 157.312 102.712C157.446 102.815 157.554 102.947 157.63 103.097C159.279 106.37 157.853 110.523 155.684 113.07C152.994 116.213 151.116 119.436 149.758 123.502" stroke="#870808" stroke-width="2"/>
<path d="M161.027 112.19L159.322 115.134" stroke="#740808" stroke-width="2"/>
<path d="M160.072 123.062L164.609 124.624C164.845 124.703 164.926 124.86 164.851 125.095L163.717 128.826C163.647 129.05 163.504 129.118 163.289 129.031L149.758 123.502" stroke="#740808" stroke-width="2"/>
<path d="M163.041 49.4318L162.707 49.6116C162.273 43.7975 159.353 41.8388 155.74 47.6281C155.595 47.8595 155.483 47.845 155.405 47.5847C153.004 39.6012 147.82 35.3533 139.853 34.8409C135.886 34.5868 133.054 36.062 131.207 39.4587C130.913 38.8058 130.791 38.252 130.841 37.7975C131.721 29.4628 135.715 23.9752 142.822 21.3347C147.979 19.4194 153.657 19.8099 157.89 23.2934C166.378 30.2892 168.095 39.002 163.041 49.4318Z" fill="#0F0F0F"/>
<path d="M162.707 49.6116L161.442 52.9959C157.967 58.5124 153.393 62.7955 147.719 65.8451C147.24 65.75 146.812 65.8141 146.436 66.0372L145.196 65.8822L141.657 64.4628C138.252 61.6033 135.583 58.1612 133.649 54.1364C133.545 53.9174 133.374 53.7955 133.134 53.7707C133.357 53.469 133.421 53.1963 133.326 52.9525C131.343 47.8946 131.256 44.2376 131.207 39.4587C133.054 36.062 135.886 34.5868 139.853 34.8409C147.82 35.3533 153.004 39.6013 155.405 47.5847C155.483 47.8451 155.595 47.8595 155.74 47.6281C159.353 41.8389 162.273 43.7975 162.707 49.6116Z" fill="#D87645"/>
<path d="M163.041 49.4319C168.74 51.5352 174.112 54.2728 179.157 57.6447C170.045 65.1571 169.06 77.7149 159.483 85.2521C156.217 87.8244 153.775 86.8885 151.041 84.1054C148.636 81.6571 146.436 78.8244 145.866 75.3658C145.432 72.7501 146.194 69.0435 146.436 66.0373C146.812 65.8141 147.24 65.7501 147.719 65.8451C146.285 72.3492 148.021 77.4381 152.926 81.1116C160.68 86.9195 172.233 63.6819 174.527 58.7294C174.538 58.7046 174.544 58.6778 174.545 58.6506C174.546 58.6234 174.541 58.5963 174.532 58.5709C174.522 58.5455 174.507 58.5223 174.488 58.5027C174.469 58.4831 174.447 58.4674 174.421 58.4567L161.442 52.9959L162.707 49.6116L163.041 49.4319Z" fill="#FE0000"/>
<path d="M161.442 52.9958L174.421 58.4566C174.447 58.4673 174.469 58.483 174.488 58.5026C174.507 58.5222 174.522 58.5454 174.532 58.5708C174.541 58.5962 174.546 58.6233 174.545 58.6505C174.544 58.6778 174.538 58.7045 174.527 58.7293C172.233 63.6818 160.68 86.9194 152.926 81.1116C148.021 77.438 146.285 72.3492 147.719 65.845C153.393 62.7954 157.967 58.5124 161.442 52.9958Z" fill="#C2592C"/>
<path d="M133.134 53.7708C133.374 53.7955 133.545 53.9174 133.649 54.1365C135.583 58.1612 138.252 61.6034 141.657 64.4629C141.186 71.5331 141.591 78.5497 142.872 85.5125C142.128 87.0373 141.415 88.5745 140.733 90.1241C137.455 97.6241 132.713 103.203 125.225 106.723C118.221 110.012 111.233 113.333 104.262 116.684C101.758 113.469 98.6674 110.982 94.9897 109.221C103.494 101.932 112.37 94.8162 121.835 88.5187C126.384 85.4939 128.145 78.7315 128.244 73.6365C128.393 66.341 128.442 60.0869 133.134 53.7708Z" fill="#C2592C"/>
<path d="M179.157 57.6445C179.926 57.9462 180.589 58.4028 181.147 59.0144C174.527 65.064 170.888 73.5247 166.568 81.0371C162.601 87.9359 154.618 91.8222 148.605 84.378C144.357 79.1259 143.221 72.9606 145.196 65.8821L146.436 66.0371C146.194 69.0433 145.432 72.7499 145.866 75.3656C146.436 78.8243 148.636 81.6569 151.041 84.1053C153.775 86.8883 156.217 87.8243 159.483 85.252C169.06 77.7148 170.045 65.1569 179.157 57.6445Z" fill="#0F0F0F"/>
<path d="M181.147 59.0144C183.048 60.3739 184.709 61.9834 186.13 63.8429C185.548 64.5991 184.674 64.2396 183.973 64.438C172.413 67.6363 171.143 81.9669 174.75 91.2768C175.798 93.9669 177.335 98.0206 180.837 97.7541C185.229 97.721 188.483 95.8264 190.599 92.0702C192.314 91.8966 193.959 92.1466 195.533 92.8202C196.145 103.539 195.955 114.244 194.963 124.934C194.942 125.145 194.983 125.341 195.087 125.523C196.401 127.878 197.169 130.407 197.393 133.109C196.963 133.271 196.145 133.432 194.938 133.593C189.653 134.295 184.041 135.44 178.103 137.027C171.831 138.7 166.841 138.471 161.101 135.806C155.998 133.43 150.955 130.921 145.971 128.281L148.134 124.091C148.246 123.876 148.19 123.721 147.967 123.626C143.455 121.717 144.986 117.248 147.012 114.167C148.835 111.397 147.607 106.612 146.845 103.06C145.581 97.1962 144.256 91.3471 142.872 85.5123C141.591 78.5495 141.186 71.533 141.657 64.4628L145.196 65.8822C143.221 72.9607 144.357 79.126 148.605 84.378C154.618 91.8223 162.601 87.9359 166.568 81.0371C170.888 73.5247 174.527 65.064 181.147 59.0144ZM149.758 123.502L149.461 124.14C149.37 124.339 149.415 124.498 149.597 124.618C153.159 126.961 156.969 128.719 161.027 129.892C169.271 132.273 179.69 129.837 187.407 126.477C187.626 126.382 187.696 126.223 187.618 126C186.837 123.682 185.058 122.467 182.281 122.355C175.227 122.076 166.934 121.333 160.072 123.062L155.262 121.562C155.222 121.549 155.186 121.527 155.156 121.498C155.126 121.468 155.103 121.432 155.09 121.392C155.077 121.352 155.073 121.31 155.079 121.268C155.086 121.227 155.102 121.187 155.126 121.153L159.322 115.134C170.61 117.446 178.748 111.217 185.988 103.574C186.006 103.552 186.017 103.524 186.018 103.495C186.019 103.466 186.011 103.437 185.994 103.414C185.976 103.39 185.952 103.373 185.924 103.365C185.896 103.357 185.866 103.359 185.839 103.37C180.508 106.165 174.936 108.961 169.091 110.498C166.921 111.068 163.202 112.494 161.027 112.19C162.942 107.442 163.388 102.012 159.242 98.3863C154.934 94.6239 150.446 100.946 148.419 104.219C148.147 104.657 148.242 104.99 148.705 105.217L152.492 107.083C152.723 107.194 152.882 107.13 152.969 106.89C153.556 105.233 154.535 103.847 155.907 102.731C156.039 102.625 156.193 102.549 156.357 102.509C156.522 102.47 156.693 102.467 156.858 102.502C157.024 102.538 157.179 102.609 157.312 102.712C157.446 102.815 157.554 102.946 157.63 103.097C159.279 106.37 157.853 110.523 155.684 113.07C152.994 116.213 151.116 119.436 149.758 123.502Z" fill="#FE0000"/>
<path d="M186.13 63.843L186.316 63.967C186.432 64.0455 186.558 64.0889 186.694 64.0972C191.789 64.4753 194.727 65.9567 199.475 69.0806C204.905 72.6509 210.26 74.2686 216.019 76.2955C218.903 77.3162 221.267 78.4174 223.109 79.5992C225.285 81 231.967 85.4505 232.351 88.2087C232.421 88.7252 232.275 89.5248 231.911 90.6075C229.921 96.4959 228.341 102.496 225.49 108.093C223.543 111.917 218.045 121.767 218.882 125.833C219.967 131.107 221.783 135.136 220.364 140.703C219.231 145.132 217.508 149.312 215.194 153.242C211.339 159.781 208.531 150.781 208.797 147.849C209.238 143.138 209.033 138.521 208.345 134.027C208.229 133.279 207.859 133.118 207.236 133.543L201.347 137.585C201.237 137.659 201.108 137.703 200.976 137.71C200.843 137.718 200.71 137.69 200.592 137.63C200.473 137.569 200.373 137.477 200.302 137.365C200.231 137.252 200.192 137.123 200.188 136.99C200.132 134.926 204.663 130.085 206.839 127.19C211.655 120.787 211.066 114.279 211.196 105.533C211.262 101.207 212.609 97.5579 215.238 94.5868C215.626 94.1488 215.531 93.9732 214.952 94.06C209.659 94.8286 205.029 94.7728 199.921 93.3905C198.492 93.0062 197.029 92.8162 195.533 92.8203C193.959 92.1467 192.314 91.8967 190.599 92.0703C188.802 91.8058 187 91.5703 185.194 91.3637C182.331 91.029 181.364 95.3926 180.837 97.7542C177.335 98.0207 175.797 93.967 174.75 91.2769C171.143 81.967 172.413 67.6364 183.973 64.4381C184.674 64.2397 185.547 64.5992 186.13 63.843Z" fill="#D87645"/>
<path d="M190.599 92.0703C188.483 95.8265 185.229 97.7211 180.837 97.7542C181.364 95.3926 182.331 91.0289 185.194 91.3637C187 91.5703 188.802 91.8058 190.599 92.0703Z" fill="#C2592C"/>
<path d="M161.027 112.19L159.322 115.134L155.126 121.153C155.102 121.187 155.086 121.227 155.079 121.268C155.073 121.31 155.077 121.352 155.09 121.392C155.103 121.432 155.126 121.468 155.156 121.498C155.186 121.527 155.222 121.549 155.262 121.562L160.072 123.062L164.609 124.624C164.845 124.703 164.926 124.86 164.851 125.095L163.717 128.827C163.647 129.05 163.504 129.118 163.289 129.031L149.758 123.502C151.116 119.436 152.994 116.213 155.684 113.07C157.853 110.523 159.279 106.37 157.63 103.097C157.554 102.947 157.446 102.815 157.312 102.712C157.179 102.609 157.024 102.538 156.858 102.503C156.693 102.468 156.522 102.47 156.357 102.509C156.193 102.549 156.039 102.625 155.907 102.731C154.535 103.847 153.556 105.234 152.969 106.891C152.882 107.13 152.723 107.194 152.492 107.083L148.705 105.217C148.242 104.99 148.147 104.657 148.419 104.219C150.446 100.946 154.934 94.624 159.242 98.3864C163.388 102.012 162.942 107.442 161.027 112.19Z" fill="#0F0F0F"/>
<path d="M159.322 115.134L161.027 112.19C163.202 112.494 166.921 111.068 169.091 110.498C174.936 108.961 180.508 106.165 185.839 103.37C185.866 103.359 185.896 103.357 185.924 103.365C185.952 103.373 185.976 103.39 185.994 103.414C186.011 103.437 186.019 103.466 186.018 103.495C186.017 103.524 186.006 103.552 185.988 103.574C178.748 111.217 170.61 117.446 159.322 115.134Z" fill="#D80001"/>
<path d="M94.9897 109.221C98.6674 110.981 101.758 113.469 104.262 116.684L104.399 117.248C104.122 118.616 104 120.353 104.033 122.461C104.037 122.746 103.872 122.835 103.537 122.727C100.506 117.081 97.593 115.488 91.2211 115.091C87.4153 114.849 84.967 111.713 84.1426 108.186C87.8409 107.702 91.4566 108.048 94.9897 109.221Z" fill="#FF7300"/>
<path d="M84.1425 108.186C84.9669 111.713 87.4153 114.849 91.2211 115.091C97.593 115.488 100.506 117.081 103.537 122.727C105.132 126.252 106.242 129.986 106.866 133.928L106.277 136.364C106.095 136.178 106 136.023 105.992 135.899C105.694 132.242 104.862 128.659 103.494 125.151C101.318 118.339 97.9711 116.839 91.2521 116.132C86.7583 115.661 84.0186 112.903 83.4979 108.316L84.1425 108.186Z" fill="#0F0F0F"/>
<path d="M83.4979 108.316C84.0186 112.903 86.7582 115.661 91.252 116.132C97.971 116.839 101.318 118.339 103.494 125.151C101.969 130.039 99.0909 133.829 94.8595 136.519C91.6425 128.064 86.8016 120.688 80.2004 114.533C78.9566 113.376 77.7396 112.19 76.5496 110.975C78.6529 109.541 80.969 108.655 83.4979 108.316Z" fill="#FF7300"/>
<path d="M76.5496 110.975C77.7397 112.19 78.9566 113.376 80.2004 114.533C86.8017 120.688 91.6426 128.064 94.8595 136.518L98.1322 145.395C98.1529 145.448 98.1901 145.481 98.2438 145.494C98.2934 145.506 98.3451 145.518 98.3988 145.531L97.624 146.151L93.905 137.578C89.9566 127.283 84.3533 119.572 76.2459 112.029C76.0186 111.814 75.905 111.558 75.905 111.26L76.5496 110.975Z" fill="#0F0F0F"/>
<path d="M75.905 111.26C75.905 111.558 76.0186 111.814 76.2459 112.029C84.3533 119.572 89.9566 127.283 93.905 137.578C89.562 139.657 84.9731 140.543 80.1384 140.238C79.5186 136.176 79.1591 132.859 79.0599 130.289C78.843 124.661 76.9463 117.434 70.2211 116.994C71.7541 114.729 73.6488 112.818 75.905 111.26Z" fill="#FF7300"/>
<path d="M70.2211 116.994C76.9463 117.434 78.843 124.661 79.0599 130.289C79.1591 132.86 79.5186 136.176 80.1384 140.238C81.7438 144.694 84.4339 145.971 87.7066 148.891L86.312 148.736C82.4607 146.537 80.0124 143.389 78.9669 139.289C78.5868 135.657 78.2748 132.124 78.031 128.69C77.6591 123.422 75.5021 118.779 69.8864 117.589L70.2211 116.994Z" fill="#0F0F0F"/>
<path d="M104.399 117.248C107.828 122.401 108.651 127.961 106.866 133.928C106.242 129.986 105.132 126.252 103.537 122.727C103.872 122.835 104.037 122.746 104.033 122.461C104 120.353 104.122 118.616 104.399 117.248Z" fill="#DB5E01"/>
<path d="M69.8863 117.589C75.502 118.779 77.6591 123.422 78.031 128.69C78.2748 132.124 78.5868 135.657 78.9669 139.289C74.6735 138.698 71.1487 136.717 68.3925 133.345C68.2562 133.18 68.0826 133.103 67.8719 133.116L67.407 133.134C66.0599 127.568 66.8863 122.386 69.8863 117.589Z" fill="#FF7300"/>
<path d="M149.758 123.502L163.289 129.031C163.504 129.118 163.647 129.05 163.717 128.827L164.851 125.095C164.926 124.86 164.845 124.703 164.61 124.624L160.072 123.062C166.934 121.333 175.227 122.076 182.281 122.355C185.058 122.467 186.837 123.682 187.618 126C187.696 126.223 187.626 126.382 187.407 126.477C179.69 129.837 169.271 132.273 161.027 129.893C156.969 128.719 153.159 126.961 149.597 124.618C149.415 124.498 149.37 124.339 149.461 124.141L149.758 123.502Z" fill="#D80001"/>
<path d="M103.494 125.151C104.862 128.659 105.694 132.242 105.992 135.899C106 136.023 106.095 136.178 106.277 136.364C104.587 140.24 101.961 143.296 98.3988 145.531C98.345 145.519 98.2934 145.506 98.2438 145.494C98.1901 145.481 98.1529 145.448 98.1322 145.395L94.8595 136.519C99.0909 133.829 101.969 130.039 103.494 125.151Z" fill="#DB5E01"/>
<path d="M145.971 128.281C150.955 130.922 155.998 133.43 161.101 135.806C166.841 138.471 171.831 138.7 178.103 137.027C184.041 135.44 189.653 134.295 194.938 133.593C196.145 133.432 196.963 133.271 197.393 133.11L197.702 134.969C190.248 136.601 182.773 138.136 175.277 139.574C169.612 140.659 165.899 140.473 160.965 138.26C155.13 135.632 149.874 132.822 145.196 129.831L145.971 128.281Z" fill="#0F0F0F"/>
<path d="M145.196 129.831C149.874 132.822 155.13 135.632 160.965 138.26C165.899 140.473 169.612 140.659 175.277 139.574C182.773 138.136 190.248 136.601 197.702 134.969L197.882 137.107C197.903 137.343 197.798 137.477 197.566 137.51L194.783 137.938C190.952 138.69 185.826 139.851 179.405 141.421C173.634 142.828 167.374 143.281 161.647 141.093C156.068 138.961 150.688 136.424 145.506 133.481L144.223 132.459C144.066 132.331 144.017 132.167 144.074 131.969C144.298 131.184 144.671 130.471 145.196 129.831Z" fill="#FE0000"/>
<path d="M67.407 133.134L67.8719 133.116C68.0827 133.103 68.2562 133.18 68.3926 133.345C71.1488 136.717 74.6736 138.698 78.967 139.289C80.0124 143.389 82.4608 146.537 86.312 148.736C77.1384 149.12 69.4773 141.459 67.407 133.134Z" fill="#DB5E01"/>
<path d="M145.506 133.481C150.688 136.424 156.068 138.961 161.647 141.093C167.374 143.281 173.634 142.829 179.405 141.422C185.826 139.851 190.952 138.69 194.783 137.938C194.572 140.252 194.132 142.459 193.463 144.558C190.38 143.818 187.579 143.626 185.058 143.981C179.331 144.791 174.928 145.285 171.849 145.463C164.101 145.915 156.521 142.562 149.95 138.037C149.492 137.721 149.064 137.039 148.55 136.692C148.302 136.527 148.14 136.589 148.066 136.878C147.285 139.81 146.579 143.926 144.738 146.275C143.944 147.291 143.031 148.167 141.998 148.903C142.721 143.514 143.89 138.374 145.506 133.481Z" fill="#D80001"/>
<path d="M193.463 144.558C191.151 151.165 185.814 154.054 180.657 158.058C173.533 163.256 167.979 169.796 163.996 177.676C163.847 177.973 163.692 178.004 163.457 178.203C156.496 179.281 139.289 180.961 134.715 174.136C133.599 172.475 131.661 169.079 128.901 163.946L141.998 148.903C143.031 148.167 143.944 147.291 144.738 146.275C146.578 143.926 147.285 139.81 148.066 136.878C148.14 136.589 148.302 136.527 148.55 136.692C149.064 137.039 149.492 137.721 149.95 138.037C156.521 142.562 164.101 145.915 171.849 145.463C174.928 145.285 179.331 144.791 185.058 143.981C187.578 143.626 190.38 143.818 193.463 144.558Z" fill="#FE0000"/>
<path d="M93.905 137.579L97.624 146.151C94.562 147.92 91.2562 148.833 87.7066 148.891C84.4339 145.971 81.7438 144.694 80.1384 140.238C84.9731 140.543 89.562 139.657 93.905 137.579Z" fill="#DB5E01"/>
<path d="M180.657 158.058C180.756 161.079 181.126 164.066 181.767 167.021C177.126 170.066 174.213 172.221 173.027 173.486C169.884 176.851 167.312 180.57 163.376 179.82C163.182 179.783 163.107 179.669 163.153 179.479L163.457 178.202C163.692 178.004 163.847 177.973 163.996 177.676C167.979 169.795 173.533 163.256 180.657 158.058Z" fill="#D80001"/>
<path d="M128.901 163.946C131.661 169.079 133.599 172.475 134.715 174.136C139.289 180.961 156.496 179.281 163.457 178.202L163.153 179.479C163.107 179.669 163.182 179.783 163.376 179.82C167.312 180.57 169.884 176.851 173.027 173.486C174.213 172.221 177.126 170.066 181.767 167.021L182.541 169.81C178.079 172.554 174.186 175.926 170.864 179.926C168.192 183.149 165.756 183.372 161.492 183.471L161.913 181.977C161.983 181.738 161.893 181.62 161.641 181.624C157.574 181.636 153.529 181.853 149.504 182.275C142.401 183.012 136.711 182.244 132.831 175.841C130.888 172.63 128.864 169.483 126.756 166.401L128.901 163.946Z" fill="#0F0F0F"/>
<path d="M126.756 166.401C128.864 169.484 130.888 172.63 132.831 175.841C136.711 182.244 142.401 183.012 149.504 182.275C153.529 181.853 157.574 181.636 161.641 181.624C161.893 181.62 161.983 181.738 161.913 181.977L161.492 183.471L160.829 185.046C160.738 185.256 160.583 185.393 160.364 185.455C158.682 185.922 157.126 186.655 155.696 187.655C155.023 187.312 154.312 187.269 153.564 187.525L151.085 187.99C141.717 188.61 134.236 185.296 128.641 178.048C127.438 175.163 125.795 172.577 123.713 170.287C123.65 170.215 123.615 170.123 123.615 170.028C123.615 169.934 123.65 169.843 123.713 169.773L126.756 166.401Z" fill="#FE0000"/>
<path d="M182.541 169.81L183.471 172.116C183.566 172.355 183.519 172.56 183.329 172.729L182.541 173.424L181.122 175.103C177.469 178.715 173.725 182.223 169.891 185.628C165.434 189.583 161.095 190.698 155.696 187.655C157.126 186.655 158.682 185.922 160.364 185.455C160.583 185.393 160.738 185.256 160.829 185.045L161.492 183.471C165.756 183.372 168.192 183.149 170.864 179.926C174.186 175.926 178.079 172.554 182.541 169.81Z" fill="#D80001"/>
<path d="M222.607 178.32C223.112 179.428 224.155 180.64 225.738 181.959C226.936 182.955 226.94 184.078 225.75 185.331C222.967 186.099 216.775 187.153 216.012 190.419C204.45 189.795 192.94 190.32 181.481 191.994C183.841 186.275 183.721 180.645 181.122 175.103L182.541 173.424C182.942 173.597 183.304 173.645 183.626 173.566C189.477 172.178 194.492 172.01 200.721 173.25C208.093 174.713 215.388 176.403 222.607 178.32Z" fill="#C2592C"/>
<path d="M181.122 175.103C183.721 180.645 183.841 186.275 181.481 191.994C176.932 193.539 172.326 194.878 167.665 196.01C160.382 197.777 154.519 195.676 153.564 187.525C154.312 187.269 155.023 187.312 155.696 187.655C161.095 190.698 165.434 189.583 169.891 185.628C173.725 182.223 177.469 178.715 181.122 175.103Z" fill="#0F0F0F"/>
<path d="M231.223 215.083C233.417 213.682 235.89 213.806 237.806 212.455C237.975 212.335 238.097 212.18 238.171 211.99C239.329 209.093 239.919 206.099 239.944 203.008C239.975 198.118 237.335 192.775 237.341 188.281C237.341 184.86 237.676 183.012 236.033 180.006C235.273 178.622 234.488 177.254 233.678 175.903C235.376 175.556 237.099 175.612 238.364 177C240.083 178.893 241.095 181.112 241.401 183.657C241.612 185.399 240.682 187.178 240.143 188.857C239.467 190.965 240.043 192.707 240.731 194.678C243.093 201.452 243.428 209.51 239.727 215.678C238.376 217.94 231.781 218.07 231.223 215.083Z" fill="#FE0000"/>
<path d="M233.678 175.903C234.488 177.254 235.273 178.622 236.033 180.006C237.676 183.012 237.341 184.86 237.341 188.281C237.335 192.775 239.975 198.118 239.944 203.008C239.919 206.099 239.329 209.093 238.172 211.99C238.097 212.18 237.975 212.335 237.806 212.455C235.891 213.806 233.417 213.682 231.223 215.083C230.169 212.401 229.372 209.647 228.831 206.82C228.793 206.618 228.87 206.469 229.06 206.374L233.56 204.18C233.741 204.091 233.884 203.939 233.962 203.752C234.039 203.565 234.046 203.356 233.981 203.163C233.194 200.845 229.543 203.498 228.397 204.223C228.227 204.331 228.103 204.291 228.025 204.105L227.442 202.711C227.343 202.488 227.401 202.316 227.616 202.196L231.762 199.884C231.898 199.81 232.015 199.707 232.108 199.584C232.2 199.461 232.265 199.319 232.299 199.169C232.332 199.019 232.333 198.863 232.302 198.713C232.27 198.563 232.207 198.421 232.116 198.298C230.895 196.63 227.727 199.128 226.469 199.866C226.275 199.977 226.11 199.942 225.973 199.76L225.205 198.731C225.076 198.562 225.097 198.411 225.267 198.279L229.475 194.994C229.592 194.903 229.682 194.783 229.738 194.647C229.793 194.51 229.812 194.361 229.792 194.215C229.772 194.068 229.713 193.93 229.623 193.813C229.533 193.697 229.413 193.606 229.277 193.55C227.064 192.638 224.709 195.291 223.494 196.829C223.366 196.99 223.233 196.992 223.097 196.835L220.897 194.281C223.872 192.07 225.49 189.087 225.75 185.331C226.94 184.079 226.936 182.955 225.738 181.959C224.155 180.641 223.112 179.428 222.607 178.32C224.864 176.027 230.634 175.841 233.678 175.903Z" fill="#0F0F0F"/>
<path d="M128.641 178.047C134.236 185.295 141.717 188.609 151.085 187.99L146.126 194.343C143.291 194.016 140.465 193.595 137.647 193.078C133.376 192.285 129.924 189.223 127.283 185.957C127.192 185.845 127.074 185.791 126.93 185.795H126.626L128.641 178.047Z" fill="#D87645"/>
<path d="M225.75 185.331C225.49 189.087 223.872 192.07 220.897 194.281C219.339 193.657 217.953 192.893 216.738 191.988C216.564 191.864 216.444 191.7 216.378 191.498L216.012 190.419C216.775 187.153 222.967 186.099 225.75 185.331Z" fill="#FE0000"/>
<path d="M126.626 185.795H126.93C127.074 185.791 127.192 185.845 127.283 185.957C129.924 189.223 133.376 192.285 137.647 193.078C140.465 193.595 143.291 194.016 146.126 194.343C140.566 201.13 139.829 209.145 138.043 217.097L133.729 217.432L129.7 216.967C124.085 216.682 120.465 211.81 118.698 206.69C119.57 203.479 120.855 200.463 122.554 197.64C124.952 193.649 125.938 190.178 126.626 185.795Z" fill="#0F0F0F"/>
<path d="M118.698 206.69C120.465 211.81 124.085 216.682 129.7 216.967L129.8 217.326C129.853 217.508 129.855 217.69 129.806 217.872L126.93 228.868C126.864 229.112 126.938 229.165 127.153 229.029C131.709 226.134 132.279 222.012 133.729 217.432L138.043 217.097C136.853 223.333 134.87 227.045 130.89 232.897C126.791 238.934 123.339 245.341 120.533 252.118L117.149 253.333L117.576 251.411C117.622 251.209 117.593 251.017 117.49 250.835C115.647 247.69 112.899 245.888 109.246 245.43C109.424 245.314 109.523 245.219 109.543 245.145C112.465 235.554 114.589 225.793 115.915 215.864C116.238 213.446 117.165 210.388 118.698 206.69Z" fill="#D87645"/>
<path d="M129.7 216.967L133.729 217.432C132.279 222.012 131.709 226.134 127.153 229.029C126.938 229.165 126.864 229.112 126.93 228.868L129.806 217.872C129.855 217.69 129.853 217.508 129.8 217.326L129.7 216.967Z" fill="#C2592C"/>
<path d="M109.246 245.43C112.899 245.888 115.647 247.69 117.49 250.835C117.593 251.016 117.622 251.209 117.576 251.411L117.149 253.333C112.63 255.384 110.033 252.328 107.231 249.304L107.275 245.981C107.279 245.738 107.399 245.583 107.634 245.516C108.151 245.376 108.688 245.347 109.246 245.43Z" fill="#FE0000"/>
<path d="M107.231 249.304C110.033 252.329 112.63 255.384 117.149 253.333L120.533 252.118C121.157 254.68 121.002 257.211 120.068 259.711C116.628 261.855 113.795 266.448 110.448 267.744C106.118 269.417 101.862 271.26 97.6797 273.273C95.405 274.37 92.8946 275.417 90.8492 275.913C85.9835 277.085 86.6901 267.459 79.9587 269.138C81.626 265.599 86.2004 263.733 89.4174 261.824C89.5992 261.713 89.7769 261.719 89.9504 261.843C91.8058 263.124 93.688 264.946 95.5971 267.31C96.8554 268.866 99.3409 267.849 98.5165 265.351C97.6736 262.802 96.1012 260.791 93.7996 259.32C93.593 259.192 93.5909 259.06 93.7934 258.924L95.343 257.87C95.5496 257.729 95.7521 257.736 95.9504 257.888C97.9091 259.368 99.626 261.081 101.101 263.027C101.963 264.167 104.349 265.171 104.566 262.89C104.82 260.231 101.709 256.872 99.688 255.508C99.4897 255.372 99.4897 255.236 99.688 255.099L101.436 253.853C101.618 253.725 101.812 253.7 102.019 253.779C104.18 254.618 105.946 255.944 107.318 257.758C108.074 258.762 108.731 259.271 109.946 259.079C110.116 259.052 110.279 258.99 110.424 258.897C110.568 258.804 110.692 258.682 110.787 258.539C110.882 258.395 110.946 258.234 110.976 258.064C111.005 257.894 110.998 257.721 110.957 257.554C110.2 254.554 108.409 252.395 105.583 251.076C105.331 250.961 105.314 250.816 105.533 250.643L107.231 249.304Z" fill="#0F0F0F"/>
<path d="M120.068 259.711C120.267 265.779 117.037 268.45 111.657 269.541C106.351 270.616 101.353 272.853 96.6632 276.254C93.8553 278.287 89.9008 279.812 86.4049 279.136C82.221 278.331 76.1157 273.992 79.9587 269.138C86.6901 267.459 85.9835 277.085 90.8492 275.913C92.8946 275.417 95.4049 274.37 97.6797 273.273C101.862 271.26 106.118 269.417 110.448 267.744C113.795 266.448 116.628 261.855 120.068 259.711Z" fill="#FE0000"/>
</svg>
