<svg width="303" height="231" viewBox="0 0 303 231" fill="none" xmlns="http://www.w3.org/2000/svg">
<path d="M162.784 211.926C158.897 218.674 151.535 222.519 143.876 222.291C139.925 222.174 133.495 222.02 127.802 222.054C114.212 222.136 106.104 200.664 123.694 197.195C139.137 194.148 136.526 189.638 143.022 186.565C151.954 182.339 162.64 187.669 164.968 197.443C166.102 202.205 165.402 206.893 163.384 210.817C163.368 210.848 163.351 210.879 163.335 210.911C163.16 211.255 162.976 211.594 162.784 211.926Z" fill="#EDF6F7"/>
<path d="M49.3044 167.864C24.3434 140.421 25.1657 94.9704 48.6179 66.1718C62.9893 48.5235 83.3137 39.3882 103.841 38.9542C113.056 38.7595 121.95 34.6863 127.234 26.9698C134.491 16.3697 142.743 4.00445 159.517 1.64327C178.392 -1.01385 194.778 11.985 202.252 26.676C209.322 40.5705 217.98 43.7247 227.929 49.5862C234.427 53.4144 240.488 58.3442 245.857 64.3969C270.849 92.5753 271.476 134.482 247.439 163.515C227.956 187.047 194.891 202.06 170.954 187.43C150.092 174.678 141.534 178.509 124.378 187.177C99.4759 199.759 71.7431 192.532 49.3044 167.864Z" fill="#EDF6F7"/>
<path d="M107.777 33.7674C116.901 33.7674 124.297 26.2083 124.297 16.8837C124.297 7.55908 116.901 0 107.777 0C98.6528 0 91.2563 7.55908 91.2563 16.8837C91.2563 26.2083 98.6528 33.7674 107.777 33.7674Z" fill="#EDF6F7"/>
<path d="M91.9789 125.434C91.9789 125.434 79.694 93.9551 76.8412 86.5785C73.2887 77.3908 65.944 65.6486 70.4955 63C75.6323 60.0101 77.3844 73.2908 80.9029 86.2903C82.3695 91.7094 93.674 124.311 93.7641 124.584C93.9879 125.262 92.3259 126.327 91.9789 125.434Z" fill="#F07D18"/>
<path d="M88.8101 120.662C88.7464 120.799 82.0023 125.031 80.5925 124.743C79.182 124.454 81.5513 119.496 81.6926 119.41C81.8339 119.323 84.7657 117.293 84.7657 117.293C84.7657 117.293 89.6948 118.773 88.8101 120.662Z" fill="#FFB9A0"/>
<path d="M86.657 120.621C86.5517 120.524 84.0903 117.629 84.4567 114.688C84.8232 111.748 85.7543 110.214 86.1353 108.871C86.3078 108.263 87.3622 108.24 87.4467 108.788C87.5098 109.196 87.5312 111.31 87.5312 111.31L90.1263 110.445L91.6213 118.458C91.6213 118.458 88.2926 122.119 86.657 120.621Z" fill="#FFE5CF"/>
<path opacity="0.5" d="M86.657 120.621C86.5517 120.524 84.0903 117.629 84.4567 114.688C84.8232 111.748 85.7543 110.214 86.1353 108.871C86.3078 108.263 87.3622 108.24 87.4467 108.788C87.5098 109.196 87.5312 111.31 87.5312 111.31L90.1263 110.445L91.6213 118.458C91.6213 118.458 88.2926 122.119 86.657 120.621Z" fill="#FFB9A0"/>
<path d="M89.4959 115.48C89.4959 115.48 88.4242 115.999 88.2171 116.479C88.0099 116.96 88.4803 117.44 89.1571 117.383C89.834 117.325 91.5451 116.922 92.2032 116.691C92.8614 116.46 92.5607 115.173 91.9213 115.115C91.2818 115.058 89.9282 115.365 89.4959 115.48Z" fill="#FFE5CF"/>
<path d="M87.978 114.655C87.978 114.655 86.9583 115.313 86.8606 115.829C86.7622 116.344 87.3248 116.707 87.9725 116.498C88.6202 116.289 91.1412 115.482 91.7335 115.108C92.3258 114.734 91.7404 113.461 91.0989 113.458C90.1117 113.453 88.562 114.282 87.978 114.655Z" fill="#FFE5CF"/>
<path d="M87.6407 112.897C87.6407 112.897 86.6022 113.563 86.501 114.084C86.3999 114.604 86.9714 114.969 87.6309 114.757C88.2905 114.545 90.8572 113.725 91.4599 113.347C92.0633 112.969 91.5049 111.589 90.8523 111.588C89.8485 111.586 88.235 112.52 87.6407 112.897Z" fill="#FFE5CF"/>
<path d="M87.2735 111.229C87.2735 111.229 86.4657 111.843 86.4096 112.366C86.3535 112.888 86.9472 113.198 87.5797 112.932C88.2122 112.665 90.19 111.924 90.7532 111.499C91.3164 111.074 90.6514 109.761 90.0078 109.816C89.0164 109.901 87.8277 110.805 87.2735 111.229Z" fill="#FFE5CF"/>
<path d="M3.32907 215.278C3.32907 215.278 1.83962 216.59 0.932096 218.008C0.0245733 219.427 0.990982 222.582 1.81191 224.276C2.63284 225.97 7.20855 229.293 8.71324 229.299C10.2172 229.304 9.63393 224.306 10.0925 222.424C10.5505 220.542 11.1317 219.03 11.1317 219.03C11.1317 219.03 8.61348 214.865 3.32907 215.278Z" fill="#070540"/>
<path d="M8.71319 229.299C7.2092 229.293 2.63279 225.97 1.81186 224.276C1.0706 222.746 0.215726 220.029 0.724216 218.471C0.598826 218.64 0.477592 218.813 0.366056 218.988C-0.541467 220.407 0.424942 223.562 1.24587 225.256C2.0668 226.95 6.64321 230.273 8.1472 230.278C8.58226 230.28 8.84205 229.862 9.00346 229.223C8.91548 229.272 8.81988 229.299 8.71319 229.299Z" fill="#E6E8F4"/>
<path d="M73.6469 222.398C73.6469 222.398 73.7272 223.551 73.9891 224.013C74.2509 224.476 79.8693 226.006 81.9434 226.211C84.6133 226.475 88.639 225.953 88.8669 225.3C89.0948 224.647 88.1991 222.761 87.2999 221.873C86.4007 220.986 82.6861 218.664 81.3719 218.007C80.0584 217.349 73.8048 220.361 73.6469 222.398Z" fill="#070540"/>
<path d="M81.9434 226.211C79.8693 226.006 74.2509 224.476 73.9891 224.013C73.9891 224.013 73.9032 224.321 74.165 224.783C74.4269 225.245 79.8665 226.821 81.9406 227.026C84.6106 227.29 88.6362 226.767 88.8641 226.115C88.9258 225.939 88.9036 225.672 88.8233 225.361C88.3751 225.984 84.5288 226.467 81.9434 226.211Z" fill="#E6E8F4"/>
<path d="M34.7597 142.729C34.7597 142.729 29.5702 150.339 28.5546 155.297C27.539 160.255 25.4711 180.146 25.1324 181.961C25.0485 182.411 20.4894 185.131 18.4382 188.227C12.2227 197.607 3.1419 214.53 3.05738 215.137C2.94446 215.944 9.93516 217.243 10.9224 219.702C12.6841 218.212 32.4237 190.843 34.759 188.157C37.2544 185.287 46.0407 172.295 46.0407 172.295C46.0407 172.295 63.3474 189.541 64.2044 190.809C64.4842 191.223 64.4073 195.251 65.5206 199.61C67.8164 208.602 73.1875 221.664 73.6433 222.286C73.6433 222.286 78.5321 217.942 81.3524 217.866C81.3524 217.866 74.8092 192.654 73.1168 185.39C71.4244 178.126 57.8863 153.09 56.4198 151.196C54.9546 149.302 36.1681 142.845 34.7597 142.729Z" fill="#6B78B7"/>
<g opacity="0.33">
<path d="M56.4212 151.196C54.9546 149.302 36.1682 142.845 34.7598 142.729C34.7598 142.729 29.5703 150.339 28.5547 155.297C28.3656 156.22 28.1397 157.662 27.8959 159.406C27.8986 159.401 32.9551 150.936 58.5611 154.787C57.4922 152.883 56.7149 151.575 56.4212 151.196Z" fill="#6B78B7"/>
<path d="M51.6827 164.194C49.8773 166.519 46.0415 172.295 46.0415 172.295C46.0415 172.295 50.4572 176.696 54.9387 181.215C50.2223 175.04 53.488 161.869 51.6827 164.194Z" fill="#6B78B7"/>
</g>
<path d="M81.8616 130.623C81.8616 130.623 83.4411 131.258 84.8232 128.864C86.2053 126.472 87.1641 121.399 87.1641 121.399L80.7331 123.215C80.7331 123.215 78.9846 128.49 81.8616 130.623Z" fill="#ACB3D8"/>
<path d="M57.2407 106.15C54.2494 106.182 46.5881 108.194 43.9736 112.098C40.1377 117.825 41.5856 127.165 38.8215 131.43C36.0573 135.697 32.8443 138.983 33.3521 142.615C33.8599 146.247 52.7509 152.792 59.0128 151.026C64.1691 149.571 69.051 131.79 71.0877 126.818C71.0877 126.818 78.5336 130.335 81.8616 130.623C81.8616 130.623 79.8034 127.192 81.8907 122.349C83.978 117.507 84.7657 117.294 84.7657 117.294C84.7657 117.294 82.1443 117.422 76.2779 113.559C70.4109 109.696 65.0628 106.067 57.2407 106.15Z" fill="#E6E8F4"/>
<path d="M76.2774 113.559C70.411 109.696 65.0629 106.067 57.2408 106.151C55.8345 106.166 52.3797 105.947 55.5332 110.03C60.3354 116.248 73.3317 118.461 71.0878 126.818C71.0878 126.818 78.5337 130.335 81.8617 130.623C81.8617 130.623 79.8035 127.192 81.8908 122.349C83.9781 117.507 84.7658 117.294 84.7658 117.294C84.7658 117.294 82.1437 117.421 76.2774 113.559Z" fill="#E6E8F4"/>
<path d="M54.5632 135.014C54.5632 135.014 55.4617 135.696 61.9772 129.182C68.4926 122.667 58.6491 123.849 56.1108 125.896C53.5725 127.942 51.3196 132.305 54.5632 135.014Z" fill="#ACB3D8"/>
<path d="M65.3676 123.128C65.3676 123.128 83.198 122.59 84.4194 122.398C85.6414 122.206 88.2864 117.507 88.9383 116.859C89.5902 116.211 93.2286 116.729 93.6796 116.859C94.1306 116.989 93.9179 118.142 93.7849 118.373C93.7849 118.373 94.8081 118.757 95.0242 119.19C95.1836 119.508 94.8552 120.535 94.8552 120.535C94.8552 120.535 95.5507 120.804 95.6637 121.176C95.7212 121.366 95.4759 122.111 95.4759 122.111C95.4759 122.111 96.2844 122.456 96.1999 123.149C96.1458 123.588 95.0894 124.751 94.6058 124.632C94.1223 124.513 92.8157 124.377 92.256 124.785C91.6962 125.192 91.5604 125.729 91.6768 126.108C91.7752 126.428 90.4174 127.914 88.7256 127.857C87.0332 127.8 84.9279 127.021 81.0255 128.809C77.1239 130.596 68.8599 132.066 65.5879 132.094C62.316 132.123 57.6627 128.809 57.6059 128.809C57.5491 128.807 62.043 123.232 65.3676 123.128Z" fill="#FFE5CF"/>
<path opacity="0.5" d="M95.4752 122.11C95.4752 122.11 95.7211 121.365 95.6629 121.176C95.55 120.803 94.8545 120.534 94.8545 120.534C94.8545 120.534 95.1828 119.508 95.0235 119.189C94.8074 118.756 93.7841 118.372 93.7841 118.372C93.9172 118.141 94.1298 116.989 93.6788 116.858C93.3817 116.773 91.7024 116.52 90.4034 116.542C90.7103 116.568 91.9525 116.725 92.2123 117.047C92.4804 117.378 92.1631 118.286 92.4734 118.79C92.7838 119.294 94.0037 121.443 94.215 122.048C94.4263 122.653 94.328 124.466 93.4398 124.511L93.4378 124.512C93.9019 124.507 94.3598 124.571 94.6051 124.632C95.0886 124.751 96.1451 123.588 96.1991 123.149C96.2836 122.456 95.4752 122.11 95.4752 122.11Z" fill="#FFB9A0"/>
<path d="M65.3675 123.128C65.38 123.109 62.1752 122.148 58.0574 117.997C53.9396 113.846 48.0165 112.026 45.3092 113.916C42.6018 115.807 40.6247 121.692 45.1685 125.838C51.4866 131.603 52.9552 135.014 54.5645 135.014C54.5645 135.014 53.1222 134.687 57.4658 130.594C61.8081 126.501 63.8213 125.492 65.3675 123.128Z" fill="#F3F4FA"/>
<path d="M59.5213 112.297C59.5213 112.297 60.706 112.862 61.272 112.539C61.838 112.216 60.8639 108.624 59.9426 107.938C59.0212 107.253 59.1265 111.678 59.5213 112.297Z" fill="#ACB3D8"/>
<path d="M63.2595 103.394C63.2595 103.394 62.5487 105.154 60.6332 105.289C58.7177 105.423 60.7122 100.19 60.7122 100.19H63.707C63.707 100.19 63.5227 102.495 63.2595 103.394Z" fill="#070540"/>
<path d="M63.2595 103.394C63.2595 103.394 62.5487 105.154 60.6332 105.289C58.7177 105.423 60.7122 100.19 60.7122 100.19H63.707C63.707 100.19 63.5227 102.495 63.2595 103.394Z" fill="#070540"/>
<path d="M52.4537 100.076C52.4537 100.076 52.1773 96.8176 53.046 95.4554C53.8496 94.1952 60.7682 93.6309 61.9834 95.7124C63.5968 98.4771 61.8684 103.732 61.8684 103.732C61.8684 103.732 53.3557 108.71 52.4537 100.076Z" fill="#D14122"/>
<path d="M54.9393 108.127C54.9393 108.127 54.832 109.301 54.8583 109.516C54.8846 109.732 58.5743 111.894 59.522 112.297C59.522 112.297 61.9702 103.93 61.8649 103.957C61.7589 103.984 54.9393 108.127 54.9393 108.127Z" fill="#FFB9A0"/>
<path d="M52.4537 100.076C52.4572 100.193 52.832 107.77 52.9304 108.618C53.0287 109.465 55.2567 109.761 56.2834 109.297C57.31 108.833 59.7534 107.057 60.0326 106.633C60.3111 106.209 60.5085 105.1 60.5085 105.1C60.5085 105.1 60.469 105.657 61.2588 105.489C62.0486 105.321 62.8231 104.237 62.8577 103.586C62.9568 101.736 61.0614 101.441 60.5279 103.956C60.4746 104.207 59.8005 104.346 59.8172 104.15C59.8338 103.956 60.0104 101.911 60.0319 101.548C60.0541 101.185 59.2837 100.781 59.2643 100.438C59.2442 100.095 59.8365 97.7344 59.6786 97.3514C59.5206 96.9677 57.0281 98.1182 54.8687 97.6339C52.7101 97.1504 52.3969 98.0792 52.4537 100.076Z" fill="#FFE5CF"/>
<path d="M52.6138 103.261C54.6256 102.741 56.5999 105.222 59.867 103.58C59.9259 102.89 60.0174 101.805 60.0333 101.549C60.0555 101.186 59.2851 100.782 59.2657 100.44C59.2456 100.096 59.8379 97.7359 59.68 97.3528C59.522 96.9691 57.0295 98.1196 54.8701 97.6353C52.7108 97.151 52.3969 98.0799 52.4537 100.076C52.4551 100.127 52.5258 101.57 52.6138 103.261Z" fill="#FFB9A0"/>
<path d="M63.2595 103.394C63.2595 103.394 63.5982 101.22 62.1954 101.397C59.0675 101.791 54.6248 98.9062 52.0713 99.4103C52.0713 99.4103 51.596 95.7818 54.1773 94.164C56.9678 92.4152 62.5417 93.4581 63.7465 96.9889C64.9172 100.421 63.2595 103.394 63.2595 103.394Z" fill="#070540"/>
<path d="M60.7129 101.951C60.7129 101.951 59.132 102.78 57.3925 102.557C55.6523 102.336 53.7111 100.499 50.0187 100.62L49.8677 100.297C49.8677 100.297 51.6474 100.106 52.0721 99.9852C52.7108 99.8032 54.1337 99.714 55.6523 100.187C57.1071 100.64 60.7129 101.375 60.7129 101.375V101.951Z" fill="#070540"/>
<path d="M60.7129 101.375C60.7129 101.375 59.132 102.336 57.3925 102.113C55.6523 101.891 53.5594 100.176 49.8677 100.297C49.8677 100.297 51.434 99.5915 52.0721 99.4096C52.7108 99.2276 54.1337 99.1384 55.6523 99.6113C57.2706 100.116 59.8899 101.202 60.7129 101.375Z" fill="#6B78B7"/>
<path d="M94.3758 124.638C94.0932 123.984 93.194 123.754 92.3668 124.127C91.5396 124.499 91.0984 125.332 91.381 125.988C91.6637 126.643 92.5629 126.872 93.39 126.5C94.2172 126.127 94.6585 125.293 94.3758 124.638Z" fill="#FF946E"/>
<path d="M272.295 139.621L270.146 140.436L274.054 151.203L276.203 150.388L278.352 149.573L274.444 138.806L272.295 139.621Z" fill="#ACB3D8"/>
<path d="M276.203 150.388L273.074 151.574L273.801 153.575L276.929 152.388L280.058 151.202L279.332 149.201L276.203 150.388Z" fill="#070540"/>
<path d="M271.568 137.62L268.919 138.625L269.645 140.626L272.295 139.621L274.944 138.617L274.217 136.616L271.568 137.62Z" fill="#070540"/>
<path d="M255.381 121.103C255.377 121.098 255.372 121.095 255.368 121.091C255.389 121.149 255.413 121.203 255.434 121.26C255.416 121.207 255.398 121.155 255.381 121.103Z" fill="#6B78B7"/>
<path d="M273.621 115.215C273.562 115.032 273.501 114.848 273.434 114.666C271.129 108.316 265.247 104.691 260.295 106.568C255.344 108.446 253.199 115.115 255.503 121.464C255.57 121.647 255.64 121.828 255.712 122.005L255.701 122.01C259.067 131.282 267.124 131.682 269.584 138.372L270.701 137.949L270.232 136.895C268.895 134.145 266.683 132.471 264.357 130.711C263.789 130.281 263.217 129.847 262.651 129.393C264.61 130.184 266.698 130.299 268.642 129.562C270.587 128.825 272.096 127.347 273.075 125.441C272.937 126.161 272.78 126.871 272.624 127.577C271.984 130.462 271.376 133.205 272.117 136.181L272.441 137.29L273.552 136.868C271.147 130.157 276.998 124.483 273.632 115.211L273.621 115.215ZM268.235 128.44C263.897 130.084 258.678 126.769 256.601 121.048C254.524 115.328 256.364 109.335 260.703 107.69C265.041 106.046 270.259 109.361 272.336 115.082C274.413 120.802 272.573 126.795 268.235 128.44Z" fill="#6B78B7"/>
<path d="M273.297 114.309C273.297 114.304 273.298 114.297 273.299 114.292C273.32 114.351 273.337 114.407 273.357 114.465C273.337 114.413 273.317 114.361 273.297 114.309Z" fill="#6B78B7"/>
<mask id="mask0_57_528" style="mask-type:luminance" maskUnits="userSpaceOnUse" x="255" y="107" width="19" height="22">
<path d="M260.703 107.69C265.041 106.046 270.259 109.361 272.336 115.082C274.413 120.802 272.573 126.795 268.235 128.44C263.897 130.084 258.678 126.769 256.601 121.048C254.525 115.328 256.364 109.335 260.703 107.69Z" fill="white"/>
</mask>
<g mask="url(#mask0_57_528)">
<path d="M270.238 106.251L252.551 112.956L252.702 113.371L270.388 106.666L270.238 106.251Z" fill="#070540"/>
<path d="M270.74 107.637L253.054 114.342L253.205 114.756L270.891 108.051L270.74 107.637Z" fill="#070540"/>
<path d="M271.243 109.024L253.557 115.729L253.707 116.143L271.393 109.438L271.243 109.024Z" fill="#070540"/>
<path d="M271.746 110.408L254.06 117.113L254.21 117.528L271.897 110.823L271.746 110.408Z" fill="#070540"/>
<path d="M272.249 111.794L254.563 118.499L254.713 118.913L272.399 112.208L272.249 111.794Z" fill="#070540"/>
<path d="M272.752 113.181L255.066 119.885L255.216 120.3L272.903 113.595L272.752 113.181Z" fill="#070540"/>
<path d="M273.255 114.567L255.569 121.272L255.719 121.686L273.406 114.981L273.255 114.567Z" fill="#070540"/>
<path d="M273.759 115.952L256.072 122.657L256.223 123.071L273.909 116.366L273.759 115.952Z" fill="#070540"/>
<path d="M274.261 117.337L256.575 124.042L256.726 124.457L274.412 117.752L274.261 117.337Z" fill="#070540"/>
<path d="M274.765 118.723L257.078 125.428L257.229 125.842L274.915 119.137L274.765 118.723Z" fill="#070540"/>
<path d="M275.267 120.111L257.581 126.816L257.731 127.23L275.417 120.525L275.267 120.111Z" fill="#070540"/>
<path d="M275.77 121.495L258.084 128.2L258.234 128.614L275.921 121.909L275.77 121.495Z" fill="#070540"/>
<path d="M276.273 122.881L258.587 129.586L258.737 130L276.423 123.295L276.273 122.881Z" fill="#070540"/>
<path d="M253.314 105.359L252.908 105.512L263.581 134.915L263.986 134.761L253.314 105.359Z" fill="#070540"/>
<path d="M254.788 104.797L254.383 104.951L265.055 134.353L265.461 134.2L254.788 104.797Z" fill="#070540"/>
<path d="M256.248 104.211L255.842 104.365L266.517 133.764L266.923 133.611L256.248 104.211Z" fill="#070540"/>
<path d="M257.736 103.68L257.331 103.834L268.003 133.236L268.408 133.083L257.736 103.68Z" fill="#070540"/>
<path d="M259.197 103.089L258.791 103.243L269.467 132.643L269.872 132.489L259.197 103.089Z" fill="#070540"/>
<path d="M260.669 102.532L260.264 102.686L270.939 132.086L271.345 131.932L260.669 102.532Z" fill="#070540"/>
<path d="M262.143 101.974L261.737 102.127L272.413 131.527L272.818 131.373L262.143 101.974Z" fill="#070540"/>
<path d="M263.632 101.445L263.226 101.599L273.898 131.001L274.304 130.847L263.632 101.445Z" fill="#070540"/>
<path d="M265.095 100.882L264.689 101.036L275.358 130.438L275.764 130.285L265.095 100.882Z" fill="#070540"/>
</g>
<path d="M208.948 206.926C208.948 206.926 207.639 210.238 206.516 210.238C205.394 210.238 202.215 209.099 199.347 209.35C196.479 209.601 185.008 215.59 179.148 215.527L175.034 225.211C175.034 225.211 182.827 222.088 188.749 221.133C194.672 220.177 211.878 219.731 214.683 218.712C217.488 217.692 223.412 204.313 223.412 204.313L208.948 206.926Z" fill="#FFD2B3"/>
<path d="M208.948 206.926C208.948 206.926 208.483 208.102 207.868 209.052C208.668 208.805 210.632 209.856 212.813 212.118C214.47 213.835 216.114 215.24 217.894 215.008C220.572 210.726 223.411 204.313 223.411 204.313L208.948 206.926Z" fill="#FFB98B"/>
<path d="M178.692 215.124C178.692 215.124 181.517 216.016 189.988 212.371C189.988 212.371 194.401 215.973 191.7 220.985C191.7 220.985 185.881 221.835 182.058 223.194C178.234 224.554 174.577 225.658 174.577 225.658L178.692 215.124Z" fill="#E6E8F4"/>
<path d="M177.819 213.17C177.819 213.17 180.665 215.294 180.748 217.587C180.821 219.601 178.556 220.401 177.621 222.376C176.686 224.351 177.528 225.339 174.847 226.294C172.166 227.25 169.548 226.644 166.026 228.683C162.504 230.722 158.326 228.683 158.326 228.683L177.819 213.17Z" fill="#070540"/>
<path d="M165.634 227.041C170.624 223.54 171.214 220.956 173.365 219.491C175.516 218.025 178.165 215.573 177.853 213.406C177.771 212.832 176.344 211.608 175.972 211.349C174.944 210.626 156.954 227.482 156.971 228.448C157.081 228.554 158.245 229.336 158.403 229.402C159.766 229.966 162.786 229.038 165.634 227.041Z" fill="#E6E8F4"/>
<path d="M164.467 226.231C169.457 222.731 170.047 220.146 172.198 218.681C174.349 217.215 176.998 214.763 176.686 212.596C176.374 210.43 173.632 210.585 171.325 212.403C169.018 214.221 169.641 215.91 165.278 217.311C160.914 218.713 158.669 222.09 157.609 224.129C157.163 224.988 156.056 227.588 156.83 228.334C157.893 229.357 161.288 228.461 164.467 226.231Z" fill="white"/>
<path d="M248.265 194.013C248.265 194.013 257.325 194.098 259.985 194.523C262.645 194.948 264.39 200.894 266.801 202.679C269.212 204.463 274.033 205.736 279.02 212.278C284.007 218.819 283.675 219.583 283.675 219.583L291.156 218.989C291.156 218.989 265.803 186.622 263.726 184.924C261.647 183.225 251.174 180.847 251.174 180.847C251.174 180.847 249.013 191.72 248.265 194.013Z" fill="#FFD2B3"/>
<path d="M258.212 188.911C258.597 187.469 259.755 184.492 259.104 182.97C255.469 181.822 251.174 180.846 251.174 180.846C251.174 180.846 249.012 191.719 248.265 194.013C248.265 194.013 252.334 194.051 255.819 194.204C256.789 192.528 257.697 190.841 258.212 188.911Z" fill="#FFB98B"/>
<path d="M282.861 217.757C283.789 219.316 283.675 219.583 283.675 219.583L291.156 218.989C291.156 218.989 290.806 218.541 290.19 217.757H282.861Z" fill="#FFD2B3"/>
<path d="M273.3 206.968C273.189 206.808 277.607 202.551 278.521 202.593C279.435 202.636 287.788 214.402 288.869 215.548C289.95 216.695 282.848 217.531 281.952 216.88C281.056 216.228 279.436 213.466 277.066 211.004C274.273 208.102 273.535 207.309 273.3 206.968Z" fill="#E6E8F4"/>
<path d="M280.802 215.597C280.802 215.597 282.885 217.311 285.535 216.483C288.185 215.655 286.053 213.288 285.924 212.198C285.795 211.109 286.485 211.043 287.472 212.052C288.539 213.144 297.816 217.471 300.123 218.012C302.43 218.554 303.084 220.179 302.99 220.879C302.897 221.58 298.003 222.122 292.954 222.44C287.904 222.759 280.205 222.663 279.893 222.281C279.581 221.899 279.815 215.723 280.802 215.597Z" fill="#070540"/>
<path d="M302.864 221.052C302.864 221.051 302.862 221.049 302.862 221.048C302.082 221.666 297.588 222.147 292.953 222.439C288.064 222.748 280.692 222.668 279.945 222.316C279.784 222.798 279.858 223.397 279.934 223.49C280.246 223.872 287.903 224.044 292.953 223.726C298.003 223.407 302.896 222.866 302.99 222.165C303.018 221.958 302.991 221.37 302.864 221.052Z" fill="#E6E8F4"/>
<path d="M210.028 179.657C210.028 179.657 207.784 183.225 209.114 189.936C210.444 196.647 209.529 206.174 207.867 207.697C207.867 207.697 210.278 210.507 215.265 208.801C220.252 207.096 223.66 204.802 226.652 204.548C226.652 204.548 227.567 196.647 227.317 194.184C227.317 194.184 245.937 197.412 247.6 197.242C249.262 197.072 256.517 186.537 256.517 182.205C256.517 182.205 243.615 176.853 236.048 174.305C228.481 171.757 210.028 179.657 210.028 179.657Z" fill="#5BCFDE"/>
<g opacity="0.4">
<path d="M236.048 174.305C228.481 171.757 210.028 179.657 210.028 179.657C210.028 179.657 207.784 183.225 209.114 189.936C209.458 191.673 209.651 193.598 209.72 195.524C210.692 191.575 239.245 193.674 238.434 175.137C237.6 174.838 236.797 174.557 236.048 174.305Z" fill="#5BCFDE"/>
<path d="M226.977 201.416C227.211 198.924 227.464 195.624 227.317 194.183C227.317 194.183 222.226 193.333 219.753 193.079C217.281 192.825 227.301 198.285 226.977 201.416Z" fill="#5BCFDE"/>
</g>
<path d="M253.399 147.355C253.399 147.355 268.516 145.985 269.824 145.57C271.134 145.156 273.596 141.684 274.032 141.366C274.469 141.047 277.481 141.259 278.001 141.366C278.521 141.472 278.146 143.341 278.146 143.341C278.146 143.341 279.087 145.905 279.082 146.622C279.078 147.093 278.624 148.374 278.146 148.31C277.668 148.247 277.918 147.631 277.419 147.525C276.92 147.418 276.193 149.287 275.59 149.627C274.987 149.967 274.177 150.031 272.847 149.84C271.517 149.649 262.779 154.14 260.254 154.554C257.729 154.968 250.653 154.331 250.092 154.331C249.532 154.331 251.28 147.551 253.399 147.355Z" fill="#FFD2B3"/>
<path d="M254.123 147.288C253.666 147.33 253.4 147.355 253.4 147.355C251.28 147.551 249.532 154.331 250.094 154.331C250.359 154.331 252.079 154.474 254.086 154.58C253.798 154.074 254.998 150.934 254.123 147.288Z" fill="#FFB98B"/>
<path d="M278.147 148.31C278.625 148.374 279.079 147.093 279.082 146.622C279.087 145.905 278.147 143.341 278.147 143.341C278.147 143.341 278.521 141.472 278.002 141.366C277.6 141.284 275.719 141.14 274.678 141.224C274.947 141.206 275.795 141.202 275.778 141.918C275.757 142.767 276.921 144.807 277.233 145.168C277.544 145.529 277.668 146.788 276.98 147.795L276.978 147.797C277.137 147.611 277.287 147.497 277.42 147.525C277.918 147.631 277.669 148.247 278.147 148.31Z" fill="#FFB98B"/>
<path d="M233.053 136.672C233.226 136.332 241.781 134.187 242.529 133.763C243.277 133.338 243.859 131.522 244.389 130.79C244.919 130.057 247.329 128.207 247.536 127.676C247.744 127.145 247.777 126.723 248.172 126.723C248.616 126.723 248.91 127.662 248.769 128.653C248.629 129.644 247.248 130.807 247.092 131.11C247.092 131.11 250.203 130.87 250.748 131.077C251.293 131.284 251.038 131.856 250.707 131.98C250.175 132.181 247.584 132.303 247.444 132.478C247.304 132.653 251.266 132.443 251.639 132.585C252.171 132.786 252.01 133.546 251.559 133.641C251.107 133.737 248.369 133.965 248.12 134.061C247.87 134.156 251.918 133.944 252.385 134.071C252.853 134.199 252.837 135.059 252.229 135.17C251.622 135.281 248.177 135.569 248.005 135.712C247.834 135.855 252.014 136.349 252.279 136.598C252.544 136.847 252.338 137.495 251.715 137.559C251.092 137.622 248.006 137.32 247.741 137.368C247.475 137.416 245.34 138.419 244.421 138.371C244.318 138.366 243.127 138.149 242.849 138.201C240.637 138.611 234.262 141.747 233.885 141.747C233.46 141.748 232.694 137.382 233.053 136.672Z" fill="#FF946E"/>
<path d="M240.566 134.405C237.807 135.205 233.18 136.424 233.054 136.672C232.694 137.382 233.461 141.748 233.885 141.748C234.206 141.748 238.866 139.48 241.611 138.551C240.956 137.255 240.578 135.835 240.566 134.405Z" fill="#F07D18"/>
<path d="M229.354 128.899C229.354 128.899 226.321 125.151 221.79 126.722C217.26 128.294 215.14 134.676 215.015 143.128C214.914 149.968 216.179 163.283 214.309 167.678C212.438 172.074 208.199 177.872 207.513 180.485C207.513 180.485 214.162 191.289 225.031 188.64C239.931 185.009 236.689 164.748 238.352 155.618C241.422 155.868 246.788 157.294 248.721 157.485C250.654 157.677 253.96 150.222 253.399 147.355C248.377 145.725 244.395 144.055 241.075 142.414C237.752 140.772 234.966 138.182 233.026 134.973L229.354 128.899Z" fill="#6B78B7"/>
<path opacity="0.33" d="M228.375 135.791C234.271 142.571 241.335 144.775 245.214 144.311C243.758 143.691 242.416 143.073 241.167 142.457C237.81 140.804 234.985 138.21 233.026 134.97L232.858 134.693C232.438 135.181 228.237 135.632 228.375 135.791Z" fill="#6B78B7"/>
<path opacity="0.44" d="M229.354 128.899C229.354 128.899 227.577 126.715 224.718 126.386C225.944 126.624 226.848 129.364 224.97 129.769C223.049 130.184 221.161 131.342 221.806 131.071C224.037 130.135 226.321 130.04 225.198 130.474C224.066 130.912 223.387 131.683 223.739 131.614C225.849 131.194 227.378 131.626 226.999 132.012C226.999 132.012 227.837 133.263 227.922 133.263C227.96 133.263 228.954 131.838 230.02 130.294L229.354 128.899Z" fill="#6B78B7"/>
<path d="M232.954 155.81C231.829 156.401 237.624 162.218 237.477 167.325C237.787 162.875 237.802 158.638 238.353 155.618C238.004 155.543 234.081 155.217 232.954 155.81Z" fill="#6B78B7"/>
<path d="M226.998 132.012C226.998 132.012 228.722 131.775 229.355 130.549L238.824 135.423C235.737 135.069 233.85 137.753 233.162 138.545C232.217 139.635 225.733 134.643 226.998 132.012Z" fill="#FFB98B"/>
<path d="M231.067 131.43C231.067 131.43 229.77 132.836 229.487 132.725C229.203 132.613 228.797 131.542 228.716 131.297C228.635 131.052 229.879 130.16 229.726 127.306C229.574 124.452 229.29 120.929 229.508 120.371C229.726 119.814 240.257 120.499 240.883 120.847C241.218 121.033 240.414 125.115 240.525 125.662C240.636 126.208 235.268 132.732 235.268 132.732L231.067 131.43Z" fill="#070540"/>
<path d="M231.708 128.906C230.48 128.961 230.673 130.297 230.904 131.031C231.221 132.034 232.226 133.008 232.766 132.384C232.766 132.384 233.014 133.603 233.45 134.584C233.886 135.566 238.25 137.499 239.414 136.874C240.288 136.405 240.214 131.27 240.345 130.259C240.476 129.248 240.956 128.727 240.971 128.296C240.985 127.865 240.578 125.917 240.461 125.352C240.345 124.787 239.138 125.902 237.538 125.352C235.938 124.802 233.422 123.375 233.567 123.642C233.673 123.838 235.895 124.832 236.026 125.278C236.157 125.724 235.342 127.686 235.342 127.984C235.342 128.281 234.396 128.296 234.294 128.608C234.193 128.92 234.091 130.898 234.062 131.136C234.033 131.374 233.276 131.24 233.262 131.032C233.246 130.822 233.047 128.846 231.708 128.906Z" fill="#FFD2B3"/>
<path d="M104.435 107.858C104.435 107.858 105.724 111.267 118.12 114.901C130.517 118.534 132.222 110.932 132.222 110.932L131.803 102.309C131.803 102.309 108.145 99.0081 107.987 98.7915C107.828 98.5748 104.81 103.408 104.435 107.858Z" fill="#ACB3D8"/>
<path d="M104.553 143.711C104.553 143.711 103.503 153.513 103.817 156.048C104.13 158.583 117.838 171.337 119.965 172.423C119.965 172.423 124.852 167.652 124.606 167.015C124.36 166.378 114.972 156.748 114.068 155.417C113.164 154.084 114.498 145.867 114.498 145.867L104.553 143.711Z" fill="#450603"/>
<path d="M124.443 166.39C125.753 168.305 130.854 177.13 133.749 180.034C133.749 180.034 132.909 184.09 131.095 185.269C130.708 185.521 128.894 184.177 128.576 184.268C128.576 184.268 126.936 181.329 124.599 178.235C122.71 175.733 120.151 173.071 119.318 172.243C118.506 171.434 123.915 165.62 124.443 166.39Z" fill="#E6E8F4"/>
<path d="M139.309 181.889C139.515 182.224 135.157 192.087 132.854 195.084C131.895 196.332 129.376 198.654 129.249 198.43C128.772 197.585 128.567 196.392 128.638 195.827C128.752 194.932 129.621 189.27 129.386 187.91C129.15 186.55 127.871 184.163 126.752 183.412C126.752 183.412 127.143 183.346 127.928 183.38C128.712 183.414 130.36 184.795 130.443 184.543C130.557 184.198 129.212 182.34 129.135 181.4C129.058 180.459 132.093 178.216 131.584 177.396C132.004 176.948 132.502 177.518 134.017 179.002C134.714 179.684 138.254 180.182 139.309 181.889Z" fill="#6B78B7"/>
<path d="M132.854 195.084C135.041 192.238 139.077 183.208 139.302 182.017C139.625 182.186 139.79 182.501 140.012 182.852C140.222 183.184 135.861 193.049 133.557 196.046C132.599 197.294 130.079 199.616 129.952 199.392C129.769 199.068 129.627 198.695 129.525 198.324C130.228 197.857 132.067 196.109 132.854 195.084Z" fill="#070540"/>
<path opacity="0.4" d="M127.927 183.38C128.712 183.414 130.359 184.795 130.442 184.543C130.556 184.198 129.212 182.34 129.134 181.4C129.096 180.936 129.813 180.157 130.49 179.387C131.043 183.772 134.912 188.194 137.18 189.599C135.946 192.148 134.558 194.745 133.558 196.046C132.599 197.294 130.08 199.616 129.953 199.392C129.77 199.068 129.628 198.695 129.525 198.324C129.373 198.426 129.272 198.469 129.249 198.43C128.772 197.585 128.567 196.392 128.638 195.827C128.752 194.932 129.621 189.27 129.385 187.91C129.15 186.55 127.871 184.163 126.752 183.412C126.752 183.412 127.142 183.346 127.927 183.38Z" fill="#6B78B7"/>
<path d="M123.064 153.419C123.214 153.698 122.813 155.935 123.193 157.408C123.572 158.88 128.234 173.13 128.53 179.654L121.504 181.234C121.504 181.234 112.672 161.025 112.268 158.519C111.863 156.013 111.863 150.67 111.863 150.67L123.064 153.419Z" fill="#691813"/>
<path d="M112.117 157.274C111.864 154.576 111.863 150.67 111.863 150.67L123.064 153.419C123.2 153.672 122.884 155.535 123.108 156.978C119.704 155.815 115.34 155.732 112.117 157.274Z" fill="#450603"/>
<path d="M129.154 179.102C129.336 181.973 130.018 194.078 131.25 199.024C131.25 199.024 128.614 202.125 126.073 202.38C125.106 202.477 123.773 200.278 123.161 200.104C123.161 200.104 123.271 195.94 122.746 191.159C122.321 187.293 121.292 182.821 120.934 181.407C120.582 180.025 129.081 177.947 129.154 179.102Z" fill="white"/>
<path d="M134.661 204.378C134.669 204.865 131.99 206.907 129.588 209.293C127.965 210.905 125.471 214.351 121.175 216.001C119.386 216.688 115.011 215.764 115.017 215.446C115.043 214.245 115.572 212.856 116.001 212.308C116.68 211.439 121.133 206.049 121.735 204.464C122.337 202.88 121.895 199.627 121.185 198.106C121.185 198.106 123.051 197.899 123.856 198.447C124.66 198.995 125.775 201.294 126.021 201.084C126.357 200.795 126.102 197.963 126.609 196.922C127.116 195.882 130.687 196.087 130.519 194.927C131.315 194.632 131.508 195.563 132.176 198.114C132.483 199.286 134.619 201.893 134.661 204.378Z" fill="#6B78B7"/>
<path d="M121.175 216.001C125.472 214.35 127.965 210.905 129.588 209.293C131.757 207.14 134.143 205.27 134.582 204.567C134.582 204.569 134.583 204.57 134.584 204.571C134.697 204.979 134.801 205.815 134.756 206.257C134.707 206.741 131.687 209.05 129.285 211.437C127.662 213.049 125.168 216.494 120.872 218.145C119.083 218.832 114.864 217.915 114.871 217.597C114.883 217.054 114.857 215.97 115.018 215.446C115.011 215.764 119.386 216.688 121.175 216.001Z" fill="#070540"/>
<path d="M132.221 110.932C132.221 110.932 131.938 114.269 132.22 115.39C132.22 115.39 113.132 118.201 111.994 109.317C111.883 108.444 111.653 102.688 111.356 102.572C111.356 102.572 131.47 106.444 132.221 110.932Z" fill="#691813"/>
<path d="M111.908 108.189C111.782 106.24 111.59 102.663 111.358 102.572C111.358 102.572 131.471 106.444 132.222 110.932C132.222 110.932 132.195 111.252 132.165 111.725C126.399 107.654 111.908 108.189 111.908 108.189Z" fill="#450603"/>
<path d="M111.912 108.259C111.921 112.391 106.497 126.252 102.431 144.835C103.101 147.445 109.549 147.581 109.549 147.581C109.549 147.581 109.271 150.287 109.207 151.63C110.578 154.857 122.149 155.88 123.884 154.282C124.708 151.49 127.016 140.612 127.806 137.703C128.595 134.794 132.453 129.785 133.307 125.083C134.161 120.381 133.345 114.574 132.098 113.536C131.742 116.108 112.291 113.783 111.912 108.259Z" fill="#6B78B7"/>
<path opacity="0.3" d="M110.876 113.589C111.524 111.18 111.915 109.367 111.912 108.26C112.291 113.783 131.741 116.108 132.097 113.536C133.262 114.507 134.051 119.641 133.453 124.146C131.103 120.225 119.962 114.262 110.876 113.589Z" fill="#6B78B7"/>
<path opacity="0.3" d="M103.198 145.947C106.612 147.128 112.259 129.34 111.7 132.363C110.808 137.188 109.549 147.581 109.549 147.581C109.549 147.581 105.082 147.486 103.198 145.947Z" fill="#6B78B7"/>
<path d="M133.131 24.6936C130.191 24.4763 133.784 15.5314 133.975 13.7409C134.068 12.8658 131.963 13.464 130.707 14.3299C129.451 15.1958 129.38 17.7099 129.38 17.7099L128.377 25.4937C128.377 25.4937 132.859 25.4264 133.131 24.6936Z" fill="#450603"/>
<g opacity="0.5">
<path d="M133.131 24.6936C130.191 24.4763 133.784 15.5314 133.975 13.7409C134.068 12.8658 131.963 13.464 130.707 14.3299C129.451 15.1958 129.38 17.7099 129.38 17.7099L128.377 25.4937C128.377 25.4937 132.859 25.4264 133.131 24.6936Z" fill="#450603"/>
</g>
<path d="M143.142 24.4657C148.51 22.3247 151.163 16.1421 149.068 10.6565C146.973 5.17095 140.923 2.45965 135.556 4.60065C130.188 6.74165 127.535 12.9242 129.63 18.4098C131.725 23.8953 137.775 26.6067 143.142 24.4657Z" fill="#F07D18"/>
<path d="M134.3 8.88185C134.804 8.12216 135.363 7.43399 135.972 6.82086C135.223 6.48456 134.458 6.07747 133.679 5.58116C133.994 5.37301 134.321 5.18114 134.657 5.00839C135.375 5.4346 136.082 5.78718 136.776 6.07746C137.366 5.58115 137.997 5.14857 138.668 4.78678C139.316 4.43703 139.988 4.16374 140.679 3.96338C140.73 3.97046 140.781 3.97471 140.832 3.98179C141.611 4.09648 142.355 4.29967 143.061 4.57438C141.677 4.64872 140.353 5.0098 139.125 5.67249C138.682 5.9118 138.259 6.18649 137.853 6.49093C139.388 7.02052 140.854 7.30727 142.236 7.57701C144.637 8.045 146.849 8.47829 148.784 10.0083C149.091 10.6773 149.332 11.3818 149.499 12.111C147.455 9.61534 144.978 9.13036 142.053 8.56042C140.458 8.24961 138.757 7.91685 136.964 7.23505C136.348 7.80994 135.785 8.46626 135.275 9.19833C139.925 10.7949 145.18 14.0672 148.748 19.1478C148.59 19.4841 148.415 19.8091 148.225 20.1228C144.716 14.8751 139.368 11.5581 134.741 10.0246C133.959 11.3315 133.33 12.8417 132.865 14.5232C134.475 15.3346 135.657 16.7668 136.927 18.3075C138.587 20.321 140.43 22.554 143.644 24.2447C143.256 24.4246 142.858 24.5832 142.448 24.7141C139.496 22.9746 137.695 20.7932 136.178 18.9524C134.95 17.4628 133.923 16.2189 132.618 15.496C132.162 17.4678 131.922 19.6562 131.902 22.0096C131.559 21.6528 131.241 21.2726 130.95 20.8711C131.032 18.8052 131.286 16.8681 131.709 15.0967C130.918 14.8361 130.01 14.7512 128.914 14.8836C128.903 14.5522 128.908 14.218 128.929 13.881C130.1 13.7621 131.09 13.8711 131.955 14.1494C132.416 12.5146 133.027 11.0335 133.778 9.72791C132.562 9.3817 131.412 9.16576 130.377 9.07301C130.561 8.75724 130.759 8.4528 130.973 8.1604C132.006 8.29279 133.127 8.53068 134.3 8.88185Z" fill="#070540"/>
<path d="M126.781 56.9735C126.781 56.9735 125.068 53.7379 124.493 52.5584C123.919 51.3796 131.36 29.6567 131.939 28.7724C133.412 26.5259 137.324 26.0749 137.488 24.9761C137.584 24.3333 137.111 24.0932 136.408 24.0012C135.151 23.837 133.897 24.3134 133.162 24.4628C132.427 24.6115 130.488 24.872 129.972 24.3814C129.143 23.5941 129.273 20.1978 129.316 19.3029C129.358 18.408 129.504 16.8384 129.135 16.5545C128.728 16.2408 128.044 16.7796 127.753 18.8399C127.462 20.9002 127.502 27.1504 127.089 28.291C126.676 29.4316 121.471 39.5602 120.434 41.5525C119.396 43.5448 117.027 49.7887 116.749 50.8634C116.472 51.9382 121.959 63.0212 122.657 64.326C123.353 65.6295 127.286 58.2026 126.781 56.9735Z" fill="#450603"/>
<path opacity="0.3" d="M125.588 54.7008C126.192 55.8591 126.781 56.9735 126.781 56.9735C127.286 58.2026 123.353 65.6295 122.655 64.3253C122.362 63.7759 121.219 61.4933 120.015 58.9545C122.214 58.0546 124.215 56.6867 125.588 54.7008Z" fill="#450603"/>
<path d="M133.938 64.8925C133.703 64.7969 128.287 59.3099 126.646 56.223C126.646 56.223 122.94 58.8185 121.885 62.7182C120.83 66.6179 131.595 72.6005 134.067 72.9332C136.539 73.2674 137.386 66.2957 133.938 64.8925Z" fill="#FFB718"/>
<path d="M145.174 67.7733C145.174 67.7733 146 66.2971 148.934 65.039C151.166 64.0818 152.82 62.5037 152.162 59.2072C151.503 55.9108 148.131 53.8802 146.798 53.6388C145.465 53.3967 144.507 54.7319 144.507 54.7319C144.507 54.7319 140.978 65.4865 145.174 67.7733Z" fill="#330300"/>
<path d="M136.202 61.1082C136.002 62.0102 137.782 63.5352 137.831 63.8106C137.88 64.0853 136.869 66.7948 136.869 66.7948C136.869 66.7948 143.886 70.4899 144.123 70.6825C144.123 70.6825 144.654 68.9585 145.174 67.7733C145.174 67.7733 144.465 65.4603 146.862 63.6789C148.097 62.7607 146.79 62.4244 146.79 62.4244C146.79 62.4244 137.407 59.2964 136.202 61.1082Z" fill="#450603"/>
<path d="M144.04 63.0092C144.547 63.635 146.411 64.5838 147.357 63.1911C148.304 61.7985 146.906 61.1344 145.163 61.4551C144.888 61.5061 146.861 59.3495 146.881 59.1251C146.895 58.9778 146.874 58.1473 147.124 57.8769C147.664 57.2914 148.328 56.9961 148.138 56.4318C147.71 55.1652 146.336 54.613 145.564 54.5599C144.793 54.5075 142.507 55.2877 140.788 56.5359C140.128 57.0145 136.56 60.3811 136.201 61.1082C137.101 60.3549 139.072 62.5914 141.311 63.4403C142.437 63.8666 143.567 63.4977 144.04 63.0092Z" fill="#691813"/>
<path d="M146.694 74.5687C146.694 74.5687 145.849 78.6971 139.888 90.5631C136.058 98.1869 132.371 105.418 132.22 110.932C132.461 109.864 105.357 102.198 104.434 107.858C104.434 107.858 103.468 101.783 107.94 95.1042C112.412 88.4264 124.732 69.9023 130.165 67.5616C135.598 65.2217 146.694 74.5687 146.694 74.5687Z" fill="#E6E8F4"/>
<path d="M140.858 79.6989C130.093 78.3636 122.554 85.3487 115.662 83.8541C120.806 76.6538 126.803 69.0102 130.165 67.5623C134.452 65.7152 142.263 71.1448 145.368 73.5173C145.266 73.5364 143.1 79.9764 140.858 79.6989Z" fill="#ACB3D8"/>
<path d="M125.939 75.1776C125.939 75.1776 124.54 75.1209 124.302 69.6785C124.064 64.2362 133.491 72.1084 133.491 72.1084C133.491 72.1084 128.993 76.2941 125.939 75.1776Z" fill="#FFB718"/>
<path d="M127.473 63.4311C127.473 63.4311 123.996 62.6283 122.91 61.6307C121.823 60.6331 114.798 45.0472 114.364 43.8882C113.929 42.7299 115.687 41.2821 116.178 40.4119C116.697 39.4908 118.615 38.1754 119.162 37.7194C119.71 37.2642 118.667 36.5682 118.044 36.7176C117.436 36.8634 115.391 38.1067 114.868 38.094C114.345 38.0812 114.078 35.6598 114.027 34.6863C113.976 33.7128 114.46 28.3561 114.481 27.7579C114.503 27.1603 113.557 26.87 113.33 27.5879C113.103 28.3051 112.296 33.2718 112.104 33.5868C111.912 33.9019 111.61 33.8141 111.598 33.5981C111.587 33.3822 111.767 27.207 111.794 26.7178C111.821 26.2286 110.896 25.791 110.663 26.5507C110.429 27.3104 109.865 33.0848 109.709 33.298C109.553 33.5111 107.899 27.6878 107.729 27.2545C107.559 26.8212 106.598 26.9373 106.638 27.6941C106.678 28.451 108.268 33.836 108.129 34.2233C107.991 34.6106 105.448 31.3595 105.11 31.0734C104.773 30.7874 103.852 31.0593 104.342 31.9039C104.832 32.7485 106.562 35.2145 106.889 35.8637C107.218 36.513 107.467 40.2406 107.845 41.4336C108.127 42.3285 109.255 43.4875 109.554 43.896C109.853 44.3052 114.474 63.4418 115.408 65.4567C116.34 67.4724 129.196 73.9626 130.217 74.757C131.24 75.5528 132.696 65.2535 127.473 63.4311Z" fill="#691813"/>
<path opacity="0.5" d="M126.657 63.2209C127.144 63.3547 127.473 63.4311 127.473 63.4311C132.696 65.2535 131.239 75.5535 130.218 74.7584C129.839 74.4639 127.832 73.3856 125.41 72.0432C127.798 70.7823 126.702 63.3596 126.657 63.2209Z" fill="#450603"/>
<path d="M146.799 71.9824C146.159 69.1518 143.593 66.5846 138.27 65.7017C132.946 64.8188 127.473 63.4312 127.473 63.4312C130.145 65.6946 129.753 76.5291 125.938 75.1783C125.938 75.1783 136.459 79.4036 140.858 79.6989C145.257 79.9941 147.342 74.3867 146.799 71.9824Z" fill="#FEDA00"/>
<path d="M146.89 193.006C146.89 193.006 145.935 193.222 145.568 193.314C145.352 193.368 145.345 194.352 145.483 194.581C145.625 194.814 147.011 194.995 147.011 194.995C147.011 194.995 147.113 193.108 146.89 193.006Z" fill="#070540"/>
<path d="M146.939 195.603C146.939 195.603 146.005 195.901 145.647 196.024C145.436 196.096 145.511 197.078 145.668 197.294C145.828 197.514 147.225 197.574 147.225 197.574C147.225 197.574 147.17 195.686 146.939 195.603Z" fill="#070540"/>
<path d="M147.882 204.561C147.882 204.561 146.967 204.562 146.613 204.57C146.404 204.575 146.204 205.474 146.286 205.712C146.369 205.954 147.602 206.404 147.602 206.404C147.602 206.404 148.067 204.7 147.882 204.561Z" fill="#070540"/>
<path d="M147.284 209.118C147.284 209.118 146.549 209.448 146.269 209.581C146.103 209.659 146.251 210.452 146.399 210.614C146.549 210.778 147.692 210.697 147.692 210.697C147.692 210.697 147.48 209.164 147.284 209.118Z" fill="#070540"/>
<path d="M147.951 211.739C147.951 211.739 147.509 212.423 147.345 212.691C147.248 212.849 147.844 213.408 148.075 213.405C148.296 213.403 149.133 212.838 149.133 212.838C149.133 212.838 148.14 211.668 147.951 211.739Z" fill="#070540"/>
<path d="M171.405 182.041C171.943 185.121 158.434 192.593 154.754 200.27C154.443 200.92 152.55 204.596 151.911 204.856C150.176 205.56 149.278 202.876 149.134 201.854C148.746 199.1 149.081 193.122 151.794 191.061C154.626 188.91 157.943 183.635 159.578 180.277C160.899 177.564 164.547 172.29 167.314 172.243C170.081 172.195 171.405 182.041 171.405 182.041Z" fill="#E6E8F4"/>
<path d="M162.236 176.081C162.454 175.801 162.677 175.525 162.906 175.258C162.881 175.345 162.854 175.43 162.836 175.526C161.863 180.608 164.631 185.673 166.964 186.927C167.091 186.995 167.231 187.058 167.377 187.108C167.233 187.234 167.084 187.362 166.935 187.491C166.865 187.459 166.795 187.43 166.725 187.391C164.356 186.117 161.566 181.172 162.236 176.081Z" fill="#6B78B7"/>
<path d="M154.422 200.629C155.203 198.93 153.159 197.417 151.544 199.354L151.39 203.26C151.39 203.26 153.505 203.75 153.466 203.689C153.426 203.63 154.422 200.629 154.422 200.629Z" fill="#6B78B7"/>
<path d="M151.794 191.06C150.983 191.546 148.433 190.776 146.823 192.289C145.415 193.613 147.694 200.719 147.393 202.4C147.092 204.082 146.02 206.181 146.463 209.518C146.907 212.857 149.399 214.431 151.46 213.999C153.016 213.672 153.032 208.422 153.556 205.12C154.134 201.475 155.539 199.772 155.539 199.772C155.539 199.772 153.814 199.695 152.714 202.56C152.714 202.56 153.546 200.504 151.994 199.024C150.443 197.545 149.46 193.755 151.794 191.06Z" fill="#ACB3D8"/>
<path d="M165.418 157.849C165.418 157.849 167.165 158.882 175.371 158.438C183.578 157.994 180.41 153.848 176.947 153.54C173.483 153.23 165.353 155.56 165.418 157.849Z" fill="#070540"/>
<path d="M185.302 157.938C185.302 157.938 182.987 166.242 180.794 170.14C178.602 174.037 178.208 176.529 176.938 177.786C175.907 178.807 174.254 179.864 171.182 183.066C169.494 184.825 165.265 179.015 166.252 173.862C166.64 171.83 168.788 172.07 169.091 170.147C169.393 168.225 168.701 157.858 168.564 155.78C168.428 153.701 184.303 151.169 185.302 157.938Z" fill="#FFD2B3"/>
<path d="M168.881 160.926C168.752 158.617 168.616 156.581 168.564 155.778C168.428 153.7 184.303 151.168 185.302 157.937C185.302 157.937 185.106 158.64 184.775 159.73C180.268 157.266 170.791 159.631 168.881 160.926Z" fill="#FFB98B"/>
<path d="M183.595 125.072C183.595 125.072 187.46 138.072 187.197 144.642C186.934 151.213 185.439 158.128 185.259 158.128C185.283 157.907 185.821 155.839 179.471 155.541C172.245 155.203 165.693 156.541 165.418 157.848C163.851 157.681 167.801 151.616 166.863 141.429C165.925 131.243 158.563 127.63 158.563 127.63C158.563 127.63 160.459 125.769 159.84 123.843C159.84 123.843 178.88 127.375 183.595 125.072Z" fill="#6B78B7"/>
<path opacity="0.3" d="M183.595 125.072C183.595 125.072 187.46 138.072 187.197 144.642C186.934 151.213 185.439 158.128 185.259 158.128C185.283 157.907 185.821 155.839 179.471 155.541C172.245 155.203 165.693 156.541 165.418 157.848C163.851 157.681 167.801 151.616 166.863 141.429C165.925 131.243 158.563 127.63 158.563 127.63C158.563 127.63 160.459 125.769 159.84 123.843C159.84 123.843 178.88 127.375 183.595 125.072Z" fill="#6B78B7"/>
<path d="M168.428 153.7C168.428 153.7 171.24 155.863 177.603 148.847C184.295 141.468 171.039 141.218 170.736 141.261C170.434 141.304 165.463 149.957 168.428 153.7Z" fill="#070540"/>
<path d="M185.274 135.738C185.274 135.738 195.823 144.601 198.316 148.219C199.133 149.403 197.854 155.031 197.674 161.136C195.91 160.528 188.805 160.931 186.672 161.631C187.17 158.934 188.171 156.67 188.167 156.028C188.162 154.985 174.992 149.397 171.411 146.897C167.829 144.395 174.471 131.602 185.274 135.738Z" fill="#FFD2B3"/>
<path d="M185.274 135.738C185.274 135.738 185.695 136.092 186.383 136.682C186.336 136.696 186.289 136.707 186.241 136.723C180.427 138.731 178.052 144.436 177.423 150.182C174.911 148.931 172.616 147.738 171.41 146.896C167.829 144.395 174.471 131.602 185.274 135.738Z" fill="#FFB98B"/>
<path d="M185.274 135.738C186.514 134.699 163.442 121.18 159.019 123.603C155.213 125.688 157.104 134.706 158.403 139.024C160.626 146.419 165.169 148.846 168.428 153.7C167.606 152.699 167.772 150.164 172.015 146.514C176.856 142.352 177.355 135.783 185.274 135.738Z" fill="#6B78B7"/>
<path d="M188.821 183.487C188.443 179.05 186.367 168.981 186.399 161.488C186.44 161.256 191.655 158.649 197.85 160.961C197.507 169.461 196.354 179.375 196.076 186.155C195.951 189.198 197.411 192.919 197.377 193.654C197.377 193.654 192.615 197.109 187.711 188.591C188.168 188.203 189.143 187.29 188.821 183.487Z" fill="#E6E8F4"/>
<path d="M197.696 164.039C197.685 164.218 197.674 164.399 197.663 164.579C192.381 162.829 187.867 164.36 186.516 165.013C186.504 164.825 186.492 164.636 186.482 164.449C188.257 163.632 192.687 162.424 197.696 164.039Z" fill="#6B78B7"/>
<path d="M198.717 197.163C198.023 194.233 197.797 191.883 197.8 191.131C197.804 190.38 196.154 191.079 196.221 192.626C196.275 193.871 199.128 198.895 198.717 197.163Z" fill="#6B78B7"/>
<path d="M189.025 196.015C189.04 196.094 187.928 196.675 187.581 196.871C187.282 197.041 186.483 196.221 186.623 195.948C186.763 195.676 187.301 194.249 187.482 194.26C187.663 194.271 188.95 195.63 189.025 196.015Z" fill="#070540"/>
<path d="M194.163 201.344C194.163 201.416 193.083 201.734 192.744 201.848C192.451 201.946 191.883 201.081 192.052 200.865C192.221 200.648 192.935 199.482 193.093 199.523C193.252 199.565 194.16 200.99 194.163 201.344Z" fill="#070540"/>
<path d="M196.171 203.249C196.187 203.312 195.316 203.842 195.044 204.021C194.81 204.174 194.121 203.552 194.22 203.324C194.32 203.095 194.681 201.91 194.829 201.91C194.977 201.908 196.09 202.94 196.171 203.249Z" fill="#070540"/>
<path d="M198.613 205.477C198.632 205.532 197.901 206.069 197.675 206.247C197.479 206.402 196.823 205.905 196.894 205.696C196.965 205.486 197.197 204.41 197.326 204.397C197.457 204.385 198.517 205.211 198.613 205.477Z" fill="#070540"/>
<path d="M201.286 206.25C201.317 206.293 200.8 206.967 200.643 207.187C200.508 207.377 199.796 207.107 199.806 206.901C199.816 206.695 199.75 205.673 199.863 205.627C199.976 205.581 201.133 206.037 201.286 206.25Z" fill="#070540"/>
<path d="M187.337 194.011C187.353 194.09 186.241 194.67 185.894 194.867C185.594 195.037 184.796 194.216 184.936 193.944C185.076 193.671 185.614 192.245 185.795 192.255C185.975 192.267 187.261 193.625 187.337 194.011Z" fill="#070540"/>
<path d="M199.559 199.402C198.469 196.379 197.383 193.96 197.001 192.585C196.653 191.336 193.141 193.008 191.363 192.235C188.025 190.785 188.246 187.986 188.246 187.986C188.133 188.008 185.253 189.234 185.24 192.187C185.239 192.417 185.324 192.638 185.468 192.815C185.949 193.409 187.239 194.928 189.531 197.123C192.53 199.994 194.537 203.483 197.658 205.659C200.778 207.835 202.502 206.963 202.828 206.306C203.153 205.646 200.228 201.259 199.559 199.402Z" fill="#ACB3D8"/>
<path d="M147.514 96.9549C147.514 96.9549 143.822 98.3405 142.958 98.7377C142.093 99.1342 140.238 102.292 137.914 104.606C135.59 106.919 132.754 110.072 132.396 111.273C132.038 112.474 132.93 114.961 132.65 116.082C132.37 117.203 131.378 119.884 131.141 120.363C130.904 120.843 130.042 120.718 129.692 119.956C129.692 119.956 127.408 120.417 126.574 119.364C126.032 118.637 125.746 116.652 125.671 115.89C125.596 115.129 128.085 110.692 128.677 109.653C129.27 108.614 135.95 96.0615 137.838 94.6674C139.726 93.2733 141.687 93.0015 143.77 91.9692C143.77 91.9692 147.44 95.7124 147.514 96.9549Z" fill="#FFD2B3"/>
<path d="M126.574 119.364C126.372 119.092 126.205 118.644 126.071 118.151C126.531 118.208 127.172 118.22 127.897 118.044C129.349 117.69 130.676 114.55 129.981 116.551C129.286 118.551 129.692 119.956 129.692 119.956C129.692 119.956 127.408 120.417 126.574 119.364Z" fill="#FFB98B"/>
<path d="M143.771 91.9692C143.771 91.9692 147.44 95.7124 147.513 96.9549C147.513 96.9549 143.821 98.3405 142.957 98.7377C142.712 98.8503 142.384 99.1901 141.992 99.6652C141.993 99.6637 141.994 99.6616 141.994 99.6602C142.995 98.3667 141.506 93.434 139.784 93.5693C141.07 93.0071 142.393 92.6524 143.771 91.9692Z" fill="#FFB98B"/>
<path d="M189.803 99.314C189.803 99.314 191.622 99.457 192.195 96.0933C192.768 92.7296 184.545 90.3486 184.545 90.3486C184.545 90.3486 187.077 97.9957 189.803 99.314Z" fill="#00B09D"/>
<path d="M191.892 88.1977C191.892 88.1977 200.885 92.6468 202.236 93.0135C203.587 93.3802 205.314 101.031 204.525 100.992C201.791 100.855 187.373 96.0126 186.934 95.6798C186.494 95.3471 187.734 87.467 191.892 88.1977Z" fill="#FFD2B3"/>
<path opacity="0.4" d="M198.311 91.3001C200.112 92.1476 201.724 92.874 202.237 93.0128C203.588 93.3795 205.315 101.03 204.526 100.991C203.59 100.945 201.282 100.345 198.636 99.5646C200.767 99.6786 199.045 93.0829 198.311 91.3001Z" fill="#FFB98B"/>
<path d="M191.892 88.1977C191.892 88.1977 192.313 88.4058 192.984 88.7351C191.795 88.8993 190.626 96.2023 190.832 97.0895C188.658 96.3581 187.074 95.786 186.933 95.6791C186.494 95.3471 187.734 87.467 191.892 88.1977Z" fill="#FFB98B"/>
<path d="M205.087 93.3937C205.087 93.3937 205.23 94.176 206.517 95.8944C207.803 97.6134 207.116 100.195 205.525 100.818C203.935 101.442 201.764 100.05 201.126 98.0339C200.488 96.0176 200.497 94.004 200.497 94.004L205.087 93.3937Z" fill="#FFE5CF"/>
<path d="M205.965 89.8409C205.965 89.8409 205.806 93.1013 205.161 94.3056C204.216 96.0706 201.645 95.9531 200.316 95.1255C198.986 94.2978 198.37 91.6506 198.353 91.0091C198.336 90.3677 198.573 90.0484 199.554 89.8523C200.535 89.6562 205.965 89.8409 205.965 89.8409Z" fill="#FFB98B"/>
<path d="M204.235 90.8775C204.235 90.8775 204.003 92.0365 204.341 92.4606C204.68 92.8847 205.339 92.6659 205.608 91.9961C205.876 91.3263 206.09 90.0774 206.192 89.3439C206.294 88.6105 205.13 87.9612 204.775 88.5411C204.42 89.1202 204.335 90.4123 204.235 90.8775Z" fill="#FFE5CF"/>
<path d="M202.479 92.2928C202.479 92.2928 202.47 93.2514 203.136 93.4241C203.655 93.5594 204.156 93.2195 204.273 92.5052C204.39 91.7915 204.819 89.2108 204.76 88.4724C204.701 87.7332 203.341 87.4663 203.035 88.0745C202.564 89.0098 202.417 91.5628 202.479 92.2928Z" fill="#FFE5CF"/>
<path d="M200.672 91.8906C200.672 91.8906 200.667 93.1034 201.47 93.2974C201.996 93.4249 202.378 92.9271 202.498 92.2007C202.618 91.4743 203.088 88.6494 203.03 87.8982C202.973 87.147 201.454 87.0224 201.143 87.6419C200.666 88.5942 200.61 91.1472 200.672 91.8906Z" fill="#FFE5CF"/>
<path d="M199.122 90.8697C199.122 90.8697 199.299 91.9274 199.746 92.2283C200.194 92.5285 200.757 92.1122 200.815 91.3851C200.873 90.658 201.135 88.4306 201.016 87.6943C200.897 86.958 199.389 86.9679 199.134 87.6051C198.741 88.5857 198.999 90.1419 199.122 90.8697Z" fill="#FFE5CF"/>
<path d="M176.559 70.1734C176.559 70.1734 177.161 65.8263 171.716 65.1148C167.131 64.5278 164.57 67.8434 164.597 71.302C164.62 74.1418 163.888 74.5354 160.465 73.8394C157.042 73.1435 152.698 75.0013 152.653 79.2578C152.577 86.519 155.802 88.5021 163.209 89.9188C170.615 91.3355 175.065 82.1308 173.904 78.0237C172.744 73.9173 174.244 69.9256 176.559 70.1734Z" fill="#F07D18"/>
<path d="M183.595 125.072C183.595 125.072 187.445 123.406 186.672 120.678C185.9 117.949 182.223 111.462 183.189 105.535C184.155 99.6092 185.033 100.795 183.878 95.7407C183.878 95.7407 187.747 98.8835 189.803 99.3133C189.803 99.3133 188.043 98.2839 188.471 94.4989C188.899 90.7139 190.755 88.9036 191.892 88.197C191.892 88.197 186.273 85.7735 183.224 83.7168C180.175 81.6593 176.261 82.1846 171.524 82.8926C165.168 83.8428 157.823 82.4544 153.759 83.7918C149.695 85.1292 146.113 89.9826 141.723 92.8195C140.659 93.507 145.63 100.418 149.695 98.834C150.428 98.5479 153.411 96.5032 153.941 96.1769C154.472 95.8505 157.514 98.0085 158.691 105.44C159.356 109.637 159.016 119.552 158.48 121.233C157.944 122.914 158.378 123.587 159.841 123.843C161.304 124.1 174.541 128.878 183.595 125.072Z" fill="#5BCFDE"/>
<g opacity="0.5">
<path d="M187.9 98.5125C185.973 97.442 183.878 95.7414 183.878 95.7414C183.878 95.7414 182.557 91.5161 182.602 89.9542C182.649 88.4037 186.32 97.6898 187.9 98.5125Z" fill="#00B09D"/>
<path d="M188.089 98.6159C188.041 98.5904 187.993 98.5649 187.945 98.538C188.293 98.6945 188.295 98.7058 188.089 98.6159Z" fill="#00B09D"/>
<path d="M171.443 82.9033C171.47 82.899 171.497 82.8969 171.524 82.8934C174.622 82.4303 177.365 82.0508 179.747 82.4154C178.555 82.2894 175.127 82.5259 177.682 83.7472C180.432 85.0613 182.052 88.7358 179.853 89.5167C177.655 90.2976 171.541 87.1329 171.541 87.1329C171.073 85.6524 171.138 84.1996 171.443 82.9033Z" fill="#00B09D"/>
</g>
<path d="M176.56 81.3131C175.757 81.6841 174.455 81.8986 173.7 81.9758C173.729 82.3956 174.268 85.3006 174.017 86.9212C173.692 89.0303 166.186 84.7625 166.457 83.2488C166.457 83.2488 168.475 79.444 167.726 76.675C167.726 76.675 177.363 80.9421 176.56 81.3131Z" fill="#FFB98B"/>
<path opacity="0.33" d="M170.125 77.7632C170.123 77.7646 170.123 77.7667 170.121 77.7681C169.958 77.6881 169.782 77.6471 169.602 77.6683C168.942 77.7455 168.352 77.9763 167.876 78.4528C167.912 77.8446 167.878 77.2386 167.726 76.6757C167.726 76.6757 168.762 77.1345 170.125 77.7632Z" fill="#FFB98B"/>
<path opacity="0.33" d="M169.566 79.405C169.566 79.405 177.207 81.0143 176.56 81.3131C175.757 81.6841 174.455 81.8986 173.7 81.9758C170.832 81.1913 169.566 79.405 169.566 79.405Z" fill="#FFB98B"/>
<path d="M176.315 69.3946C177.184 71.1639 177.116 80.0267 177.003 80.9159C176.931 81.4837 175.402 81.5666 174.322 81.3365C172.285 80.9017 170.025 79.7789 169.713 79.5537C169.237 79.2096 169.072 77.9862 169.021 77.3426C168.576 77.6612 167.609 77.1677 167.319 76.1404C167.235 75.705 168.455 75.2979 168.981 75.4629C169.379 75.9103 169.655 76.4293 169.711 76.6629C169.226 72.9636 172.249 72.6727 171.81 69.823C171.596 68.4332 174.615 69.2997 174.909 69.1419C175.204 68.9833 175.447 67.6253 176.315 69.3946Z" fill="#FFD2B3"/>
<path opacity="0.5" d="M160.407 102.863C162.336 105.757 168.615 108.911 168.786 110.054C168.958 111.196 159.288 106.887 159.03 110.009C158.984 108.242 158.876 106.616 158.69 105.44C157.513 98.0085 154.47 95.8505 153.94 96.1769C153.94 96.1769 157.447 93.4737 158.388 93.5382C159.329 93.6019 158.479 99.9696 160.407 102.863Z" fill="#00B09D"/>
<path d="M182.611 52.5209L183.872 49.194L181.733 47.5606L178.304 48.8442L177.126 51.7945L179.244 53.6905L182.611 52.5209Z" fill="#F4F3F3"/>
<path d="M177.332 51.6104L178.36 49.0347C178.384 48.9759 178.43 48.9299 178.489 48.9086L181.6 47.744C181.67 47.7178 181.749 47.7291 181.808 47.7751L183.59 49.1359C183.669 49.1961 183.7 49.3037 183.664 49.3979L182.554 52.324C182.531 52.3863 182.482 52.4345 182.42 52.4557L179.392 53.5078C179.317 53.534 179.235 53.517 179.176 53.4639L177.391 51.866C177.32 51.8015 177.296 51.6996 177.332 51.6104Z" fill="white"/>
<path d="M177.126 51.7944L175.227 54.2788L176.104 57.5477L178.552 57.256L179.244 53.6905L177.126 51.7944Z" fill="#070540"/>
<path d="M183.872 49.194L187.375 49.72L188.149 48.818C186.524 47.3638 184.495 46.6862 182.494 46.7528L181.733 47.5599L183.872 49.194Z" fill="#F4F3F3"/>
<path d="M182.641 46.8746C184.523 46.8455 186.337 47.482 187.799 48.6814C187.897 48.7614 187.907 48.9094 187.824 49.0056L187.406 49.4935C187.357 49.5508 187.282 49.5791 187.208 49.5678L183.975 49.0821C183.939 49.0764 183.904 49.0623 183.875 49.0396L182.117 47.6973C182.011 47.6158 181.998 47.458 182.09 47.3603L182.483 46.944C182.525 46.9015 182.582 46.876 182.641 46.8746Z" fill="white"/>
<path d="M181.733 47.5606L182.494 46.7535C180.847 46.8087 179.22 47.368 177.852 48.418L178.304 48.8442L181.733 47.5606Z" fill="#070540"/>
<path d="M177.126 51.7944L178.304 48.8442L177.852 48.418C177.407 48.76 176.989 49.1522 176.608 49.5975C175.485 50.9066 174.836 52.472 174.642 54.0785L175.226 54.2795L177.126 51.7944Z" fill="#F4F3F3"/>
<path d="M174.954 54.0523C174.852 54.0176 174.789 53.9121 174.805 53.8038C175.043 52.2738 175.695 50.8528 176.701 49.6797C177.004 49.3264 177.338 48.9979 177.696 48.7012C177.781 48.6311 177.904 48.6368 177.984 48.7125L178.047 48.7713C178.115 48.835 178.136 48.9348 178.101 49.0219L177.031 51.7024C177.023 51.7215 177.013 51.7399 177.001 51.7562L175.28 54.0062C175.223 54.0813 175.125 54.1117 175.037 54.0813L174.954 54.0523Z" fill="white"/>
<path d="M175.227 54.2788L174.644 54.0777C174.399 56.1196 174.894 58.2259 176.099 59.952L176.104 57.5477L175.227 54.2788Z" fill="#F4F3F3"/>
<path d="M175.562 58.8015C174.914 57.4875 174.623 56.017 174.724 54.533C174.733 54.3872 174.879 54.2916 175.014 54.3383C175.084 54.3624 175.137 54.4197 175.156 54.4919L175.973 57.5349C175.979 57.5548 175.981 57.5746 175.981 57.5951L175.978 58.6982C175.978 58.9339 175.666 59.0118 175.562 58.8015Z" fill="white"/>
<path d="M181.226 59.6504L179.889 58.4532L178.551 57.256L176.103 57.5477L176.098 59.952C176.459 60.4696 176.882 60.9538 177.37 61.3914C177.858 61.8282 178.383 62.1928 178.933 62.4909L181.264 62.1695L181.226 59.6504Z" fill="#F4F3F3"/>
<path d="M177.452 61.2965C177.013 60.9036 176.614 60.459 176.265 59.9726C176.236 59.9329 176.221 59.8855 176.222 59.8366L176.227 57.8592C176.227 57.7452 176.311 57.6489 176.421 57.6362L178.415 57.3983C178.477 57.3912 178.539 57.4103 178.586 57.4528L181.031 59.6426C181.078 59.6844 181.105 59.7446 181.107 59.8083L181.138 61.8594C181.14 61.9734 181.058 62.0711 180.947 62.0859L179.03 62.3507C178.982 62.3571 178.934 62.3486 178.892 62.3252C178.374 62.035 177.89 61.6895 177.452 61.2965Z" fill="white"/>
<path d="M185.285 54.9153L183.948 53.7181L182.611 52.5209L179.244 53.6905L178.552 57.256L179.889 58.4532L181.226 59.6504L184.593 58.4808L185.285 54.9153Z" fill="#F4F3F3"/>
<path d="M178.71 57.0818L179.325 53.9135C179.341 53.8349 179.396 53.7698 179.471 53.7443L182.463 52.7042C182.538 52.678 182.62 52.695 182.679 52.7481L185.056 54.8764C185.116 54.9295 185.143 55.0109 185.127 55.0895L184.511 58.2578C184.496 58.3364 184.441 58.4015 184.366 58.427L181.374 59.4663C181.299 59.4925 181.217 59.4755 181.158 59.4224L178.781 57.2942C178.722 57.2418 178.695 57.1604 178.71 57.0818Z" fill="white"/>
<path d="M185.285 54.9153L188.347 53.2005L190.212 55.1525L189.418 58.7944L186.711 60.3768L184.593 58.4808L185.285 54.9153Z" fill="#F4F3F3"/>
<path d="M184.752 58.3066L185.374 55.1008C185.387 55.0357 185.427 54.979 185.484 54.9472L188.176 53.4384C188.263 53.3896 188.371 53.4066 188.44 53.4788L189.994 55.1051C190.046 55.1596 190.068 55.2375 190.052 55.3111L189.331 58.6167C189.318 58.6783 189.279 58.7321 189.225 58.7633L186.862 60.1446C186.78 60.192 186.678 60.1821 186.607 60.1184L184.823 58.5205C184.764 58.4666 184.737 58.3852 184.752 58.3066Z" fill="white"/>
<path d="M187.375 49.72L183.872 49.194L182.611 52.5209L183.948 53.7181L185.285 54.9153L188.347 53.2005L187.375 49.72Z" fill="#070540"/>
<path d="M186.711 60.3768L184.551 62.6276L181.265 62.1688L181.226 59.6504L184.593 58.4808L186.711 60.3768Z" fill="#070540"/>
<path d="M188.347 53.2005L187.376 49.72L188.149 48.818C189.774 50.2723 190.697 52.2391 190.896 54.2746L190.213 55.1525L188.347 53.2005Z" fill="#F4F3F3"/>
<path d="M188.441 53.0809L187.545 49.8694C187.524 49.7958 187.542 49.7165 187.592 49.6591L188.01 49.1713C188.092 49.0757 188.238 49.0665 188.328 49.155C189.684 50.479 190.54 52.2327 190.759 54.1429C190.766 54.2031 190.748 54.264 190.711 54.3114L190.359 54.7638C190.277 54.87 190.122 54.8778 190.029 54.7808L188.496 53.1765C188.469 53.1496 188.451 53.1163 188.441 53.0809Z" fill="white"/>
<path d="M190.212 55.1525L190.895 54.2746C191.059 55.9504 190.73 57.673 189.892 59.1966L189.418 58.7944L190.212 55.1525Z" fill="#070540"/>
<path d="M186.711 60.3768L189.418 58.7952L189.892 59.1973C189.619 59.6929 189.292 60.168 188.911 60.6126C187.789 61.9217 186.356 62.7861 184.823 63.1925L184.551 62.6276L186.711 60.3768Z" fill="#F4F3F3"/>
<path d="M184.809 62.5377L186.765 60.4993C186.78 60.4845 186.796 60.4717 186.813 60.4618L189.272 59.0246C189.352 58.9778 189.452 58.987 189.522 59.0472L189.587 59.1024C189.671 59.1739 189.693 59.2978 189.636 59.3934C189.395 59.7949 189.121 60.1765 188.818 60.5305C187.812 61.7043 186.519 62.5518 185.066 62.9936C184.964 63.0248 184.853 62.9738 184.805 62.8754L184.767 62.7961C184.727 62.709 184.743 62.6056 184.809 62.5377Z" fill="white"/>
<path d="M184.551 62.6276L184.823 63.1925C182.875 63.7101 180.767 63.4842 178.934 62.4909L181.265 62.1695L184.551 62.6276Z" fill="#F4F3F3"/>
<path d="M181.295 62.299L184.354 62.726C184.426 62.7359 184.489 62.7826 184.521 62.8499C184.584 62.9815 184.511 63.1416 184.37 63.1706C182.945 63.4672 181.482 63.3667 180.124 62.8846C179.904 62.8067 179.936 62.4782 180.166 62.447L181.235 62.2998C181.255 62.2962 181.275 62.2962 181.295 62.299Z" fill="white"/>
</svg>
