<svg width="300" height="300" viewBox="0 0 300 300" fill="none" xmlns="http://www.w3.org/2000/svg">
<path d="M139.195 26.1182C138.863 28.0354 138.699 29.972 138.701 31.9278C138.705 33.3497 137.524 35.09 136.863 36.38C136.838 36.4297 136.824 36.4836 136.821 36.5386C136.818 36.5936 136.828 36.6485 136.848 36.7001C136.869 36.7517 136.901 36.7989 136.942 36.8389C136.982 36.879 137.031 36.911 137.086 36.9333L139.014 37.7342C139.137 37.7857 139.195 37.8747 139.188 38.0012C139.056 40.3517 139.125 42.6957 139.396 45.0333C139.412 45.1598 139.484 45.2488 139.612 45.3003C139.952 45.4354 140.323 45.4805 140.723 45.4354C142.565 45.2252 144.43 45.1341 146.32 45.162C146.438 45.162 146.528 45.2102 146.588 45.3067C146.984 45.9501 147.197 46.6492 147.227 47.4041" stroke="#FEE5D2" stroke-width="2"/>
<path d="M147.227 47.4043L144.882 49.0127" stroke="#8EBADD" stroke-width="2"/>
<path d="M144.882 49.0127C141.598 51.213 138.968 52.9105 136.992 54.105C131.767 57.2639 131.725 62.3595 133.011 67.4292C133.038 67.5365 133.027 67.6394 132.976 67.738C130.561 72.4604 128.418 76.4493 127.372 82.082C127.219 82.912 126.633 83.6883 125.614 84.411" stroke="#FEE5D2" stroke-width="2"/>
<path d="M125.614 84.4113L124.471 82.2271" stroke="#C8C8C8" stroke-width="2"/>
<path d="M124.471 82.2268C123.938 80.8865 123.326 79.5762 122.633 78.2958C120.774 74.857 115.827 74.8216 112.659 74.6158C112.552 74.6093 112.484 74.6533 112.454 74.7476L111.71 77.0541C111.666 77.1914 111.568 77.2589 111.415 77.2568L105.849 77.2214C105.708 77.2193 105.592 77.1689 105.502 77.0702L102.945 74.3327C102.868 74.249 102.772 74.1954 102.656 74.1718C102.237 74.0903 101.779 74.0496 101.281 74.0496C98.7768 74.0474 96.4179 74.159 94.2036 74.3841C94.0925 74.3949 93.9871 74.4238 93.8875 74.471L93.4636 74.6672" stroke="#E7E7E7" stroke-width="2"/>
<path d="M93.4636 74.6672C92.4283 75.7738 90.8962 77.5688 90.9587 78.862" stroke="#C8C8C8" stroke-width="2"/>
<path d="M90.9587 78.8621C91.0074 80.1778 90.7746 81.8216 91.3687 83.0279C93.1892 86.7444 94.9992 90.4631 96.7989 94.184C98.2337 97.1467 99.5122 98.7873 102.931 99.2216" stroke="#B8B8B8" stroke-width="2"/>
<path d="M102.931 99.2214L103.191 101.287" stroke="#8C8C8C" stroke-width="2"/>
<path d="M103.191 101.287L102.844 101.473" stroke="#B8B8B8" stroke-width="2"/>
<path d="M102.844 101.473C100.061 101.396 90.1597 101.197 88.5546 103.764C87.686 105.153 87.8065 106.382 88.9159 107.45C91.5308 109.968 94.8371 112.502 98.8348 115.052" stroke="#E7E7E7" stroke-width="2"/>
<path d="M98.8347 115.052C99.0918 115.82 99.21 116.554 99.7658 117.197C100.567 118.128 101.464 118.978 102.455 119.748C103.608 120.646 105.269 120.449 106.627 120.118" stroke="#FEE5D2" stroke-width="2"/>
<path d="M106.627 120.118L112.492 123.599" stroke="#E7E7E7" stroke-width="2"/>
<path d="M112.492 123.599C113.747 131.068 114.472 136.127 114.667 138.776C114.961 142.718 115.045 148.435 114.92 155.928C114.847 160.342 114.823 165.621 114.642 170.462" stroke="#C8C8C8" stroke-width="2"/>
<path d="M114.642 170.462L111.703 170.716" stroke="#B8B8B8" stroke-width="2"/>
<path d="M111.703 170.716C106.214 171.066 100.963 172.331 95.9512 174.512" stroke="#BFBFBF" stroke-width="2"/>
<path d="M95.9512 174.512L89.0409 174.676" stroke="#C8C8C8" stroke-width="2"/>
<path d="M89.041 174.676C87.2158 174.539 85.3282 174.511 83.378 174.593C83.2622 174.597 83.1614 174.634 83.0757 174.705C79.6826 177.469 77.5772 180.948 76.7596 185.141" stroke="#D7D7D7" stroke-width="2"/>
<path d="M76.7596 185.141C76.4284 186.164 76.2443 187.409 76.2072 188.875C76.037 195.409 76.0335 203.493 80.5986 208.711C80.9738 209.142 82.1296 210.188 84.0659 211.85C86.1736 213.66 88.0589 215.656 89.7219 217.837C89.7737 217.904 89.8104 217.98 89.8301 218.061C89.8498 218.142 89.852 218.225 89.8366 218.306C88.382 226.151 87.21 234.024 86.3207 241.925C85.9362 245.328 85.8829 248.259 86.1608 250.716C86.5951 254.551 89.6073 260.248 94.0264 261.464C110.758 266.07 127.507 270.608 144.274 275.078" stroke="#C8C8C8" stroke-width="2"/>
<path d="M144.274 275.078C144.515 275.091 144.709 275.183 144.858 275.355C147.757 278.732 151.558 280.579 156.26 280.894" stroke="#B8B8B8" stroke-width="2"/>
<path d="M156.26 280.894C157.724 281.432 159.219 281.707 160.745 281.717" stroke="#D7D7D7" stroke-width="2"/>
<path d="M160.745 281.717C169.493 282.573 172.318 279.813 176.945 273.724" stroke="#C8C8C8" stroke-width="2"/>
<path d="M176.945 273.723C185.089 271.459 193.22 269.153 201.338 266.807C201.44 266.777 201.642 266.773 201.946 266.794" stroke="#B8B8B8" stroke-width="2"/>
<path d="M201.946 266.794C203.901 267.515 205.883 267.707 207.894 267.37" stroke="#D7D7D7" stroke-width="2"/>
<path d="M207.894 267.37C208.531 267.424 209.127 267.376 209.683 267.228C218.018 265.018 225.772 257.764 225.237 249.352C224.639 239.937 217.25 231.258 210.43 224.451C204.25 218.283 198.322 212.833 192.645 208.103" stroke="#C8C8C8" stroke-width="2"/>
<path d="M192.645 208.103C192.641 208.083 192.637 208.067 192.635 208.055C192.63 208.04 192.638 208.012 192.659 207.971C195.279 202.8 197.132 197.187 198.218 191.131C201.265 174.142 200.442 155.639 189.154 141.295C186.008 137.297 182.186 133.026 177.685 128.479" stroke="#D7D7D7" stroke-width="2"/>
<path d="M177.685 128.479C178.051 127.349 178.439 126.186 178.849 124.992C181.681 116.75 179.492 108.766 174.92 101.541" stroke="#8C8C8C" stroke-width="2"/>
<path d="M174.92 101.541C174.925 101.367 175.013 101.182 175.184 100.984C177.463 98.3464 178.797 95.2893 179.186 91.813C179.74 86.8826 179.941 80.8499 179.791 73.7149C179.744 71.5918 179.214 69.1202 178.2 66.3" stroke="#FEE5D2" stroke-width="2"/>
<path d="M178.2 66.3002L177.96 65.5925" stroke="#8EBADD" stroke-width="2"/>
<path d="M177.96 65.5924L178.029 65.4927C178.064 65.4477 178.082 65.3973 178.082 65.3415C178.114 62.0024 176.818 59.1555 174.194 56.8008C173.119 55.8357 172.11 55.1001 171.168 54.594" stroke="#FEE5D2" stroke-width="2"/>
<path d="M171.168 54.594C168.785 51.3514 165.369 48.3115 162.267 45.6479" stroke="#8EBADD" stroke-width="2"/>
<path d="M162.267 45.6479C161.702 45.1633 161.35 44.6271 161.211 44.0395C161.069 43.439 161.056 42.7528 161.169 41.9807" stroke="#FEE5D2" stroke-width="2"/>
<path d="M161.169 41.9807C162.38 37.2069 163.17 33.9193 163.538 32.1178C164.247 28.6532 164.226 22.0748 160.408 19.9227C154.485 16.5868 146.668 16.6415 140.967 20.7269C139.088 22.0715 138.497 23.8687 139.195 26.1184" stroke="#8C8C8C" stroke-width="2"/>
<path d="M161.169 41.9806C157.459 42.8813 157.278 43.2641 154.422 40.6102C152.548 38.8666 151.261 37.5338 150.559 36.6116C150.353 36.3457 150.092 35.6391 149.777 34.4917C149.749 34.3888 149.763 34.2901 149.819 34.1957C150.795 32.5262 150.517 29.6278 147.79 29.8594C146.167 29.9977 145.594 32.5905 145.302 33.7679C145.275 33.873 145.204 33.932 145.09 33.9448L144.604 33.9963C144.47 34.0113 144.379 33.9598 144.333 33.8419C143.877 32.6774 143.416 31.515 142.95 30.3548C142.262 28.6467 143.193 24.291 139.195 26.1182" stroke="#8B725F" stroke-width="2"/>
<path d="M162.267 45.6479C163.403 47.0119 168.197 51.1359 165.494 52.8248C162.357 54.7838 157.552 50.8142 154.669 49.6755C152.262 48.7211 149.782 47.9641 147.227 47.4044" stroke="#8D9FB0" stroke-width="2"/>
<path d="M171.168 54.594C173.068 58.6408 174.548 61.8191 177.96 65.5924" stroke="#8D9FB0" stroke-width="2"/>
<path d="M178.2 66.3C177.141 71.7902 176.141 77.2749 175.198 82.7543C174.964 84.1161 174.847 85.4983 174.847 86.9008C174.847 91.7776 174.847 96.6533 174.847 101.528" stroke="#8D9FB0" stroke-width="2"/>
<path d="M174.847 101.528C170.646 102.358 166.422 102.614 162.177 102.297C156.642 101.885 151.598 99.4628 145.938 100.335" stroke="#1B476A" stroke-width="2"/>
<path d="M145.938 100.335C145.233 95.9758 145.288 90.8996 145.143 87.3868C145.028 84.675 143.464 82.4329 142.349 79.988" stroke="#8EBADD" stroke-width="2"/>
<path d="M142.349 79.9879L145.316 76.3978C145.386 76.3142 145.474 76.252 145.58 76.2113C149.166 74.8827 152.619 72.3703 153.199 68.5648C154.116 62.5332 150.885 52.4065 144.882 49.0127" stroke="#8D9FB0" stroke-width="2"/>
<path d="M174.92 101.541C174.895 101.537 174.87 101.532 174.847 101.528" stroke="#8B725F" stroke-width="2"/>
<path d="M177.685 128.479C177.197 130.27 176.973 132.006 177.015 133.687" stroke="#646464" stroke-width="2"/>
<path d="M177.015 133.687C176.633 140.305 176.474 146.919 176.539 153.529C176.541 153.636 176.504 153.731 176.428 153.815C175.916 154.385 175.302 154.845 174.586 155.195" stroke="#8C8C8C" stroke-width="2"/>
<path d="M174.586 155.195C174.336 155.083 174.255 154.754 174.343 154.207C174.351 154.158 174.348 154.108 174.333 154.06C174.319 154.012 174.293 153.968 174.258 153.93C174.224 153.892 174.181 153.862 174.133 153.841C174.084 153.82 174.032 153.809 173.978 153.808C170.289 153.781 166.553 153.698 162.771 153.561C161.645 153.52 160.186 153.725 158.393 154.175C158.287 154.201 158.253 154.262 158.292 154.359L159.55 157.379" stroke="#8B725F" stroke-width="2"/>
<path d="M159.55 157.379C157.743 157.24 156.053 156.855 154.478 156.224C154.371 156.182 154.285 156.115 154.221 156.025C153.481 154.992 152.32 153.789 152.067 152.564C151.268 148.74 150.592 144.93 150.041 141.134C150.036 141.096 150.019 141.06 149.992 141.03C149.965 141 149.93 140.979 149.89 140.967C149.85 140.956 149.806 140.955 149.766 140.965C149.725 140.975 149.688 140.996 149.659 141.025L145.198 145.564" stroke="#8C8C8C" stroke-width="2"/>
<path d="M145.198 145.564C140.499 138.317 134.619 132.015 127.56 126.658" stroke="#747474" stroke-width="2"/>
<path d="M127.56 126.658C128.715 124.593 129.88 122.546 131.055 120.517C133.848 115.676 135.352 112.945 139.271 110.056" stroke="#8C8C8C" stroke-width="2"/>
<path d="M139.271 110.056C140.612 109.136 141.696 107.986 142.523 106.607" stroke="#646464" stroke-width="2"/>
<path d="M145.938 100.334C144.977 102.509 143.839 104.6 142.523 106.607" stroke="#8C8C8C" stroke-width="2"/>
<path d="M142.523 106.607C137.187 104.581 131.058 102.358 125.339 101.608" stroke="#D7D7D7" stroke-width="2"/>
<path d="M142.349 79.988C140.98 81.5225 139.334 82.8929 138.271 84.601C136.221 87.8983 134.355 91.5012 131.899 94.4285C129.907 96.8047 127.778 99.0715 125.513 101.229C125.43 101.306 125.367 101.506 125.339 101.609" stroke="#FEE5D2" stroke-width="2"/>
<path d="M125.34 101.608C123.769 102.792 122.342 104.091 121.059 105.504" stroke="#D6BDAA" stroke-width="2"/>
<path d="M121.059 105.504C119.527 106.25 117.655 108.161 116.307 109.274" stroke="#FEE5D2" stroke-width="2"/>
<path d="M116.307 109.274L111.599 112.983C111.506 113.056 111.451 113.148 111.432 113.26L110.974 115.792" stroke="#C7AE9B" stroke-width="2"/>
<path d="M110.974 115.792C109.663 116.754 108.151 117.51 106.44 118.059C106.333 118.094 106.224 118.104 106.113 118.092C105.942 118.07 105.819 118.127 105.745 118.262C105.692 118.359 105.692 118.454 105.745 118.548L106.627 120.118" stroke="#E5CCBA" stroke-width="2"/>
<path d="M98.8347 115.052C99.0119 114.203 98.6332 112.482 99.54 112.067C100.073 111.822 101.171 111.447 102.834 110.941" stroke="#E5CCBA" stroke-width="2"/>
<path d="M102.834 110.941C104.397 110.407 105.95 109.897 107.493 109.413C108.566 109.075 108.979 108.303 109.372 107.412" stroke="#FEE5D2" stroke-width="2"/>
<path d="M109.372 107.412L111.439 104.635" stroke="#B69D8B" stroke-width="2"/>
<path d="M111.439 104.636L114.556 100.174" stroke="#C7AE9B" stroke-width="2"/>
<path d="M114.556 100.174L116.046 97.8545" stroke="#B69D8B" stroke-width="2"/>
<path d="M116.046 97.8544C117.842 94.9946 119.329 91.6973 121.33 89.1978C122.595 87.6194 123.982 86.1364 125.492 84.7489C125.553 84.6953 125.587 84.6299 125.597 84.5527L125.614 84.4111" stroke="#C7AE9B" stroke-width="2"/>
<path d="M192.645 208.103C191.099 209.682 189.873 208.678 188.459 207.739C188.355 207.67 188.304 207.576 188.306 207.456C188.318 206.78 188.578 206.191 189.088 205.687C189.176 205.599 189.209 205.495 189.189 205.375C189.172 205.282 189.14 205.203 189.091 205.137" stroke="#A0A0A0" stroke-width="2"/>
<path d="M189.091 205.137C189.131 205.135 189.17 205.13 189.209 205.124C189.293 205.115 189.351 205.075 189.383 205.002C190.986 201.285 192.222 197.466 193.09 193.543C195.112 184.43 195.942 174.905 194.813 165.637C193.625 155.87 188.935 147.864 182.567 140.069C180.447 137.474 178.597 135.347 177.015 133.687" stroke="#D7D7D7" stroke-width="2"/>
<path d="M145.198 145.564C151.57 155.858 153.488 166.895 153.755 178.604C153.757 178.692 153.798 178.762 153.877 178.813L154.002 178.894" stroke="#E7E7E7" stroke-width="2"/>
<path d="M154.002 178.894C153.967 178.896 153.933 178.901 153.901 178.91C153.857 178.923 153.836 178.949 153.838 178.99L154.016 183.33" stroke="#B0B0B0" stroke-width="2"/>
<path d="M154.016 183.33L153.929 186.627" stroke="#BFBFBF" stroke-width="2"/>
<path d="M153.929 186.627C153.811 190.129 153.518 193.566 153.05 196.937" stroke="#A7A7A7" stroke-width="2"/>
<path d="M153.05 196.937L152.407 200.72C152.384 200.859 152.446 200.913 152.595 200.881L164.685 198.275" stroke="#B0B0B0" stroke-width="2"/>
<path d="M164.685 198.275L164.984 198.24C165.132 198.22 165.206 198.28 165.206 198.42V200.935C165.206 201.047 165.146 201.105 165.025 201.109L162.861 201.196" stroke="#A7A7A7" stroke-width="2"/>
<path d="M162.861 201.196L151.924 203.219C151.891 203.225 151.861 203.24 151.836 203.262C151.812 203.283 151.796 203.311 151.789 203.342C151.082 206.516 150.059 209.603 148.717 212.603" stroke="#9F9F9F" stroke-width="2"/>
<path d="M148.717 212.603C147.981 214.083 146.727 216.746 144.788 217.049C142.456 217.413 141.162 216.503 140.907 214.318C140.896 214.211 140.916 214.11 140.967 214.015L142.61 210.914" stroke="#B0B0B0" stroke-width="2"/>
<path d="M142.61 210.914C143.624 208.909 144.463 206.844 145.125 204.719C145.167 204.583 145.112 204.53 144.962 204.558L137.239 206.021" stroke="#9F9F9F" stroke-width="2"/>
<path d="M137.239 206.021L135.734 204.757C135.628 204.669 135.644 204.609 135.783 204.577L145.143 202.402" stroke="#B0B0B0" stroke-width="2"/>
<path d="M145.143 202.402C145.603 202.46 145.893 202.242 146.011 201.746C147.229 196.625 147.862 191.94 147.908 187.692" stroke="#76A1C5" stroke-width="2"/>
<path d="M147.908 187.692L147.898 184.124C147.898 184.002 147.832 183.934 147.7 183.922L144.027 183.571" stroke="#9F9F9F" stroke-width="2"/>
<path d="M144.027 183.571L143.072 180.113" stroke="#E7E7E7" stroke-width="2"/>
<path d="M143.072 180.113L143.232 179.643" stroke="#E5CCBA" stroke-width="2"/>
<path d="M143.232 179.643L145.452 179.656" stroke="#A7A7A7" stroke-width="2"/>
<path d="M145.452 179.656C146.235 180.119 146.935 180.695 147.554 181.383C147.566 181.399 147.584 181.41 147.604 181.415C147.624 181.42 147.645 181.419 147.665 181.412C147.684 181.405 147.701 181.393 147.712 181.377C147.723 181.361 147.729 181.341 147.727 181.322L147.647 178.665" stroke="#BFBFBF" stroke-width="2"/>
<path d="M147.647 178.665L147.297 174.178" stroke="#B0B0B0" stroke-width="2"/>
<path d="M147.297 174.178C146.612 165.46 144.496 156.842 140.272 148.993C140.214 148.883 140.129 148.798 140.018 148.735" stroke="#E7E7E7" stroke-width="2"/>
<path d="M140.018 148.736C140.14 148.639 140.067 148.62 140.025 148.546C136.321 141.896 130.971 136.531 124.659 131.86" stroke="#747474" stroke-width="2"/>
<path d="M124.659 131.86L119.395 128.038" stroke="#E7E7E7" stroke-width="2"/>
<path d="M119.395 128.038C117.162 126.466 114.861 124.986 112.492 123.599" stroke="#B0B0B0" stroke-width="2"/>
<path d="M127.56 126.658L118.29 120.44" stroke="#E7E7E7" stroke-width="2"/>
<path d="M118.29 120.44L116.307 109.274" stroke="#C8C8C8" stroke-width="2"/>
<path d="M159.55 157.379C159.923 158.55 160.319 159.707 160.738 160.85C162.243 164.968 165.178 168.394 166.273 172.65C167.336 176.793 168.305 181.287 170.64 185.012C172.375 187.781 173.739 190.706 174.732 193.788" stroke="#FEE5D2" stroke-width="2"/>
<path d="M174.732 193.788L154.002 178.894" stroke="#C8C8C8" stroke-width="2"/>
<path d="M189.091 205.137L183.463 200.623C183.45 200.613 183.433 200.605 183.416 200.603C183.398 200.6 183.38 200.602 183.364 200.608C183.348 200.615 183.333 200.625 183.323 200.639C183.313 200.652 183.307 200.668 183.307 200.685L183.098 203.985" stroke="#C8C8C8" stroke-width="2"/>
<path d="M183.098 203.985C182.261 204.265 181.705 204.497 181.153 205.22C180.684 205.841 179.572 207.283 178.662 206.913C177.636 206.497 176.62 205.739 175.615 204.641" stroke="#8EBADD" stroke-width="2"/>
<path d="M175.615 204.641C176.032 202.686 176.039 200.822 175.636 199.051" stroke="#D7D7D7" stroke-width="2"/>
<path d="M175.636 199.05L175.729 198.208" stroke="#C8C8C8" stroke-width="2"/>
<path d="M175.729 198.207C178.249 198.351 180.767 198.344 183.282 198.185C183.403 198.179 183.467 198.12 183.473 198.008C183.809 193.359 183.924 188.705 183.817 184.047C183.755 181.321 183.536 179.194 183.161 177.665C181.973 172.823 178.815 168.065 176.358 163.993C175.726 162.949 175.301 162.006 175.083 161.165C174.578 159.214 174.413 157.224 174.586 155.195" stroke="#FEE5D2" stroke-width="2"/>
<path d="M139.271 110.056C133.507 107.926 127.028 106.421 121.059 105.504" stroke="#D7D7D7" stroke-width="2"/>
<path d="M175.729 198.208C175.566 196.795 175.42 195.068 174.732 193.788" stroke="#C7AE9B" stroke-width="2"/>
<path d="M104.074 81.5964L106.951 87.4061C106.997 87.5004 107.077 87.5476 107.19 87.5476H119.326C119.347 87.5479 119.369 87.5432 119.388 87.534C119.408 87.5247 119.424 87.5112 119.437 87.4944C119.45 87.4777 119.458 87.4583 119.461 87.4379C119.464 87.4175 119.461 87.3966 119.454 87.3771L117.349 82.0918" stroke="#555555" stroke-width="2"/>
<path d="M116.046 97.8544C112.134 97.6914 108.216 97.5284 104.293 97.3655C102.253 97.2818 100.537 96.6224 99.6338 95.0107C98.0172 92.1348 95.3849 87.0265 91.7369 79.6856C91.5667 79.3446 91.6918 78.7463 90.9587 78.8621" stroke="#818181" stroke-width="2"/>
<path d="M111.439 104.635C110.862 103.085 109.788 102 108.215 101.38" stroke="#818181" stroke-width="2"/>
<path d="M114.556 100.174C112.42 99.927 110.278 99.8466 108.128 99.9324" stroke="#818181" stroke-width="2"/>
<path d="M108.128 99.9324C107.704 99.6107 103.827 99.3758 102.931 99.2214" stroke="#454545" stroke-width="2"/>
<path d="M118.29 120.44C115.782 118.982 113.343 117.432 110.974 115.792" stroke="#B0B0B0" stroke-width="2"/>
<path d="M102.75 106.157L95.3189 106.138C95.2866 106.138 95.2554 106.147 95.2298 106.165C95.2042 106.183 95.1855 106.208 95.1765 106.237C95.1676 106.266 95.1688 106.297 95.18 106.325C95.1913 106.354 95.2119 106.378 95.239 106.395L102.834 110.941" stroke="#E7E7E7" stroke-width="2"/>
<path d="M109.372 107.412L109.25 106.276C109.237 106.154 109.164 106.094 109.032 106.096L102.75 106.157" stroke="#B8B8B8" stroke-width="2"/>
<path d="M102.75 106.157L102.844 101.473" stroke="#9F9F9F" stroke-width="2"/>
<path d="M207.894 267.37C215.461 263.854 221.676 257.054 220.328 248.651C218.768 238.911 210.875 230.328 203.825 223.412C199.177 218.85 194.332 214.46 189.289 210.242" stroke="#A0A0A0" stroke-width="2"/>
<path d="M189.289 210.242C188.657 208.606 187.88 207.012 186.958 205.462C186.211 204.201 184.502 203.963 183.098 203.985" stroke="#5783A6" stroke-width="2"/>
<path d="M175.636 199.05C168.636 193.725 161.554 188.506 154.387 183.391C154.329 183.348 154.263 183.327 154.189 183.33H154.016" stroke="#A0A0A0" stroke-width="2"/>
<path d="M140.018 148.735L132.5 147.111" stroke="#8C8C8C" stroke-width="2"/>
<path d="M132.5 147.111C128.126 146.152 121.299 145.75 119.878 140.758" stroke="#8B725F" stroke-width="2"/>
<path d="M132.5 147.111C132.31 149.584 132.821 151.706 134.032 153.477C134.821 154.632 136.53 156.057 137.398 157.228C140.296 161.13 140.887 165.762 141.595 170.462" stroke="#FEE5D2" stroke-width="2"/>
<path d="M141.595 170.462C141.69 172.036 141.922 173.591 142.29 175.127" stroke="#C7AE9B" stroke-width="2"/>
<path d="M142.29 175.127L142.638 177.379" stroke="#D6BDAA" stroke-width="2"/>
<path d="M142.638 177.378C142.716 178.163 142.914 178.918 143.232 179.643" stroke="#BEA592" stroke-width="2"/>
<path d="M143.072 180.113C140.309 180.653 137.525 181.086 134.72 181.412" stroke="#FEE5D2" stroke-width="2"/>
<path d="M134.72 181.412L133.764 179.859" stroke="#E5CCBA" stroke-width="2"/>
<path d="M133.764 179.859C132.039 176.697 130.056 173.681 127.817 170.81C127.759 170.734 127.686 170.668 127.598 170.61" stroke="#BEA592" stroke-width="2"/>
<path d="M127.598 170.61C124.712 166.098 122.564 161.298 121.153 156.211" stroke="#FEE5D2" stroke-width="2"/>
<path d="M124.659 131.86L120.667 139.111" stroke="#8C8C8C" stroke-width="2"/>
<path d="M119.395 128.038L120.667 139.111" stroke="#C8C8C8" stroke-width="2"/>
<path d="M120.667 139.111L119.878 140.758" stroke="#555555" stroke-width="2"/>
<path d="M119.878 140.758C118.882 142.158 118.134 143.671 117.634 145.297C116.616 148.591 118.384 151.74 120.708 154.439C120.78 154.523 120.827 154.616 120.847 154.719L121.153 156.212" stroke="#C7AE9B" stroke-width="2"/>
<path d="M121.153 156.211L121.049 170.301C121.049 170.368 121.052 170.404 121.059 170.411C121.071 170.428 121.084 170.445 121.097 170.462" stroke="#C8C8C8" stroke-width="2"/>
<path d="M121.098 170.462L121.011 171.106" stroke="#888888" stroke-width="2"/>
<path d="M121.011 171.106L120.959 172.138C120.952 172.254 120.887 172.322 120.764 172.341C118.742 172.645 116.781 172.454 114.882 171.768C114.755 171.723 114.689 171.638 114.684 171.514L114.642 170.462" stroke="#818181" stroke-width="2"/>
<path d="M144.027 183.571L144.722 186.949" stroke="#B8B8B8" stroke-width="2"/>
<path d="M144.722 186.949C142.558 187.534 142.909 188.618 141.696 189.738C140.254 191.069 137.826 190.352 137.03 188.724C136.752 188.161 136.676 187.312 136.443 186.627" stroke="#8EBADD" stroke-width="2"/>
<path d="M136.443 186.627L135.436 183.404" stroke="#B8B8B8" stroke-width="2"/>
<path d="M147.647 178.665C146.075 177.642 144.538 176.576 143.037 175.468C142.861 175.337 142.612 175.223 142.29 175.127" stroke="#A0A0A0" stroke-width="2"/>
<path d="M145.452 179.656C145.035 179.254 143.124 177.334 142.638 177.379" stroke="#979797" stroke-width="2"/>
<path d="M175.108 204.548C171.727 205.384 172.061 209.399 167.899 210.097" stroke="#4E7A9D" stroke-width="2"/>
<path d="M162.441 206.25C162.408 204.551 162.548 202.867 162.861 201.196" stroke="#787878" stroke-width="2"/>
<path d="M164.685 198.275C160.847 197.63 156.969 197.184 153.05 196.937" stroke="#888888" stroke-width="2"/>
<path d="M112.19 185.356L115.785 188.007" stroke="#B0B0B0" stroke-width="2"/>
<path d="M115.785 188.007L124.558 195.084" stroke="#818181" stroke-width="2"/>
<path d="M124.558 195.084L132.719 202.132C132.807 202.207 132.909 202.25 133.024 202.261C136.787 202.612 139.855 202.476 145.143 202.402" stroke="#5783A6" stroke-width="2"/>
<path d="M137.239 206.021C138.906 207.769 140.697 209.4 142.61 210.914" stroke="#818181" stroke-width="2"/>
<path d="M148.717 212.603L161.812 210.586C161.888 210.575 161.956 210.539 162.006 210.484C162.056 210.43 162.083 210.361 162.083 210.29C162.083 208.926 162.202 207.579 162.441 206.25" stroke="#818181" stroke-width="2"/>
<path d="M162.441 206.25C164.312 207.337 166.105 208.528 167.819 209.824C167.872 209.864 167.899 209.917 167.899 209.981V210.097" stroke="#888888" stroke-width="2"/>
<path d="M167.899 210.097C166.533 210.548 164.82 211.072 164.073 212.227C163.017 213.861 164.039 216.36 165.658 217.271C169.333 219.33 173.919 218.998 178.179 219.252" stroke="#5783A6" stroke-width="2"/>
<path d="M178.179 219.252L155.141 223.257C155.016 223.279 154.995 223.333 155.079 223.421L157.389 225.885" stroke="#B0B0B0" stroke-width="2"/>
<path d="M157.389 225.885L162.729 232.059C162.752 232.084 162.782 232.103 162.816 232.114C162.85 232.124 162.886 232.125 162.92 232.117L181.795 227.468" stroke="#818181" stroke-width="2"/>
<path d="M181.795 227.468C185.183 229.498 188.515 231.682 192.361 232.914C197.317 234.499 202.209 236.239 207.036 238.135" stroke="#888888" stroke-width="2"/>
<path d="M207.036 238.135L174.065 246.589C173.94 246.621 173.904 246.693 173.958 246.805L175.108 249.127" stroke="#B0B0B0" stroke-width="2"/>
<path d="M175.108 249.127L178.057 254.39C178.113 254.487 178.198 254.522 178.314 254.496C184.172 253.205 190.025 251.934 195.873 250.681C196.07 250.64 196.27 250.632 196.474 250.655" stroke="#818181" stroke-width="2"/>
<path d="M196.474 250.655L196.648 253.364" stroke="#B0B0B0" stroke-width="2"/>
<path d="M196.648 253.364C196.467 253.503 196.415 253.726 196.491 254.033C196.512 254.118 196.501 254.206 196.461 254.284C196.421 254.362 196.353 254.426 196.269 254.464L195.623 254.757C195.454 254.834 195.431 254.939 195.553 255.072L196.689 256.291" stroke="#888888" stroke-width="2"/>
<path d="M196.689 256.291L201.272 261.721C201.291 261.744 201.303 261.77 201.308 261.798C201.314 261.826 201.311 261.855 201.302 261.882C201.292 261.909 201.275 261.933 201.253 261.953C201.231 261.973 201.204 261.987 201.175 261.995L179.53 267.805C179.405 267.839 179.323 267.914 179.284 268.03L178.148 271.378" stroke="#B0B0B0" stroke-width="2"/>
<path d="M178.148 271.378C177.636 272.112 177.235 272.893 176.945 273.723" stroke="#818181" stroke-width="2"/>
<path d="M160.745 281.717C161.245 281.393 161.763 281.1 162.298 280.836C170.827 276.664 175.611 263.407 171.38 255.374C163.195 239.837 151.33 226.133 138.378 213.8C123.602 199.729 107.364 185.88 89.0409 174.676" stroke="#A0A0A0" stroke-width="2"/>
<path d="M147.908 187.692C146.875 187.31 145.813 187.062 144.722 186.949" stroke="#477296" stroke-width="2"/>
<path d="M147.297 174.178L141.595 170.462" stroke="#C8C8C8" stroke-width="2"/>
<path d="M175.615 204.641L175.108 204.548" stroke="#6692B5" stroke-width="2"/>
<path d="M175.108 204.548L153.929 186.627" stroke="#979797" stroke-width="2"/>
<path d="M189.289 210.242C189.835 211.911 190.981 215.556 189.425 216.544" stroke="#6692B5" stroke-width="2"/>
<path d="M189.425 216.544C186.817 217.852 184.028 218.6 181.059 218.789C180.864 218.799 180.736 218.876 180.579 218.969" stroke="#4E7A9D" stroke-width="2"/>
<path d="M180.579 218.969C179.76 218.954 178.959 219.049 178.179 219.252" stroke="#76A1C5" stroke-width="2"/>
<path d="M124.471 82.2269L117.349 82.0918" stroke="#B0B0B0" stroke-width="2"/>
<path d="M117.349 82.0917C117.05 81.4966 116.588 79.5761 115.872 79.5279C113.348 79.3649 110.03 79.3552 105.919 79.4989C104.428 79.5504 103.549 80.0876 104.074 81.5963" stroke="#747474" stroke-width="2"/>
<path d="M104.074 81.5964L96.9135 81.5159C96.7931 81.5138 96.7085 81.4623 96.6599 81.3615L93.4636 74.6672" stroke="#B0B0B0" stroke-width="2"/>
<path d="M108.128 99.9326L108.215 101.38" stroke="#555555" stroke-width="2"/>
<path d="M108.215 101.38C106.534 101.558 104.859 101.527 103.191 101.287" stroke="#454545" stroke-width="2"/>
<path d="M201.946 266.794L204.138 266.022C204.305 265.964 204.335 265.868 204.228 265.733L203.509 264.809" stroke="#909090" stroke-width="2"/>
<path d="M203.509 264.809C215.335 263.23 215.961 247.931 211.295 240.615C209.657 238.048 207.631 235.395 205.215 232.654C200.3 227.076 195.061 221.771 189.498 216.74C189.465 216.712 189.446 216.677 189.439 216.634C189.436 216.606 189.432 216.576 189.425 216.544" stroke="#979797" stroke-width="2"/>
<path d="M134.72 181.412L135.436 183.404" stroke="#E7E7E7" stroke-width="2"/>
<path d="M135.436 183.404C128.554 183.813 122.004 185.348 115.785 188.007" stroke="#9F9F9F" stroke-width="2"/>
<path d="M133.764 179.859C125.916 179.971 118.7 180.94 112.19 185.356" stroke="#A7A7A7" stroke-width="2"/>
<path d="M112.19 185.356C106.916 181.571 101.503 177.956 95.9512 174.512" stroke="#888888" stroke-width="2"/>
<path d="M127.598 170.61L121.098 170.462" stroke="#BFBFBF" stroke-width="2"/>
<path d="M136.443 186.627C134.067 188.068 132.378 190.568 130.78 192.7C130.19 193.489 125.791 194.585 124.558 195.084" stroke="#477296" stroke-width="2"/>
<path d="M121.011 171.106C121.062 171.067 121.094 171.025 121.108 170.98C121.122 170.944 121.147 170.934 121.184 170.951L124.37 172.544C124.414 172.566 124.452 172.597 124.481 172.634C124.51 172.672 124.529 172.715 124.538 172.761C124.546 172.807 124.542 172.854 124.528 172.898C124.513 172.942 124.488 172.983 124.454 173.016C123.109 174.342 117.387 173.965 115.518 173.763C113.792 173.576 112.519 172.773 111.696 171.353C111.643 171.263 111.626 171.167 111.644 171.064L111.703 170.716" stroke="#787878" stroke-width="2"/>
<path d="M197.676 250.079C198.934 253.965 204.965 251.083 202.366 247.908" stroke="#747474" stroke-width="2"/>
<path d="M203.162 264.382L178.148 271.378" stroke="#9F9F9F" stroke-width="2"/>
<path d="M204.277 242.198L175.108 249.127" stroke="#9F9F9F" stroke-width="2"/>
<path d="M203.509 264.81C203.481 264.576 203.366 264.433 203.162 264.382" stroke="#787878" stroke-width="2"/>
<path d="M203.162 264.382L205.354 263.69C205.505 263.643 205.52 263.57 205.399 263.471L196.689 256.291" stroke="#A7A7A7" stroke-width="2"/>
<path d="M196.648 253.364C202.464 257.52 209.113 249.954 203.409 245.431C203.392 245.418 203.374 245.413 203.353 245.415C203.323 245.417 203.293 245.417 203.263 245.415" stroke="#A7A7A7" stroke-width="2"/>
<path d="M203.263 245.415L204.277 242.198" stroke="#787878" stroke-width="2"/>
<path d="M204.277 242.198L207.307 241.317C207.439 241.278 207.505 241.196 207.505 241.069V238.341C207.505 238.236 207.461 238.15 207.373 238.084C207.227 237.975 207.114 237.992 207.036 238.135" stroke="#A7A7A7" stroke-width="2"/>
<path d="M181.795 227.468C182.261 225.515 182.725 223.561 183.189 221.607C183.262 221.295 183.209 220.906 183.275 220.562" stroke="#787878" stroke-width="2"/>
<path d="M183.275 220.561L180.579 218.969" stroke="#A7A7A7" stroke-width="2"/>
<path d="M183.275 220.562L157.389 225.886" stroke="#9F9F9F" stroke-width="2"/>
<path d="M156.26 280.894C157.092 280.45 157.923 280.001 158.754 279.546C170.261 273.273 169.108 258.566 162.934 249.517" stroke="#909090" stroke-width="2"/>
<path d="M162.934 249.517L162.844 249.034C162.825 248.931 162.787 248.835 162.729 248.744C159.918 244.305 156.006 240.197 152.223 236.446C134.275 218.648 116.737 201.293 96.3125 185.195C94.4503 183.726 91.8169 181.875 88.4121 179.64C87.9778 179.357 86.4179 178.475 85.5876 178.343C84.1006 178.105 81.2414 180.653 80.0949 181.892C78.6334 183.477 77.5216 184.56 76.7596 185.141" stroke="#A0A0A0" stroke-width="2"/>
<path d="M203.263 245.415L202.366 247.908" stroke="#9F9F9F" stroke-width="2"/>
<path d="M202.366 247.908C201.282 248.941 199.121 249.494 197.676 250.079" stroke="#454545" stroke-width="2"/>
<path d="M197.676 250.079C197.217 250.17 196.817 250.361 196.474 250.655" stroke="#9F9F9F" stroke-width="2"/>
<path d="M162.934 249.516C159.602 246.049 156.93 243.845 151.754 243.176C150.142 242.966 148.612 242.918 147.164 243.031C140.268 243.572 138.371 250.646 138.635 255.87C138.973 262.55 140.859 268.815 144.291 274.666C144.372 274.801 144.367 274.938 144.274 275.078" stroke="#818181" stroke-width="2"/>
<path d="M113.392 209.602C107.593 200.356 99.0537 192.391 89.6038 186.768C87.832 185.71 86.9947 184.973 85.1881 185.72C83.1892 186.543 82.1215 187.999 81.9848 190.088C81.627 195.528 82.2072 205.314 86.6889 209.431C88.1134 210.74 89.5482 212.043 90.858 213.43C100.572 223.695 108.9 234.172 117.78 244.617C119.98 247.204 122.283 249.708 124.69 252.132C126.417 253.869 129.543 256.034 131.614 253.135C133.059 251.109 132.149 248.68 131.353 246.615C126.493 234.008 120.656 221.189 113.392 209.602Z" stroke="#818181" stroke-width="2"/>
<path d="M95.6142 257.015C96.4711 257.573 97.4995 258.04 98.6993 258.418C110.915 262.249 123.422 265.35 135.88 268.387C135.893 268.391 135.907 268.391 135.92 268.387C135.932 268.383 135.943 268.374 135.949 268.363C135.956 268.352 135.958 268.339 135.954 268.327C135.951 268.315 135.943 268.304 135.932 268.297C128.31 261.876 120.986 255.187 113.961 248.23C106.464 240.805 100.485 233.181 94.8568 224.853C94.8416 224.832 94.8198 224.815 94.7944 224.806C94.769 224.797 94.7411 224.795 94.7144 224.8C94.6877 224.806 94.6634 224.819 94.6448 224.837C94.6262 224.856 94.6141 224.879 94.6101 224.904C93.6072 231.771 92.6078 238.634 91.6119 245.492C91.4173 246.83 91.3664 247.91 91.459 248.732C91.7439 251.312 93.2204 255.461 95.6142 257.015Z" stroke="#A0A0A0" stroke-width="2"/>
<path d="M161.453 42.1773C157.701 43.0853 157.518 43.4711 154.631 40.7959C152.736 39.0383 151.434 37.6948 150.724 36.7652C150.516 36.4971 150.252 35.7848 149.934 34.6282C149.906 34.5245 149.92 34.425 149.976 34.3299C150.963 32.6469 150.682 29.7252 147.925 29.9587C146.284 30.0981 145.704 32.7118 145.409 33.8986C145.381 34.0045 145.31 34.064 145.195 34.077L144.703 34.1288C144.567 34.144 144.476 34.0921 144.429 33.9732C143.968 32.7993 143.502 31.6276 143.031 30.4581C142.335 28.7362 143.277 24.3455 139.234 26.1874C138.529 23.9197 139.126 22.108 141.025 20.7526C146.79 16.6343 154.694 16.5792 160.683 19.9419C164.544 22.1113 164.565 28.7427 163.848 32.2351C163.476 34.051 162.678 37.3651 161.453 42.1773Z" fill="#191919"/>
<path d="M161.178 41.9598C161.065 42.7477 161.079 43.448 161.22 44.0608C161.359 44.6604 161.711 45.2075 162.276 45.7021C163.411 47.094 168.203 51.3023 165.502 53.0258C162.366 55.0249 157.564 50.9741 154.681 49.812C152.276 48.8382 149.797 48.0656 147.243 47.4944C147.213 46.7241 147 46.0107 146.604 45.3541C146.544 45.2557 146.455 45.2064 146.337 45.2064C144.448 45.178 142.583 45.271 140.743 45.4854C140.342 45.5314 139.972 45.4854 139.632 45.3476C139.504 45.295 139.433 45.2042 139.416 45.0751C139.146 42.6897 139.076 40.2977 139.208 37.8992C139.215 37.77 139.157 37.6792 139.034 37.6267L137.107 36.8093C137.053 36.7867 137.004 36.7539 136.963 36.7131C136.922 36.6722 136.891 36.624 136.87 36.5714C136.849 36.5187 136.84 36.4627 136.843 36.4066C136.845 36.3505 136.86 36.2954 136.885 36.2447C137.545 34.9283 138.725 33.1524 138.722 31.7015C138.72 29.7056 138.884 27.7294 139.215 25.773C143.212 23.9084 142.281 28.3531 142.969 30.0962C143.434 31.2802 143.895 32.4663 144.351 33.6547C144.397 33.775 144.487 33.8276 144.622 33.8122L145.108 33.7597C145.221 33.7466 145.292 33.6864 145.32 33.5792C145.611 32.3777 146.184 29.7319 147.806 29.5907C150.532 29.3544 150.81 32.312 149.834 34.0158C149.778 34.112 149.764 34.2127 149.792 34.3178C150.107 35.4886 150.367 36.2097 150.573 36.4811C151.275 37.4221 152.562 38.7822 154.435 40.5614C157.289 43.2696 157.47 42.879 161.178 41.9598Z" fill="#FCCAA5"/>
<path d="M161.989 45.7793C165.086 48.4294 168.496 51.4539 170.875 54.6801C172.772 58.7065 174.25 61.8687 177.655 65.623L177.895 66.3271C176.838 71.7895 175.839 77.2465 174.898 82.6982C174.665 84.0531 174.548 85.4283 174.548 86.8237C174.548 91.6758 174.548 96.5268 174.548 101.377C170.353 102.203 166.137 102.458 161.899 102.142C156.374 101.732 151.338 99.322 145.688 100.189C144.984 95.8526 145.039 90.8021 144.894 87.307C144.779 84.6089 143.219 82.3781 142.105 79.9456L145.067 76.3738C145.137 76.2906 145.224 76.2287 145.331 76.1881C148.91 74.8663 152.358 72.3666 152.937 68.5803C153.852 62.5792 150.627 52.5037 144.634 49.1271L146.975 47.5268C149.525 48.0837 152.002 48.8369 154.404 49.7864C157.283 50.9195 162.079 54.869 165.211 52.9198C167.909 51.2395 163.123 47.1363 161.989 45.7793Z" fill="#1D74BB"/>
<path d="M145.179 48.7014C151.206 52.1282 154.45 62.3534 153.53 68.4436C152.947 72.2862 149.48 74.823 145.88 76.1645C145.773 76.2056 145.685 76.2684 145.615 76.3529L142.636 79.9778C141.262 81.5272 139.608 82.9109 138.541 84.6357C136.483 87.965 134.61 91.6029 132.144 94.5587C130.144 96.958 128.007 99.2469 125.733 101.425C125.649 101.503 125.586 101.705 125.558 101.809C123.982 103.004 122.549 104.315 121.261 105.742C119.723 106.496 117.843 108.425 116.489 109.549L111.763 113.294C111.67 113.368 111.614 113.461 111.595 113.573L111.135 116.13C109.819 117.102 108.301 117.865 106.583 118.42C106.476 118.454 106.367 118.465 106.255 118.452C106.083 118.43 105.96 118.488 105.885 118.624C105.832 118.722 105.832 118.818 105.885 118.913L106.771 120.498C105.407 120.833 103.74 121.031 102.582 120.125C101.587 119.348 100.687 118.489 99.8822 117.549C99.3241 116.899 99.2055 116.159 98.9474 115.383C99.1253 114.525 98.7451 112.787 99.6555 112.368C100.19 112.121 101.293 111.743 102.962 111.231C104.532 110.692 106.091 110.178 107.64 109.689C108.718 109.348 109.133 108.568 109.527 107.668L111.602 104.865L114.731 100.36L116.228 98.018C118.031 95.1304 119.524 91.8011 121.533 89.2773C122.803 87.6835 124.196 86.1861 125.712 84.7851C125.772 84.7309 125.807 84.6649 125.816 84.5869L125.834 84.444C126.857 83.7143 127.445 82.9304 127.599 82.0924C128.649 76.4049 130.801 72.3772 133.225 67.6089C133.276 67.5093 133.288 67.4053 133.26 67.2971C131.969 62.178 132.011 57.0329 137.257 53.8432C139.241 52.6371 141.882 50.9231 145.179 48.7014Z" fill="#FCCAA5"/>
<path d="M177.783 65.2597C174.667 61.5838 173.315 58.4877 171.579 54.5454C172.44 55.0385 173.361 55.755 174.343 56.6952C176.74 58.9891 177.924 61.7624 177.894 65.0153C177.894 65.0696 177.878 65.1187 177.847 65.1626L177.783 65.2597Z" fill="#FCCAA5"/>
<path d="M178.272 66.2339C179.341 69.0399 179.9 71.4992 179.949 73.6118C180.108 80.7112 179.895 86.7138 179.312 91.6196C178.902 95.0786 177.495 98.1204 175.092 100.745C174.911 100.941 174.819 101.126 174.814 101.299C174.787 101.295 174.761 101.29 174.737 101.286C174.737 96.4357 174.737 91.5843 174.737 86.7319C174.737 85.3364 174.86 83.9611 175.107 82.6061C176.101 77.154 177.156 71.6966 178.272 66.2339Z" fill="#FCCAA5"/>
<path d="M124.211 81.8181L117.199 81.6893C116.905 81.1223 116.45 79.2922 115.745 79.2462C113.26 79.0909 109.993 79.0817 105.946 79.2187C104.479 79.2677 103.613 79.7796 104.13 81.2173L97.0806 81.1406C96.962 81.1386 96.8788 81.0895 96.8309 80.9935L93.6842 74.6145L94.1015 74.4275C94.1995 74.3825 94.3033 74.3549 94.4127 74.3447C96.5926 74.1301 98.915 74.0239 101.38 74.0259C101.87 74.0259 102.322 74.0647 102.734 74.1424C102.848 74.1649 102.943 74.216 103.018 74.2957L105.536 76.9043C105.625 76.9983 105.739 77.0463 105.878 77.0484L111.357 77.0821C111.507 77.0841 111.604 77.0198 111.648 76.889L112.38 74.6911C112.409 74.6012 112.477 74.5593 112.581 74.5654C115.701 74.7616 120.571 74.7953 122.401 78.0722C123.083 79.2922 123.686 80.5408 124.211 81.8181Z" fill="#CECECE"/>
<path d="M93.0388 75L96.2425 81.4678C96.2912 81.5652 96.3759 81.6149 96.4967 81.617L103.673 81.6947L106.557 87.3078C106.603 87.3989 106.683 87.4445 106.797 87.4445H118.96C118.982 87.4448 119.004 87.4403 119.023 87.4313C119.043 87.4224 119.059 87.4093 119.072 87.3931C119.085 87.377 119.093 87.3582 119.096 87.3385C119.099 87.3188 119.096 87.2986 119.089 87.2798L116.979 82.1733L124.118 82.3038L125.263 84.4142L125.246 84.5509C125.236 84.6255 125.202 84.6887 125.141 84.7405C123.628 86.0811 122.237 87.5139 120.97 89.0389C118.964 91.4539 117.473 94.6396 115.673 97.4026C111.752 97.2451 107.825 97.0876 103.893 96.9302C101.849 96.8494 100.129 96.2122 99.2232 94.6551C97.6029 91.8765 94.9645 86.941 91.3082 79.8485C91.1376 79.5191 91.2629 78.941 90.5282 79.0529C90.4655 77.8034 92.0011 76.0692 93.0388 75Z" fill="#919191"/>
<path d="M90.5321 78.9107C91.2702 78.7944 91.1442 79.3956 91.3156 79.7382C94.9883 87.1142 97.6384 92.2471 99.266 95.1368C100.175 96.7561 101.903 97.4187 103.957 97.5028C107.907 97.6666 111.851 97.8303 115.789 97.9941L114.289 100.325C112.139 100.077 109.982 99.996 107.818 100.082C107.391 99.7589 103.488 99.523 102.585 99.3678C99.1436 98.9315 97.8564 97.283 96.4119 94.3061C94.6 90.5674 92.7777 86.8309 90.9449 83.0965C90.3468 81.8844 90.5811 80.2327 90.5321 78.9107Z" fill="#707070"/>
<path d="M116.944 82.4458L118.94 87.4993C118.947 87.518 118.949 87.5379 118.946 87.5574C118.943 87.5769 118.936 87.5955 118.924 87.6114C118.912 87.6274 118.896 87.6404 118.877 87.6493C118.859 87.6581 118.839 87.6626 118.818 87.6623H107.31C107.203 87.6623 107.127 87.6172 107.083 87.527L104.355 81.9721C103.858 80.5295 104.691 80.0159 106.105 79.9667C110.003 79.8293 113.149 79.8385 115.543 79.9944C116.222 80.0405 116.66 81.8767 116.944 82.4458Z" fill="#191919"/>
<path d="M103.158 99.3506C104.051 99.483 107.912 99.6843 108.335 99.9601L108.421 101.201C106.746 101.354 105.078 101.327 103.417 101.121L103.158 99.3506Z" fill="#191919"/>
<path d="M114.737 100.55L111.675 104.221C111.108 102.945 110.052 102.053 108.506 101.543L108.421 100.352C110.533 100.281 112.638 100.348 114.737 100.55Z" fill="#919191"/>
<path d="M174.725 101.712C174.749 101.716 174.773 101.72 174.798 101.725C179.377 108.979 181.569 116.996 178.734 125.272C178.323 126.471 177.934 127.638 177.568 128.773C177.079 130.571 176.855 132.314 176.896 134.003C176.514 140.648 176.355 147.289 176.42 153.926C176.422 154.034 176.385 154.129 176.308 154.213C175.796 154.786 175.181 155.248 174.464 155.599C174.214 155.487 174.133 155.156 174.221 154.607C174.229 154.558 174.225 154.507 174.211 154.459C174.196 154.411 174.171 154.367 174.136 154.329C174.101 154.291 174.058 154.26 174.01 154.239C173.962 154.218 173.909 154.207 173.856 154.207C170.16 154.179 166.419 154.096 162.631 153.958C161.504 153.917 160.043 154.123 158.247 154.575C158.141 154.601 158.107 154.662 158.146 154.759L159.406 157.792C157.597 157.652 155.903 157.266 154.326 156.633C154.219 156.59 154.134 156.523 154.069 156.432C153.328 155.396 152.165 154.187 151.911 152.957C151.111 149.117 150.435 145.292 149.883 141.48C149.878 141.442 149.861 141.406 149.834 141.376C149.807 141.346 149.772 141.324 149.731 141.313C149.691 141.301 149.648 141.301 149.607 141.311C149.566 141.321 149.529 141.342 149.5 141.371L145.033 145.928C140.327 138.652 134.438 132.324 127.368 126.945C128.526 124.871 129.693 122.816 130.869 120.779C133.666 115.918 135.173 113.175 139.097 110.275C140.44 109.351 141.526 108.197 142.354 106.812C143.671 104.796 144.811 102.697 145.774 100.513C151.442 99.638 156.494 102.07 162.036 102.484C166.288 102.802 170.518 102.545 174.725 101.712Z" fill="#191919"/>
<path d="M103.586 101.299C105.202 101.528 106.825 101.557 108.454 101.388C109.978 101.979 111.02 103.014 111.579 104.494L109.576 107.143L109.458 106.059C109.444 105.943 109.374 105.885 109.246 105.887L103.158 105.946L103.249 101.477L103.586 101.299Z" fill="#707070"/>
<path d="M103.158 101.337L103.065 106.027L95.6959 106.008C95.6639 106.008 95.633 106.017 95.6075 106.035C95.5821 106.053 95.5636 106.078 95.5547 106.107C95.5459 106.136 95.5471 106.167 95.5582 106.196C95.5694 106.224 95.5898 106.249 95.6166 106.266L103.148 110.818C101.499 111.325 100.41 111.7 99.8816 111.945C98.9825 112.361 99.358 114.084 99.1823 114.935C95.2182 112.381 91.9396 109.844 89.3466 107.322C88.2465 106.253 88.1271 105.022 88.9883 103.63C90.58 101.06 100.398 101.259 103.158 101.337Z" fill="#CECECE"/>
<path d="M125.251 101.299C130.86 102.076 136.871 104.383 142.105 106.486C141.294 107.917 140.231 109.11 138.916 110.065C133.262 107.855 126.907 106.293 121.053 105.341C122.311 103.875 123.711 102.527 125.251 101.299Z" fill="#AFAFAF"/>
<path d="M115.897 109.091L117.895 120.779C115.369 119.253 112.912 117.631 110.526 115.913L110.988 113.263C111.007 113.146 111.063 113.05 111.156 112.973L115.897 109.091Z" fill="#919191"/>
<path d="M110.576 115.909C112.965 117.549 115.425 119.098 117.954 120.556L127.301 126.772C134.42 132.127 140.349 138.427 145.087 145.67C151.513 155.961 153.446 166.994 153.716 178.699C153.718 178.787 153.759 178.856 153.839 178.908L153.965 178.988C153.93 178.99 153.896 178.996 153.863 179.004C153.819 179.017 153.798 179.044 153.8 179.085L153.979 183.423L153.891 186.719C153.772 190.22 153.477 193.655 153.005 197.025L152.357 200.807C152.333 200.946 152.397 201 152.546 200.968L164.738 198.363L165.039 198.328C165.188 198.308 165.263 198.368 165.263 198.508V201.022C165.263 201.134 165.202 201.192 165.081 201.196L162.898 201.283L151.87 203.305C151.836 203.311 151.806 203.326 151.781 203.347C151.757 203.369 151.74 203.397 151.733 203.428C151.021 206.6 149.989 209.686 148.636 212.686C147.894 214.165 146.629 216.827 144.674 217.13C142.322 217.494 141.018 216.584 140.761 214.4C140.749 214.292 140.769 214.192 140.82 214.097L142.477 210.997C143.5 208.993 144.346 206.928 145.014 204.804C145.056 204.669 145.001 204.615 144.849 204.643L137.061 206.106L135.544 204.843C135.437 204.755 135.453 204.695 135.593 204.662L145.031 202.489C145.496 202.547 145.788 202.328 145.907 201.833C147.136 196.713 147.773 192.03 147.82 187.783L147.809 184.217C147.809 184.095 147.743 184.027 147.61 184.014L143.907 183.664L142.943 180.207L143.105 179.738L145.343 179.75C146.133 180.214 146.839 180.789 147.463 181.477C147.476 181.492 147.493 181.503 147.514 181.509C147.534 181.514 147.555 181.513 147.575 181.506C147.594 181.499 147.611 181.487 147.622 181.471C147.634 181.454 147.639 181.435 147.638 181.416L147.557 178.76L147.203 174.274C146.513 165.56 144.38 156.945 140.12 149.098C140.061 148.989 139.976 148.903 139.864 148.841C139.987 148.745 139.913 148.725 139.871 148.651C136.136 142.005 130.741 136.641 124.376 131.972L119.068 128.151C116.817 126.58 114.496 125.101 112.107 123.714L106.193 120.234L105.303 118.665C105.25 118.571 105.25 118.475 105.303 118.379C105.378 118.244 105.502 118.187 105.675 118.208C105.787 118.221 105.897 118.211 106.004 118.176C107.73 117.627 109.254 116.872 110.576 115.909Z" fill="#CECECE"/>
<path d="M119.343 128.124L120.58 139.156L119.813 140.797C118.845 142.192 118.117 143.699 117.631 145.319C116.641 148.601 118.36 151.738 120.62 154.427C120.69 154.511 120.735 154.604 120.755 154.706L121.053 156.193L120.951 170.231C120.951 170.297 120.955 170.333 120.961 170.34C120.973 170.357 120.985 170.374 120.999 170.391L120.914 171.032L120.863 172.061C120.857 172.176 120.794 172.244 120.674 172.263C118.708 172.566 116.802 172.376 114.956 171.692C114.832 171.647 114.768 171.563 114.763 171.439L114.722 170.391C114.898 165.568 114.922 160.308 114.993 155.911C115.114 148.446 115.032 142.75 114.746 138.822C114.557 136.184 113.852 131.143 112.632 123.701C114.935 125.084 117.173 126.558 119.343 128.124Z" fill="#919191"/>
<path d="M177.53 128.572C182.115 133.14 186.01 137.433 189.215 141.45C200.715 155.864 201.554 174.458 198.45 191.53C197.343 197.615 195.455 203.256 192.786 208.452C192.765 208.493 192.757 208.521 192.762 208.536C192.764 208.549 192.768 208.565 192.772 208.585C191.197 210.172 189.948 209.163 188.507 208.219C188.401 208.151 188.349 208.056 188.351 207.935C188.363 207.256 188.628 206.664 189.148 206.157C189.237 206.069 189.271 205.964 189.25 205.844C189.234 205.751 189.201 205.671 189.151 205.604C189.191 205.602 189.231 205.598 189.271 205.591C189.356 205.583 189.415 205.542 189.448 205.469C191.081 201.734 192.34 197.896 193.225 193.954C195.285 184.796 196.131 175.224 194.981 165.911C193.77 156.097 188.992 148.051 182.504 140.219C180.344 137.611 178.459 135.473 176.847 133.805C176.805 132.116 177.032 130.371 177.53 128.572Z" fill="#AFAFAF"/>
<path d="M124.732 131.493C130.98 136.346 136.275 141.921 139.941 148.829C139.982 148.906 140.054 148.926 139.934 149.026L132.492 147.338C128.163 146.342 121.406 145.924 120 140.738L120.781 139.026L124.732 131.493Z" fill="#191919"/>
<path d="M119.422 141.234C120.866 146.138 127.805 146.533 132.251 147.475C132.057 149.904 132.577 151.988 133.808 153.728C134.609 154.863 136.347 156.262 137.229 157.413C140.174 161.246 140.774 165.796 141.495 170.413C141.591 171.959 141.827 173.486 142.201 174.994L142.554 177.206C142.634 177.977 142.835 178.719 143.158 179.431L142.995 179.892C140.187 180.423 137.358 180.849 134.507 181.169L133.536 179.643C131.782 176.538 129.767 173.575 127.491 170.754C127.432 170.68 127.358 170.615 127.268 170.558C124.335 166.126 122.152 161.411 120.718 156.414L120.407 154.948C120.386 154.847 120.339 154.755 120.266 154.673C117.904 152.022 116.107 148.928 117.141 145.693C117.65 144.096 118.41 142.61 119.422 141.234Z" fill="#FCCAA5"/>
<path d="M174.674 155.537C174.496 157.568 174.666 159.561 175.185 161.514C175.409 162.356 175.847 163.3 176.497 164.345C179.024 168.422 182.273 173.186 183.495 178.032C183.881 179.563 184.107 181.693 184.171 184.422C184.281 189.085 184.163 193.744 183.817 198.399C183.81 198.511 183.744 198.57 183.621 198.576C181.033 198.735 178.443 198.743 175.85 198.599C175.682 197.185 175.532 195.455 174.824 194.174C173.802 191.088 172.399 188.16 170.614 185.388C168.212 181.659 167.215 177.16 166.121 173.012C164.995 168.751 161.975 165.321 160.427 161.199C159.996 160.054 159.589 158.896 159.205 157.724L157.911 154.7C157.871 154.603 157.905 154.542 158.015 154.516C159.859 154.065 161.36 153.86 162.518 153.901C166.409 154.038 170.253 154.121 174.049 154.149C174.104 154.149 174.158 154.16 174.207 154.181C174.257 154.202 174.301 154.233 174.337 154.271C174.372 154.309 174.399 154.353 174.414 154.401C174.429 154.449 174.432 154.499 174.424 154.548C174.333 155.096 174.417 155.425 174.674 155.537Z" fill="#FCCAA5"/>
<path d="M114.521 170.455L114.562 171.622C114.566 171.761 114.631 171.855 114.755 171.905C116.614 172.667 118.533 172.878 120.513 172.54C120.633 172.519 120.696 172.444 120.703 172.315L120.754 171.169C120.804 171.126 120.836 171.08 120.849 171.03C120.863 170.989 120.888 170.978 120.924 170.997L124.043 172.765C124.086 172.79 124.123 172.824 124.151 172.866C124.18 172.908 124.198 172.956 124.206 173.007C124.214 173.057 124.211 173.109 124.197 173.159C124.182 173.208 124.158 173.253 124.124 173.29C122.808 174.762 117.207 174.344 115.378 174.119C113.689 173.912 112.442 173.02 111.637 171.444C111.585 171.344 111.568 171.237 111.586 171.122L111.644 170.737L114.521 170.455Z" fill="#707070"/>
<path d="M120.99 170.455L127.504 170.6C127.592 170.657 127.666 170.722 127.724 170.795C129.968 173.612 131.955 176.571 133.684 179.672C125.819 179.783 118.588 180.732 112.063 185.065C106.778 181.352 101.353 177.806 95.7895 174.427C100.812 172.288 106.074 171.047 111.575 170.704L111.516 171.045C111.498 171.146 111.515 171.24 111.569 171.329C112.393 172.721 113.669 173.509 115.398 173.692C117.272 173.891 123.006 174.26 124.353 172.96C124.388 172.927 124.413 172.887 124.428 172.844C124.442 172.8 124.445 172.754 124.437 172.71C124.429 172.665 124.41 172.622 124.381 172.585C124.352 172.548 124.314 172.518 124.27 172.496L121.077 170.934C121.04 170.917 121.014 170.927 121 170.963C120.986 171.007 120.954 171.048 120.903 171.086L120.99 170.455Z" fill="#7F7F7F"/>
<path d="M142.105 170.455L147.063 173.984L147.368 178.247C146.001 177.275 144.664 176.263 143.359 175.209C143.206 175.085 142.99 174.977 142.71 174.885C142.389 173.427 142.188 171.95 142.105 170.455Z" fill="#919191"/>
<path d="M96.378 174.351C101.925 177.788 107.333 181.395 112.603 185.173L116.196 187.818L124.96 194.881L133.114 201.915C133.202 201.99 133.304 202.033 133.42 202.044C137.179 202.394 140.244 202.259 145.528 202.185L136.176 204.355C136.037 204.387 136.021 204.447 136.128 204.535L137.631 205.797C139.297 207.541 141.086 209.169 142.997 210.68L141.355 213.775C141.304 213.869 141.285 213.969 141.296 214.076C141.551 216.257 142.843 217.166 145.174 216.802C147.111 216.5 148.364 213.842 149.1 212.365L162.183 210.352C162.259 210.341 162.327 210.305 162.377 210.251C162.427 210.197 162.454 210.128 162.454 210.057C162.454 208.696 162.573 207.352 162.811 206.025C164.681 207.11 166.472 208.299 168.185 209.591C168.238 209.632 168.265 209.685 168.265 209.749V209.864C166.9 210.314 165.189 210.837 164.443 211.99C163.387 213.621 164.408 216.115 166.026 217.024C169.698 219.078 174.28 218.748 178.536 219.001L155.518 222.998C155.393 223.02 155.372 223.074 155.456 223.162L157.764 225.621L163.099 231.782C163.122 231.808 163.152 231.827 163.186 231.837C163.22 231.847 163.256 231.848 163.29 231.84L182.15 227.201C185.534 229.226 188.863 231.406 192.706 232.636C197.658 234.218 202.546 235.954 207.368 237.846L174.426 246.284C174.301 246.316 174.265 246.387 174.318 246.499L175.467 248.817L178.415 254.069C178.47 254.165 178.556 254.2 178.671 254.175C184.524 252.886 190.372 251.617 196.215 250.367C196.412 250.327 196.612 250.318 196.816 250.341L196.989 253.045C196.809 253.184 196.757 253.406 196.833 253.712C196.854 253.797 196.843 253.885 196.803 253.963C196.762 254.041 196.695 254.104 196.611 254.143L195.965 254.435C195.796 254.512 195.773 254.617 195.896 254.749L197.031 255.966L201.61 261.385C201.628 261.408 201.641 261.434 201.646 261.462C201.651 261.49 201.649 261.519 201.639 261.546C201.63 261.573 201.613 261.597 201.591 261.617C201.569 261.636 201.542 261.651 201.512 261.658L179.886 267.456C179.761 267.491 179.679 267.565 179.64 267.681L178.505 271.023C177.993 271.755 177.593 272.535 177.304 273.363C172.68 279.441 169.858 282.195 161.117 281.341C161.617 281.018 162.134 280.725 162.669 280.462C171.191 276.298 175.971 263.068 171.743 255.051C163.564 239.545 151.71 225.868 138.769 213.56C124.006 199.517 107.781 185.696 89.4737 174.514L96.378 174.351Z" fill="#919191"/>
<path d="M89.0728 174.48C107.32 185.681 123.492 199.526 138.207 213.593C151.105 225.923 162.921 239.624 171.072 255.157C175.286 263.188 170.522 276.441 162.028 280.612C161.495 280.876 160.98 281.17 160.481 281.493C158.961 281.483 157.472 281.208 156.015 280.67C156.843 280.226 157.671 279.777 158.499 279.323C169.958 273.051 168.809 258.348 162.661 249.301L162.571 248.818C162.553 248.716 162.515 248.619 162.457 248.529C159.658 244.091 155.762 239.984 151.994 236.234C134.121 218.44 116.655 201.089 96.3143 184.996C94.4598 183.528 91.8372 181.676 88.4466 179.442C88.0141 179.159 86.4606 178.278 85.6337 178.146C84.1528 177.908 81.3053 180.455 80.1636 181.693C78.7081 183.278 77.601 184.36 76.8421 184.942C77.6563 180.75 79.753 177.272 83.1322 174.509C83.2175 174.438 83.3179 174.4 83.4332 174.396C85.3753 174.315 87.2552 174.343 89.0728 174.48Z" fill="#AFAFAF"/>
<path d="M142.105 175.325C142.417 175.414 142.658 175.52 142.828 175.641C144.281 176.671 145.769 177.661 147.291 178.612L147.368 181.08C147.37 181.098 147.364 181.116 147.353 181.131C147.343 181.146 147.327 181.157 147.308 181.163C147.289 181.17 147.268 181.171 147.249 181.166C147.23 181.161 147.212 181.151 147.2 181.137C146.601 180.497 145.923 179.962 145.166 179.532C144.762 179.159 142.912 177.375 142.442 177.416L142.105 175.325Z" fill="#AFAFAF"/>
<path d="M143.158 177.273C143.522 177.235 144.951 178.877 145.263 179.221L143.602 179.21C143.365 178.59 143.217 177.945 143.158 177.273Z" fill="#7F7F7F"/>
<path d="M163.158 249.199C159.803 245.743 157.114 243.546 151.902 242.88C150.279 242.67 148.739 242.622 147.281 242.735C140.338 243.274 138.428 250.324 138.694 255.531C139.034 262.189 140.932 268.434 144.388 274.265C144.47 274.4 144.464 274.536 144.371 274.675C127.49 270.221 110.627 265.698 93.7813 261.107C89.332 259.895 86.2993 254.217 85.8621 250.395C85.5823 247.945 85.6359 245.025 86.023 241.632C86.9185 233.758 88.0984 225.911 89.5628 218.093C89.5784 218.011 89.5762 217.928 89.5564 217.848C89.5365 217.768 89.4995 217.692 89.4474 217.625C87.7731 215.451 85.8749 213.462 83.7529 211.658C81.8034 210.001 80.6398 208.958 80.262 208.529C75.6658 203.328 75.6693 195.271 75.8407 188.759C75.878 187.297 76.0634 186.056 76.3969 185.037C77.1641 184.458 78.2834 183.378 79.7548 181.799C80.9091 180.564 83.7879 178.025 85.2849 178.262C86.1209 178.394 87.6915 179.272 88.1287 179.554C91.5566 181.782 94.208 183.627 96.0829 185.091C116.647 201.135 134.304 218.432 152.374 236.172C156.183 239.911 160.122 244.005 162.952 248.429C163.01 248.519 163.048 248.615 163.067 248.718L163.158 249.199ZM113.278 209.417C107.44 200.202 98.8427 192.264 89.3285 186.659C87.5446 185.604 86.7016 184.87 84.8827 185.614C82.8703 186.435 81.7952 187.886 81.6577 189.968C81.2974 195.39 81.8815 205.143 86.3938 209.247C87.8279 210.552 89.2725 211.85 90.5912 213.232C100.371 223.463 108.756 233.905 117.696 244.316C119.911 246.894 122.231 249.39 124.653 251.806C126.392 253.537 129.54 255.695 131.625 252.806C133.08 250.786 132.163 248.365 131.362 246.307C126.469 233.742 120.592 220.965 113.278 209.417ZM95.3798 256.673C96.2426 257.228 97.278 257.694 98.4859 258.07C110.784 261.889 123.377 264.98 135.92 268.006C135.933 268.011 135.947 268.011 135.96 268.007C135.973 268.002 135.983 267.994 135.99 267.983C135.996 267.972 135.998 267.959 135.995 267.947C135.992 267.935 135.984 267.924 135.972 267.917C128.298 261.517 120.925 254.85 113.852 247.916C106.304 240.517 100.284 232.918 94.6173 224.617C94.6019 224.596 94.58 224.58 94.5544 224.571C94.5288 224.561 94.5008 224.559 94.4739 224.565C94.447 224.57 94.4226 224.583 94.4038 224.602C94.3851 224.62 94.3729 224.643 94.3689 224.668C93.3592 231.513 92.353 238.352 91.3502 245.188C91.1544 246.522 91.1031 247.598 91.1963 248.417C91.4832 250.988 92.9698 255.124 95.3798 256.673Z" fill="#919191"/>
<path d="M153.849 179.221L174.783 193.615C175.477 194.853 175.625 196.522 175.789 197.887L175.695 198.701C168.627 193.555 161.475 188.51 154.239 183.567C154.18 183.526 154.114 183.506 154.039 183.508H153.863L153.684 179.314C153.682 179.275 153.703 179.249 153.748 179.236C153.78 179.228 153.814 179.223 153.849 179.221Z" fill="#919191"/>
<path d="M134.125 180.195L135.076 181.681L135.789 183.585C128.934 183.977 122.409 185.444 116.214 187.987L112.632 185.452C119.118 181.228 126.306 180.302 134.125 180.195Z" fill="#CECECE"/>
<path d="M153.771 183.117H153.946C154.02 183.115 154.087 183.135 154.145 183.179C161.344 188.321 168.459 193.57 175.491 198.924C175.896 200.705 175.889 202.579 175.47 204.546L174.96 204.452L153.684 186.432L153.771 183.117Z" fill="#AFAFAF"/>
<path d="M135.815 183.117L136.842 186.342C134.42 187.785 132.7 190.286 131.071 192.42C130.469 193.209 125.987 194.306 124.73 194.805L115.789 187.723C122.127 185.062 128.802 183.527 135.815 183.117Z" fill="#707070"/>
<path d="M144.211 183.117L148.195 183.531C148.338 183.547 148.41 183.626 148.41 183.771L148.421 187.987C147.3 187.536 146.148 187.243 144.964 187.109L144.211 183.117Z" fill="#707070"/>
<path d="M89.8191 186.418C99.2777 192.042 107.825 200.009 113.629 209.257C120.9 220.847 126.742 233.67 131.607 246.28C132.404 248.346 133.315 250.775 131.868 252.802C129.796 255.701 126.666 253.536 124.938 251.798C122.529 249.374 120.223 246.869 118.021 244.282C109.133 233.834 100.797 223.354 91.0744 213.086C89.7635 211.699 88.3273 210.396 86.9015 209.086C82.4157 204.968 81.8349 195.179 82.1931 189.738C82.3299 187.649 83.3986 186.192 85.3993 185.369C87.2075 184.622 88.0456 185.359 89.8191 186.418Z" fill="#707070"/>
<path d="M136.534 187.013C136.775 187.686 136.854 188.52 137.142 189.073C137.967 190.672 140.485 191.377 141.98 190.069C143.237 188.969 142.874 187.904 145.118 187.329C146.249 187.441 147.35 187.684 148.421 188.059C148.373 192.232 147.717 196.835 146.454 201.866C146.332 202.352 146.032 202.567 145.554 202.51C140.071 202.583 136.89 202.716 132.989 202.371C132.869 202.361 132.763 202.319 132.672 202.245L124.211 195.321C125.489 194.831 130.05 193.754 130.662 192.979C132.319 190.884 134.07 188.429 136.534 187.013Z" fill="#1D74BB"/>
<path d="M153.512 187.013L174.737 204.863C171.349 205.696 171.683 209.694 167.512 210.39V210.274C167.512 210.21 167.486 210.158 167.432 210.117C165.715 208.827 163.918 207.64 162.043 206.558C162.01 204.866 162.151 203.188 162.464 201.524L164.633 201.437C164.754 201.433 164.814 201.376 164.814 201.264V198.759C164.814 198.62 164.74 198.56 164.591 198.579L164.292 198.615C160.446 197.972 156.559 197.528 152.632 197.282C153.1 193.924 153.394 190.501 153.512 187.013Z" fill="#7F7F7F"/>
<path d="M164.211 198.072L152.813 200.64C152.673 200.672 152.614 200.619 152.636 200.482L153.242 196.753C156.936 196.996 160.593 197.436 164.211 198.072Z" fill="#919191"/>
<path d="M189.142 205.213C189.191 205.28 189.223 205.36 189.24 205.453C189.26 205.574 189.227 205.678 189.139 205.767C188.63 206.274 188.37 206.867 188.358 207.547C188.356 207.668 188.407 207.763 188.511 207.832C189.923 208.777 191.148 209.787 192.692 208.198C198.36 212.958 204.28 218.442 210.451 224.648C217.261 231.497 224.64 240.231 225.237 249.705C225.771 258.17 218.028 265.469 209.705 267.693C209.15 267.842 208.554 267.89 207.918 267.836C215.474 264.298 221.681 257.455 220.335 249C218.777 239.198 210.895 230.562 203.856 223.602C199.214 219.012 194.375 214.595 189.34 210.35C188.709 208.704 187.933 207.1 187.012 205.54C186.266 204.271 184.559 204.032 183.158 204.054L183.366 200.733C183.367 200.717 183.373 200.701 183.383 200.687C183.393 200.673 183.407 200.663 183.423 200.656C183.44 200.65 183.458 200.648 183.475 200.651C183.493 200.653 183.509 200.661 183.522 200.672L189.142 205.213Z" fill="#919191"/>
<path d="M163.158 201.623C162.832 203.193 162.686 204.775 162.72 206.37C162.471 207.619 162.347 208.884 162.347 210.165C162.347 210.232 162.319 210.297 162.267 210.348C162.215 210.399 162.144 210.432 162.065 210.443L148.421 212.338C149.818 209.52 150.885 206.62 151.621 203.639C151.628 203.61 151.646 203.584 151.671 203.563C151.696 203.543 151.728 203.529 151.762 203.524L163.158 201.623Z" fill="#707070"/>
<path d="M183.2 203.573C184.646 203.55 186.407 203.793 187.177 205.08C188.126 206.663 188.927 208.289 189.578 209.959C190.14 211.663 191.321 215.383 189.718 216.391C187.031 217.726 184.158 218.49 181.1 218.683C180.899 218.693 180.767 218.772 180.606 218.867C179.761 218.852 178.937 218.948 178.133 219.156C173.745 218.896 169.021 219.235 165.234 217.133C163.566 216.204 162.514 213.653 163.602 211.985C164.371 210.806 166.136 210.271 167.542 209.811C171.83 209.099 171.486 205.001 174.969 204.147L175.491 204.243C176.527 205.363 177.573 206.136 178.63 206.561C179.568 206.938 180.713 205.467 181.196 204.834C181.765 204.095 182.338 203.858 183.2 203.573Z" fill="#1D74BB"/>
<path d="M142.567 211.364C140.528 209.741 138.62 207.994 136.842 206.121L145.075 204.553C145.235 204.523 145.293 204.581 145.249 204.725C144.543 207.002 143.649 209.215 142.567 211.364Z" fill="#707070"/>
<path d="M189.474 210.39C194.403 214.621 199.141 219.025 203.685 223.601C210.577 230.538 218.294 239.148 219.819 248.919C221.137 257.347 215.061 264.169 207.663 267.696C205.697 268.034 203.759 267.841 201.848 267.118L203.991 266.344C204.154 266.286 204.183 266.189 204.079 266.053L203.376 265.127C214.938 263.543 215.55 248.196 210.988 240.858C209.387 238.283 207.406 235.621 205.044 232.871C200.239 227.276 195.117 221.955 189.677 216.908C189.646 216.88 189.627 216.845 189.62 216.801C189.617 216.774 189.613 216.743 189.606 216.711C191.128 215.72 190.007 212.064 189.474 210.39Z" fill="#AFAFAF"/>
<path d="M189.689 216.234C189.695 216.266 189.7 216.297 189.702 216.325C189.709 216.368 189.728 216.404 189.76 216.432C195.192 221.508 200.307 226.861 205.105 232.489C207.464 235.255 209.442 237.933 211.041 240.523C215.597 247.904 214.986 263.341 203.44 264.935C203.413 264.699 203.3 264.555 203.101 264.503L205.241 263.805C205.388 263.758 205.403 263.684 205.285 263.585L196.781 256.34L195.672 255.11C195.552 254.976 195.575 254.87 195.74 254.792L196.371 254.496C196.453 254.458 196.519 254.394 196.558 254.315C196.598 254.236 196.608 254.147 196.588 254.061C196.513 253.752 196.564 253.527 196.741 253.386C202.419 257.58 208.911 249.946 203.341 245.382C203.326 245.369 203.308 245.363 203.287 245.366C203.258 245.368 203.228 245.368 203.199 245.366L204.189 242.12L207.147 241.23C207.276 241.191 207.341 241.108 207.341 240.98V238.228C207.341 238.122 207.298 238.035 207.212 237.968C207.069 237.858 206.96 237.875 206.883 238.02C202.17 236.107 197.394 234.351 192.555 232.752C188.8 231.509 185.547 229.305 182.24 227.257C182.694 225.285 183.148 223.314 183.6 221.343C183.671 221.028 183.62 220.635 183.685 220.288L181.053 218.681C181.205 218.587 181.331 218.509 181.521 218.499C184.42 218.309 187.142 217.554 189.689 216.234Z" fill="#7F7F7F"/>
<path d="M180.445 219.157L183.158 220.727L157.112 225.974L154.787 223.545C154.703 223.459 154.724 223.405 154.85 223.384L178.03 219.436C178.815 219.236 179.62 219.143 180.445 219.157Z" fill="#CECECE"/>
<path d="M183.158 220.13C183.093 220.478 183.144 220.871 183.073 221.187C182.621 223.162 182.168 225.137 181.714 227.113L163.293 231.812C163.259 231.821 163.224 231.82 163.191 231.81C163.158 231.799 163.128 231.78 163.106 231.754L157.895 225.513L183.158 220.13Z" fill="#707070"/>
<path d="M95.7477 257.394C93.3718 255.832 91.9062 251.659 91.6234 249.065C91.5315 248.239 91.5821 247.154 91.7752 245.808C92.7637 238.912 93.7557 232.012 94.7511 225.108C94.7551 225.083 94.7671 225.059 94.7856 225.04C94.804 225.022 94.8281 225.009 94.8546 225.003C94.8811 224.997 94.9088 225 94.934 225.009C94.9593 225.018 94.9808 225.035 94.996 225.056C100.582 233.43 106.517 241.096 113.959 248.561C120.931 255.556 128.2 262.281 135.766 268.737C135.777 268.744 135.785 268.755 135.788 268.767C135.791 268.78 135.789 268.793 135.783 268.804C135.777 268.815 135.766 268.824 135.753 268.828C135.741 268.832 135.727 268.832 135.714 268.828C123.348 265.774 110.934 262.656 98.8098 258.804C97.619 258.425 96.5983 257.955 95.7477 257.394Z" fill="#AFAFAF"/>
<path d="M204.13 242.064L174.862 249.351L173.708 246.908C173.655 246.791 173.691 246.715 173.816 246.682L206.898 237.791C206.977 237.64 207.09 237.622 207.236 237.737C207.324 237.807 207.368 237.897 207.368 238.008V240.876C207.368 241.009 207.302 241.096 207.17 241.137L204.13 242.064Z" fill="#CECECE"/>
<path d="M204.211 242.532L203.185 245.588L202.28 247.956C201.185 248.936 199.001 249.462 197.541 250.018C197.077 250.104 196.672 250.286 196.326 250.565C196.12 250.543 195.918 250.551 195.719 250.589C189.81 251.779 183.896 252.987 177.977 254.213C177.86 254.238 177.773 254.204 177.717 254.112L174.737 249.114L204.211 242.532Z" fill="#707070"/>
<path d="M162.857 249.089C168.926 258.153 170.06 272.886 158.748 279.169C157.931 279.625 157.113 280.075 156.296 280.519C151.674 280.204 147.938 278.354 145.087 274.971C144.942 274.799 144.75 274.706 144.514 274.693C144.605 274.554 144.61 274.416 144.531 274.281C141.156 268.421 139.303 262.145 138.971 255.453C138.711 250.22 140.576 243.134 147.355 242.592C148.778 242.479 150.282 242.527 151.867 242.737C156.955 243.408 159.582 245.615 162.857 249.089Z" fill="#707070"/>
<path d="M203.115 245.455C203.143 245.457 203.171 245.457 203.199 245.455C203.218 245.453 203.235 245.458 203.25 245.47C208.522 249.801 202.377 257.046 197.003 253.067L196.842 250.473C197.159 250.192 197.529 250.008 197.953 249.922C199.115 253.643 204.688 250.883 202.287 247.842L203.115 245.455Z" fill="#CECECE"/>
<path d="M202.523 248.377C205.088 251.437 199.136 254.215 197.895 250.469C199.321 249.905 201.453 249.372 202.523 248.377Z" fill="#191919"/>
<path d="M196.461 256.169L205.183 263.586C205.303 263.687 205.288 263.763 205.138 263.811L202.942 264.526L177.895 271.753L179.032 268.294C179.072 268.174 179.154 268.097 179.279 268.061L200.952 262.06C200.982 262.052 201.009 262.038 201.031 262.017C201.053 261.997 201.07 261.972 201.08 261.944C201.089 261.916 201.092 261.886 201.086 261.857C201.081 261.828 201.069 261.801 201.05 261.778L196.461 256.169Z" fill="#CECECE"/>
<path d="M203.081 263.961C203.285 264.015 203.401 264.163 203.428 264.407L204.148 265.37C204.255 265.511 204.225 265.611 204.058 265.672L201.864 266.477C201.56 266.454 201.357 266.459 201.255 266.49C193.13 268.936 184.993 271.34 176.842 273.701C177.132 272.836 177.533 272.021 178.045 271.256L203.081 263.961Z" fill="#707070"/>
</svg>
