<svg width="72" height="57" viewBox="0 0 72 57" fill="none" xmlns="http://www.w3.org/2000/svg">
<path d="M29.1656 5.29418C31.5268 5.22574 32.0439 6.77706 32.3367 8.87209C32.7372 11.7187 34.4203 13.6236 37.3861 14.5868C37.4276 14.5995 37.4724 14.5979 37.5132 14.5824C37.554 14.5668 37.5884 14.5383 37.6109 14.5013C37.6333 14.4644 37.6425 14.4212 37.6369 14.3788C37.6313 14.3363 37.6112 14.2971 37.58 14.2675C35.5445 12.2827 34.7714 9.88982 35.2606 7.08884C35.4786 5.84931 35.5673 5.05718 35.5268 4.71244C35.0211 0.305654 29.3596 -0.34833 27.4052 3.67063C27.3494 3.7847 27.2683 3.80751 27.1619 3.73907C24.1771 1.85316 20.1543 2.9368 17.8996 5.37403C16.5574 6.82648 16.5156 11.2827 17.7285 12.739C17.8223 12.8505 17.8515 12.9772 17.816 13.1192L17.1088 16.1382C17.1012 16.1686 17.1007 16.2004 17.1074 16.231C17.114 16.2617 17.1276 16.2904 17.147 16.315C17.1665 16.3396 17.1913 16.3594 17.2196 16.3729C17.2479 16.3864 17.2789 16.3932 17.3103 16.3929H18.0631C18.2025 16.3929 18.29 16.4613 18.3255 16.5982L18.5536 17.5298C18.5891 17.6768 18.6715 17.7909 18.8008 17.872C19.4117 18.2623 19.6943 18.8289 19.6487 19.5716C19.6447 19.6372 19.6569 19.7029 19.6842 19.7627C19.7115 19.8226 19.753 19.8749 19.8051 19.915C19.8573 19.9551 19.9184 19.9819 19.9833 19.9929C20.0481 20.004 20.1147 19.999 20.1772 19.9784L23.3368 18.91C23.392 18.892 23.4508 18.8884 23.5078 18.8994C23.5648 18.9104 23.618 18.9358 23.6625 18.973C23.707 19.0103 23.7412 19.0583 23.7621 19.1124C23.783 19.1666 23.7897 19.2251 23.7817 19.2826C23.3964 22.005 22.4636 24.5259 20.9832 26.8452C20.9047 26.9695 20.9363 27.0113 21.0783 26.9707C23.584 26.2673 24.8425 25.0886 26.3064 22.8681C27.442 21.1444 28.9869 19.8542 30.9413 18.9974C31.0832 18.9341 31.101 18.8466 30.9945 18.7351C27.2151 14.6971 35.0439 10.6325 29.0668 5.57935C29.0407 5.55881 29.0217 5.53065 29.0123 5.49879C29.003 5.46693 29.0038 5.43294 29.0147 5.40157C29.0256 5.3702 29.0459 5.343 29.073 5.32375C29.1001 5.30451 29.1324 5.29417 29.1656 5.29418Z" stroke="#3F4BB7" stroke-width="2"/>
<path d="M52.5798 24.0549C53.4645 23.7913 54.2477 23.3489 54.9296 22.7279C54.9758 22.6865 55.0324 22.6583 55.0932 22.6463C55.1541 22.6342 55.2171 22.6388 55.2756 22.6595L56.1767 22.9827C56.3136 23.0308 56.4036 22.9865 56.4467 22.8496L57.3783 19.8876C57.4149 19.7732 57.4955 19.6775 57.6026 19.6215C58.7889 19.0169 59.1387 17.5911 59.4961 16.4048C59.5341 16.2755 59.6178 16.1944 59.747 16.1614L60.7546 15.9105C60.856 15.8852 60.9042 15.8205 60.8991 15.7166C60.6976 12.0208 58.6824 8.26421 55.0779 7.09312C51.8726 6.05131 48.154 7.36308 46.5533 10.4923C45.9982 11.5722 46.3099 13.1881 45.3708 14.3972C43.7815 16.4542 41.1237 17.4162 38.6484 18.131C38.6019 18.1439 38.5593 18.1683 38.5245 18.2019C38.4898 18.2356 38.4641 18.2774 38.4497 18.3235C38.4353 18.3697 38.4328 18.4187 38.4423 18.4661C38.4517 18.5135 38.4729 18.5578 38.504 18.5949C40.4963 21.0017 42.9222 22.6633 44.8575 25.1765C44.9411 25.283 45.0121 25.2767 45.0704 25.1575C45.5001 24.2906 46.0628 23.2564 47.059 22.9598C47.5989 22.7963 48.6901 22.4922 49.059 23.0245C49.5761 23.7735 51.4962 26.1119 52.3479 24.2564C52.3961 24.155 52.4734 24.0878 52.5798 24.0549Z" stroke="#3F4BB7" stroke-width="2"/>
<path d="M26.1087 29.6777C33.812 30.7081 36.3671 25.48 36.1618 18.8603C36.1593 18.764 36.1086 18.7158 36.0097 18.7158C29.8235 18.8261 25.6791 23.2937 25.9452 29.499C25.9503 29.6029 26.0048 29.6625 26.1087 29.6777Z" stroke="#C3C3C3" stroke-width="2"/>
<path d="M44.6027 27.0421C43.4583 23.5783 39.2796 22.0498 37.2644 18.9396C37.1225 18.719 37.0566 18.7393 37.0667 19.0004C37.3975 26.6695 31.774 33.3576 42.253 36.6542C42.3898 36.6973 42.4963 36.6567 42.5723 36.5325C44.1427 33.9204 45.5685 29.9812 44.6027 27.0421Z" stroke="#C3C3C3" stroke-width="2"/>
<path d="M15.4548 26.351C14.3851 27.9175 13.9656 29.7642 14.1963 31.8909C14.2089 31.9999 14.252 32.0138 14.3255 31.9327C17.1126 28.7692 20.7437 27.0963 22.1163 23.0507C22.1696 22.8935 22.1252 22.858 21.9832 22.9442C20.0669 24.0887 16.6259 24.6362 15.4548 26.351Z" stroke="#C3C3C3" stroke-width="2"/>
<path d="M48.8651 27.2057C48.419 26.8407 47.893 26.0372 47.2872 24.7951C47.2137 24.6506 47.1541 24.6557 47.1085 24.8103C45.1732 31.0232 50.3366 31.9775 53.5343 35.9471C53.5495 35.9652 53.5699 35.9782 53.5928 35.9842C53.6157 35.9902 53.6399 35.989 53.662 35.9806C53.6842 35.9722 53.7032 35.9572 53.7164 35.9376C53.7296 35.9179 53.7364 35.8947 53.7358 35.871C53.5571 31.9737 51.7814 29.5821 48.8651 27.2057Z" stroke="#C3C3C3" stroke-width="2"/>
<path d="M7.77054 28.2645C7.77054 27.4487 7.44647 26.6663 6.8696 26.0894C6.29274 25.5126 5.51034 25.1885 4.69454 25.1885C3.87873 25.1885 3.09634 25.5126 2.51947 26.0894C1.94261 26.6663 1.61853 27.4487 1.61853 28.2645C1.61853 29.0803 1.94261 29.8627 2.51947 30.4395C3.09634 31.0164 3.87873 31.3405 4.69454 31.3405C5.51034 31.3405 6.29274 31.0164 6.8696 30.4395C7.44647 29.8627 7.77054 29.0803 7.77054 28.2645Z" stroke="#3F4BB7" stroke-width="2"/>
<path d="M24.7437 29.9022C24.6411 28.6779 24.873 27.7349 25.0289 26.6361C25.0322 26.6088 25.0285 26.5812 25.0183 26.5557C25.008 26.5302 24.9916 26.5077 24.9703 26.4903C24.9491 26.4729 24.9239 26.4611 24.8969 26.456C24.8699 26.4509 24.8421 26.4527 24.816 26.4611C21.6259 27.5182 18.6221 28.674 16.1659 31.0466C16.1387 31.0716 16.1208 31.1049 16.115 31.1413C16.1091 31.1778 16.1158 31.2151 16.1339 31.2472C16.1519 31.2793 16.1803 31.3044 16.2144 31.3184C16.2485 31.3324 16.2864 31.3344 16.3218 31.3242C19.0188 30.6246 21.7565 30.2292 24.5346 30.1379C24.6867 30.1328 24.7564 30.0543 24.7437 29.9022Z" stroke="#C3C3C3" stroke-width="2"/>
<path d="M34.8805 27.384C34.1758 28.3827 33.5966 28.9949 33.1429 29.2205C27.8692 31.8478 25.3787 37.4409 28.603 42.821C28.6613 42.9199 28.7259 42.9237 28.7969 42.8324C32.3824 38.1861 34.1467 32.8402 35.2417 27.1406C35.245 27.1257 35.2441 27.1101 35.2391 27.0956C35.2342 27.0811 35.2253 27.0683 35.2135 27.0585C35.2018 27.0486 35.1875 27.0423 35.1724 27.04C35.1572 27.0377 35.1418 27.0397 35.1276 27.0456C34.9641 27.1178 34.9603 27.2737 34.8805 27.384Z" stroke="#C3C3C3" stroke-width="2"/>
<path d="M70.1119 31.8563C70.1119 30.8802 69.7241 29.944 69.0339 29.2538C68.3436 28.5636 67.4074 28.1758 66.4313 28.1758C65.948 28.1758 65.4694 28.271 65.0228 28.4559C64.5763 28.6409 64.1705 28.912 63.8287 29.2538C63.487 29.5956 63.2159 30.0013 63.0309 30.4479C62.8459 30.8944 62.7507 31.373 62.7507 31.8563C62.7507 32.3397 62.8459 32.8183 63.0309 33.2648C63.2159 33.7114 63.487 34.1171 63.8287 34.4589C64.1705 34.8007 64.5763 35.0718 65.0228 35.2567C65.4694 35.4417 65.948 35.5369 66.4313 35.5369C67.4074 35.5369 68.3436 35.1491 69.0339 34.4589C69.7241 33.7687 70.1119 32.8325 70.1119 31.8563Z" stroke="#3F4BB7" stroke-width="2"/>
<path d="M44.3898 35.6591C43.7016 37.6248 44.2263 38.4766 45.9564 39.3929C46.0679 39.4512 46.1769 39.4474 46.2834 39.3815C48.6027 37.8948 49.4354 35.9481 48.0324 33.374C47.1553 31.7618 46.5102 30.2181 46.097 28.7428C46.0387 28.5299 46.0071 28.5337 46.002 28.7542C45.9602 31.3093 45.2225 33.2903 44.3898 35.6591Z" stroke="#C3C3C3" stroke-width="2"/>
<path d="M5.42453 34.5263C3.93913 33.302 2.50822 31.6594 1.13181 29.5986C0.999998 29.4009 0.967048 29.4161 1.03295 29.6443C1.69201 31.8876 2.54624 33.9053 3.59566 35.6974C6.81995 41.2031 9.0113 44.9837 10.1697 47.0395C10.2432 47.1688 10.2838 47.1586 10.2914 47.0091C10.588 42.0357 9.37505 37.7772 5.42453 34.5263Z" stroke="#C3C3C3" stroke-width="2"/>
<path d="M22.9034 40.9026C24.4586 41.0204 25.6258 41.4995 26.8159 42.5033C26.9376 42.6072 26.9832 42.5806 26.9528 42.4235C25.8654 37.1041 25.9452 34.549 29.9072 30.5111C30.0086 30.4097 29.9883 30.3615 29.8463 30.3666C28.4205 30.4198 26.4471 30.6631 25.3141 31.6137C23.4434 33.184 22.8274 38.0243 22.74 40.7239C22.7374 40.8354 22.7919 40.895 22.9034 40.9026Z" stroke="#C3C3C3" stroke-width="2"/>
<path d="M17.7172 50.9859C19.6589 52.7172 21.9542 53.427 24.6031 53.1152C24.6272 53.1131 24.6502 53.1043 24.6696 53.0897C24.689 53.0752 24.7038 53.0555 24.7126 53.0329C24.7213 53.0103 24.7235 52.9858 24.7189 52.962C24.7143 52.9382 24.7032 52.9162 24.6867 52.8984C20.2723 47.9555 20.1887 36.0964 24.6525 31.1687C24.7285 31.085 24.7121 31.0343 24.6031 31.0166C21.3369 30.5147 15.8389 32.028 17.4891 36.6211C19.2153 41.4309 19.9605 46.0392 17.6336 50.5335C17.5955 50.6075 17.5831 50.6921 17.5982 50.774C17.6134 50.8558 17.6552 50.9304 17.7172 50.9859Z" stroke="#3F4BB7" stroke-width="2"/>
<path d="M17.8617 31.8258C13.6868 31.59 11.9112 34.7763 12.1241 38.5557C12.1292 38.6597 12.1824 38.6951 12.2838 38.6622C15.8541 37.4455 15.8009 34.4569 17.8845 31.879C17.9098 31.8461 17.9022 31.8283 17.8617 31.8258Z" stroke="#C3C3C3" stroke-width="2"/>
<path d="M35.1314 33.0205C33.9046 36.9469 31.9895 40.4956 29.3862 43.6667C29.3403 43.723 29.3087 43.7894 29.2942 43.8602C29.2796 43.9311 29.2825 44.0043 29.3026 44.0736C30.6296 48.7503 31.987 50.2902 36.9337 50.9708C37.0731 50.9886 37.0959 50.9455 37.0021 50.8415C33.1581 46.5602 34.1048 42.4842 34.9679 37.3132C35.2417 35.6681 35.3456 34.2435 35.2797 33.0395C35.2787 33.0218 35.2715 33.0049 35.2594 32.992C35.2473 32.979 35.231 32.9706 35.2134 32.9684C35.1958 32.9661 35.178 32.9701 35.163 32.9796C35.148 32.9891 35.1369 33.0036 35.1314 33.0205Z" stroke="#3F4BB7" stroke-width="2"/>
<path d="M70.8382 32.86C69.8344 35.3809 67.5226 37.1946 64.6291 39.3086C59.9447 42.7268 56.5265 46.6051 57.5988 52.8027C57.6019 52.8231 57.6112 52.8418 57.6255 52.8566C57.6397 52.8713 57.6582 52.8814 57.6787 52.8855C57.6991 52.8895 57.7205 52.8875 57.7402 52.8795C57.7598 52.8715 57.7768 52.858 57.7889 52.8407C62.0854 46.2591 69.0929 41.1337 70.9788 33.2212C71.0194 33.0539 71.0016 32.9284 70.9256 32.8448C70.9196 32.8384 70.912 32.8336 70.9037 32.8308C70.8953 32.8281 70.8865 32.8274 70.8778 32.8289C70.8691 32.8304 70.861 32.834 70.8541 32.8395C70.8471 32.8449 70.8417 32.852 70.8382 32.86Z" stroke="#C3C3C3" stroke-width="2"/>
<path d="M37.4508 44.9793C38.4242 44.7018 38.2075 43.7474 38.0972 42.8767C38.0884 42.8112 38.1001 42.7445 38.1308 42.686C38.1614 42.6274 38.2095 42.5798 38.2683 42.5497L38.6828 42.333C38.7538 42.2961 38.8133 42.2404 38.8549 42.172C38.8965 42.1036 38.9185 42.0252 38.9185 41.9451V39.7741C38.9185 39.6676 38.9616 39.5814 39.0478 39.5155C39.7702 38.9756 40.286 38.2582 40.5953 37.3634C40.6358 37.2519 40.6016 37.1708 40.4926 37.1201C38.921 36.3799 37.5142 35.4053 36.2721 34.1962C36.1708 34.0948 36.1137 34.1151 36.101 34.257C35.5193 40.276 32.9224 46.1124 38.1276 50.7853C38.1494 50.804 38.1757 50.8166 38.204 50.8216C38.2322 50.8266 38.2613 50.8239 38.2882 50.8138C38.315 50.8036 38.3386 50.7865 38.3565 50.7641C38.3745 50.7417 38.386 50.7149 38.39 50.6865C38.6308 48.7524 38.2785 46.9451 37.333 45.2645C37.2519 45.12 37.2911 45.0249 37.4508 44.9793Z" stroke="#C3C3C3" stroke-width="2"/>
<path d="M16.489 35.5602C16.0251 36.8809 15.252 37.9138 14.1696 38.659C11.2533 40.6666 10.6639 43.8111 10.854 47.1114C10.8642 47.2787 10.9377 47.3155 11.0746 47.2217C15.0973 44.5487 15.968 41.5373 16.622 36.9785C16.6778 36.5957 16.6803 36.128 16.6296 35.5754C16.6094 35.3498 16.5625 35.3448 16.489 35.5602Z" stroke="#C3C3C3" stroke-width="2"/>
<path d="M57.2338 44.0698C57.5 39.8455 54.9829 36.279 50.6674 35.952C50.5685 35.9444 50.5305 35.9888 50.5533 36.0851C50.9221 37.663 51.0856 39.606 51.8613 40.8417C52.9791 42.6173 55.1426 43.5945 57.0779 44.18C57.1768 44.2105 57.2287 44.1737 57.2338 44.0698Z" stroke="#C3C3C3" stroke-width="2"/>
<path d="M54.5683 45.8373C51.4048 43.4761 50.5569 40.4723 49.8497 36.6017C49.8117 36.3938 49.7382 36.3799 49.6292 36.5598C45.6483 43.1909 51.5113 48.9665 56.6443 52.6623C56.7229 52.7181 56.766 52.6978 56.7736 52.6015C56.9979 50.0616 56.6557 47.3924 54.5683 45.8373Z" stroke="#C3C3C3" stroke-width="2"/>
<path d="M41.8994 41.6731L42.2492 41.8518C42.3531 41.905 42.4431 41.8873 42.5191 41.7985C43.4887 40.6693 44.1693 38.9659 42.9526 37.7339C42.8639 37.6427 42.7549 37.5945 42.6256 37.5895C40.4621 37.483 39.6941 40.7415 39.5154 42.4411C39.4013 43.526 39.0477 44.5361 38.4545 45.4715C38.3861 45.5805 38.3747 45.6946 38.4203 45.8137C39.2416 47.8745 39.1009 50.1787 40.3481 51.9885C40.4292 52.1051 40.4849 52.095 40.5154 51.9581C41.035 49.7097 40.8132 47.5564 39.85 45.4981C39.8412 45.4791 39.8395 45.4576 39.8453 45.4374C39.851 45.4173 39.8638 45.3999 39.8813 45.3884C39.8988 45.3769 39.9198 45.3721 39.9406 45.3747C39.9614 45.3774 39.9805 45.3875 39.9944 45.4031L40.7891 46.2776C40.8778 46.3739 40.9589 46.3676 41.0325 46.2586C41.9577 44.8771 42.1896 43.3955 41.7283 41.8137C41.675 41.6338 41.7321 41.5869 41.8994 41.6731Z" stroke="#C3C3C3" stroke-width="2"/>
<path d="M44.4546 39.6017C44.1783 40.7145 43.6041 41.6359 42.7321 42.366C42.6307 42.4496 42.5864 42.5561 42.5991 42.6854C42.741 44.2671 42.319 45.6524 41.3329 46.8412C41.2619 46.9274 41.2341 47.025 41.2493 47.134C41.4597 48.6447 41.4749 50.1542 41.2949 51.6624C41.2924 51.6929 41.305 51.7131 41.3329 51.7233C41.3684 51.7334 41.4039 51.7448 41.4394 51.7575C41.4701 51.766 41.503 51.7625 41.5312 51.7477C41.5595 51.7328 41.581 51.7078 41.5915 51.6776C41.9463 50.6003 42.0782 49.499 41.9869 48.3735C41.9742 48.2316 42.0186 48.1124 42.12 48.0161C43.395 46.7943 43.94 45.2785 43.7549 43.4686C43.7423 43.3292 43.7765 43.2012 43.8576 43.0846C44.5927 42.0453 44.8436 40.8856 44.6104 39.6056C44.607 39.5877 44.5975 39.5716 44.5836 39.5598C44.5697 39.5481 44.5522 39.5415 44.534 39.541C44.5158 39.5406 44.4981 39.5464 44.4836 39.5574C44.4691 39.5685 44.4589 39.5841 44.4546 39.6017Z" stroke="#C3C3C3" stroke-width="2"/>
<path d="M30.2988 51.7687C29.2874 47.3695 28.4699 42.6509 22.9491 42.0273C22.835 42.0147 22.7729 42.0641 22.7627 42.1756C22.3369 46.4924 23.7792 49.9829 27.0897 52.647C27.186 52.7256 27.295 52.7509 27.4167 52.723L30.1125 52.069C30.2722 52.0285 30.3343 51.9283 30.2988 51.7687Z" stroke="#C3C3C3" stroke-width="2"/>
<path d="M40.8462 52.9659C33.4432 49.1484 26.0631 56.9012 17.7704 52.0001C17.7519 51.9883 17.7298 51.9836 17.7081 51.9868C17.6864 51.99 17.6666 52.0009 17.6522 52.0175C17.6379 52.0341 17.6301 52.0553 17.6301 52.0773C17.6302 52.0992 17.6382 52.1204 17.6526 52.137C22.7286 58.5818 33.9071 52.829 40.7207 53.4031C41.4913 53.4665 41.5331 53.3207 40.8462 52.9659Z" stroke="#C3C3C3" stroke-width="2"/>
<path d="M29.1656 5.29418C29.1324 5.29417 29.1001 5.30451 29.073 5.32375C29.0459 5.343 29.0256 5.3702 29.0147 5.40157C29.0038 5.43294 29.003 5.46693 29.0123 5.49879C29.0217 5.53065 29.0407 5.55881 29.0668 5.57935C35.0439 10.6325 27.2151 14.6971 30.9945 18.7351C31.101 18.8466 31.0832 18.9341 30.9413 18.9974C28.9869 19.8542 27.442 21.1444 26.3064 22.8681C24.8425 25.0886 23.584 26.2673 21.0783 26.9707C20.9363 27.0113 20.9047 26.9695 20.9832 26.8452C22.4636 24.5259 23.3964 22.005 23.7817 19.2826C23.7897 19.2251 23.783 19.1666 23.7621 19.1124C23.7412 19.0583 23.707 19.0103 23.6625 18.973C23.618 18.9358 23.5648 18.9104 23.5078 18.8994C23.4508 18.8884 23.392 18.892 23.3368 18.91L20.1772 19.9784C20.1147 19.999 20.0481 20.004 19.9833 19.9929C19.9184 19.9819 19.8573 19.9551 19.8051 19.915C19.753 19.8749 19.7115 19.8226 19.6842 19.7627C19.6569 19.7029 19.6447 19.6372 19.6487 19.5716C19.6943 18.8289 19.4117 18.2623 18.8008 17.872C18.6715 17.7909 18.5891 17.6768 18.5536 17.5298L18.3255 16.5982C18.29 16.4613 18.2025 16.3929 18.0631 16.3929H17.3103C17.2789 16.3932 17.2479 16.3864 17.2196 16.3729C17.1913 16.3594 17.1665 16.3396 17.147 16.315C17.1276 16.2904 17.114 16.2617 17.1074 16.231C17.1007 16.2004 17.1012 16.1686 17.1088 16.1382L17.816 13.1192C17.8515 12.9772 17.8223 12.8505 17.7285 12.739C16.5156 11.2827 16.5574 6.82648 17.8996 5.37403C20.1543 2.9368 24.1771 1.85316 27.1619 3.73907C27.2683 3.80751 27.3494 3.7847 27.4052 3.67063C29.3596 -0.34833 35.0211 0.305654 35.5268 4.71244C35.5673 5.05718 35.4786 5.84931 35.2606 7.08884C34.7714 9.88982 35.5445 12.2827 37.58 14.2675C37.6112 14.2971 37.6313 14.3363 37.6369 14.3788C37.6425 14.4212 37.6333 14.4644 37.6109 14.5013C37.5884 14.5383 37.554 14.5668 37.5132 14.5824C37.4724 14.5979 37.4276 14.5995 37.3861 14.5868C34.4203 13.6236 32.7372 11.7187 32.3367 8.87209C32.0439 6.77706 31.5268 5.22574 29.1656 5.29418Z" fill="#5593F0"/>
<path d="M52.3479 24.2564C51.4962 26.1119 49.5761 23.7735 49.059 23.0245C48.6901 22.4922 47.5989 22.7963 47.059 22.9598C46.0628 23.2564 45.5001 24.2906 45.0704 25.1575C45.0121 25.2767 44.9411 25.283 44.8575 25.1765C42.9222 22.6633 40.4963 21.0017 38.504 18.5949C38.4729 18.5578 38.4517 18.5135 38.4423 18.4661C38.4328 18.4187 38.4353 18.3697 38.4497 18.3235C38.4641 18.2774 38.4898 18.2356 38.5245 18.2019C38.5593 18.1683 38.6019 18.1439 38.6484 18.131C41.1237 17.4162 43.7815 16.4542 45.3708 14.3972C46.3099 13.1881 45.9982 11.5722 46.5533 10.4923C48.154 7.36308 51.8726 6.05131 55.0779 7.09312C58.6824 8.26421 60.6976 12.0208 60.8991 15.7166C60.9042 15.8205 60.856 15.8852 60.7546 15.9105L59.747 16.1614C59.6178 16.1944 59.5341 16.2755 59.4961 16.4048C59.1387 17.5911 58.7889 19.0169 57.6026 19.6215C57.4955 19.6775 57.4149 19.7732 57.3783 19.8876L56.4467 22.8496C56.4036 22.9865 56.3136 23.0308 56.1767 22.9827L55.2756 22.6595C55.2171 22.6388 55.1541 22.6342 55.0932 22.6463C55.0324 22.6583 54.9758 22.6865 54.9296 22.7279C54.2477 23.3489 53.4645 23.7913 52.5798 24.0549C52.4734 24.0878 52.3961 24.155 52.3479 24.2564Z" fill="#5593F0"/>
<path d="M36.1618 18.8603C36.3671 25.48 33.812 30.7081 26.1087 29.6777C26.0048 29.6625 25.9503 29.6029 25.9452 29.499C25.6791 23.2937 29.8235 18.8261 36.0097 18.7158C36.1086 18.7158 36.1593 18.764 36.1618 18.8603Z" fill="#F6F5F6"/>
<path d="M37.2644 18.9415C39.2796 22.0517 43.4583 23.5802 44.6027 27.0441C45.5685 29.9832 44.1427 33.9223 42.5723 36.5344C42.4963 36.6587 42.3898 36.6992 42.253 36.6561C31.774 33.3596 37.3975 26.6715 37.0667 19.0023C37.0566 18.7413 37.1225 18.721 37.2644 18.9415Z" fill="#F6F5F6"/>
<path d="M15.4548 26.351C16.6259 24.6362 20.0669 24.0887 21.9832 22.9442C22.1252 22.858 22.1696 22.8935 22.1163 23.0507C20.7437 27.0963 17.1126 28.7692 14.3255 31.9327C14.252 32.0138 14.2089 31.9999 14.1963 31.8909C13.9656 29.7642 14.3851 27.9175 15.4548 26.351Z" fill="#F6F5F6"/>
<path d="M48.8651 27.2057C51.7814 29.5821 53.5571 31.9737 53.7358 35.871C53.7364 35.8947 53.7296 35.9179 53.7164 35.9376C53.7032 35.9572 53.6842 35.9722 53.662 35.9806C53.6399 35.989 53.6157 35.9902 53.5928 35.9842C53.5699 35.9782 53.5495 35.9652 53.5343 35.9471C50.3366 31.9775 45.1732 31.0232 47.1085 24.8103C47.1541 24.6557 47.2137 24.6506 47.2872 24.7951C47.893 26.0372 48.419 26.8407 48.8651 27.2057Z" fill="#F6F5F6"/>
<path d="M4.69454 31.3405C6.39337 31.3405 7.77055 29.9633 7.77055 28.2645C7.77055 26.5657 6.39337 25.1885 4.69454 25.1885C2.9957 25.1885 1.61853 26.5657 1.61853 28.2645C1.61853 29.9633 2.9957 31.3405 4.69454 31.3405Z" fill="#5593F0"/>
<path d="M25.0289 26.6361C24.873 27.7349 24.6411 28.6779 24.7437 29.9022C24.7564 30.0543 24.6867 30.1328 24.5346 30.1379C21.7565 30.2292 19.0188 30.6246 16.3218 31.3242C16.2864 31.3344 16.2485 31.3324 16.2144 31.3184C16.1803 31.3044 16.1519 31.2793 16.1339 31.2472C16.1158 31.2151 16.1091 31.1778 16.115 31.1413C16.1208 31.1049 16.1387 31.0716 16.1659 31.0466C18.6221 28.674 21.6259 27.5182 24.816 26.4611C24.8421 26.4527 24.8699 26.4509 24.8969 26.456C24.9239 26.4611 24.9491 26.4729 24.9703 26.4903C24.9916 26.5077 25.008 26.5302 25.0183 26.5557C25.0285 26.5812 25.0322 26.6088 25.0289 26.6361Z" fill="#F6F5F6"/>
<path d="M34.8805 27.3859C34.9603 27.2757 34.9641 27.1198 35.1276 27.0475C35.1418 27.0416 35.1572 27.0397 35.1724 27.0419C35.1875 27.0442 35.2018 27.0506 35.2135 27.0604C35.2253 27.0702 35.2342 27.0831 35.2391 27.0976C35.2441 27.112 35.245 27.1276 35.2417 27.1426C34.1467 32.8421 32.3824 38.1881 28.7969 42.8344C28.7259 42.9257 28.6613 42.9219 28.603 42.823C25.3787 37.4428 27.8692 31.8498 33.1429 29.2224C33.5966 28.9968 34.1758 28.3847 34.8805 27.3859Z" fill="#F6F5F6"/>
<path d="M66.4313 35.5379C68.464 35.5379 70.1119 33.89 70.1119 31.8573C70.1119 29.8246 68.464 28.1768 66.4313 28.1768C64.3986 28.1768 62.7507 29.8246 62.7507 31.8573C62.7507 33.89 64.3986 35.5379 66.4313 35.5379Z" fill="#5593F0"/>
<path d="M45.9564 39.3929C44.2263 38.4766 43.7016 37.6248 44.3898 35.6591C45.2225 33.2903 45.9602 31.3093 46.002 28.7542C46.0071 28.5337 46.0387 28.5299 46.097 28.7428C46.5102 30.2181 47.1553 31.7618 48.0324 33.374C49.4354 35.9481 48.6027 37.8948 46.2834 39.3815C46.1769 39.4474 46.0679 39.4512 45.9564 39.3929Z" fill="#F6F5F6"/>
<path d="M5.42453 34.5263C9.37505 37.7772 10.588 42.0357 10.2914 47.0091C10.2838 47.1586 10.2432 47.1688 10.1697 47.0395C9.0113 44.9837 6.81995 41.2031 3.59566 35.6974C2.54624 33.9053 1.69201 31.8876 1.03295 29.6443C0.967048 29.4161 0.999998 29.4009 1.13181 29.5986C2.50822 31.6594 3.93913 33.302 5.42453 34.5263Z" fill="#F6F5F6"/>
<path d="M26.8159 42.5033C25.6258 41.4995 24.4586 41.0204 22.9034 40.9026C22.7919 40.895 22.7374 40.8354 22.74 40.7239C22.8274 38.0243 23.4434 33.184 25.3141 31.6137C26.4471 30.6631 28.4205 30.4198 29.8463 30.3666C29.9883 30.3615 30.0086 30.4097 29.9072 30.5111C25.9452 34.549 25.8654 37.1041 26.9528 42.4235C26.9832 42.5806 26.9376 42.6072 26.8159 42.5033Z" fill="#F6F5F6"/>
<path d="M17.7172 50.9859C17.6552 50.9304 17.6134 50.8558 17.5982 50.774C17.5831 50.6921 17.5955 50.6075 17.6336 50.5335C19.9605 46.0392 19.2153 41.4309 17.4891 36.6211C15.8389 32.028 21.3369 30.5147 24.6031 31.0166C24.7121 31.0343 24.7285 31.085 24.6525 31.1687C20.1887 36.0964 20.2723 47.9555 24.6867 52.8984C24.7032 52.9162 24.7143 52.9382 24.7189 52.962C24.7235 52.9858 24.7213 53.0103 24.7126 53.0329C24.7038 53.0555 24.689 53.0752 24.6696 53.0897C24.6502 53.1043 24.6272 53.1131 24.6031 53.1152C21.9542 53.427 19.6589 52.7172 17.7172 50.9859Z" fill="#5593F0"/>
<path d="M12.1241 38.5557C11.9112 34.7763 13.6868 31.59 17.8617 31.8258C17.9022 31.8283 17.9098 31.8461 17.8845 31.879C15.8009 34.4569 15.8541 37.4455 12.2838 38.6622C12.1824 38.6951 12.1292 38.6597 12.1241 38.5557Z" fill="#F6F5F6"/>
<path d="M35.2797 33.0395C35.3456 34.2435 35.2417 35.6681 34.9679 37.3132C34.1048 42.4842 33.1581 46.5602 37.0021 50.8415C37.0959 50.9455 37.0731 50.9886 36.9337 50.9708C31.987 50.2902 30.6296 48.7503 29.3026 44.0736C29.2825 44.0043 29.2796 43.9311 29.2942 43.8602C29.3087 43.7894 29.3403 43.723 29.3862 43.6667C31.9895 40.4956 33.9046 36.9469 35.1314 33.0205C35.1369 33.0036 35.148 32.9891 35.163 32.9796C35.178 32.9701 35.1958 32.9661 35.2134 32.9684C35.231 32.9706 35.2473 32.979 35.2594 32.992C35.2715 33.0049 35.2787 33.0218 35.2797 33.0395Z" fill="#5593F0"/>
<path d="M70.8382 32.861C70.8417 32.8529 70.8471 32.8459 70.8541 32.8404C70.861 32.835 70.8691 32.8314 70.8778 32.8299C70.8865 32.8284 70.8953 32.829 70.9037 32.8318C70.912 32.8346 70.9196 32.8394 70.9256 32.8458C71.0016 32.9294 71.0194 33.0549 70.9788 33.2222C69.0929 41.1346 62.0854 46.2601 57.7889 52.8417C57.7768 52.859 57.7598 52.8725 57.7402 52.8805C57.7205 52.8884 57.6991 52.8905 57.6787 52.8864C57.6582 52.8823 57.6397 52.8723 57.6255 52.8575C57.6112 52.8428 57.6019 52.824 57.5988 52.8037C56.5265 46.6061 59.9447 42.7278 64.6291 39.3096C67.5226 37.1955 69.8344 35.3819 70.8382 32.861Z" fill="#F6F5F6"/>
<path d="M37.333 45.2645C38.2785 46.9451 38.6308 48.7524 38.39 50.6865C38.386 50.7149 38.3745 50.7417 38.3565 50.7641C38.3386 50.7865 38.315 50.8036 38.2882 50.8138C38.2613 50.8239 38.2322 50.8266 38.204 50.8216C38.1757 50.8166 38.1494 50.804 38.1276 50.7853C32.9224 46.1124 35.5193 40.276 36.101 34.257C36.1137 34.1151 36.1708 34.0948 36.2721 34.1962C37.5142 35.4053 38.921 36.3799 40.4926 37.1201C40.6016 37.1708 40.6358 37.2519 40.5953 37.3634C40.286 38.2582 39.7702 38.9756 39.0478 39.5155C38.9616 39.5814 38.9185 39.6676 38.9185 39.7741V41.9451C38.9185 42.0252 38.8965 42.1036 38.8549 42.172C38.8133 42.2404 38.7538 42.2961 38.6828 42.333L38.2683 42.5497C38.2095 42.5798 38.1614 42.6274 38.1308 42.686C38.1001 42.7445 38.0884 42.8112 38.0972 42.8767C38.2075 43.7474 38.4242 44.7018 37.4508 44.9793C37.2911 45.0249 37.2519 45.12 37.333 45.2645Z" fill="#F6F5F6"/>
<path d="M16.6296 35.5754C16.6803 36.128 16.6778 36.5957 16.622 36.9785C15.968 41.5373 15.0973 44.5487 11.0746 47.2217C10.9377 47.3155 10.8642 47.2787 10.854 47.1114C10.6639 43.8111 11.2533 40.6666 14.1696 38.659C15.252 37.9138 16.0251 36.8809 16.489 35.5602C16.5625 35.3448 16.6094 35.3498 16.6296 35.5754Z" fill="#F6F5F6"/>
<path d="M50.6674 35.952C54.9829 36.279 57.5 39.8455 57.2338 44.0698C57.2287 44.1737 57.1768 44.2105 57.0779 44.18C55.1426 43.5945 52.9791 42.6173 51.8613 40.8417C51.0856 39.606 50.9221 37.663 50.5533 36.0851C50.5305 35.9888 50.5685 35.9444 50.6674 35.952Z" fill="#F6F5F6"/>
<path d="M54.5683 45.8373C56.6557 47.3924 56.9979 50.0616 56.7736 52.6015C56.766 52.6978 56.7229 52.7181 56.6443 52.6623C51.5113 48.9665 45.6483 43.1909 49.6292 36.5598C49.7382 36.3799 49.8117 36.3938 49.8497 36.6017C50.5569 40.4723 51.4048 43.4761 54.5683 45.8373Z" fill="#F6F5F6"/>
<path d="M41.7283 41.8137C42.1896 43.3955 41.9577 44.8771 41.0325 46.2586C40.9589 46.3676 40.8778 46.3739 40.7891 46.2776L39.9944 45.4031C39.9805 45.3875 39.9614 45.3774 39.9406 45.3747C39.9198 45.3721 39.8988 45.3769 39.8813 45.3884C39.8638 45.3999 39.851 45.4173 39.8453 45.4374C39.8395 45.4576 39.8412 45.4791 39.85 45.4981C40.8132 47.5564 41.035 49.7097 40.5154 51.9581C40.4849 52.095 40.4292 52.1051 40.3481 51.9885C39.1009 50.1787 39.2416 47.8745 38.4203 45.8137C38.3747 45.6946 38.3861 45.5805 38.4545 45.4715C39.0477 44.5361 39.4013 43.526 39.5154 42.4411C39.6941 40.7415 40.4621 37.483 42.6256 37.5895C42.7549 37.5945 42.8639 37.6427 42.9526 37.7339C44.1693 38.9659 43.4887 40.6693 42.5191 41.7985C42.4431 41.8873 42.3531 41.905 42.2492 41.8518L41.8994 41.6731C41.7321 41.5869 41.675 41.6338 41.7283 41.8137Z" fill="#F6F5F6"/>
<path d="M44.4546 39.6017C44.4589 39.5841 44.4691 39.5685 44.4836 39.5574C44.4981 39.5464 44.5158 39.5406 44.534 39.541C44.5522 39.5415 44.5697 39.5481 44.5836 39.5598C44.5975 39.5716 44.607 39.5877 44.6104 39.6056C44.8436 40.8856 44.5927 42.0453 43.8576 43.0846C43.7765 43.2012 43.7423 43.3292 43.7549 43.4686C43.94 45.2785 43.395 46.7943 42.12 48.0161C42.0186 48.1124 41.9742 48.2316 41.9869 48.3735C42.0782 49.499 41.9463 50.6003 41.5915 51.6776C41.581 51.7078 41.5595 51.7328 41.5312 51.7477C41.503 51.7625 41.4701 51.766 41.4394 51.7575C41.4039 51.7448 41.3684 51.7334 41.3329 51.7233C41.305 51.7131 41.2924 51.6929 41.2949 51.6624C41.4749 50.1542 41.4597 48.6447 41.2493 47.134C41.2341 47.025 41.2619 46.9274 41.3329 46.8412C42.319 45.6524 42.741 44.2671 42.5991 42.6854C42.5864 42.5561 42.6307 42.4496 42.7321 42.366C43.6041 41.6359 44.1783 40.7145 44.4546 39.6017Z" fill="#F6F5F6"/>
<path d="M22.9491 42.0283C28.4699 42.6519 29.2874 47.3704 30.2988 51.7696C30.3343 51.9293 30.2722 52.0295 30.1125 52.07L27.4167 52.724C27.295 52.7519 27.186 52.7265 27.0897 52.648C23.7792 49.9839 22.3369 46.4934 22.7627 42.1766C22.7729 42.0651 22.835 42.0156 22.9491 42.0283Z" fill="#F6F5F6"/>
<path d="M17.7704 52.0001C26.0631 56.9012 33.4432 49.1484 40.8462 52.9659C41.5331 53.3207 41.4913 53.4665 40.7207 53.4031C33.9071 52.829 22.7286 58.5818 17.6526 52.137C17.6382 52.1204 17.6302 52.0992 17.6301 52.0773C17.6301 52.0553 17.6379 52.0341 17.6522 52.0175C17.6666 52.0009 17.6864 51.99 17.7081 51.9868C17.7298 51.9836 17.7519 51.9883 17.7704 52.0001Z" fill="#F6F5F6"/>
</svg>
