<svg width="64" height="64" viewBox="0 0 64 64" fill="none" xmlns="http://www.w3.org/2000/svg">
<path d="M34.67 49.5461C34.471 49.6132 34.2741 49.6878 34.0791 49.7701C31.6009 50.8206 28.5222 50.9931 25.8935 50.6074C25.186 50.5036 24.7447 50.4229 24.5696 50.3654C22.5808 49.7138 22.7921 47.1264 24.1136 45.9765C25.2799 44.9619 26.4355 45.3811 27.6818 45.4614C29.6156 45.5852 31.4341 45.1979 33.1372 44.2995C33.1545 44.2902 33.1691 44.2769 33.18 44.2606C33.1908 44.2443 33.1975 44.2255 33.1993 44.206C33.5558 40.8496 33.2518 37.5587 32.2873 34.3332C32.2788 34.3062 32.2613 34.2831 32.2377 34.2677C32.2141 34.2524 32.1861 34.2459 32.1583 34.2494C29.844 34.5377 27.5254 34.7804 25.2023 34.9777C24.6651 35.0232 24.2847 35.016 24.0611 34.9561C22.7551 34.6076 22.5617 33.248 22.4555 32.128C22.1487 28.8902 22.1224 25.5337 22.9342 22.387C23.0186 22.0595 23.1725 21.7445 23.3962 21.4418C23.4073 21.4266 23.4147 21.4089 23.4179 21.3902C23.421 21.3715 23.4197 21.3522 23.4141 21.334L21.1818 14.1492C21.1733 14.1224 21.1557 14.0995 21.1319 14.0844C21.1081 14.0692 21.0797 14.063 21.0516 14.0666C20.2359 14.1776 19.4643 14.0997 18.737 13.833C15.6475 12.6998 14.1111 8.54085 15.5353 5.59171C16.3089 3.98897 17.7378 2.93485 19.5451 3.00313C24.4694 3.1888 26.7494 10.8719 22.4412 13.5072C22.3067 13.5902 22.1746 13.6773 22.0449 13.7683C22.0244 13.7826 22.009 13.8031 22.0008 13.827C21.9927 13.8509 21.9922 13.8769 21.9995 13.9013L24.1363 20.7962C24.1442 20.8217 24.1602 20.8439 24.1818 20.8592C24.2034 20.8746 24.2293 20.8824 24.2557 20.8812C24.352 20.8764 24.4471 20.8645 24.541 20.8453C26.0129 20.5434 27.4012 21.7808 27.0622 23.3129C26.5417 25.6655 26.3857 28.0441 26.5942 30.4486C26.5956 30.4644 26.6001 30.4799 26.6074 30.494C26.6148 30.5081 26.6249 30.5206 26.6371 30.5307C26.6493 30.5409 26.6634 30.5485 26.6786 30.5531C26.6938 30.5577 26.7098 30.5592 26.7256 30.5576L31.3263 30.07C31.349 30.0675 31.3706 30.0585 31.3883 30.0441C31.4061 30.0296 31.4194 30.0104 31.4266 29.9886C32.3517 27.2407 35.5068 25.85 37.8812 27.8983C37.8997 27.9144 37.9228 27.9243 37.9472 27.9267C37.9715 27.929 37.996 27.9237 38.0173 27.9115C40.4342 26.5363 42.9073 24.9268 45.4365 23.0829C45.9343 22.7188 46.6004 22.6565 47.1603 22.9404C48.3027 23.5201 48.6751 25.1995 48.046 26.2045C47.8471 26.5224 47.329 26.9804 46.4918 27.5785C44.3955 29.0774 42.2261 30.4633 39.9834 31.7363C39.9596 31.7503 39.9412 31.7719 39.9312 31.7975C39.9212 31.8232 39.9203 31.8515 39.9285 31.8776C41.2472 36.0182 41.6726 40.2347 41.2046 44.5271C41.2006 44.5566 41.1298 45.2685 40.9921 46.6628C40.3165 53.517 36.1085 58.6223 29.5751 60.6383C28.6376 60.9274 27.9352 61.0432 27.4681 60.9857C24.9922 60.6814 24.2819 56.7489 26.8951 55.8708C28.4183 55.3581 29.7159 54.9664 31.1771 54.0141C32.8237 52.9408 34.0373 51.505 34.818 49.7066C34.8897 49.5421 34.8403 49.4886 34.67 49.5461ZM21.2897 13.1804C22.299 12.865 23.1159 12.0757 23.5606 10.9861C24.0053 9.89658 24.0415 8.59604 23.6611 7.37062C23.2808 6.14521 22.515 5.09529 21.5324 4.45185C20.5497 3.8084 19.4306 3.62414 18.4213 3.93958C17.412 4.25503 16.5951 5.04435 16.1504 6.13391C15.7057 7.22346 15.6695 8.524 16.0499 9.74942C16.4302 10.9748 17.196 12.0247 18.1786 12.6682C19.1613 13.3116 20.2804 13.4959 21.2897 13.1804Z" fill="#2C1919"/>
<path d="M41.7704 10.5784C41.7573 10.5749 41.6594 10.5665 41.6331 10.5569C41.6181 10.5516 41.6051 10.5419 41.5959 10.529C41.5867 10.5161 41.5817 10.5008 41.5818 10.485V9.02602C41.5817 9.00071 41.5898 8.97601 41.6048 8.95553C41.6199 8.93506 41.6411 8.91988 41.6654 8.91222L45.6943 7.65566C45.7122 7.65 45.7312 7.64867 45.7498 7.65178C45.7683 7.65489 45.7859 7.66236 45.801 7.67357C45.8161 7.68478 45.8284 7.69942 45.8368 7.71629C45.8453 7.73316 45.8496 7.75178 45.8495 7.77065V11.4397C45.8496 11.4577 45.8456 11.4755 45.8379 11.4918C45.8301 11.508 45.8189 11.5224 45.8049 11.5336C45.7909 11.5449 45.7745 11.5529 45.757 11.557C45.7395 11.561 45.7214 11.5611 45.7038 11.5571C44.3788 11.2544 43.0676 10.9282 41.7704 10.5784Z" fill="#2C1919"/>
<path d="M35.3407 26.1099C37.8856 26.1099 39.9486 24.0398 39.9486 21.4861C39.9486 18.9325 37.8856 16.8624 35.3407 16.8624C32.7959 16.8624 30.7329 18.9325 30.7329 21.4861C30.7329 24.0398 32.7959 26.1099 35.3407 26.1099Z" fill="#2C1919"/>
</svg>
