<svg width="64" height="64" viewBox="0 0 64 64" fill="none" xmlns="http://www.w3.org/2000/svg">
<path d="M42.816 19.0764C45.2922 19.0764 47.2996 17.0446 47.2996 14.5382C47.2996 12.0318 45.2922 10 42.816 10C40.3398 10 38.3324 12.0318 38.3324 14.5382C38.3324 17.0446 40.3398 19.0764 42.816 19.0764Z" fill="#2C1919"/>
<path d="M16.487 16.467L14.6609 16.5962C14.6349 16.598 14.6153 16.6209 14.6171 16.6472L15.3371 27.0694C15.339 27.0957 15.3615 27.1156 15.3875 27.1137L17.2136 26.9845C17.2396 26.9826 17.2592 26.9598 17.2574 26.9335L16.5373 16.5113C16.5355 16.485 16.513 16.4651 16.487 16.467Z" fill="#2C1919"/>
<path d="M30.5974 49.6501C30.8208 48.3481 31.1271 47.0908 31.5163 45.8783C33.1371 40.8291 36.5501 36.7716 41.4369 34.7405C41.7456 34.6124 42.0543 34.4853 42.363 34.3591C42.3811 34.3517 42.3963 34.3386 42.4065 34.3217C42.4166 34.3048 42.4211 34.285 42.4193 34.2654C42.3243 33.1515 42.2183 32.2438 42.1015 31.5422C41.9175 30.4431 41.7323 29.3448 41.5458 28.2475C41.5421 28.2237 41.5291 28.2025 41.5097 28.1883C41.4903 28.1742 41.466 28.1684 41.4423 28.1721C39.7638 28.4417 38.0771 28.6442 36.3822 28.7796C34.7109 28.9138 33.0375 28.957 31.362 28.9092C30.4485 28.8835 29.7772 28.5033 29.3481 27.7687C28.6653 26.6015 29.0248 24.791 30.4113 24.3333C30.6686 24.2488 31.112 24.2123 31.7415 24.2239C32.8359 24.2436 33.5868 24.246 33.9942 24.2313C36.3362 24.1492 38.6627 23.9084 40.9738 23.5089C40.9947 23.5053 41.0136 23.4944 41.0274 23.4781C41.0411 23.4618 41.0488 23.4412 41.0492 23.4198C41.14 18.5204 48.283 18.2576 49.5206 22.5246C49.6065 22.8224 49.6749 23.3708 49.7258 24.1697C49.9464 27.6235 50.9098 30.9743 51.115 34.4152C51.1616 35.2019 51.1407 35.8118 51.0523 36.245C50.6129 38.4029 48.7088 39.5259 46.5306 39.3522C46.329 39.3363 46.1447 39.3486 45.9777 39.389C40.7486 40.6564 37.3228 44.349 36.3994 49.6703C36.2968 50.264 36.2187 50.9459 35.9872 51.4541C35.6016 52.3009 34.9448 52.8713 34.0169 53.1654C32.5914 53.6166 30.7881 53.1158 30.4912 51.4514C30.4904 51.4465 30.4889 51.4416 30.487 51.4372C30.485 51.4328 30.4826 51.429 30.4799 51.4259C30.4772 51.4229 30.4742 51.4208 30.4713 51.4198C30.4684 51.4188 30.4656 51.4189 30.4631 51.4201C30.4546 51.4244 30.4507 51.4385 30.4513 51.4624C30.4622 52.0151 30.4585 52.5674 30.4404 53.1194C30.4397 53.1433 30.4298 53.166 30.4128 53.1826C30.3959 53.1993 30.3732 53.2086 30.3496 53.2086H12.5187C12.4946 53.2086 12.4716 53.1989 12.4545 53.1817C12.4375 53.1644 12.4279 53.141 12.4279 53.1167C12.4328 47.6251 12.43 42.155 12.4198 36.7063C12.4179 35.7395 12.4231 34.7708 12.4352 33.8003C12.4354 33.7882 12.4333 33.7762 12.4289 33.7649C12.4245 33.7537 12.4179 33.7434 12.4095 33.7348C12.4011 33.7262 12.3911 33.7193 12.3801 33.7146C12.3691 33.7099 12.3573 33.7075 12.3453 33.7075L10.0899 33.7001C10.066 33.6999 10.0431 33.6901 10.0263 33.6729C10.0094 33.6557 10 33.6325 10 33.6082L10.0018 29.7952C10.0018 29.7708 10.0114 29.7474 10.0284 29.7302C10.0454 29.7129 10.0685 29.7033 10.0926 29.7033L18.7157 29.7051C18.7385 29.7052 18.7606 29.6964 18.7774 29.6805C18.7943 29.6647 18.8046 29.6429 18.8065 29.6196C18.8174 29.4763 18.8352 29.3286 18.86 29.1766C18.9309 28.7438 19.2496 28.7364 19.5946 28.6776C19.616 28.6739 19.6354 28.6627 19.6493 28.6461C19.6633 28.6294 19.6709 28.6084 19.6709 28.5866V28.4157C19.6709 28.4035 19.6732 28.3915 19.6778 28.3803C19.6824 28.3691 19.6891 28.3589 19.6975 28.3504C19.706 28.3418 19.716 28.3351 19.727 28.3305C19.738 28.3259 19.7498 28.3237 19.7617 28.3238L24.2698 28.3265C24.2818 28.3265 24.2936 28.3289 24.3047 28.3336C24.3158 28.3383 24.3258 28.3451 24.3343 28.3538C24.3427 28.3624 24.3494 28.3726 24.3539 28.3839C24.3584 28.3952 24.3607 28.4072 24.3606 28.4194L24.3551 28.8752C24.3549 28.8967 24.362 28.9175 24.3753 28.9342C24.3886 28.9508 24.4071 28.9621 24.4277 28.9662C24.5089 28.9827 24.5764 28.9509 24.6302 28.8706C24.6414 28.8539 24.6469 28.8339 24.6457 28.8136C24.6269 28.4846 24.7734 28.2983 25.0851 28.2548C25.0984 28.2536 25.1105 28.2493 25.1214 28.242L25.2894 28.1345C25.3081 28.1226 25.3307 28.118 25.353 28.1216C25.7824 28.1914 26.2646 28.0582 26.2301 27.5316C26.2286 27.5116 26.2336 27.4916 26.2445 27.4748C26.2553 27.4581 26.2713 27.4454 26.29 27.4387C27.3315 27.0638 28.6925 27.209 29.4552 28.0949C29.7058 28.386 29.812 28.647 29.7739 28.878C29.7702 28.8997 29.7589 28.9194 29.7421 28.9334C29.7252 28.9474 29.704 28.9548 29.6822 28.9542C28.2803 28.9313 26.8911 28.8853 25.5328 28.9423C25.3687 28.949 25.2047 28.9423 25.0406 28.9221C25.0276 28.9205 25.015 28.916 25.0038 28.909C24.9927 28.902 24.9831 28.8926 24.9759 28.8815C24.9686 28.8704 24.9638 28.8579 24.9618 28.8447C24.9599 28.8316 24.9607 28.8181 24.9644 28.8054L25.0297 28.5765C25.0818 28.3952 25.034 28.3624 24.8863 28.4782C24.8033 28.5437 24.7692 28.647 24.7837 28.7879C24.797 28.9245 24.7144 29.0333 24.5358 29.1142C24.4078 29.1721 24.08 29.1086 23.9429 29.1077C22.5488 29.1065 21.1551 29.1062 19.7617 29.1068C19.7376 29.1068 19.7145 29.0971 19.6974 29.0799C19.6804 29.0626 19.6709 29.0393 19.6709 29.0149V28.9303C19.6708 28.9079 19.6628 28.8863 19.6482 28.8695C19.6337 28.8528 19.6136 28.8421 19.5919 28.8394C19.0099 28.764 18.9744 29.1803 18.9545 29.6215C18.9537 29.6346 18.9558 29.6477 18.9607 29.66C18.9655 29.6722 18.9729 29.6833 18.9824 29.6923C18.9919 29.7014 19.0032 29.7083 19.0157 29.7126C19.0281 29.7169 19.0413 29.7184 19.0543 29.717C19.6836 29.6545 20.4699 29.706 20.9139 29.7042C25.5464 29.6901 30.1792 29.6919 34.8123 29.7097C34.8361 29.7097 34.859 29.7194 34.8758 29.7366C34.8927 29.7538 34.9022 29.7772 34.9022 29.8016V33.6082C34.9022 33.6326 34.8926 33.656 34.8756 33.6732C34.8585 33.6905 34.8354 33.7001 34.8114 33.7001L30.5439 33.7057C30.5198 33.7057 30.4967 33.7153 30.4797 33.7326C30.4626 33.7498 30.4531 33.7732 30.4531 33.7976V49.6372C30.4531 50.2064 30.5012 50.2107 30.5974 49.6501Z" fill="#2C1919"/>
<path d="M46.7313 41.5579C46.7312 41.5445 46.7282 41.5312 46.7226 41.5191C46.7169 41.5069 46.7087 41.4962 46.6985 41.4876C46.6882 41.479 46.6763 41.4728 46.6634 41.4694C46.6506 41.466 46.6372 41.4655 46.6241 41.4679C45.0358 41.7669 43.5116 42.2454 42.0515 42.9034C41.6339 43.0918 41.3415 43.2729 41.0146 43.0054C40.6342 42.6948 40.8003 42.227 41.1899 42.0349C44.1263 40.5801 47.6828 39.6712 50.9506 40.536C51.3762 40.6487 51.6722 40.6971 51.8386 40.6812C53.2169 40.5498 52.7784 38.1805 52.6794 37.2918C52.4987 35.6807 52.2517 34.0182 52.1537 32.4402C52.0586 30.9256 52.0266 29.1693 52.0574 27.1713C52.1004 24.3817 52.1398 22.5764 52.1755 21.7554C52.1982 21.2343 52.9227 21.0174 53.2115 21.4641C53.3913 21.7426 53.315 22.5917 53.3068 22.8518C53.2178 25.6102 53.1806 27.9939 53.1951 30.0029C53.2151 32.7067 53.64 35.5722 53.9633 38.3257C54.163 40.0222 53.5747 41.9816 51.5317 41.8474C51.3671 41.8364 51.013 41.7598 50.4694 41.6177C50.0051 41.4964 49.533 41.4124 49.0529 41.3659C49.0402 41.3647 49.0274 41.3662 49.0153 41.3703C49.0032 41.3744 48.9921 41.381 48.9827 41.3897C48.9733 41.3983 48.9658 41.4088 48.9607 41.4206C48.9556 41.4323 48.953 41.445 48.9531 41.4578L48.9522 50.4965C48.9522 50.5087 48.9545 50.5207 48.9591 50.5319C48.9637 50.5431 48.9704 50.5533 48.9788 50.5618C48.9873 50.5704 48.9973 50.5771 49.0083 50.5817C49.0193 50.5862 49.0311 50.5885 49.043 50.5884C49.7245 50.5878 50.4055 50.589 51.0859 50.5921C52.1101 50.5967 52.427 51.9706 51.4527 52.3144C51.3298 52.3573 51.1243 52.379 50.8362 52.3796C48.7969 52.3821 46.7576 52.3824 44.7183 52.3805C44.3926 52.3805 44.1626 52.3557 44.0282 52.3061C43.0866 51.9569 43.3917 50.6031 44.3732 50.5939C45.1365 50.5878 45.8959 50.5866 46.6513 50.5903C46.6632 50.5904 46.675 50.5881 46.686 50.5835C46.697 50.579 46.707 50.5722 46.7155 50.5637C46.7239 50.5551 46.7306 50.5449 46.7352 50.5337C46.7398 50.5225 46.7421 50.5105 46.7421 50.4983L46.7313 41.5579Z" fill="#2C1919"/>
<path d="M16.9269 29.491C16.1152 29.5121 14.5135 29.7777 14.5462 28.446C14.5729 27.334 14.5738 26.2195 14.5489 25.1026C14.5487 25.0903 14.5509 25.078 14.5554 25.0666C14.5599 25.0552 14.5667 25.0448 14.5752 25.0361C14.5838 25.0273 14.594 25.0204 14.6052 25.0157C14.6164 25.011 14.6285 25.0087 14.6406 25.0088L15.0411 25.0125C15.0649 25.0125 15.0878 25.0222 15.1046 25.0394C15.1215 25.0567 15.131 25.08 15.131 25.1044C15.1316 25.8997 15.1313 26.6943 15.13 27.4884C15.13 27.7797 15.0819 28.2797 15.1355 28.6859C15.1372 28.6991 15.1418 28.7118 15.1488 28.7231C15.1559 28.7344 15.1653 28.7439 15.1764 28.7512C15.344 28.8614 15.5202 28.9172 15.7048 28.9184C16.2272 28.9215 16.6349 28.9291 16.9278 28.9414C16.9513 28.9423 16.9734 28.9523 16.9897 28.9693C17.0059 28.9863 17.015 29.0089 17.015 29.0324V29.3991C17.015 29.423 17.0058 29.4459 16.9894 29.4631C16.9729 29.4803 16.9505 29.4903 16.9269 29.491Z" fill="#2C1919"/>
</svg>
