<svg width="64" height="64" viewBox="0 0 64 64" fill="none" xmlns="http://www.w3.org/2000/svg">
<path d="M14.4417 15.3074C16.4496 15.3074 18.0774 13.6716 18.0774 11.6537C18.0774 9.63582 16.4496 8 14.4417 8C12.4337 8 10.8059 9.63582 10.8059 11.6537C10.8059 13.6716 12.4337 15.3074 14.4417 15.3074Z" fill="#2C1919"/>
<path d="M18.0724 39.043C18.0129 39.5777 17.8963 40.1048 17.7224 40.6242C16.8529 43.2108 15.5461 45.6051 14.3435 48.0432C13.6045 49.5418 13.083 50.8513 12.7789 51.9719C11.9035 55.1952 7.3427 53.874 8.08036 50.7613C8.28196 49.9111 8.67293 48.8071 9.25327 47.4494C10.5362 44.4473 12.0036 41.4642 12.777 38.2788C12.7815 38.2606 12.7805 38.2412 12.774 38.223C12.3962 37.111 12.2178 35.9214 11.491 34.9618C11.148 34.5088 10.947 33.9113 10.8882 33.1694C10.8148 32.2481 10.7851 31.3261 10.799 30.4034C10.8459 27.3333 10.761 23.8626 10.5442 19.9913C10.4103 17.607 13.3947 16.0009 15.4073 16.6515C17.4418 17.3081 18.0139 19.2062 18.0883 21.1422C18.0891 21.1597 18.0945 21.1768 18.1039 21.1916C18.1133 21.2064 18.1264 21.2186 18.1418 21.2268C20.2695 22.3488 23.1567 23.4348 25.565 23.2315C27.7541 23.0462 29.1095 25.4913 27.9098 27.3137C27.8999 27.3287 27.8942 27.3461 27.8934 27.364C27.8925 27.3819 27.8965 27.3996 27.9048 27.4153L38.0764 46.7559C38.087 46.7761 38.1044 46.7921 38.1255 46.8009C38.1467 46.8098 38.1703 46.8112 38.1924 46.8047C39.0345 46.551 39.8805 46.5473 40.7305 46.7938C40.7536 46.8008 40.7783 46.799 40.7999 46.7888L55.5818 39.8989C55.5951 39.8927 55.6095 39.8896 55.6242 39.8897C55.6388 39.8898 55.6532 39.8932 55.6664 39.8996C55.6795 39.906 55.6911 39.9152 55.7004 39.9266C55.7096 39.938 55.7161 39.9514 55.7196 39.9656L55.9972 41.1184C56.0026 41.1409 56.0001 41.1645 55.9902 41.1853C55.9802 41.206 55.9634 41.2225 55.9427 41.232L42.3774 47.5968C42.363 47.6037 42.3505 47.6139 42.3409 47.6266C42.3313 47.6393 42.3248 47.6541 42.3221 47.6698C42.3194 47.6855 42.3205 47.7017 42.3253 47.7169C42.33 47.7321 42.3384 47.746 42.3496 47.7573C43.2915 48.7058 43.7185 49.8095 43.6306 51.0682C43.464 53.4744 41.3016 55.3387 38.8576 54.9481C35.2755 54.3752 34.1303 50.0121 36.7686 47.5939C36.7848 47.5793 36.7957 47.5598 36.7996 47.5383C36.8036 47.5169 36.8004 47.4947 36.7904 47.4753L26.9481 27.9982C26.9385 27.9794 26.9234 27.964 26.9049 27.9544C26.8863 27.9447 26.8654 27.9412 26.845 27.9444C25.9576 28.0829 25.094 28.1965 24.1858 28.062C23.59 27.9743 22.9495 27.9115 22.4002 27.8069C21.0458 27.5485 19.7196 27.1842 18.4214 26.7139C18.4063 26.7084 18.3901 26.7067 18.3741 26.7089C18.3582 26.7111 18.343 26.7172 18.3299 26.7266C18.3169 26.736 18.3063 26.7485 18.2991 26.7629C18.2918 26.7774 18.2882 26.7934 18.2886 26.8095C18.3302 28.6442 18.3434 30.2128 18.3282 31.5154C18.3229 31.9412 18.3365 32.2982 18.3689 32.5865C18.3704 32.5998 18.3746 32.6126 18.381 32.6242C18.3875 32.6358 18.3962 32.646 18.4065 32.6542C24.0619 37.1409 27.4279 43.706 28.1854 50.9217C28.5017 53.9338 24.5041 54.1978 23.5473 51.8812C23.464 51.6786 23.3758 51.219 23.2826 50.5023C23.0023 48.3481 22.4002 46.1996 21.4761 44.0567C20.6704 42.1895 19.593 40.4997 18.2439 38.9872C18.1455 38.8763 18.0883 38.8949 18.0724 39.043ZM40.8802 50.8042C40.8802 50.431 40.7328 50.0732 40.4702 49.8094C40.2077 49.5455 39.8516 49.3973 39.4803 49.3973C39.109 49.3973 38.7529 49.5455 38.4904 49.8094C38.2278 50.0732 38.0803 50.431 38.0803 50.8042C38.0803 51.1773 38.2278 51.5351 38.4904 51.799C38.7529 52.0628 39.109 52.211 39.4803 52.211C39.8516 52.211 40.2077 52.0628 40.4702 51.799C40.7328 51.5351 40.8802 51.1773 40.8802 50.8042Z" fill="#2C1919"/>
<path d="M46.567 21.2097L41.7236 23.5627C41.689 23.5795 41.6746 23.6212 41.6913 23.6559L49.8263 40.5671C49.843 40.6018 49.8845 40.6163 49.919 40.5996L54.7624 38.2466C54.797 38.2298 54.8114 38.1881 54.7947 38.1534L46.6597 21.2422C46.643 21.2075 46.6015 21.193 46.567 21.2097Z" fill="#2C1919"/>
<path d="M40.764 24.4477L30.9443 29.2394C30.9148 29.2539 30.9024 29.2896 30.9168 29.3193L34.7123 37.1745C34.7266 37.2042 34.7622 37.2165 34.7918 37.2021L44.6115 32.4104C44.641 32.396 44.6533 32.3602 44.639 32.3305L40.8435 24.4754C40.8291 24.4457 40.7936 24.4333 40.764 24.4477Z" fill="#2C1919"/>
<path d="M45.1569 33.5088L35.2891 38.3241C35.2729 38.332 35.2661 38.3517 35.274 38.368L39.092 46.2697C39.0999 46.2861 39.1194 46.2929 39.1357 46.285L49.0035 41.4697C49.0198 41.4618 49.0266 41.4421 49.0187 41.4258L45.2007 33.524C45.1928 33.5077 45.1732 33.5009 45.1569 33.5088Z" fill="#2C1919"/>
</svg>
