<svg width="64" height="64" viewBox="0 0 64 64" fill="none" xmlns="http://www.w3.org/2000/svg">
<path d="M32.4805 20.8999C34.8323 20.8999 36.7389 18.9076 36.7389 16.4499C36.7389 13.9923 34.8323 12 32.4805 12C30.1287 12 28.2222 13.9923 28.2222 16.4499C28.2222 18.9076 30.1287 20.8999 32.4805 20.8999Z" fill="#2C1919"/>
<path d="M50.7101 19.0429C50.9906 19.0453 51.2714 19.0494 51.5524 19.0553C52.0206 19.0659 52.4007 19.1739 52.7097 19.5481C53.2566 20.2107 52.9967 21.3325 52.2153 21.6474C52.0578 21.7105 51.8095 21.7424 51.4703 21.743C51.2141 21.7435 50.9581 21.7518 50.7025 21.7677C50.6809 21.7691 50.6606 21.779 50.6459 21.7954C50.6311 21.8119 50.6228 21.8336 50.6229 21.8562C50.6206 23.0871 50.6201 24.3183 50.6212 25.5497C50.622 26.1177 50.2165 26.2725 49.7238 26.2937C48.9133 26.3285 48.3442 26.3247 48.0162 26.2822C47.5963 26.2274 47.3858 25.952 47.3847 25.4559C47.3819 24.2563 47.3807 23.0564 47.3813 21.8562C47.3813 21.8327 47.3724 21.8102 47.3565 21.7936C47.3406 21.777 47.3191 21.7677 47.2966 21.7677H44.8051C44.7841 21.7678 44.7639 21.776 44.7483 21.7907C44.7327 21.8053 44.7228 21.8255 44.7205 21.8473C44.4902 24.1457 44.2554 26.4433 44.0161 28.7399C43.9137 29.7245 43.6402 30.4703 42.7268 30.7897C41.9045 31.0769 41.1993 30.8708 40.6112 30.1713C39.7781 29.1816 38.9358 28.179 38.0841 27.1634C37.9819 27.0413 37.9326 27.0613 37.9359 27.2235C37.9523 27.9944 37.9506 28.7947 37.9309 29.6246C37.9083 30.5452 37.9091 32.1931 37.9334 34.5681C37.9334 34.5854 37.9384 34.6023 37.9478 34.6166C37.9572 34.631 37.9704 34.6421 37.9859 34.6486C40.2717 35.6212 42.5558 36.5926 44.8382 37.5628C45.959 38.0396 46.3011 38.8739 46.4848 40.108C46.9069 42.9513 47.3212 45.7959 47.7276 48.6416C47.8554 49.5413 47.8266 50.2933 47.3246 50.9648C46.0725 52.6395 43.6631 52.2068 43.0028 50.211C42.9446 50.0341 42.8806 49.702 42.8106 49.2149C42.4595 46.7678 42.1034 44.3214 41.7422 41.8756C41.7398 41.8604 41.7338 41.8462 41.7248 41.8343C41.7157 41.8223 41.704 41.8131 41.6906 41.8075C39.6424 40.9293 37.5953 40.0587 35.5494 39.1959C35.4083 39.1363 35.2616 39.1065 35.1092 39.1065C33.2834 39.1077 31.47 39.108 29.669 39.1074C29.6577 39.1074 29.647 39.1095 29.6369 39.1136L23.3078 41.8066C23.2942 41.8122 23.2822 41.8216 23.2731 41.8337C23.2641 41.8458 23.2582 41.8603 23.2561 41.8756C22.9254 44.1881 22.5873 46.5069 22.2419 48.8318C22.1285 49.5991 22.052 50.0476 22.0125 50.1774C21.1744 52.9464 17.2877 52.3917 17.198 49.4971C17.1923 49.3272 17.251 48.8153 17.3741 47.9613C17.7488 45.3597 18.1289 42.7585 18.5144 40.1575C18.6914 38.9632 19.0148 38.0582 20.0798 37.6026C22.3751 36.6218 24.6716 35.6454 26.9693 34.6734C26.985 34.6669 26.9985 34.6555 27.008 34.6408C27.0175 34.6262 27.0226 34.6089 27.0226 34.5911V27.258C27.0226 27.136 26.9834 27.1203 26.9049 27.2112C26.0454 28.2043 25.2016 29.2043 24.3736 30.2111C23.3924 31.4028 21.502 30.9843 21.0906 29.4609C21.059 29.3435 21.0104 28.9646 20.945 28.3241C20.7237 26.1649 20.5042 24.006 20.2863 21.8473C20.284 21.8254 20.2742 21.8051 20.2587 21.7904C20.2432 21.7757 20.2232 21.7676 20.2025 21.7677H17.6966C17.6741 21.7677 17.6525 21.7769 17.6364 21.7933C17.6204 21.8097 17.6113 21.832 17.6111 21.8553C17.6032 23.0113 17.6007 24.1637 17.6035 25.3126C17.6052 25.7912 17.5027 26.2115 17.0117 26.2778C16.6675 26.3244 16.1028 26.3303 15.3177 26.2955C14.7022 26.2681 14.3797 26.1097 14.3738 25.4232C14.3636 24.2507 14.3619 23.0597 14.3687 21.85C14.3689 21.8268 14.3606 21.8045 14.3454 21.7878C14.3302 21.7711 14.3093 21.7613 14.2874 21.7606C14.0097 21.7512 13.7292 21.7453 13.4459 21.743C12.9464 21.7385 12.568 21.6456 12.281 21.2493C11.6943 20.4398 12.0685 19.3384 13.0116 19.0916C13.1933 19.0438 13.6195 19.0276 14.29 19.0429C14.3014 19.0432 14.3127 19.041 14.3233 19.0365C14.3339 19.0321 14.3435 19.0255 14.3515 19.017C14.3596 19.0086 14.3659 18.9986 14.3702 18.9875C14.3745 18.9764 14.3765 18.9646 14.3763 18.9527C14.3413 16.8194 14.3439 15.5537 14.3839 15.1556C14.4184 14.8165 14.615 14.6136 14.974 14.547C15.2195 14.5016 15.8378 14.4989 16.8289 14.539C17.2538 14.5558 17.6052 14.7805 17.6052 15.2423C17.6035 16.4815 17.6041 17.7203 17.6069 18.9589C17.6069 18.9823 17.6158 19.0048 17.6317 19.0214C17.6475 19.038 17.6691 19.0473 17.6915 19.0473H19.9197C19.9421 19.0473 19.9635 19.0381 19.9793 19.0217C19.9952 19.0053 20.0042 18.9831 20.0044 18.9598C20.0112 18.0261 20.4034 17.3847 21.1812 17.0356C22.4874 16.4482 23.7649 17.5381 23.8022 18.9474C23.8029 18.9691 23.8113 18.9899 23.8256 19.0057C23.84 19.0215 23.8593 19.0313 23.8801 19.0332C24.0088 19.0444 24.1338 19.0509 24.2551 19.0527C25.1875 19.068 26.1199 19.0633 27.0522 19.0385C27.0686 19.0379 27.0848 19.0423 27.0988 19.0511C27.1127 19.0599 27.1239 19.0727 27.131 19.088C29.3211 23.8343 35.5867 23.8051 37.864 19.0978C37.8708 19.0832 37.8815 19.0709 37.8948 19.0623C37.9081 19.0537 37.9235 19.0492 37.9393 19.0491C38.5833 19.045 39.2267 19.0456 39.8695 19.0509C40.4684 19.0562 40.8843 19.0524 41.1174 19.0394C41.1385 19.0385 41.1584 19.0294 41.1734 19.0138C41.1883 18.9982 41.197 18.9773 41.1978 18.9553C41.2706 17.3833 42.7776 16.2925 44.1169 17.1948C44.7151 17.5982 45.0086 18.186 44.9973 18.958C44.9971 18.9696 44.9991 18.9812 45.0033 18.992C45.0074 19.0029 45.0136 19.0127 45.0215 19.0211C45.0294 19.0294 45.0388 19.036 45.0492 19.0405C45.0596 19.045 45.0707 19.0473 45.082 19.0473H47.2992C47.3216 19.0473 47.3432 19.0379 47.3591 19.0212C47.3749 19.0044 47.3838 18.9817 47.3838 18.958C47.3771 17.7855 47.3802 16.6142 47.3932 15.444C47.3982 14.9902 47.5328 14.6045 47.9892 14.5488C48.404 14.4974 49.0242 14.4936 49.8499 14.5373C50.3858 14.5656 50.6203 14.8345 50.6203 15.3742C50.6192 16.5673 50.6212 17.7607 50.6263 18.9545C50.6263 18.9778 50.6351 19.0001 50.6508 19.0167C50.6665 19.0333 50.6878 19.0427 50.7101 19.0429ZM24.3465 24.1139C24.3472 24.1196 24.3494 24.1251 24.3529 24.1296C24.3564 24.1341 24.3611 24.1374 24.3663 24.1392C24.3716 24.1409 24.3773 24.1411 24.3826 24.1396C24.388 24.1381 24.3928 24.135 24.3965 24.1307L26.3521 21.812C26.3556 21.8076 26.3579 21.8024 26.3587 21.7967C26.3594 21.7911 26.3587 21.7854 26.3565 21.7802C26.3542 21.775 26.3507 21.7706 26.3462 21.7675C26.3417 21.7643 26.3364 21.7626 26.3309 21.7624L24.1205 21.7863C24.1165 21.7864 24.1126 21.7874 24.1089 21.7891C24.1053 21.7909 24.1021 21.7935 24.0994 21.7967C24.0968 21.7998 24.0948 21.8035 24.0936 21.8075C24.0925 21.8115 24.0921 21.8158 24.0926 21.8199L24.3465 24.1139ZM38.6742 21.7606C38.6692 21.7605 38.6644 21.7619 38.6602 21.7647C38.656 21.7674 38.6526 21.7714 38.6505 21.7761C38.6485 21.7808 38.6478 21.786 38.6485 21.7911C38.6492 21.7963 38.6514 21.801 38.6547 21.8049L40.612 24.1334C40.6152 24.1374 40.6194 24.1404 40.6242 24.1419C40.629 24.1434 40.6341 24.1434 40.6389 24.1419C40.6437 24.1404 40.648 24.1374 40.6512 24.1334C40.6544 24.1293 40.6564 24.1244 40.6569 24.1192L40.9176 21.8173C40.9181 21.8135 40.9178 21.8097 40.9168 21.806C40.9157 21.8024 40.9139 21.799 40.9115 21.7962C40.9091 21.7933 40.9061 21.791 40.9028 21.7895C40.8995 21.7879 40.8959 21.7872 40.8922 21.7872L38.6742 21.7606Z" fill="#2C1919"/>
</svg>
