<svg width="64" height="64" viewBox="0 0 64 64" fill="none" xmlns="http://www.w3.org/2000/svg">
<path d="M31 17.2062C33.4853 17.2062 35.5 15.1453 35.5 12.6031C35.5 10.0609 33.4853 8 31 8C28.5147 8 26.5 10.0609 26.5 12.6031C26.5 15.1453 28.5147 17.2062 31 17.2062Z" fill="#2C1919"/>
<path d="M26.161 27.011C26.161 26.8272 26.1017 26.8072 25.9831 26.951C25.7733 27.2037 25.5624 27.4558 25.3506 27.7073C24.72 28.4539 24.1594 29.2266 23.5739 29.9965C22.9923 30.7605 22.4477 31.1967 21.4984 31.2334C19.5238 31.3089 18.3167 29.1909 19.4179 27.6038C21.3965 24.7556 23.6268 22.2701 26.2369 19.7624C26.6253 19.3897 26.9767 19.1144 27.2911 18.9364C29.0778 17.9248 31.648 17.8542 33.3627 19.1337C33.6099 19.3181 33.9266 19.6489 34.313 20.126C36.4934 22.8175 38.9146 25.1686 41.8175 27.1241C43.4044 28.1928 45.5668 28.8746 44.8633 31.3176C44.5146 32.5265 43.3444 33.3089 42.0553 32.7692C41.9827 32.7383 41.6626 32.5568 41.0951 32.2247C39.2837 31.1622 37.574 29.9604 35.9658 28.6193C35.4908 28.2234 35.0172 27.8243 34.5448 27.422C34.4349 27.3285 34.3796 27.3527 34.379 27.4945C34.3616 30.1535 34.4656 32.8202 34.6907 35.4946C34.7547 36.2634 34.9845 37.1193 35.2713 37.9491C36.6876 42.0452 38.1042 46.1413 39.5212 50.2374C39.7664 50.946 39.8919 51.4631 39.8979 51.7887C39.9289 53.4957 37.9773 54.6359 36.3565 54.0663C35.4961 53.7636 35.1114 53.1146 34.8027 52.2307C33.407 48.2345 32.018 44.2358 30.6357 40.2345C30.5664 40.0326 30.4335 39.9865 30.237 40.0962C30.2201 40.1049 30.2062 40.1188 30.197 40.1358C28.0566 44.1939 26.5647 48.2016 25.2147 52.5914C25.0135 53.2465 24.8269 53.6962 24.6551 53.9405C23.2881 55.8883 20.0884 54.9744 20.0225 52.6301C20.0145 52.369 20.0851 51.9924 20.2343 51.5005C21.7612 46.4666 23.5249 41.7809 26.0231 37.1387C26.3348 36.5594 26.3169 35.5874 26.2869 34.6657C26.2036 32.1093 26.1616 29.5577 26.161 27.011Z" fill="#2C1919"/>
</svg>
